<svg xmlns="http://www.w3.org/2000/svg" xml:space="preserve" viewBox="0 0 2301.8 830.8">
  <style>
    .bgf{fill:rgb(138, 138, 250)}
    .bga{fill:rgba(138, 138, 250, .5)}
    .txf{fill:rgb(255, 255, 255)}
    .txa{fill:rgba(255, 255, 255, .5)}
  </style>
  <path d="m1592 22-13 1h13zm-17 0h-4v2h4zm-92 3-16 2h-30v2h26l25-1zm92 6h-3v1zm359 4-4 1h-1l-6 1 36 2h8c2-1 5 1 6-3h-11zm-221 4h67v-1h-38zm90 3h21zm196 0h-5v2-2l-12 1h-15l-11-1-11 1 18 1-18-1h-2l-7 3h17c3 0 6-4 8 1h3l-1-1 1 1v-1l8-2-8 2v1h22l1-1-1 1h1l21-1 5-4-5 4h17l-4-2 2-1-2 1 4 2 103 5-5-3-13-1-29-2-54-3zm-166 0v1l4 1v-1zm169 1h2v1zm-21 1h-4l-1 2 1-2zm38 0h-1zm71 3 2 1v-1 1zm6 1h2zm136 1-12 1 2 3h40l-1-2q8 5 15 3v12l1 10h1l2-8-1-12q1-5-5-5l1 1-1-1-4-1zm-41 1q3 7 7 2h2l15-1v-1zm-49 0v3h46v-1h-17v-1l17-1zm140 29v3l-2 2 1 29 2 16 4-5-3-44zM31 90l-1 2v25h1l1-4v-11zm2256 42q-4 1-5 4-2 9 3 17l3-8zM26 146l-1 10v39h1l2-31v-18zm2258 26q-2 0-2 4v32l1 12h1l-3 13h-1l-2 3v11q-1 8 6 10l-2 6 2 3q-1 4 3 7l1-3v-37c1-5-3-10 2-14l-2-6v-20l-2-21zm0 65 2 1zl-1 3-1 5h-2 2l1-6zm3 31-1 1-1-1zm-7 5-1 10h1l3-5c2 3 0 11 6 6v-4l-1-5-6 1h-1 1zM23 287v27h1v-27Zm2260 3 1 10h-2l1 3 1 7-4-2v5l4-2-1 5v3l3-2v-1l1-3v-6c-1-4-4-8 0-12v-1l-3-4zm4 5c-4 4-1 8 0 12zM28 312v24h1v-24zm2258 5v1h1zm1 3v2h-1l-2-1h-3l3 3q-6 2-4 7v52l5-1v-15l1-6v-4l-1-8q4 1 3-3v-26zm0 2v2zm-5 7 1 1zm3 5h1zm0 9v1zM24 343l-3 48h1zm2261 49v3l2-2zm0 8q-8 1-4 6l4-2zm-4 8h1zm-1 3q-3 14-1 26l1-8q-1-4 3-3v-1zm3 20c0 3-3 7 1 9 0-3 3-7-1-9m-2 12 2 9-4-2v16l2 4 2-3 1-4v-19zm2 24-2 3-2 14 2 12c-1 2 4 5 0 7 5 5-1 8-1 12v9l4-2-1-2v-2l1-1 1-39c0-2-3-5 0-8zm1 62-1 5zM25 570l-2 5 3 5 1-1v-9zm1355 218-8 1v1h1l2-1v1h-3l-2 4 5 1q7 3 14 0l6 2q14 2 29-1 8 3 17 1c3-3 7-7 12-2-5-5-8 0-12 2h17l-5-1 5 1h3l-2-3h36v-2l-14-2-15 2-13-1h-61l5 1-5-1-1-2h-4q-3-2-7-1m211 1c-9 1-18-3-27 3l16 2 9 1zm63 0-10 1h-3l-14-1-4 2 2 4 7 1 36-1 15 2v-3l-1-3-16 1-3-1zm-301 1-26 1v1h26zm174 0-1 1 4 2v3h22l-5-3 1-3zm83 0-15 1-1 3 10 1 3-4-3 4h7l3-5zm-247 0v1zm402 1-26 1 9 5 4 1 9-1h1l5 1 6-2v-1 1l-6 2 9-1 3 1h4l5-2-5 2h11l4-3-9-2c-7-2-15 2-22-2zm-264 0 2 5h2l6-1 7-1v-3zm-208 1h25l3-1zm90 0 6 1zm445 1q-3 0-6 4l5 2 2 1 1 1 11-1-1-4-2-1-4-1zm-23 0-3 1-1 4q6 3 14 1 2-3-2-3l-5-2zm-438 1-6 1zm92 0 2 3 29-1 1-2zm-139 1h2zm538 0h-1l1 7 9-1 2-2-2 2 15 1h30v-1l-28-1 28 1 1-1c-2-2-10-4-12-3h-6l-5-1-7 1q-10-3-21 1zm55 5-1 1v1l23 1 22-1 18 2h5l7 1 5-4-18-3h-56l-2 2q7 0 13 2l4-2-4 2q-7-3-13-2zm-552-5c1 2 2 6 6 4zm380 2 3 1zm-552 0-2 2-1-1-47 1-9 1 2 2 12 2 47-2 3-1-3-2zm589 1 1 1 1-1zm17 0 2 1zM77 799l-1 3 18 1-7 3 3 2h21l-1-2-11-2v-3zm-21 1 3 6h1l7-2v-1h-4l4-3zm216 1-3 1-7-1-28 2-16 2 7 1-5 4 15 1q0-4 3-3l23 1 9-3-9 3h19l2-3-7-2v-1 1l8 2-3 3 12 1h24l1-1h-9v-3l-6-1v1-1l6 1h33l6 1-1-4h-13zm44 9 3 2h16v-2l-4-1h-14zm-96 0-6-3-1 1zm234-9-14 2v1h14zm10 0q-3 0-1 5h3l3-2 4-2zm-36 0-30 1-20 1v1l3 1h1l9-1 15 1h27l-3-3zm1680 1-12 1v1l5 3h4l4-4zm-1813 0 2 5h3v-1 1h-4zm57 0q-1 3 3 4l1-3h9v-1h-9Zm13 0h-9l-1 3h15l2-4zm-252 1 1 4 2 1zm18 0 27 1v-2zm2044 0q-6 0-9 3l4 3h14q-2-6-9-6m-1903 0-3 1zm120 1-10 1h24zm-190 0-7 3-8 2c7 2 14-1 21-1l3-4zm123 5" class="bga"/>
  <path d="m1600 20-44 3 14 2 45 2 52 4h49l-1-1-10-1-51-3-40-1-3-1-4-2-8 2zm-8 2v1h-13zm-17 0v2h-4v-2zm-257 4-62 2h-29l-40 2-39 1h-78l-19 2-51 1-35 2-46 1-2 1-30 1-28-1-6 1-23-2h-57l-47-4-8 1-30-3-51 2-25-1-53 2-22 1-25 2-29-1-28 1-27-1h-17l-13 1-28-1-23 2-58 1-38-2-31 1-38 3-73-2-54 1q-9 0-16 8c-4 4-10 8-7 16v2l-2 24 2 12v12l-1 3h-1v-17l-2 14 2 27h-2v-12l-2 17h2l1 1v16l-2 52-1 75 1 61q2 7 0 11-3 7-2 12l-2 32-1 27v49l-1 6 1 9 1 18v15q2 6 1 12l-2 24-1 9v95l1 38v64h1l1-8-1 21c0 8 7 16 13 18h1v5l1-1 5-4c5-4 3 2 5 3l2 1 9-1-3-6h10l-4 3h4v1l-7 2q12 2 24-1l4 1 7-3-18-1v-2l23 1v4l10 1 2 2h2l-1-4h1l2 5h8v-1h46c0 2 0 2 18 2l7-2 8-3h16l16-2 27-2 8 1 2-1 75 2h26l6 1 20-1 30-1 2 1h10l14-2v3h-14l1 2 22 1q-3-7 4-5l5 1-3 2 16 1 38-2 42-1 70-3h85l66 2h42l26-1q7-1 13 2 4 2 10-1l2-1h26q5 2 10 0l9 1c6 0 11 3 17 0l7-1 5-1h12l50 2h25l5 1h10l4-1h36l19 2 11-1 5-3 8-1 48-1 1 1q3-4 4 0l9 1q3-4 11-3h26l35-1h19l15-1 12-2h-25v-1h28l-3 1 2 1 2 1 4-1 34 1h1l6-1h3l2-4v-1q8-4 15 0h4v-1 1l1 2h74l15-1 15 2-1 1-4 1-1 1q7 4 13 1l-2-5h17v2l-7 2-6 1h3l22-1v-2l-4-2 1-1h21l-1 3 5 3q6-2 8-1 4 3 8 0l4-1h8l-16-2c9-6 18-2 27-3l-2 5h4l2-3 15-1h4l-3 5 13 1-1-1h2l-2-4 4-2 14 1h3q9-3 19 1h18l2 3v3h10q10 3 21-1h2l25 1 3 1 3-1-9-5 26-1h1c8 4 16 0 23 2l9 2-4 3h2l2 1 4-1 1-4h6l5 2q4 0 2 3h12l-4-3q3-5 11-2l4 1 3 1v4l17 2-1-7h1l4 3q11-3 21-1l7-1 5 1h5c3-1 11 0 13 3h3l2-2h56l18 3-5 4h23v-5l6 1-5 3q11 4 20 4l16-1 23 2 31-1-5-3v-1l12-1 1 1-4 4c18 2 37 5 55-3q3 6 10 5l-4-3c4-5 16-3 18 3l5 1 5-5-1 4c3 1 5-5 8-1 3-5 12-8 18-5l5 1v-2l8-2-1 1v2l10-1h2c2 4 5 2 7 2l14-1q17-2 18-18l1-16 1-44-1-32V582l1-19v-15l-1-6v-8l1-5-1-7-3 2v-9c0-4 6-7 1-12 4-3-1-5-1-8l-1-11 2-14-2-4v-16l4 2-2-9 3 1v-4c-4-2-1-6-1-9v-5q-5-1-3 3l-1 8q-3-12 1-26l3 14 2-21-4 2q-4-4 4-6v-18l-5 1v-45l-1-7q-1-5 5-6l-3-4h3v-2l-1-3 1-5-4 2v-5l4 2-1-7-1-3h2l-1-11 1 1 3 4 1-10c-6 4-4-3-7-6l-2 5h-1l1-10h1l1 3 6-1v-2q-3-3-4-7l-1-3 1-6q-7-2-6-9v-12l2-3h2l3-13h-1l-2-12v-32q0-5 4-4c-1-4 3-9-1-12l3-4v-11l-3 8q-4-8-3-17 2-4 5-4v-8l-3 5-3-16V84l1-2v-3l-2-11-2 8h-1l-1-10V54q-8 2-15-3l1 3h-40l-2-4c17-3 33 0 50 0h7q-2-5-6-5h-17c-5 1-9-2-15 0s-11-3-18-2h-59l-15 1h1v1l-3-1-6-1q1 3-3 2l-11-1-8-1-18-2-17-2h-23l-18-2q-7-2-15 1l-9 1v-2h7v-1h-51c-1 4-4 2-6 3h-8l-36-1-12-1-33 1-45-3-56-1h-24l-29 1 69 4 52 2 99 2h2l11-1 11 1h15l12-1h33l54 3 29 2 13 1 5 4-103-6-14 1-3-1-21 1h-1l-17 1h-45l-14-1v-1l4-2h-8l3 3-15-1q-26 3-53 0h-21l-26-1-25-2h-48l-54-5-54-5h-34l-35-2-57-3-25 1h-26v-1l30-1-1-1-53 1-13 1-12-1-21-1zm873 24h24l-15 2h-2q-4 5-7-2m-49 0h46l-17 1v1h17v1h-46zM28 312h1v24h-1Zm2253 96v1h-1zM26 570h2v9l-1 1-3-5zm1328 220v2h-26v-1zm10 0h-1zM131 804h27v2z" class="bgf"/>
  <path d="M1840 189h-6c-6 19 11 10 11 3q-2-4-5-3m-8 0-18 2h-32q-11-4-15 11c71 13 65-9 65-13m14 3 2 2zm3 3c-6 2-3 11 2 9z" class="txa"/>
  <path d="M1832 189q0 6-4 2l-2 6-5-5-2 5q-9-6-16-3-4 2-2 6l4 1v2l-10 1-1-2 1 2-9 1-12-2v-1l12-3-2-3-5 1-4-2-2 1v-1 1q-1 5-6 6l2-6-2 6-6 21c-3 9-3 18-9 26v1l-1 14-2 13-2 4-3 9v2l-2 5v2l-4 13-3 11-3 10-1 4-2 9-1 6-2 4-4 14v2l-2 6-2 4-5 25-3 10-10 38-10 40v4l-2 6-3 9-6 23-3 16-7 22v1l-7 29-4 16-5 16q0 5 5 7l13 3 13-1 15 1 31-3 5-11 4-18 6-21 3-12v-2l2-1 9-32 1-5 4-19 5-14 1-5 2-9 2-3v-2l3-12 1-2 7-25-1-1v-1l3-5v-2l7-29 10-33 1-3v-2l7-23 2-8 1-3 3-9 7-26v-2l1-2v-2l2-5 4-18 1-2 1-3v-2l6-22 3-10v-4l1-3 1-2 1-3 1-6 4-13v-3l-2-9 2 9c-4 0-1-4-3-6l1-3-1-1-2-2h-1q-3 2-6 0l-4 1v2h4v1l-6 1 1-7zm197 9-24 3-20 7-22 11-14 11-8 9-5 5-4 3-11 13-9 15-6 13-3 2v2l-4 6q-12 26-19 53l-7 39v3l-2 24v2l-1 4c-7 4-2 6 0 9l-6 2 4 3 2 2 2 5v6l2 24 1 4v1l1 6 3 16v2l6 22 8 19 12 24 13 20q6 8 14 15l9 9 11 8 10 5q9 5 20 8l10 2 12 2q9 1 18-1l12-2q16-2 29-9l20-13q14-7 24-20l20-26q9-11 13-25l1-1q9-3 7-12 1-6 6-13l6-5-3-5v-2l2-3v-1l7-29 1-4 2-7v-4l1-3 1-12v-1l1-4v-6l1-5 1-20-1-3-1-15v-2l-1-8v-1l-3-28-1-1-2-8v-3l-6-20-3-5v-1l1-1-1-1-8-20-4-8q-7-17-19-29l-4-6-3-4-12-11c-3-3-5-9-10-8l-1-1-2-2h-3q-3-6-9-6l-8-6-25-7zm-463 12-20 1-2 1q-19 1-37-1l-7 1 1 5-1 24v59l1 9-1 21-2 9 2 2 1 4v1l1 13-1 3v38l1 2 1 2v27l-1 21 2 30v12q-4 2 0 4l-1 4v11c-4 2-1 4 0 6l1 3v47l1 18v35q2 7 9 4l4 1 2 1h6l2-1h7l13 1h3l26 1 1-1 4-1c3-2 9-2 8-8v-52l-1-41v-51l-1-37v-45l-1-8v-73l-1-11v-27l-1-4v-43c0-5 2-10-2-15l-3-1-5-1zm-980 6q-7-1-6 7v385q-2 9 6 7h169l32-2q48-5 90-30 51-31 74-86 17-47 14-97-1-27-10-53-23-69-87-104-56-28-118-27zm-418 0q-9-2-7 7v386q-1 7 6 6h184l45-2q37-2 70-21 28-16 40-47 9-25 6-52-5-48-45-74l-22-12 6-4a94 94 0 0 0 42-73q4-35-15-64-25-33-66-42-37-9-75-8zm910 2h-96l4 6 30 44 56 82 41 60q4 3 1 7l-27 39-109 155-3 5 6 1h91q4 0 7-4l22-34 50-77 16-23 3 4 10 15 74 111q5 9 15 8h89l3-1-2-4-25-36-111-161q-4-5 0-10l50-71 71-102 9-14h-89q-8 0-11 6l-76 113-6 9-4-5-81-119q-3-4-8-4m946 67h4l11 3 2 2 2 3 9 6 5 6 11 13 8 13v3c1 6 7 12 3 18l5 10 1 5 2 13 1 17v13l-2 2v16l-1 6q-2 18-10 35l-1 8-2 2-11 25-1 1-2 4-1 1-8 11q-7 9-17 16-7 3-18 2-22-5-30-24l-9-19q2-7-5-10v-1q1-5-3-8v-4l1-3-3-19-3-2v-8l2-1-2-29v-2l2-21v-2l2-3 2-12v-2l7-28 1-2 2-5v-2l3-7 6-11 11-15 4-3 4-4 7-4q6-3 11-3m-1770 1 97 1q22 0 39 14c24 21 16 61-14 73q-17 6-35 6h-86q-7 0-6-5l1-84q0-5 4-5m422 7h83q48 1 83 34 28 27 32 65 5 31-3 61-6 26-24 46-34 38-84 39l-89 1q-5 0-5-6V299q-2-7 7-6M252 447h4l6 1h103q16 1 30 6 25 9 28 35c2 19-3 37-22 46q-14 7-29 9l-63 2v-1h-54q-6 1-6-5v-87q0-6 3-6" class="txf"/>
</svg>
