<svg id="Capa_1" data-name="Capa 1" xmlns="http://www.w3.org/2000/svg" xmlns:xlink="http://www.w3.org/1999/xlink" viewBox="0 0 3968.51 3968.5"><defs><style>.cls-1{fill:url(#Dégradé_sans_nom_27);}.cls-2{fill:#fff;opacity:0.04;isolation:isolate;}</style><linearGradient id="Dégradé_sans_nom_27" x1="270.08" y1="4177.78" x2="3700.69" y2="-213.21" gradientUnits="userSpaceOnUse"><stop offset="0" stop-color="#cc0625"/><stop offset="1" stop-color="#fac319"/></linearGradient></defs><title>Plan de travail 1</title><rect class="cls-1" x="2.26" y="-3.96" width="3966.25" height="3972.5"/><path class="cls-2" d="M3968.51,1790l-138.25,138.25a30.67,30.67,0,0,0,0,43.36l.44.44a30.67,30.67,0,0,0,43.36,0l94.45-94.45Z"/><path class="cls-2" d="M2965.65,3968.5l168.57-168.57a30.67,30.67,0,0,0,0-43.36l-.44-.44a30.65,30.65,0,0,0-43.35,0h0L2878,3968.5Z"/><path class="cls-2" d="M2215,3761.15l332.26-332.25a30.65,30.65,0,0,1,43.35,0h0l.44.43a30.65,30.65,0,0,1,0,43.35h0L2258.77,3805a30.65,30.65,0,0,1-43.35,0h0l-.44-.44a30.68,30.68,0,0,1,0-43.37Z"/><path class="cls-2" d="M1224.8,3968.5l131.09-131.09a30.65,30.65,0,0,0,0-43.35h0l-.44-.44a30.67,30.67,0,0,0-43.36,0L1137.2,3968.5Z"/><path class="cls-2" d="M160.72,1041.49l-.44-.44a30.67,30.67,0,0,0-43.36,0L0,1158v87.6l160.72-160.72a30.68,30.68,0,0,0,0-43.37Z"/><path class="cls-2" d="M1397.92,65.26,1065.66,397.51a30.65,30.65,0,0,1-43.35,0h0l-.44-.44a30.67,30.67,0,0,1,0-43.36L1354.12,21.46a30.65,30.65,0,0,1,43.35,0h0l.44.43a30.67,30.67,0,0,1,0,43.36h0Z"/><path class="cls-2" d="M2463.61,0,2353.12,110.48a30.68,30.68,0,0,0,0,43.37l.44.43a30.65,30.65,0,0,0,43.35,0h0L2551.21,0Z"/><path class="cls-2" d="M2898.82,0,2665.91,232.91a30.65,30.65,0,0,0,0,43.35h0l.43.44a30.68,30.68,0,0,0,43.37,0L2976.25,10.17A30.66,30.66,0,0,0,2983,0Z"/><path class="cls-2" d="M3334,0,3136,198.06a30.67,30.67,0,0,0,0,43.36l.44.43a30.65,30.65,0,0,0,43.35,0h0L3421.63,0Z"/><path class="cls-2" d="M220.67,154.48,120.14,255a30.67,30.67,0,0,1-43.36,0l-.44-.44a30.67,30.67,0,0,1,0-43.36L176.87,110.68a30.67,30.67,0,0,1,43.36,0h0l.43.44a30.29,30.29,0,0,1,1.19,42.81l-.19.19A.9.9,0,0,1,220.67,154.48Z"/><path class="cls-2" d="M66.18,309l-.74.74a30.67,30.67,0,0,1-43.36,0h0l-.43-.43a30.65,30.65,0,0,1,0-43.35h0l.75-.75a30.65,30.65,0,0,1,43.35,0h0l.43.43C72.5,275.63,64.11,293.69,66.18,309Z"/><rect class="cls-2" x="207.86" y="278.93" width="62.38" height="61.94" rx="30.66" ry="30.66" transform="translate(-149.09 259.6) rotate(-44.97)"/><path class="cls-2" d="M167.29,555.47,267.83,454.94a30.67,30.67,0,0,1,43.36,0h0l.44.44a30.67,30.67,0,0,1,0,43.36L211.09,599.27a30.67,30.67,0,0,1-43.36,0l-.44-.44A30.67,30.67,0,0,1,167.29,555.47Z"/><path class="cls-2" d="M59.56,880.81,391.81,548.56a30.65,30.65,0,0,1,43.35,0h0l.44.43a30.67,30.67,0,0,1,0,43.36h0L103.35,924.61a30.65,30.65,0,0,1-43.35,0h0l-.43-.43c-61.89,0-112.07,40.21-112.07-21.69S-2.33,790.43,59.56,880.81Z"/><path class="cls-2" d="M53.58,1104.39l.75-.75a30.67,30.67,0,0,1,43.36,0l.44.44a30.67,30.67,0,0,1,0,43.36l-.75.75a30.67,30.67,0,0,1-43.36,0l-.44-.44c-16.94,0-30.67-4.74-30.67-21.68S36.64,1095.4,53.58,1104.39Z"/><path class="cls-2" d="M359.64,798.33,460.17,697.8a30.67,30.67,0,0,1,43.36,0l.44.44a30.67,30.67,0,0,1,0,43.36L403.44,842.13a30.67,30.67,0,0,1-43.36,0h0l-.43-.44a30.65,30.65,0,0,1,0-43.35h0Z"/><path class="cls-2" d="M568.19,589.78l.75-.75a30.65,30.65,0,0,1,43.35,0h0l.44.44a30.67,30.67,0,0,1,0,43.36l-.75.75a30.67,30.67,0,0,1-43.36,0l-.44-.44A30.67,30.67,0,0,1,568.19,589.78Z"/><path class="cls-2" d="M845.63,1268.05,745.1,1368.58a30.65,30.65,0,0,1-43.35,0h0l-.44-.44a30.67,30.67,0,0,1,0-43.36l100.54-100.53a30.67,30.67,0,0,1,43.36,0l.43.44a30.65,30.65,0,0,1,0,43.35h0Z"/><rect class="cls-2" x="-2.44" y="1822.21" width="438.27" height="61.94" rx="30.66" ry="30.66" transform="translate(-1246.93 696.01) rotate(-45)"/><rect class="cls-2" x="882.01" y="1125.66" width="62.38" height="61.94" rx="30.66" ry="30.66" transform="translate(-550.33 983.99) rotate(-44.98)"/><path class="cls-2" d="M794.82,1016,895.35,915.44a30.65,30.65,0,0,1,43.35,0h0l.44.44a30.65,30.65,0,0,1,0,43.35h0L838.62,1059.77a30.67,30.67,0,0,1-43.36,0l-.44-.44A30.67,30.67,0,0,1,794.82,1016Z"/><rect class="cls-2" x="541.55" y="1250.92" width="62.38" height="61.94" rx="30.66" ry="30.66" transform="translate(-738.42 779.76) rotate(-44.97)"/><path class="cls-2" d="M629.18,1051.6,528.65,1152.13a30.65,30.65,0,0,1-43.35,0h0l-.44-.44a30.67,30.67,0,0,1,0-43.36L585.38,1007.8a30.68,30.68,0,0,1,43.37,0l.43.44a30.65,30.65,0,0,1,0,43.35h0Z"/><rect class="cls-2" x="665.55" y="909.27" width="62.38" height="61.94" rx="30.66" ry="30.66" transform="translate(-460.69 767.45) rotate(-44.97)"/><rect class="cls-2" x="27.03" y="1259.63" width="203.5" height="61.94" rx="30.66" ry="30.66" transform="translate(-874.87 469.07) rotate(-45)"/><rect class="cls-2" x="436.28" y="850.37" width="203.5" height="61.94" rx="30.66" ry="30.66" transform="translate(-465.62 638.59) rotate(-45)"/><path class="cls-2" d="M332.89,1042.68l.75-.74a30.65,30.65,0,0,1,43.35,0h0l.44.43a30.65,30.65,0,0,1,0,43.35h0l-.75.75a30.65,30.65,0,0,1-43.35,0h0l-.44-.43A30.68,30.68,0,0,1,332.89,1042.68Z"/><path class="cls-2" d="M960.18,1503.43l100.53-100.53a30.67,30.67,0,0,1,43.36,0h0l.43.43a30.65,30.65,0,0,1,0,43.35h0L1004,1547.23a30.67,30.67,0,0,1-43.36,0l-.44-.44A30.68,30.68,0,0,1,960.18,1503.43Z"/><path class="cls-2" d="M318.31,2145.3l332.25-332.25a30.68,30.68,0,0,1,43.37,0l.43.44a30.65,30.65,0,0,1,0,43.35h0L362.1,2189.1a30.65,30.65,0,0,1-43.35,0h0l-.43-.44a30.65,30.65,0,0,1,0-43.35h0Z"/><path class="cls-2" d="M827.21,1636.4l.75-.75a30.67,30.67,0,0,1,43.36,0l.44.44a30.67,30.67,0,0,1,0,43.36l-.75.75a30.67,30.67,0,0,1-43.36,0l-.44-.44a30.65,30.65,0,0,1,0-43.35h0Z"/><rect class="cls-2" x="802.85" y="2224.65" width="203.5" height="61.94" rx="30.66" ry="30.66" transform="translate(-1330.01 1300.31) rotate(-45)"/><rect class="cls-2" x="1334.55" y="1692.96" width="203.5" height="61.94" rx="30.66" ry="30.66" transform="translate(-798.32 1520.54) rotate(-45)"/><path class="cls-2" d="M742.61,2373.81l.75-.74a30.65,30.65,0,0,1,43.35,0h0l.44.43a30.67,30.67,0,0,1,0,43.36l-.75.75a30.65,30.65,0,0,1-43.35,0h0l-.44-.43a30.67,30.67,0,0,1,0-43.36h0Z"/><path class="cls-2" d="M537.26,1796.34,436.73,1896.87a30.67,30.67,0,0,1-43.36,0l-.44-.44a30.67,30.67,0,0,1,0-43.36l100.53-100.53a30.67,30.67,0,0,1,43.36,0l.44.44a30.65,30.65,0,0,1,0,43.35h0Z"/><path class="cls-2" d="M712.37,1533.63l332.26-332.26a30.67,30.67,0,0,1,43.36,0l.44.44a30.67,30.67,0,0,1,0,43.36L756.17,1577.43a30.67,30.67,0,0,1-43.36,0l-.44-.44A30.67,30.67,0,0,1,712.37,1533.63Z"/><path class="cls-2" d="M670.24,1663.37l-.75.74a30.67,30.67,0,0,1-43.36,0h0l-.43-.43a30.65,30.65,0,0,1,0-43.35h0l.75-.75a30.65,30.65,0,0,1,43.35,0h0l.44.44A30.67,30.67,0,0,1,670.24,1663.37Z"/><path class="cls-2" d="M178.41,2155.19l-.75.75a30.67,30.67,0,0,1-43.36,0l-.44-.44a30.67,30.67,0,0,1,0-43.36l.75-.75a30.67,30.67,0,0,1,43.36,0l.44.44a30.65,30.65,0,0,1,0,43.35h0Z"/><path class="cls-2" d="M463.08,2305.73,362.55,2406.26a30.65,30.65,0,0,1-43.35,0h0l-.44-.43a30.68,30.68,0,0,1,0-43.37L419.3,2261.93a30.67,30.67,0,0,1,43.36,0l.43.44a30.65,30.65,0,0,1,0,43.35h0Z"/><path class="cls-2" d="M546.28,2134.93l332.26-332.26a30.67,30.67,0,0,1,43.36,0l.44.44a30.67,30.67,0,0,1,0,43.36L590.08,2178.73a30.67,30.67,0,0,1-43.36,0l-.44-.44a30.65,30.65,0,0,1,0-43.35h0Z"/><path class="cls-2" d="M254.53,2514.29l-.75.75a30.67,30.67,0,0,1-43.36,0l-.44-.44a30.65,30.65,0,0,1,0-43.35h0l.75-.75a30.67,30.67,0,0,1,43.36,0l.44.44A30.67,30.67,0,0,1,254.53,2514.29Z"/><path class="cls-2" d="M1121.26,1560l100.53-100.53a30.67,30.67,0,0,1,43.36,0l.44.44a30.67,30.67,0,0,1,0,43.36L1165.06,1603.8a30.67,30.67,0,0,1-43.36,0h0l-.43-.44C1109.62,1591.45,1109.88,1572.17,1121.26,1560Z"/><path class="cls-2" d="M1329.81,1351.4l.75-.75a30.65,30.65,0,0,1,43.35,0h0l.44.44a30.67,30.67,0,0,1,0,43.36l-.75.75a30.67,30.67,0,0,1-43.36,0l-.44-.44A30.67,30.67,0,0,1,1329.81,1351.4Z"/><rect class="cls-2" x="1148.22" y="1661.69" width="203.5" height="61.94" rx="30.66" ry="30.66" transform="translate(-830.78 1379.63) rotate(-45)"/><path class="cls-2" d="M535.91,2362.91l332.26-332.26a30.67,30.67,0,0,1,43.36,0l.44.44a30.67,30.67,0,0,1,0,43.36L579.71,2406.71a30.67,30.67,0,0,1-43.36,0l-.44-.44C530.88,2397.09,543.56,2379,535.91,2362.91Z"/><rect class="cls-2" x="1035.93" y="1844.46" width="62.38" height="61.94" rx="30.66" ry="30.66" transform="translate(-1013.38 1303.14) rotate(-44.98)"/><path class="cls-2" d="M1050,2501.6l100.53-100.53a30.67,30.67,0,0,1,43.36,0l.44.44a30.65,30.65,0,0,1,0,43.35h0l-100.5,100.54a30.65,30.65,0,0,1-43.35,0h0l-.44-.44A30.68,30.68,0,0,1,1050,2501.6Z"/><path class="cls-2" d="M1581.73,1969.9l100.53-100.53a30.67,30.67,0,0,1,43.36,0l.44.44a30.65,30.65,0,0,1,0,43.35h0L1625.53,2013.7a30.65,30.65,0,0,1-43.35,0h0l-.44-.44C1570.05,2001.34,1570.26,1982,1581.73,1969.9Z"/><path class="cls-2" d="M1272.47,2279.16l332.26-332.25a30.65,30.65,0,0,1,43.35,0h0l.44.43a30.67,30.67,0,0,1,0,43.36L1316.27,2323a30.65,30.65,0,0,1-43.35,0h0l-.44-.43C1262,2310.91,1263.35,2292,1272.47,2279.16Z"/><path class="cls-2" d="M750.84,2888.4,418.58,3220.66a30.67,30.67,0,0,1-43.36,0l-.44-.44a30.65,30.65,0,0,1,0-43.35h0L707,2844.6a30.67,30.67,0,0,1,43.36,0l.44.44A30.67,30.67,0,0,1,750.84,2888.4Z"/><rect class="cls-2" x="4.53" y="3528.74" width="62.38" height="61.94" rx="30.66" ry="30.66" transform="translate(-2505.33 1066.55) rotate(-44.97)"/><path class="cls-2" d="M960.21,2591.42l.75-.75a30.67,30.67,0,0,1,43.36,0l.44.44a30.65,30.65,0,0,1,0,43.35h0l-.75.75a30.67,30.67,0,0,1-43.36,0l-.44-.44A30.67,30.67,0,0,1,960.21,2591.42Z"/><path class="cls-2" d="M1001.9,2332.13l332.26-332.26a30.67,30.67,0,0,1,43.36,0l.44.44a30.67,30.67,0,0,1,0,43.36L1045.7,2375.93a30.67,30.67,0,0,1-43.36,0l-.44-.44C993.33,2364.43,997.08,2346.08,1001.9,2332.13Z"/><path class="cls-2" d="M789.49,2632.14,689,2732.67a30.65,30.65,0,0,1-43.35,0h0l-.44-.44a30.67,30.67,0,0,1,0-43.36l100.53-100.53a30.67,30.67,0,0,1,43.36,0l.44.44a30.65,30.65,0,0,1,0,43.35h0Z"/><path class="cls-2" d="M440.87,2980.76,108.61,3313a30.67,30.67,0,0,1-43.36,0l-.44-.44a30.65,30.65,0,0,1,0-43.35h0L397.07,2937a30.67,30.67,0,0,1,43.36,0l.44.44A30.67,30.67,0,0,1,440.87,2980.76Z"/><path class="cls-2" d="M580.94,2840.7l-.75.75a30.68,30.68,0,0,1-43.37,0l-.43-.44a30.65,30.65,0,0,1,0-43.35h0l.75-.75a30.65,30.65,0,0,1,43.35,0h0l.44.44A30.67,30.67,0,0,1,580.94,2840.7Z"/><path class="cls-2" d="M1447.66,1886.36l100.54-100.53a30.67,30.67,0,0,1,43.36,0l.44.44a30.67,30.67,0,0,1,0,43.36l-100.54,100.53a30.67,30.67,0,0,1-43.36,0l-.44-.44A30.67,30.67,0,0,1,1447.66,1886.36Z"/><path class="cls-2" d="M1656.22,1677.8l.75-.74a30.65,30.65,0,0,1,43.35,0h0l.44.43a30.67,30.67,0,0,1,0,43.36l-.75.75a30.65,30.65,0,0,1-43.35,0h0l-.44-.43A30.68,30.68,0,0,1,1656.22,1677.8Z"/><path class="cls-2" d="M375.19,130l.75-.75a30.65,30.65,0,0,1,43.35,0h0l.44.44a30.67,30.67,0,0,1,0,43.36l-.75.75a30.67,30.67,0,0,1-43.36,0l-.44-.44a30.65,30.65,0,0,1,0-43.35h0Z"/><path class="cls-2" d="M517,293.39,416.44,393.92a30.67,30.67,0,0,1-43.36,0l-.44-.44a30.67,30.67,0,0,1,0-43.36L473.18,249.59a30.65,30.65,0,0,1,43.35,0h0l.44.44A30.67,30.67,0,0,1,517,293.39Z"/><path class="cls-2" d="M730,80.32l-.75.75a30.67,30.67,0,0,1-43.36,0l-.44-.44a30.67,30.67,0,0,1,0-43.36l.75-.75a30.67,30.67,0,0,1,43.36,0L730,37A30.65,30.65,0,0,1,730,80.32Z"/><path class="cls-2" d="M737.12,290.84,636.59,391.37a30.65,30.65,0,0,1-43.35,0h0l-.44-.43a30.68,30.68,0,0,1,0-43.37L693.32,247a30.68,30.68,0,0,1,43.37,0l.43.44a30.65,30.65,0,0,1,0,43.35h0Z"/><rect class="cls-2" x="773.47" y="148.49" width="62.38" height="61.94" rx="30.66" ry="30.66" transform="translate(108.63 621.3) rotate(-44.98)"/><path class="cls-2" d="M845.93,399.64,745.39,500.17a30.65,30.65,0,0,1-43.35,0h0l-.43-.44a30.65,30.65,0,0,1,0-43.35h0L802.13,355.84a30.67,30.67,0,0,1,43.36,0l.44.44A30.67,30.67,0,0,1,845.93,399.64Z"/><path class="cls-2" d="M978.9,266.67l-.75.75a30.67,30.67,0,0,1-43.36,0l-.44-.44a30.67,30.67,0,0,1,0-43.36l.75-.75a30.67,30.67,0,0,1,43.36,0l.44.44A30.67,30.67,0,0,1,978.9,266.67Z"/><path class="cls-2" d="M2049.26,64.42,1717,396.68a30.68,30.68,0,0,1-43.37,0l-.43-.44a30.65,30.65,0,0,1,0-43.35h0L2005.46,20.62a30.68,30.68,0,0,1,43.37,0l.43.44a30.65,30.65,0,0,1,0,43.35h0Z"/><rect class="cls-2" x="1155.78" y="781.39" width="203.5" height="61.94" rx="30.66" ry="30.66" transform="translate(-206.1 1127.14) rotate(-45)"/><path class="cls-2" d="M1462.66,651l-.75.75a30.67,30.67,0,0,1-43.36,0l-.44-.44a30.67,30.67,0,0,1,0-43.36l.75-.75a30.65,30.65,0,0,1,43.35,0h0l.44.44A30.67,30.67,0,0,1,1462.66,651Z"/><rect class="cls-2" x="1137.94" y="583.92" width="203.5" height="61.94" rx="30.66" ry="30.66" transform="translate(-71.7 1056.69) rotate(-45)"/><path class="cls-2" d="M1390,420.83,1722.22,88.57a30.67,30.67,0,0,1,43.36,0l.44.44a30.67,30.67,0,0,1,0,43.36L1433.76,464.63a30.67,30.67,0,0,1-43.36,0l-.44-.44A30.68,30.68,0,0,1,1390,420.83Z"/><path class="cls-2" d="M1077.71,733.08l.75-.74a30.65,30.65,0,0,1,43.35,0h0l.43.43a30.65,30.65,0,0,1,0,43.35h0l-.75.75a30.65,30.65,0,0,1-43.35,0h0l-.43-.43a30.67,30.67,0,0,1,0-43.36Z"/><path class="cls-2" d="M1020.52,660.27,920,760.8a30.67,30.67,0,0,1-43.36,0l-.44-.44a30.67,30.67,0,0,1,0-43.36L976.72,616.47a30.67,30.67,0,0,1,43.36,0l.44.44C1032.2,628.83,1032,648.13,1020.52,660.27Z"/><path class="cls-2" d="M1195.62,397.56,1527.88,65.3a30.67,30.67,0,0,1,43.36,0l.44.44a30.65,30.65,0,0,1,0,43.35h0L1239.42,441.36a30.67,30.67,0,0,1-43.36,0l-.44-.44a30.64,30.64,0,0,1-.09-43.33l0,0A.09.09,0,0,1,1195.62,397.56Z"/><path class="cls-2" d="M1153.49,527.3l-.75.74a30.65,30.65,0,0,1-43.35,0h0l-.44-.43a30.67,30.67,0,0,1,0-43.36l.75-.75a30.65,30.65,0,0,1,43.35,0h0l.44.43A30.68,30.68,0,0,1,1153.49,527.3Z"/><path class="cls-2" d="M952.16,511,851.63,611.55a30.65,30.65,0,0,1-43.35,0h0l-.44-.44a30.65,30.65,0,0,1,0-43.35h0L908.36,467.22a30.67,30.67,0,0,1,43.36,0l.44.44a30.6,30.6,0,0,1,.2,43.27l0,0A.39.39,0,0,1,952.16,511Z"/><path class="cls-2" d="M743.6,719.58l-.75.75a30.67,30.67,0,0,1-43.36,0l-.44-.44a30.67,30.67,0,0,1,0-43.36l.75-.75a30.65,30.65,0,0,1,43.35,0h0l.44.44a30.65,30.65,0,0,1,0,43.35h0Z"/><path class="cls-2" d="M1444.23,1019.37l100.53-100.53a30.68,30.68,0,0,1,43.37,0l.43.44a30.65,30.65,0,0,1,0,43.35h0L1488,1063.17a30.65,30.65,0,0,1-43.35,0h0l-.44-.43A30.69,30.69,0,0,1,1444.23,1019.37Z"/><path class="cls-2" d="M1792.86,670.75l332.25-332.26a30.68,30.68,0,0,1,43.37,0l.43.44a30.65,30.65,0,0,1,0,43.35h0L1836.66,714.55a30.68,30.68,0,0,1-43.37,0l-.43-.44a30.65,30.65,0,0,1,0-43.35h0Z"/><path class="cls-2" d="M1354.41,1109.19l.75-.75a30.68,30.68,0,0,1,43.37,0l.43.44a30.65,30.65,0,0,1,0,43.35h0l-.75.75a30.65,30.65,0,0,1-43.35,0h0l-.44-.44a30.59,30.59,0,0,1-.22-43.27l0,0A.15.15,0,0,1,1354.41,1109.19Z"/><rect class="cls-2" x="2936.92" y="90.58" width="203.5" height="61.94" rx="30.66" ry="30.66" transform="translate(804.05 2184.26) rotate(-45)"/><rect class="cls-2" x="1539.89" y="1487.6" width="203.5" height="61.94" rx="30.66" ry="30.66" transform="translate(-592.96 1605.59) rotate(-45)"/><path class="cls-2" d="M2667.3,536.72,2335,869a30.65,30.65,0,0,1-43.35,0h0l-.44-.44a30.67,30.67,0,0,1,0-43.36L2623.47,493a30.67,30.67,0,0,1,43.36,0h0l.44.44A30.65,30.65,0,0,1,2667.3,536.72Z"/><path class="cls-2" d="M1958.13,1245.9l-.75.75a30.67,30.67,0,0,1-43.36,0l-.44-.44a30.67,30.67,0,0,1,0-43.36l.75-.75a30.65,30.65,0,0,1,43.35,0h0l.44.44A30.67,30.67,0,0,1,1958.13,1245.9Z"/><path class="cls-2" d="M2876.68,239.74l.75-.75a30.67,30.67,0,0,1,43.36,0l.44.44a30.67,30.67,0,0,1,0,43.36l-.75.75a30.65,30.65,0,0,1-43.35,0h0l-.44-.44a30.65,30.65,0,0,1,0-43.35h0Z"/><path class="cls-2" d="M1398.24,847.76,1730.5,515.51a30.65,30.65,0,0,1,43.35,0h0l.44.43a30.68,30.68,0,0,1,0,43.37L1442,891.56a30.65,30.65,0,0,1-43.35,0h0l-.44-.43A30.68,30.68,0,0,1,1398.24,847.76Z"/><rect class="cls-2" x="2038.83" y="118.26" width="203.5" height="61.94" rx="30.66" ry="30.66" transform="translate(521.44 1557.33) rotate(-45)"/><path class="cls-2" d="M1978.59,267.41l.75-.75a30.67,30.67,0,0,1,43.36,0l.44.44a30.65,30.65,0,0,1,0,43.35h0l-.75.75a30.65,30.65,0,0,1-43.35,0h0l-.44-.44A30.67,30.67,0,0,1,1978.59,267.41Z"/><path class="cls-2" d="M2597.16,171.66,2496.62,272.19a30.65,30.65,0,0,1-43.35,0h0l-.44-.44a30.67,30.67,0,0,1,0-43.36l100.54-100.53a30.67,30.67,0,0,1,43.36,0l.44.44A30.67,30.67,0,0,1,2597.16,171.66Z"/><path class="cls-2" d="M1607.55,1161.26,1507,1261.79a30.65,30.65,0,0,1-43.35,0h0l-.43-.44a30.65,30.65,0,0,1,0-43.35h0l100.53-100.53a30.67,30.67,0,0,1,43.36,0l.44.44a30.59,30.59,0,0,1,.22,43.27l0,0A.15.15,0,0,1,1607.55,1161.26Z"/><path class="cls-2" d="M2248.53,520.28,1916.27,852.54a30.67,30.67,0,0,1-43.36,0l-.44-.44a30.67,30.67,0,0,1,0-43.36l332.26-332.26a30.67,30.67,0,0,1,43.36,0l.44.44a30.67,30.67,0,0,1,0,43.36Z"/><path class="cls-2" d="M1740.52,1028.29l-.75.75a30.67,30.67,0,0,1-43.36,0l-.44-.44a30.67,30.67,0,0,1,0-43.36l.75-.75a30.67,30.67,0,0,1,43.36,0l.44.44A30.67,30.67,0,0,1,1740.52,1028.29Z"/><path class="cls-2" d="M2388.6,380.22l-.75.75a30.67,30.67,0,0,1-43.36,0l-.44-.44a30.67,30.67,0,0,1,0-43.36l.75-.75a30.65,30.65,0,0,1,43.35,0h0l.44.44A30.67,30.67,0,0,1,2388.6,380.22Z"/><path class="cls-2" d="M2296.7,689.72,2196.17,790.25a30.67,30.67,0,0,1-43.36,0l-.44-.44a30.67,30.67,0,0,1,0-43.36L2252.9,645.92a30.67,30.67,0,0,1,43.36,0h0l.43.44a30.65,30.65,0,0,1,0,43.35h0Z"/><path class="cls-2" d="M1948.08,1038.34,1615.82,1370.6a30.67,30.67,0,0,1-43.36,0l-.44-.44a30.67,30.67,0,0,1,0-43.36l332.26-332.26a30.67,30.67,0,0,1,43.36,0l.44.44c12.17,11.78,12.83,30.84,1,43A1,1,0,0,1,1948.08,1038.34Z"/><path class="cls-2" d="M2386.52,599.9l-.75.75a30.67,30.67,0,0,1-43.36,0l-.44-.44a30.67,30.67,0,0,1,0-43.36l.75-.75a30.67,30.67,0,0,1,43.36,0l.44.44a30.65,30.65,0,0,1,0,43.35h0Z"/><path class="cls-2" d="M2593.93,1045.31l-332.26,332.26a30.67,30.67,0,0,1-43.36,0l-.44-.44a30.67,30.67,0,0,1,0-43.36l332.26-332.26a30.65,30.65,0,0,1,43.35,0h0l.44.44A30.67,30.67,0,0,1,2593.93,1045.31Z"/><path class="cls-2" d="M3184.1,367.53,3284.63,267a30.68,30.68,0,0,1,43.37,0l.43.44a30.65,30.65,0,0,1,0,43.35h0L3227.9,411.33a30.67,30.67,0,0,1-43.36,0l-.44-.44a30.67,30.67,0,0,1,0-43.36Z"/><rect class="cls-2" x="1757.5" y="1705.22" width="203.5" height="61.94" rx="30.66" ry="30.66" transform="translate(-683.11 1823.21) rotate(-45)"/><path class="cls-2" d="M2175.73,1463.5l-.75.75a30.67,30.67,0,0,1-43.36,0l-.43-.44a30.65,30.65,0,0,1,0-43.35h0l.74-.75a30.68,30.68,0,0,1,43.37,0l.43.44a30.65,30.65,0,0,1,0,43.35Z"/><path class="cls-2" d="M3094.28,457.35l.75-.75a30.68,30.68,0,0,1,43.37,0l.43.44a30.65,30.65,0,0,1,0,43.35h0l-.75.75a30.67,30.67,0,0,1-43.36,0l-.44-.44A30.67,30.67,0,0,1,3094.28,457.35Z"/><path class="cls-2" d="M2923.56,498.07,2823,598.6a30.67,30.67,0,0,1-43.36,0l-.44-.44a30.67,30.67,0,0,1,0-43.36l100.53-100.53a30.68,30.68,0,0,1,43.37,0l.43.44a30.65,30.65,0,0,1,0,43.35h0Z"/><rect class="cls-2" x="1760.04" y="1485.05" width="203.5" height="61.94" rx="30.66" ry="30.66" transform="translate(-526.68 1760.51) rotate(-45)"/><path class="cls-2" d="M2574.94,846.69,2242.68,1179a30.67,30.67,0,0,1-43.36,0l-.44-.44a30.67,30.67,0,0,1,0-43.36l332.26-332.26a30.67,30.67,0,0,1,43.36,0l.44.44A30.68,30.68,0,0,1,2574.94,846.69Z"/><rect class="cls-2" x="2013.49" y="1302.34" width="62.38" height="61.94" rx="30.66" ry="30.66" transform="translate(-344.18 1835.07) rotate(-44.97)"/><path class="cls-2" d="M2715,706.63l-.75.74a30.65,30.65,0,0,1-43.35,0h0l-.44-.43a30.67,30.67,0,0,1,0-43.36h0l.75-.74a30.65,30.65,0,0,1,43.35,0h0l.44.43A30.68,30.68,0,0,1,2715,706.63Z"/><rect class="cls-2" x="1885.12" y="2478.84" width="203.5" height="61.94" rx="30.66" ry="30.66" transform="translate(-1192.77 2140.04) rotate(-45)"/><path class="cls-2" d="M1710.41,2830.07l-332.26,332.26a30.65,30.65,0,0,1-43.35,0h0l-.44-.44a30.67,30.67,0,0,1,0-43.36l332.26-332.25a30.65,30.65,0,0,1,43.35,0h0l.44.43a30.65,30.65,0,0,1,0,43.35h0Z"/><path class="cls-2" d="M1168.6,3371.88,902.06,3638.43a30.67,30.67,0,0,1-43.36,0l-.44-.44a30.67,30.67,0,0,1,0-43.36l266.55-266.55a30.67,30.67,0,0,1,43.36,0l.43.44C1179,3340.15,1177.54,3359,1168.6,3371.88Z"/><path class="cls-2" d="M609,3931.52l-.75.75a30.67,30.67,0,0,1-43.36,0l-.44-.44a30.67,30.67,0,0,1,0-43.36l.75-.75a30.67,30.67,0,0,1,43.36,0l.44.44A30.67,30.67,0,0,1,609,3931.52Z"/><path class="cls-2" d="M2148.85,2391.63l-.75.75a30.65,30.65,0,0,1-43.35,0h0l-.44-.44a30.67,30.67,0,0,1,0-43.36l.75-.75a30.68,30.68,0,0,1,43.37,0l.43.44a30.65,30.65,0,0,1,0,43.35h0Z"/><path class="cls-2" d="M2007.07,2228.22l100.53-100.54a30.67,30.67,0,0,1,43.36,0l.44.44a30.67,30.67,0,0,1,0,43.36L2050.87,2272a30.65,30.65,0,0,1-43.35,0h0l-.44-.43c-13.26-10.52-17.35-27.45-6.83-40.72C2001.7,2229,2003.37,2227.34,2007.07,2228.22Z"/><path class="cls-2" d="M468.14,3767.15,800.4,3434.89a30.65,30.65,0,0,1,43.35,0h0l.43.44a30.65,30.65,0,0,1,0,43.35h0L511.94,3811a30.68,30.68,0,0,1-43.37,0l-.43-.44a30.65,30.65,0,0,1-.06-43.35h0Z"/><path class="cls-2" d="M1053.57,3181.71l332.26-332.26a30.67,30.67,0,0,1,43.36,0l.44.44a30.67,30.67,0,0,1,0,43.36l-332.26,332.26a30.67,30.67,0,0,1-43.36,0l-.44-.44A30.67,30.67,0,0,1,1053.57,3181.71Z"/><path class="cls-2" d="M1762.75,2472.54l.75-.75a30.65,30.65,0,0,1,43.35,0h0l.43.44a30.65,30.65,0,0,1,0,43.35h0l-.74.75a30.68,30.68,0,0,1-43.37,0l-.43-.44a30.65,30.65,0,0,1,0-43.35h0Z"/><path class="cls-2" d="M1116.75,2900.93,1449,2568.67a30.67,30.67,0,0,1,43.36,0l.44.44a30.67,30.67,0,0,1,0,43.36l-332.26,332.26a30.67,30.67,0,0,1-43.36,0l-.44-.44a30.65,30.65,0,0,1,0-43.35h0Z"/><rect class="cls-2" x="1667.52" y="2261.24" width="203.5" height="61.94" rx="30.66" ry="30.66" transform="translate(-1102.63 1922.44) rotate(-45)"/><path class="cls-2" d="M273.8,3743.88l332.26-332.26a30.67,30.67,0,0,1,43.36,0l.44.44a30.67,30.67,0,0,1,0,43.36L317.6,3787.68a30.67,30.67,0,0,1-43.36,0l-.44-.44c-16.94,0-30.67-4.74-30.67-21.68S256.86,3734.89,273.8,3743.88Z"/><path class="cls-2" d="M231.66,3873.61l-.75.75a30.65,30.65,0,0,1-43.35,0h0l-.44-.44a30.67,30.67,0,0,1,0-43.36l.75-.75a30.68,30.68,0,0,1,43.37,0l.43.44c16.93,0,30.65,4.75,30.65,21.68S248.59,3882.58,231.66,3873.61Z"/><rect class="cls-2" x="855.57" y="3143.67" width="62.38" height="61.94" rx="30.66" ry="30.66" transform="translate(-1984.52 1555.86) rotate(-44.98)"/><path class="cls-2" d="M1931.25,2174l-.75.75a30.67,30.67,0,0,1-43.36,0l-.44-.44a30.65,30.65,0,0,1,0-43.35h0l.75-.75a30.67,30.67,0,0,1,43.36,0l.44.44A30.67,30.67,0,0,1,1931.25,2174Z"/><path class="cls-2" d="M1413.19,2474.48,1312.65,2575a30.67,30.67,0,0,1-43.36,0l-.44-.44a30.67,30.67,0,0,1,0-43.36l100.54-100.53a30.65,30.65,0,0,1,43.35,0h0l.44.43a30.68,30.68,0,0,1,0,43.37Z"/><rect class="cls-2" x="1648.53" y="2062.61" width="203.5" height="61.94" rx="30.66" ry="30.66" transform="translate(-967.74 1850.83) rotate(-45)"/><path class="cls-2" d="M1064.56,2823.11,732.3,3155.37a30.67,30.67,0,0,1-43.36,0l-.44-.44a30.67,30.67,0,0,1,0-43.36l332.26-332.26a30.65,30.65,0,0,1,43.35,0h0l.44.44C1074.93,2791.38,1073.5,2810.21,1064.56,2823.11Z"/><path class="cls-2" d="M605.31,3282.36,273,3614.62a30.67,30.67,0,0,1-43.36,0l-.44-.44a30.67,30.67,0,0,1,0-43.36l332.3-332.26a30.67,30.67,0,0,1,43.36,0l.44.44a30.65,30.65,0,0,1,0,43.35h0Z"/><path class="cls-2" d="M1545.14,2254.93l.75-.75a30.67,30.67,0,0,1,43.36,0l.44.44a30.67,30.67,0,0,1,0,43.36l-.75.75a30.67,30.67,0,0,1-43.36,0l-.44-.44A30.67,30.67,0,0,1,1545.14,2254.93Z"/><path class="cls-2" d="M1204.63,2683l-.75.75a30.67,30.67,0,0,1-43.36,0l-.44-.44a30.67,30.67,0,0,1,0-43.36l.75-.75a30.67,30.67,0,0,1,43.36,0l.44.44A30.67,30.67,0,0,1,1204.63,2683Z"/><rect class="cls-2" x="2034.04" y="2547.52" width="203.5" height="61.94" rx="30.66" ry="30.66" transform="translate(-1197.71 2265.45) rotate(-45)"/><path class="cls-2" d="M762.23,3908.27,1094.49,3576a30.65,30.65,0,0,1,43.35,0h0l.44.44a30.67,30.67,0,0,1,0,43.36L806,3952.06a30.65,30.65,0,0,1-43.35,0h0l-.44-.43a30.65,30.65,0,0,1,0-43.35h0Z"/><path class="cls-2" d="M1421.75,3248.75,1754,2916.49a30.65,30.65,0,0,1,43.35,0h0l.44.44a30.67,30.67,0,0,1,0,43.36l-332.26,332.25a30.65,30.65,0,0,1-43.35,0h0l-.44-.43a30.65,30.65,0,0,1,0-43.35h0Z"/><path class="cls-2" d="M1930.65,2739.84l.75-.75a30.67,30.67,0,0,1,43.36,0l.44.44a30.67,30.67,0,0,1,0,43.36l-.75.75a30.67,30.67,0,0,1-43.36,0l-.44-.44A30.67,30.67,0,0,1,1930.65,2739.84Z"/><rect class="cls-2" x="1688.68" y="3110.49" width="203.5" height="61.94" rx="30.66" ry="30.66" transform="translate(-1696.94 2186.14) rotate(-45)"/><rect class="cls-2" x="2220.38" y="2578.8" width="203.5" height="61.94" rx="30.66" ry="30.66" transform="translate(-1165.25 2406.38) rotate(-45)"/><path class="cls-2" d="M1419.07,3556.63l-332.26,332.26a30.67,30.67,0,0,1-43.36,0l-.44-.44a30.67,30.67,0,0,1,0-43.36l332.26-332.26a30.67,30.67,0,0,1,43.36,0l.44.44A30.67,30.67,0,0,1,1419.07,3556.63Z"/><path class="cls-2" d="M1628.44,3259.65l.75-.75a30.68,30.68,0,0,1,43.37,0l.43.44a30.65,30.65,0,0,1,0,43.35h0l-.75.75a30.67,30.67,0,0,1-43.36,0l-.43-.44A30.66,30.66,0,0,1,1628.44,3259.65Z"/><path class="cls-2" d="M1967.11,3226.19l-100.53,100.53a30.65,30.65,0,0,1-43.35,0h0l-.44-.44a30.67,30.67,0,0,1,0-43.36l100.53-100.53a30.68,30.68,0,0,1,43.37,0l.43.44C1977.48,3194.46,1976.05,3213.29,1967.11,3226.19Z"/><path class="cls-2" d="M2142.22,2963.48l332.26-332.26a30.67,30.67,0,0,1,43.36,0l.44.44a30.65,30.65,0,0,1,0,43.35h0L2186,3007.28a30.65,30.65,0,0,1-43.35,0h0l-.44-.44A30.67,30.67,0,0,1,2142.22,2963.48Z"/><rect class="cls-2" x="2046.63" y="3040.68" width="62.38" height="61.94" rx="30.66" ry="30.66" transform="translate(-1563.04 2367) rotate(-44.97)"/><path class="cls-2" d="M1608.26,3585l-.75.75a30.67,30.67,0,0,1-43.36,0l-.43-.44a30.65,30.65,0,0,1,0-43.35h0l.74-.75a30.68,30.68,0,0,1,43.37,0l.43.44a30.65,30.65,0,0,1,0,43.35Z"/><path class="cls-2" d="M1784.13,3626.78,1683.6,3727.31a30.65,30.65,0,0,1-43.35,0h0l-.44-.44a30.67,30.67,0,0,1,0-43.36L1740.33,3583a30.68,30.68,0,0,1,43.37,0l.43.44a30.64,30.64,0,0,1,0,43.33Z"/><path class="cls-2" d="M1867.33,3456l332.26-332.26a30.67,30.67,0,0,1,43.36,0l.43.44a30.65,30.65,0,0,1,0,43.35h0L1911.13,3499.8a30.68,30.68,0,0,1-43.37,0l-.43-.44C1857,3487.73,1858.39,3468.9,1867.33,3456Z"/><rect class="cls-2" x="1522.03" y="3783.05" width="62.38" height="61.94" rx="30.66" ry="30.66" transform="translate(-2241.15 2213.41) rotate(-44.97)"/><path class="cls-2" d="M2442.3,2881l100.54-100.53a30.67,30.67,0,0,1,43.36,0l.44.44a30.67,30.67,0,0,1,0,43.36L2486.1,2924.8a30.67,30.67,0,0,1-43.36,0l-.44-.44A30.67,30.67,0,0,1,2442.3,2881Z"/><rect class="cls-2" x="2641.94" y="2662.81" width="62.38" height="61.94" rx="30.66" ry="30.66" transform="translate(-1121.84 2677.85) rotate(-44.98)"/><path class="cls-2" d="M2928.3,3350.72l-100.53,100.53a30.67,30.67,0,0,1-43.36,0l-.44-.44a30.67,30.67,0,0,1,0-43.36l100.53-100.53a30.68,30.68,0,0,1,43.37,0l.43.44a30.65,30.65,0,0,1,0,43.35h0Z"/><path class="cls-2" d="M3018.12,3260.9l-.75.75a30.67,30.67,0,0,1-43.36,0l-.44-.44a30.67,30.67,0,0,1,0-43.36l.75-.75a30.67,30.67,0,0,1,43.36,0l.44.44a30.65,30.65,0,0,1,0,43.35h0Z"/><rect class="cls-2" x="2847.91" y="3039.28" width="203.5" height="61.94" rx="30.66" ry="30.66" transform="translate(-1307.06 2984.98) rotate(-45)"/><path class="cls-2" d="M2633.17,3343l.75-.75a30.67,30.67,0,0,1,43.36,0l.44.44a30.67,30.67,0,0,1,0,43.36l-.75.75a30.67,30.67,0,0,1-43.36,0l-.44-.44a30.65,30.65,0,0,1,0-43.35h0Z"/><path class="cls-2" d="M1987.17,3771.35l332.26-332.26a30.67,30.67,0,0,1,43.36,0l.44.44a30.67,30.67,0,0,1,0,43.36L2031,3815.15a30.67,30.67,0,0,1-43.36,0l-.44-.44A30.67,30.67,0,0,1,1987.17,3771.35Z"/><rect class="cls-2" x="2537.94" y="3131.64" width="203.5" height="61.94" rx="30.66" ry="30.66" transform="translate(-1463.16 2792.85) rotate(-45)"/><rect class="cls-2" x="2748.19" y="2992.18" width="62.38" height="61.94" rx="30.66" ry="30.66" transform="translate(-1323.54 2848.63) rotate(-44.97)"/><path class="cls-2" d="M2283.61,3344.91l-100.53,100.53a30.67,30.67,0,0,1-43.36,0l-.44-.44a30.65,30.65,0,0,1,0-43.35h0l100.53-100.53a30.65,30.65,0,0,1,43.35,0h0l.44.44A30.67,30.67,0,0,1,2283.61,3344.91Z"/><rect class="cls-2" x="2518.94" y="2933.02" width="203.5" height="61.94" rx="30.66" ry="30.66" transform="translate(-1328.28 2721.24) rotate(-45)"/><path class="cls-2" d="M2415.56,3125.35l.75-.75a30.67,30.67,0,0,1,43.36,0l.44.44a30.65,30.65,0,0,1,0,43.35h0l-.75.75a30.65,30.65,0,0,1-43.35,0h0l-.44-.44A30.67,30.67,0,0,1,2415.56,3125.35Z"/><path class="cls-2" d="M2075,3553.46l-.75.75a30.65,30.65,0,0,1-43.35,0h0l-.44-.44a30.67,30.67,0,0,1,0-43.36l.75-.74a30.67,30.67,0,0,1,43.36,0h0l.44.44a30.65,30.65,0,0,1,0,43.35h0Z"/><path class="cls-2" d="M3042.85,3586.09l100.53-100.53a30.67,30.67,0,0,1,43.36,0l.44.44a30.65,30.65,0,0,1,0,43.35h0l-100.53,100.53a30.65,30.65,0,0,1-43.35,0h0l-.44-.43A30.68,30.68,0,0,1,3042.85,3586.09Z"/><path class="cls-2" d="M2909.88,3719.07l.75-.75a30.65,30.65,0,0,1,43.35,0h0l.44.44a30.67,30.67,0,0,1,0,43.36l-.75.75a30.67,30.67,0,0,1-43.36,0l-.44-.44a30.65,30.65,0,0,1,0-43.35h0Z"/><rect class="cls-2" x="3417.22" y="3775.62" width="203.5" height="61.94" rx="30.66" ry="30.66" transform="translate(-1660.98 3603.21) rotate(-45)"/><path class="cls-2" d="M2795,3616.3,3127.3,3284a30.67,30.67,0,0,1,43.36,0l.44.44a30.67,30.67,0,0,1,0,43.36l-332.26,332.3a30.67,30.67,0,0,1-43.36,0l-.44-.44A30.67,30.67,0,0,1,2795,3616.3Z"/><path class="cls-2" d="M2752.9,3746l-.75.75a30.65,30.65,0,0,1-43.35,0h0l-.43-.43a30.67,30.67,0,0,1,0-43.36h0l.74-.74a30.67,30.67,0,0,1,43.36,0h0l.43.43a30.65,30.65,0,0,1,0,43.35Z"/><path class="cls-2" d="M3203.92,3642.62l100.54-100.53a30.67,30.67,0,0,1,43.36,0l.44.44a30.67,30.67,0,0,1,0,43.36l-100.54,100.53a30.67,30.67,0,0,1-43.36,0l-.44-.44A30.67,30.67,0,0,1,3203.92,3642.62Z"/><rect class="cls-2" x="3403.55" y="3424.57" width="62.38" height="61.94" rx="30.66" ry="30.66" transform="translate(-1437.42 3438.28) rotate(-44.97)"/><path class="cls-2" d="M3260.46,3803.7,3361,3703.17a30.65,30.65,0,0,1,43.35,0h0l.44.44a30.67,30.67,0,0,1,0,43.36L3304.26,3847.5a30.68,30.68,0,0,1-43.37,0l-.43-.44a30.65,30.65,0,0,1,0-43.35h0Z"/><path class="cls-2" d="M3435.64,3628.52,3536.17,3528a30.67,30.67,0,0,1,43.36,0l.44.44a30.67,30.67,0,0,1,0,43.36l-100.54,100.53a30.67,30.67,0,0,1-43.36,0l-.43-.44a30.65,30.65,0,0,1,0-43.35h0Z"/><path class="cls-2" d="M3176.1,3888.06l.75-.75a30.67,30.67,0,0,1,43.36,0l.44.44a30.67,30.67,0,0,1,0,43.36l-.75.75a30.67,30.67,0,0,1-43.36,0l-.44-.44a30.65,30.65,0,0,1,0-43.35h0Z"/><path class="cls-2" d="M3738.89,3760.47l.75-.75a30.67,30.67,0,0,1,43.36,0l.44.44a30.67,30.67,0,0,1,0,43.36l-.75.75a30.65,30.65,0,0,1-43.35,0h0l-.44-.44A30.67,30.67,0,0,1,3738.89,3760.47Z"/><path class="cls-2" d="M2543.09,1997.4l-100.54,100.53a30.65,30.65,0,0,1-43.35,0h0l-.44-.44a30.67,30.67,0,0,1,0-43.36L2499.3,1953.6a30.67,30.67,0,0,1,43.36,0l.44.44A30.67,30.67,0,0,1,2543.09,1997.4Z"/><path class="cls-2" d="M3844.48,696l-332.26,332.26a30.65,30.65,0,0,1-43.35,0h0l-.44-.44a30.67,30.67,0,0,1,0-43.36L3800.68,652.2a30.67,30.67,0,0,1,43.36,0l.44.44a30.65,30.65,0,0,1,0,43.35h0Z"/><path class="cls-2" d="M3302.68,1237.81l-266.55,266.55a30.67,30.67,0,0,1-43.36,0l-.44-.44a30.67,30.67,0,0,1,0-43.36L3258.88,1194a30.67,30.67,0,0,1,43.36,0l.44.44a30.6,30.6,0,0,1,.23,43.27l0,0A.18.18,0,0,1,3302.68,1237.81Z"/><rect class="cls-2" x="2622.63" y="1812.11" width="62.38" height="61.94" rx="30.66" ry="30.66" transform="translate(-526.27 2414.69) rotate(-44.97)"/><path class="cls-2" d="M3478.62,756.66,3810.88,424.4a30.67,30.67,0,0,1,43.36,0l.44.44a30.67,30.67,0,0,1,0,43.36L3522.42,800.46a30.67,30.67,0,0,1-43.36,0l-.44-.44A30.76,30.76,0,0,1,3478.62,756.66Z"/><rect class="cls-2" x="2350.2" y="1796.16" width="203.5" height="61.94" rx="30.66" ry="30.66" transform="translate(-573.81 2268.94) rotate(-45)"/><path class="cls-2" d="M2602.21,1633.07l332.26-332.25a30.65,30.65,0,0,1,43.35,0h0l.44.43a30.68,30.68,0,0,1,0,43.37L2646,1676.87a30.65,30.65,0,0,1-43.35,0h0l-.44-.43a30.67,30.67,0,0,1,0-43.36h0Z"/><path class="cls-2" d="M3896.82,338.46l.75-.74a30.65,30.65,0,0,1,43.35,0h0l.44.43a30.67,30.67,0,0,1,0,43.36l-.75.75a30.65,30.65,0,0,1-43.35,0h0l-.44-.43a30.67,30.67,0,0,1,0-43.36h0Z"/><path class="cls-2" d="M2290,1945.33l.75-.75a30.67,30.67,0,0,1,43.36,0l.44.44a30.67,30.67,0,0,1,0,43.36l-.75.75a30.67,30.67,0,0,1-43.36,0l-.44-.44A30.67,30.67,0,0,1,2290,1945.33Z"/><path class="cls-2" d="M3912.82,192.46,3812.28,293a30.67,30.67,0,0,1-43.36,0l-.44-.44a30.67,30.67,0,0,1,0-43.36L3869,148.66a30.67,30.67,0,0,1,43.36,0l.44.44A30.68,30.68,0,0,1,3912.82,192.46Z"/><rect class="cls-2" x="2058.85" y="1869.9" width="203.5" height="61.94" rx="30.66" ry="30.66" transform="translate(-711.29 2084.53) rotate(-45)"/><path class="cls-2" d="M2407.87,1609.81l332.26-332.26a30.65,30.65,0,0,1,43.35,0h0l.44.44a30.67,30.67,0,0,1,0,43.36L2451.67,1653.6a30.65,30.65,0,0,1-43.35,0h0l-.44-.43a30.59,30.59,0,0,1-.22-43.27l0,0A.16.16,0,0,1,2407.87,1609.81Z"/><path class="cls-2" d="M2959.84,1057.83,3292.1,725.58a30.65,30.65,0,0,1,43.35,0h0l.44.44a30.67,30.67,0,0,1,0,43.36l-332.26,332.25a30.65,30.65,0,0,1-43.35,0h0l-.44-.43A30.68,30.68,0,0,1,2959.84,1057.83Z"/><path class="cls-2" d="M2365.73,1739.54l-.75.75a30.67,30.67,0,0,1-43.36,0l-.43-.44a30.65,30.65,0,0,1,0-43.35h0l.74-.75a30.68,30.68,0,0,1,43.37,0l.43.44a30.65,30.65,0,0,1,0,43.35Z"/><path class="cls-2" d="M2610.17,1277.5l-332.26,332.26a30.67,30.67,0,0,1-43.36,0l-.44-.44a30.67,30.67,0,0,1,0-43.36l332.26-332.26a30.67,30.67,0,0,1,43.36,0l.44.44A30.67,30.67,0,0,1,2610.17,1277.5Z"/><rect class="cls-2" x="3373.32" y="337.8" width="203.5" height="61.94" rx="30.66" ry="30.66" transform="translate(757.07 2565.26) rotate(-45)"/><path class="cls-2" d="M3198.63,689l-332.26,332.25a30.65,30.65,0,0,1-43.35,0h0l-.43-.43a30.67,30.67,0,0,1,0-43.36h0L3154.83,645.2a30.67,30.67,0,0,1,43.36,0h0l.43.44a30.65,30.65,0,0,1,0,43.35h0Z"/><path class="cls-2" d="M3679.21,120.86l.75-.75a30.67,30.67,0,0,1,43.36,0l.44.44a30.67,30.67,0,0,1,0,43.36l-.75.75a30.67,30.67,0,0,1-43.36,0l-.44-.44A30.67,30.67,0,0,1,3679.21,120.86Z"/><path class="cls-2" d="M3338.7,549l-.75.75a30.67,30.67,0,0,1-43.36,0l-.44-.44a30.67,30.67,0,0,1,0-43.36l.75-.75a30.67,30.67,0,0,1,43.36,0l.44.44A30.67,30.67,0,0,1,3338.7,549Z"/><rect class="cls-2" x="1990.49" y="1720.65" width="203.5" height="61.94" rx="30.66" ry="30.66" transform="translate(-625.78 1992.47) rotate(-45)"/><path class="cls-2" d="M1955.85,1931.82l-.75.75a30.65,30.65,0,0,1-43.35,0h0l-.44-.44a30.67,30.67,0,0,1,0-43.36l.75-.75a30.67,30.67,0,0,1,43.36,0l.44.44A30.68,30.68,0,0,1,1955.85,1931.82Z"/><path class="cls-2" d="M3182.54,1575.55,3082,1676.08a30.65,30.65,0,0,1-43.35,0h0l-.43-.43a30.67,30.67,0,0,1,0-43.36h0l100.53-100.53a30.67,30.67,0,0,1,43.36,0l.44.44A30.67,30.67,0,0,1,3182.54,1575.55Z"/><path class="cls-2" d="M2398.31,2359.78l-100.53,100.53a30.67,30.67,0,0,1-43.36,0l-.44-.44a30.67,30.67,0,0,1,0-43.36L2354.51,2316a30.65,30.65,0,0,1,43.35,0h0l.44.43a30.65,30.65,0,0,1,0,43.35Z"/><path class="cls-2" d="M2833.91,1924.18l-332.25,332.25a30.67,30.67,0,0,1-43.36,0h0l-.43-.43a30.65,30.65,0,0,1,0-43.35h0l332.25-332.26a30.67,30.67,0,0,1,43.36,0h0l.43.43a30.67,30.67,0,0,1,0,43.36Z"/><path class="cls-2" d="M3555.82,1114.67l332.26-332.25a30.65,30.65,0,0,1,43.35,0h0l.44.43a30.68,30.68,0,0,1,0,43.37l-332.26,332.25a30.65,30.65,0,0,1-43.35,0h0l-.44-.43A30.68,30.68,0,0,1,3555.82,1114.67Z"/><path class="cls-2" d="M3272.35,1485.73l-.75.75a30.65,30.65,0,0,1-43.35,0h0l-.43-.43a30.67,30.67,0,0,1,0-43.36h0l.74-.74a30.67,30.67,0,0,1,43.36,0h0l.43.43a30.65,30.65,0,0,1,0,43.35Z"/><rect class="cls-2" x="3759.21" y="1039.96" width="203.5" height="61.94" rx="30.66" ry="30.66" transform="translate(373.59 3043.78) rotate(-45)"/><path class="cls-2" d="M2599.64,2376.05l-100.53,100.54a30.67,30.67,0,0,1-43.36,0l-.44-.44a30.67,30.67,0,0,1,0-43.36l100.54-100.53a30.65,30.65,0,0,1,43.35,0h0l.43.43a30.62,30.62,0,0,1,.1,43.3l0,0A.1.1,0,0,1,2599.64,2376.05Z"/><path class="cls-2" d="M3553.14,1422.56l-332.26,332.26a30.67,30.67,0,0,1-43.36,0l-.44-.44a30.67,30.67,0,0,1,0-43.36l332.26-332.26a30.67,30.67,0,0,1,43.36,0l.44.44A30.67,30.67,0,0,1,3553.14,1422.56Z"/><rect class="cls-2" x="2790.49" y="2079.2" width="62.38" height="61.94" rx="30.66" ry="30.66" transform="translate(-665.92 2611.46) rotate(-44.97)"/><path class="cls-2" d="M3699,1189.13l.75-.75a30.65,30.65,0,0,1,43.35,0h0l.44.43a30.68,30.68,0,0,1,0,43.37l-.75.74a30.65,30.65,0,0,1-43.35,0h0l-.44-.43A30.67,30.67,0,0,1,3699,1189.13Z"/><path class="cls-2" d="M3490,1703.34,3157.7,2035.6a30.67,30.67,0,0,1-43.36,0l-.44-.44a30.67,30.67,0,0,1,0-43.36l332.26-332.26a30.67,30.67,0,0,1,43.36,0l.44.44a30.65,30.65,0,0,1,.06,43.35h0Z"/><path class="cls-2" d="M2819.79,2373.51,2719.26,2474a30.65,30.65,0,0,1-43.35,0h0l-.44-.44a30.67,30.67,0,0,1,0-43.36L2776,2329.71a30.67,30.67,0,0,1,43.36,0l.44.44a30.65,30.65,0,0,1,0,43.35h0Z"/><path class="cls-2" d="M2909.61,2283.69l-.75.75a30.65,30.65,0,0,1-43.35,0h0l-.44-.44a30.67,30.67,0,0,1,0-43.36l.75-.75a30.67,30.67,0,0,1,43.36,0l.44.44A30.67,30.67,0,0,1,2909.61,2283.69Z"/><path class="cls-2" d="M3918.2,1492.71l-100.53,100.53a30.67,30.67,0,0,1-43.36,0l-.44-.44a30.67,30.67,0,0,1,0-43.36l100.54-100.53a30.67,30.67,0,0,1,43.36,0l.43.44a30.65,30.65,0,0,1,0,43.35h0Z"/><path class="cls-2" d="M2928.59,2482.31l-100.53,100.53a30.67,30.67,0,0,1-43.36,0l-.44-.44a30.67,30.67,0,0,1,0-43.36l100.54-100.53a30.67,30.67,0,0,1,43.36,0l.44.44a30.67,30.67,0,0,1,0,43.36h0Z"/><path class="cls-2" d="M3569.58,1841.33l-332.26,332.26a30.67,30.67,0,0,1-43.36,0l-.44-.44a30.67,30.67,0,0,1,0-43.36l332.26-332.26a30.67,30.67,0,0,1,43.36,0l.44.44A30.67,30.67,0,0,1,3569.58,1841.33Z"/><path class="cls-2" d="M3061.57,2349.34l-.75.75a30.67,30.67,0,0,1-43.36,0l-.44-.44a30.67,30.67,0,0,1,0-43.36l.75-.75a30.65,30.65,0,0,1,43.35,0h0l.44.44A30.67,30.67,0,0,1,3061.57,2349.34Z"/><path class="cls-2" d="M3709.65,1701.27l-.75.74a30.65,30.65,0,0,1-43.35,0h0l-.44-.43a30.65,30.65,0,0,1,0-43.35h0l.75-.75a30.65,30.65,0,0,1,43.35,0h0l.44.43A30.68,30.68,0,0,1,3709.65,1701.27Z"/><path class="cls-2" d="M3412.35,2866.67,3311.82,2967.2a30.67,30.67,0,0,1-43.36,0l-.44-.44a30.67,30.67,0,0,1,0-43.36l100.54-100.53a30.67,30.67,0,0,1,43.36,0l.43.44a30.65,30.65,0,0,1,0,43.35h0Z"/><rect class="cls-2" x="3163.68" y="3009.64" width="62.38" height="61.94" rx="30.66" ry="30.66" transform="translate(-1214.34 3147.38) rotate(-44.97)"/><path class="cls-2" d="M3633.67,2645.35l-.75.75a30.67,30.67,0,0,1-43.36,0l-.44-.44a30.67,30.67,0,0,1,0-43.36l.75-.75a30.67,30.67,0,0,1,43.36,0l.44.44a30.65,30.65,0,0,1,0,43.35h0Z"/><rect class="cls-2" x="3220.61" y="2666.58" width="203.5" height="61.94" rx="30.66" ry="30.66" transform="translate(-934.36 3139.36) rotate(-45)"/><path class="cls-2" d="M3472.63,2503.5l332.26-332.26a30.67,30.67,0,0,1,43.36,0l.44.44a30.67,30.67,0,0,1,0,43.36L3516.43,2547.3a30.67,30.67,0,0,1-43.36,0l-.44-.44a30.59,30.59,0,0,1-.22-43.27l0,0A.14.14,0,0,1,3472.63,2503.5Z"/><path class="cls-2" d="M3160.37,2815.75l.75-.75a30.67,30.67,0,0,1,43.36,0l.44.44a30.65,30.65,0,0,1,0,43.35h0l-.75.75a30.67,30.67,0,0,1-43.36,0h0l-.44-.44A30.67,30.67,0,0,1,3160.37,2815.75Z"/><path class="cls-2" d="M3103.18,2742.94l-100.53,100.53a30.67,30.67,0,0,1-43.36,0l-.44-.44a30.67,30.67,0,0,1,0-43.36l100.53-100.53a30.67,30.67,0,0,1,43.36,0h0l.43.44a30.65,30.65,0,0,1,0,43.35h0Z"/><path class="cls-2" d="M3278.29,2480.23,3610.55,2148a30.67,30.67,0,0,1,43.36,0l.44.44a30.65,30.65,0,0,1,0,43.35h0L3322.09,2524a30.67,30.67,0,0,1-43.36,0l-.44-.44A30.67,30.67,0,0,1,3278.29,2480.23Z"/><path class="cls-2" d="M3236.16,2610l-.75.75a30.65,30.65,0,0,1-43.35,0h0l-.44-.44a30.65,30.65,0,0,1,0-43.35h0l.75-.75a30.67,30.67,0,0,1,43.36,0l.44.44A30.67,30.67,0,0,1,3236.16,2610Z"/><path class="cls-2" d="M3480.59,2147.92l-332.26,332.26a30.67,30.67,0,0,1-43.36,0l-.44-.44a30.67,30.67,0,0,1,0-43.36l332.26-332.26a30.67,30.67,0,0,1,43.36,0l.44.44A30.67,30.67,0,0,1,3480.59,2147.92Z"/><rect class="cls-2" x="2860.91" y="2591.07" width="203.5" height="61.94" rx="30.66" ry="30.66" transform="translate(-986.32 2862.89) rotate(-45)"/><path class="cls-2" d="M2826.27,2802.25l-.75.74a30.65,30.65,0,0,1-43.35,0h0l-.44-.43a30.67,30.67,0,0,1,0-43.36l.75-.75a30.65,30.65,0,0,1,43.35,0h0l.44.43A30.68,30.68,0,0,1,2826.27,2802.25Z"/><rect class="cls-2" x="3497.32" y="3042.69" width="203.5" height="61.94" rx="30.66" ry="30.66" transform="translate(-1119.26 3445.18) rotate(-45)"/><path class="cls-2" d="M3437.08,3191.86l.75-.75a30.67,30.67,0,0,1,43.36,0l.44.44a30.65,30.65,0,0,1,0,43.35h0l-.75.75a30.67,30.67,0,0,1-43.36,0l-.44-.44A30.67,30.67,0,0,1,3437.08,3191.86Z"/><path class="cls-2" d="M3313.79,3315.15l.75-.75a30.67,30.67,0,0,1,43.36,0l.44.44a30.65,30.65,0,0,1,0,43.35h0l-.75.75a30.67,30.67,0,0,1-43.36,0l-.44-.44A30.67,30.67,0,0,1,3313.79,3315.15Z"/><path class="cls-2" d="M3749,2879.91l.75-.75a30.67,30.67,0,0,1,43.36,0l.44.44a30.65,30.65,0,0,1,0,43.35h0l-.75.75a30.67,30.67,0,0,1-43.36,0l-.44-.44A30.67,30.67,0,0,1,3749,2879.91Z"/><path class="cls-2" d="M3796.48,3572.89l-100.54,100.53a30.67,30.67,0,0,1-43.36,0l-.44-.44a30.67,30.67,0,0,1,0-43.36l100.54-100.53a30.65,30.65,0,0,1,43.35,0h0l.44.43A30.69,30.69,0,0,1,3796.48,3572.89Z"/><path class="cls-2" d="M3472.61,3026.33l-100.53,100.53a30.67,30.67,0,0,1-43.36,0l-.44-.44a30.65,30.65,0,0,1,0-43.35h0l100.53-100.53a30.65,30.65,0,0,1,43.35,0h0l.44.44A30.67,30.67,0,0,1,3472.61,3026.33Z"/><path class="cls-2" d="M3694.07,2804.87l-.74.74a30.68,30.68,0,0,1-43.37,0l-.44-.44a30.65,30.65,0,0,1,0-43.35h0l.76-.76a30.65,30.65,0,0,1,43.35,0h0l.44.44a30.67,30.67,0,0,1,0,43.36h0Z"/><path class="cls-2" d="M3562.43,2936.51l-.75.75a30.67,30.67,0,0,1-43.36,0l-.44-.44a30.65,30.65,0,0,1,0-43.35h0l.75-.75a30.67,30.67,0,0,1,43.36,0l.44.44A30.67,30.67,0,0,1,3562.43,2936.51Z"/><path class="cls-2" d="M3690.21,3243.93l-100.53,100.53a30.67,30.67,0,0,1-43.36,0l-.44-.44a30.67,30.67,0,0,1,0-43.36l100.54-100.53a30.67,30.67,0,0,1,43.36,0l.43.44a30.65,30.65,0,0,1,0,43.35h0Z"/><path class="cls-2" d="M3823.19,3111l-.75.75a30.67,30.67,0,0,1-43.36,0l-.44-.44a30.67,30.67,0,0,1,0-43.36l.75-.75a30.65,30.65,0,0,1,43.35,0h0l.44.44A30.68,30.68,0,0,1,3823.19,3111Z"/><rect class="cls-2" x="3714.92" y="3260.29" width="203.5" height="61.94" rx="30.66" ry="30.66" transform="translate(-1209.4 3662.78) rotate(-45)"/><path class="cls-2" d="M3654.69,3409.47l.75-.75a30.65,30.65,0,0,1,43.35,0h0l.44.44a30.67,30.67,0,0,1,0,43.36l-.75.74a30.67,30.67,0,0,1-43.36,0h0l-.44-.44a30.65,30.65,0,0,1,0-43.35h0Z"/><path class="cls-2" d="M3804.74,0a30.65,30.65,0,0,0,7.44,31.25l.44.44a30.67,30.67,0,0,0,43.36,0L3887.67,0Z"/><path class="cls-2" d="M3551.63,0,3406.54,145.09a30.67,30.67,0,0,0,0,43.36l.44.44a30.65,30.65,0,0,0,43.35,0h0L3639.23,0Z"/><path class="cls-2" d="M2259,0a30.54,30.54,0,0,0,9,21.43l.44.44a30.67,30.67,0,0,0,43.36,0l.75-.75a30.56,30.56,0,0,0,9-21.12Z"/><path class="cls-2" d="M1158,0l-47.12,47.12a30.67,30.67,0,0,0,0,43.36l.44.44a30.67,30.67,0,0,0,43.36,0L1245.57,0Z"/><path class="cls-2" d="M505.16,0,465,40.15a30.65,30.65,0,0,0,0,43.35h0l.44.44a30.67,30.67,0,0,0,43.36,0L592.76,0Z"/><path class="cls-2" d="M307.89,0a30.51,30.51,0,0,0,8.2,14.83l.43.43a30.67,30.67,0,0,0,43.36,0h0L375.15,0Z"/><path class="cls-2" d="M280.56,1356.86l-.44-.43a30.65,30.65,0,0,0-43.35,0h0L0,1593.19v87.6l280.56-280.57A30.67,30.67,0,0,0,280.56,1356.86Z"/><path class="cls-2" d="M17.42,967.19l-.44-.44a30.51,30.51,0,0,0-17-8.61v61.72a30.55,30.55,0,0,0,16.67-8.56l.75-.75A30.68,30.68,0,0,0,17.42,967.19Z"/><path class="cls-2" d="M125.29,424.11l-.44-.44a30.67,30.67,0,0,0-43.36,0L0,505.16v71.66A30.64,30.64,0,0,0,24.76,568L125.29,467.47A30.67,30.67,0,0,0,125.29,424.11Z"/><path class="cls-2" d="M68.73,45.45,68.29,45a30.65,30.65,0,0,0-43.35,0h0L0,70v87.6L68.73,88.82A30.68,30.68,0,0,0,68.73,45.45Z"/><path class="cls-2" d="M242.25,2918.41l-.44-.44a30.67,30.67,0,0,0-43.36,0L0,3116.42V3204l242.24-242.24a30.65,30.65,0,0,0,0-43.35h0Z"/><path class="cls-2" d="M252.45,2690.61l-.44-.44a30.67,30.67,0,0,0-43.36,0L0,2898.81v87.6L252.45,2734a30.68,30.68,0,0,0,0-43.37Z"/><path class="cls-2" d="M114.46,2611l-.44-.43a30.65,30.65,0,0,0-43.35,0h0L0,2681.2v87.6l114.45-114.45A30.67,30.67,0,0,0,114.46,2611Z"/><path class="cls-2" d="M34.84,2473l-.44-.44A30.69,30.69,0,0,0,0,2466.34v84.86l34.83-34.84a30.65,30.65,0,0,0,0-43.35h0Z"/><path class="cls-2" d="M78.67,2211.57l-.44-.44a30.67,30.67,0,0,0-43.36,0L0,2246v87.6l78.66-78.66a30.65,30.65,0,0,0,0-43.35h0Z"/><path class="cls-2" d="M217.39,1637.64l-.44-.43a30.65,30.65,0,0,0-43.35,0h0L0,1810.78v87.6L217.39,1681A30.67,30.67,0,0,0,217.39,1637.64Z"/><path class="cls-2" d="M30.33,3814l-.43-.44A30.63,30.63,0,0,0,0,3805.68v82l30.32-30.32a30.65,30.65,0,0,0,0-43.35h0Z"/><path class="cls-2" d="M2310.52,3968.5l269.16-269.16a30.67,30.67,0,0,0,0-43.36l-.44-.44a30.67,30.67,0,0,0-43.36,0l-313,313Z"/><path class="cls-2" d="M1660,3968.5l275-275a30.65,30.65,0,0,0,0-43.35h0l-.43-.44a30.67,30.67,0,0,0-43.36,0l-318.8,318.8Z"/><path class="cls-2" d="M1440.69,3968.5a30.68,30.68,0,0,0-5.18-36.46l-.44-.44a30.67,30.67,0,0,0-43.36,0l-36.9,36.9Z"/><path class="cls-2" d="M136.78,3968.5l7.61-7.62a30.65,30.65,0,0,0,0-43.35h0l-.44-.44a30.67,30.67,0,0,0-43.36,0L49.18,3968.5Z"/><path class="cls-2" d="M354.38,3968.5,390,3932.85a30.67,30.67,0,0,0,0-43.36l-.44-.44a30.67,30.67,0,0,0-43.36,0l-79.45,79.45Z"/><path class="cls-2" d="M3618.46,3968.5l56.2-56.2a30.65,30.65,0,0,0,0-43.35h0l-.43-.44a30.67,30.67,0,0,0-43.36,0h0l-100,100Z"/><path class="cls-2" d="M2530.44,3968.5l89.49-89.49a30.67,30.67,0,0,0,0-43.36l-.44-.44a30.65,30.65,0,0,0-43.35,0h0L2475.6,3935.74a30.66,30.66,0,0,0-6.91,32.76Z"/><path class="cls-2" d="M3817.18,3968.5a30.44,30.44,0,0,0-8.45-16l-.44-.44a30.67,30.67,0,0,0-43.36,0l-16.46,16.46Z"/><path class="cls-2" d="M3968.51,2442.83l-201.79,201.79a30.67,30.67,0,0,0,0,43.36l.44.44a30.67,30.67,0,0,0,43.36,0l158-158Z"/><path class="cls-2" d="M3968.51,2222.91l-276.86,276.86a30.67,30.67,0,0,0,0,43.36h0l.44.43a30.65,30.65,0,0,0,43.35,0h0L3968.5,2310.5Z"/><path class="cls-2" d="M3968.51,2007.62l-34.83,34.82a30.67,30.67,0,0,0,0,43.36l.44.44a30.65,30.65,0,0,0,34.39,6.23Z"/><path class="cls-2" d="M3968.51,1572.41,3693,1847.92a30.65,30.65,0,0,0,0,43.35h0l.44.44a30.67,30.67,0,0,0,43.36,0L3968.51,1660Z"/><path class="cls-2" d="M3968.51,1137.19l-85.7,85.7a30.67,30.67,0,0,0,0,43.36l.44.44a30.67,30.67,0,0,0,43.36,0l41.9-41.9Z"/><path class="cls-2" d="M3968.47,2660.47l-92.95,93a30.67,30.67,0,0,0,0,43.36l.44.44a30.67,30.67,0,0,0,43.36,0l49.15-49.15Z"/><path class="cls-2" d="M3968.47,2878.08l-13.33,13.33a30.67,30.67,0,0,0,0,43.36l.44.44a30.5,30.5,0,0,0,12.89,7.7Z"/><path class="cls-2" d="M3968.47,3748.5l-98.72,98.72a30.67,30.67,0,0,0,0,43.36l.44.44a30.65,30.65,0,0,0,43.35,0h0l54.92-54.92Z"/></svg>