<?xml version="1.0" standalone="no"?>
<!DOCTYPE svg PUBLIC "-//W3C//DTD SVG 20010904//EN"
 "http://www.w3.org/TR/2001/REC-SVG-20010904/DTD/svg10.dtd">
<svg version="1.0" xmlns="http://www.w3.org/2000/svg"
 width="101.000000pt" height="101.000000pt" viewBox="0 0 101.000000 101.000000"
 preserveAspectRatio="xMidYMid meet">
<metadata>
Created by potrace 1.11, written by Peter Selinger 2001-2013
</metadata>
<g transform="translate(0.000000,101.000000) scale(0.100000,-0.100000)"
fill="#000000" stroke="none">
<path d="M134 765 c-14 -10 -18 -29 -19 -102 -2 -99 -16 -133 -65 -154 l-27
-13 31 -15 c43 -22 60 -63 61 -153 0 -48 5 -82 13 -90 10 -10 94 -13 355 -14
188 0 350 2 359 4 24 6 32 35 33 118 1 80 19 118 65 138 l29 12 -28 11 c-49
18 -64 53 -66 155 -2 74 -5 94 -20 104 -25 19 -696 18 -721 -1z m293 -267
c-47 -89 -90 -164 -97 -166 -7 -3 23 65 66 149 89 176 107 206 112 191 2 -6
-35 -84 -81 -174z m-156 155 c1 -5 2 -77 3 -160 1 -115 -2 -153 -11 -153 -8 0
-13 21 -15 58 -5 98 3 262 13 262 5 0 10 -3 10 -7z m440 -12 c19 -16 25 -31
29 -87 7 -101 -2 -170 -26 -194 -25 -26 -71 -32 -111 -15 -39 17 -49 49 -47
154 2 112 2 110 29 136 30 31 92 34 126 6z"/>
<path d="M619 633 c-28 -7 -40 -51 -38 -142 1 -107 14 -131 68 -131 56 0 64
15 66 132 1 129 -20 161 -96 141z"/>
</g>
</svg>
