<svg viewBox="0 0 453.74 563.87" xmlns="http://www.w3.org/2000/svg" xmlns:xlink="http://www.w3.org/1999/xlink"><clipPath id="a"><path d="m390.35 211.28a11.61 11.61 0 0 0 -.5 3.35 11.39 11.39 0 0 0 11.39 11.37 11.18 11.18 0 0 0 3.35-.5v19.27a6.7 6.7 0 0 1 -6.69 6.69h-26.81a6.7 6.7 0 0 1 -6.7-6.69v-26.77a6.7 6.7 0 0 1 6.7-6.7z"/></clipPath><clipPath id="b"><circle cx="222.54" cy="171.64" r="10.97"/></clipPath><clipPath id="c"><circle cx="192.5" cy="171.64" r="10.97"/></clipPath><clipPath id="d"><circle cx="282.6" cy="171.64" r="10.97"/></clipPath><path d="m86.81 168.78 60.32 87.72-60.32-3.05zm-3-9.66v97.18l69.19 3.5z" fill="#d42a23"/><path d="m92.62 101.68c-15.55-2.52-27.42-15.3-27.42-30.68s11.87-28.09 27.42-30.61v-20.74c-27 2.71-48 24.68-48 51.39s21 48.67 48 51.38z" fill="#d42a23"/><path d="m356.85 85.06a2 2 0 0 1 .93-1.72l11-7.22a1 1 0 0 1 .63-.17 2 2 0 0 1 1.37.63 2 2 0 0 1 .65 1.47 1.38 1.38 0 0 1 -.63 1.22l-8.8 5.79 8.86 5.8a1.26 1.26 0 0 1 .63 1.22 1.94 1.94 0 0 1 -.65 1.45 2 2 0 0 1 -1.37.61 1 1 0 0 1 -.63-.17l-11-7.23a1.94 1.94 0 0 1 -.99-1.68zm30.22 8.47a1.9 1.9 0 0 1 -.65-1.45 1.33 1.33 0 0 1 .59-1.22l8.86-5.8-8.87-5.79a1.47 1.47 0 0 1 -.59-1.22 2.2 2.2 0 0 1 2-2.1.94.94 0 0 1 .59.17l11.05 7.22a2 2 0 0 1 .92 1.72 1.88 1.88 0 0 1 -.92 1.68l-11.05 7.26a.94.94 0 0 1 -.59.17 2 2 0 0 1 -1.34-.64z" fill="#d42a23"/><path d="m373.3 97.76a1.72 1.72 0 0 1 0-.64l7.7-25.12a1.25 1.25 0 0 1 1.11-1 1.88 1.88 0 0 1 1.28.25 1.45 1.45 0 0 1 .71 1.75l-7.69 25a1.39 1.39 0 0 1 -1.23 1 1.63 1.63 0 0 1 -1.88-1.26z" fill="#fac627"/><path d="m379.74 338.39-4-8.5-5.49 4.22v-22.42l16.89 14.52-6.62 1.2 4.07 8.68zm-3.48-10.55 4.11 8.75 2.48-1.17-4.25-9 5.56-1-12.61-10.81v16.83z" fill="#fac627"/><path d="m284.24 49.14-4-8.5-5.49 4.21v-22.42l16.92 14.57-6.62 1.21 4.07 8.68zm-3.47-10.56 4.1 8.75 2.48-1.17-4.25-9 5.56-1-12.6-10.8v16.8z" fill="#fac627"/><g clip-path="url(#a)" fill="#d42a23"><path d="m311.46 214.89h70.35v2.68h-70.35z" transform="matrix(.26 -.96 .96 .26 46.57 493.5)"/><path d="m317.28 216.48h70.35v2.68h-70.35z" transform="matrix(.26404139 -.96451135 .96451135 .26404139 49.32 500.28)"/><path d="m323.09 218.08h70.35v2.68h-70.35z" transform="matrix(.26404139 -.96451135 .96451135 .26404139 52.07 507.06)"/><path d="m328.91 219.67h70.35v2.68h-70.35z" transform="matrix(.26404139 -.96451135 .96451135 .26404139 54.81 513.84)"/><path d="m334.73 221.26h70.35v2.68h-70.35z" transform="matrix(.26404139 -.96451135 .96451135 .26404139 57.56 520.62)"/><path d="m340.54 222.85h70.35v2.68h-70.35z" transform="matrix(.26404139 -.96451135 .96451135 .26404139 60.31 527.41)"/><path d="m346.36 224.44h70.35v2.68h-70.35z" transform="matrix(.26404139 -.96451135 .96451135 .26404139 63.06 534.19)"/><path d="m352.18 226.03h70.35v2.68h-70.35z" transform="matrix(.26404139 -.96451135 .96451135 .26404139 65.8 540.97)"/><path d="m358 227.59h70.35v2.68h-70.35z" transform="matrix(.26404139 -.96451135 .96451135 .26404139 68.59 547.73)"/><path d="m363.82 229.18h70.35v2.68h-70.35z" transform="matrix(.26404139 -.96451135 .96451135 .26404139 71.33 554.52)"/><path d="m369.64 230.77h70.35v2.68h-70.35z" transform="matrix(.26404139 -.96451135 .96451135 .26404139 74.08 561.3)"/><path d="m375.45 232.36h70.35v2.68h-70.35z" transform="matrix(.26404139 -.96451135 .96451135 .26404139 76.83 568.08)"/><path d="m381.27 233.95h70.35v2.68h-70.35z" transform="matrix(.26404139 -.96451135 .96451135 .26404139 79.57 574.86)"/><path d="m387.09 235.54h70.35v2.68h-70.35z" transform="matrix(.26404139 -.96451135 .96451135 .26404139 82.32 581.64)"/></g><circle cx="401.24" cy="213.96" fill="#fac627" r="8.71"/><g fill="#d42a23"><path d="m261.53 468.2a18.21 18.21 0 0 1 -8.87 2c-8.18 0-15.11-6-15.11-15.55 0-10.27 7.13-19.14 18.2-19.14 8.67 0 14.5 6.08 14.5 14.41 0 7.47-4.18 11.86-8.87 11.86-2 0-3.84-1.35-3.69-4.39h-.2c-1.74 2.94-4 4.39-7 4.39s-5.38-2.35-5.38-6.28a11.76 11.76 0 0 1 11.81-11.81 13.14 13.14 0 0 1 5.34 1l-1.7 9c-.74 3.79-.15 5.54 1.5 5.59 2.54 0 5.38-3.34 5.38-9.13 0-7.22-4.34-12.41-12.06-12.41-8.12 0-15 6.43-15 16.55 0 8.33 5.44 13.46 12.81 13.46a15.63 15.63 0 0 0 7.53-1.74zm-2.74-21.54a9.07 9.07 0 0 0 -2.49-.34c-4.39 0-7.93 4.13-7.93 9 0 2.19 1.1 3.79 3.29 3.79 2.89 0 5.53-3.69 6.08-6.78z"/><path d="m282.76 331.32a2.28 2.28 0 0 1 -1.57-.61 38.69 38.69 0 0 0 -54.75 0 2.16 2.16 0 0 1 -3.06-3.06 43.08 43.08 0 0 1 60.87 0 2.12 2.12 0 0 1 0 3.06 1.83 1.83 0 0 1 -1.49.61z"/><path d="m272.36 342.77a2.24 2.24 0 0 1 -1.58-.61 23.22 23.22 0 0 0 -32.88 0 2.16 2.16 0 0 1 -3.06-3.06 27.67 27.67 0 0 1 39 0 2.1 2.1 0 0 1 0 3.06 1.9 1.9 0 0 1 -1.48.61z"/><path d="m290.81 318.81a2.24 2.24 0 0 1 -1.58-.61 50.08 50.08 0 0 0 -70.74 0 2.16 2.16 0 0 1 -3.06-3.06 54.57 54.57 0 0 1 76.95 0 2.1 2.1 0 0 1 0 3.06 2.23 2.23 0 0 1 -1.57.61z"/><path d="m254.78 361.31a7.54 7.54 0 0 1 -5.16-2.1 7.28 7.28 0 0 1 0-10.23 7.45 7.45 0 0 1 10.23 0 7.28 7.28 0 0 1 0 10.23 7.18 7.18 0 0 1 -5.07 2.1zm0-10.14a2.84 2.84 0 0 0 -2.1.87 2.91 2.91 0 1 0 4.11 0 2.54 2.54 0 0 0 -2.01-.87z"/><circle cx="252.57" cy="171.64" r="10.97"/></g><g clip-path="url(#b)" fill="#fac627"><path d="m191.95 154.19h32.92v2.31h-32.92z" transform="matrix(.76210361 -.64745509 .64745509 .76210361 -51 171.88)"/><path d="m195.32 158.16h32.92v2.31h-32.92z" transform="matrix(.76210361 -.64745509 .64745509 .76210361 -52.77 175)"/><path d="m198.68 162.12h32.92v2.31h-32.92z" transform="matrix(.76210361 -.64745509 .64745509 .76210361 -54.53 178.12)"/><path d="m202.05 166.08h32.92v2.31h-32.92z" transform="matrix(.76210361 -.64745509 .64745509 .76210361 -56.29 181.24)"/><path d="m205.41 170.04h32.92v2.31h-32.92z" transform="matrix(.76210361 -.64745509 .64745509 .76210361 -58.06 184.36)"/><path d="m208.78 174h32.92v2.31h-32.92z" transform="matrix(.76210361 -.64745509 .64745509 .76210361 -59.82 187.48)"/><path d="m212.15 177.96h32.92v2.31h-32.92z" transform="matrix(.76210361 -.64745509 .64745509 .76210361 -61.58 190.6)"/><path d="m215.51 181.92h32.92v2.31h-32.92z" transform="matrix(.76210361 -.64745509 .64745509 .76210361 -63.35 193.73)"/></g><g clip-path="url(#c)" fill="#fac627"><path d="m161.92 154.19h32.92v2.31h-32.92z" transform="matrix(.76210361 -.64745509 .64745509 .76210361 -58.15 152.43)"/><path d="m165.28 158.16h32.92v2.31h-32.92z" transform="matrix(.76210361 -.64745509 .64745509 .76210361 -59.91 155.55)"/><path d="m168.65 162.12h32.92v2.31h-32.92z" transform="matrix(.76210361 -.64745509 .64745509 .76210361 -61.67 158.68)"/><path d="m172.02 166.08h32.92v2.31h-32.92z" transform="matrix(.76210361 -.64745509 .64745509 .76210361 -63.44 161.8)"/><path d="m175.38 170.04h32.92v2.31h-32.92z" transform="matrix(.76210361 -.64745509 .64745509 .76210361 -65.2 164.92)"/><path d="m178.75 174h32.92v2.31h-32.92z" transform="matrix(.76210361 -.64745509 .64745509 .76210361 -66.96 168.04)"/><path d="m182.11 177.96h32.92v2.31h-32.92z" transform="matrix(.76210361 -.64745509 .64745509 .76210361 -68.73 171.16)"/><path d="m185.48 181.92h32.92v2.31h-32.92z" transform="matrix(.76210361 -.64745509 .64745509 .76210361 -70.49 174.28)"/></g><g clip-path="url(#d)" fill="#fac627"><path d="m252.01 154.19h32.92v2.31h-32.92z" transform="matrix(.76210361 -.64745509 .64745509 .76210361 -36.72 210.76)"/><path d="m255.38 158.16h32.92v2.31h-32.92z" transform="matrix(.76210361 -.64745509 .64745509 .76210361 -38.48 213.88)"/><path d="m258.75 162.12h32.92v2.31h-32.92z" transform="matrix(.76210361 -.64745509 .64745509 .76210361 -40.24 217.01)"/><path d="m262.11 166.08h32.92v2.31h-32.92z" transform="matrix(.76210361 -.64745509 .64745509 .76210361 -42.01 220.13)"/><path d="m265.48 170.04h32.92v2.31h-32.92z" transform="matrix(.76210361 -.64745509 .64745509 .76210361 -43.77 223.25)"/><path d="m268.84 174h32.92v2.31h-32.92z" transform="matrix(.76210361 -.64745509 .64745509 .76210361 -45.53 226.37)"/><path d="m272.21 177.96h32.92v2.31h-32.92z" transform="matrix(.76210361 -.64745509 .64745509 .76210361 -47.3 229.49)"/><path d="m275.58 181.92h32.92v2.31h-32.92z" transform="matrix(.76210361 -.64745509 .64745509 .76210361 -49.06 232.61)"/></g><path d="m217.36 103a2.6 2.6 0 0 0 -3.16-2.44 2.6 2.6 0 0 0 .09 5.09 2.15 2.15 0 0 1 -1.65 1.31.54.54 0 0 0 -.47.51v1.53a.52.52 0 0 0 .55.52c2.85-.26 4.56-2.58 4.63-6.31a1 1 0 0 0 0-.16s0 0 0 0 0 0 0-.07z" fill="#fac627"/><path d="m214.77 90.05a2.6 2.6 0 1 0 2.6 2.6 2.59 2.59 0 0 0 -2.6-2.6z" fill="#fac627"/><path d="m209.05 86.15h-.78a3.91 3.91 0 0 0 -3.9 3.9v6l-2.22 2.22a1.3 1.3 0 0 0 0 1.84l2.22 2.22v6a3.91 3.91 0 0 0 3.9 3.9h.78a.52.52 0 0 0 .52-.52v-1.56a.52.52 0 0 0 -.52-.53h-.78a1.3 1.3 0 0 1 -1.3-1.3v-6.5a1.34 1.34 0 0 0 -.38-.92l-1.68-1.67 1.68-1.68a1.3 1.3 0 0 0 .38-.92v-6.5a1.3 1.3 0 0 1 1.3-1.3h.73a.52.52 0 0 0 .53-.52v-1.64a.52.52 0 0 0 -.48-.52z" fill="#d42a23"/><path d="m227.39 98.23-2.22-2.23v-6a3.91 3.91 0 0 0 -3.9-3.9h-.78a.52.52 0 0 0 -.52.52v1.57a.52.52 0 0 0 .52.52h.78a1.3 1.3 0 0 1 1.3 1.3v6.5a1.34 1.34 0 0 0 .38.92l1.68 1.68-1.63 1.72a1.29 1.29 0 0 0 -.38.92v6.5a1.3 1.3 0 0 1 -1.3 1.3h-.78a.52.52 0 0 0 -.52.53v1.56a.52.52 0 0 0 .52.52h.78a3.91 3.91 0 0 0 3.9-3.9v-6l2.22-2.22a1.3 1.3 0 0 0 -.05-1.81z" fill="#d42a23"/><path d="m79.36 435.9a36 36 0 0 0 -27.07 43l1.09 4.83 35-7.95z" fill="#fac627"/><path d="m125.84 467.26-1.1-4.83a36 36 0 0 0 -40.53-27.53l9 39.76z" fill="#fac627"/><path d="m62.7 524.75a28.56 28.56 0 0 0 34.07 21.48l16.91-3.84a28.56 28.56 0 0 0 21.47-34.07l-8.22-36.23-72.45 16.44z" fill="#d42a23"/><path d="m78 429.86c-.47-1.34-11.38-32.72 1.47-49.26 5.72-7.36 15.12-10.5 27.92-9.34 18.85 1.71 33.79-2.46 43.2-12.06a32.43 32.43 0 0 0 8.55-14.79l4.86.94c-.07.36-7.43 35.35-57.05 30.85-11-1-19 1.5-23.56 7.43-11.2 14.4-.2 46.62-.56 45.14z" fill="#d42a23"/><path d="m377.68 462.93h-26.45c-2.79 0-5 1.78-5 4.07s2.28 4.06 5 4.06h26.32c2.8 0 5-1.78 5-4.06s-2.2-4.07-4.87-4.07z" fill="#d42a23"/><path d="m382.63 478.44c0-2.16-2.28-4.07-4.95-4.07h-26.45c-2.79 0-5 1.78-5 4.07s2.28 4.06 5 4.06h26.32c2.8 0 5.08-1.77 5.08-4.06z" fill="#d42a23"/><path d="m355.05 486.19c-2.8 0-5 1.78-5 4.07s2.29 4.07 5 4.07h18.95c2.8 0 5-1.78 5-4.07s-2.29-4.07-5-4.07z" fill="#d42a23"/><path d="m364.46 383.35a33.2 33.2 0 0 0 -33.18 33.18c0 9.28 2.92 14.36 5.84 19.7 2.8 5 5.85 10.17 6.74 19.45a3.91 3.91 0 0 0 3.82 3.82h33.32a4 4 0 0 0 3.31-1.91 7.24 7.24 0 0 0 .63-2.92 1.61 1.61 0 0 1 .13-.77c1.14-8.13 3.94-13.09 6.61-17.79 3-5.34 5.85-10.43 5.85-19.71a33 33 0 0 0 -33.07-33.05z" fill="#fac627"/></svg>