<svg enable-background="new 0 0 3968.5 3968.5" viewBox="0 0 3968.5 3968.5" xmlns="http://www.w3.org/2000/svg"><g fill="#fff"><path d="m3968.5 1790-138.2 138.2c-12 12-12 31.4 0 43.4l.4.4c12 12 31.4 12 43.4 0l94.4-94.4z" opacity=".1"/><path d="m2965.6 3968.5 168.6-168.6c12-12 12-31.4 0-43.4l-.4-.4c-12-12-31.4-12-43.3 0l-212.5 212.4z" opacity=".1"/><path d="m2215 3761.1 332.3-332.2c12-12 31.4-12 43.3 0l.4.4c12 12 12 31.4 0 43.3l-332.2 332.4c-12 12-31.4 12-43.3 0l-.4-.4c-12.1-12-12.1-31.4-.1-43.5z" opacity=".1"/><path d="m1224.8 3968.5 131.1-131.1c12-12 12-31.4 0-43.3l-.4-.4c-12-12-31.4-12-43.4 0l-174.9 174.9h87.6z" opacity=".1"/><path d="m160.7 1041.5-.4-.4c-12-12-31.4-12-43.4 0l-116.9 116.9v87.6l160.7-160.7c12-12 12-31.4 0-43.4z" opacity=".1"/><path d="m1397.9 65.3-332.3 332.2c-12 12-31.4 12-43.3 0l-.4-.4c-12-12-12-31.4 0-43.4l332.2-332.3c12-12 31.4-12 43.3 0l.4.4c12.1 12.1 12.1 31.5.1 43.5z" opacity=".1"/><path d="m2463.6 0-110.5 110.5c-12 12-12 31.4 0 43.4l.4.4c12 12 31.4 12 43.3 0l154.4-154.3z" opacity=".1"/><path d="m2898.8 0-232.9 232.9c-12 12-12 31.4 0 43.3l.4.4c12 12 31.4 12 43.4 0l266.5-266.5c2.9-2.9 5.2-6.4 6.8-10.2h-84.2z" opacity=".1"/><path d="m3334 0-198 198.1c-12 12-12 31.4 0 43.4l.4.4c12 12 31.4 12 43.3 0l241.9-241.9z" opacity=".1"/><path d="m220.7 154.5-100.6 100.5c-12 12-31.4 12-43.4 0l-.4-.4c-12-12-12-31.4 0-43.4l100.5-100.5c12-12 31.4-12 43.4 0l.4.4c12.1 11.5 12.7 30.7 1.2 42.8l-.2.2c-.2.3-.6.5-.9.4z" opacity=".1"/><path d="m66.2 309-.7.7c-12 12-31.4 12-43.4 0l-.4-.4c-12-12-12-31.4 0-43.3l.8-.8c12-12 31.4-12 43.3 0l.4.4c6.3 10-2.1 28.1 0 43.4z" opacity=".1"/><path d="m216.8 288.4.7-.7c12-12 31.4-12 43.4 0l.4.4c12 12 12 31.4 0 43.4l-.7.7c-12 12-31.4 12-43.4 0l-.4-.4c-12-12.1-12-31.5 0-43.4z" opacity=".1"/><path d="m167.3 555.5 100.5-100.5c12-12 31.4-12 43.4 0l.4.4c12 12 12 31.4 0 43.4l-100.5 100.5c-12 12-31.4 12-43.4 0l-.4-.4c-12-12-12-31.5 0-43.4z" opacity=".1"/><path d="m59.6 880.8 332.2-332.2c12-12 31.4-12 43.3 0l.4.4c12 12 12 31.4 0 43.4l-332.2 332.2c-12 12-31.4 12-43.3 0l-.4-.4c-61.9 0-112.1 40.2-112.1-21.7s50.2-112.1 112.1-21.7z" opacity=".1"/><path d="m53.6 1104.4.8-.8c12-12 31.4-12 43.4 0l.4.4c12 12 12 31.4 0 43.4l-.8.8c-12 12-31.4 12-43.4 0l-.4-.4c-16.9 0-30.7-4.7-30.7-21.7s13.7-30.7 30.7-21.7z" opacity=".1"/><path d="m359.6 798.3 100.5-100.5c12-12 31.4-12 43.4 0l.4.4c12 12 12 31.4 0 43.4l-100.5 100.5c-12 12-31.4 12-43.4 0l-.4-.4c-11.9-12-11.9-31.4 0-43.4z" opacity=".1"/><path d="m568.2 589.8.8-.8c12-12 31.4-12 43.3 0l.4.4c12 12 12 31.4 0 43.4l-.8.8c-12 12-31.4 12-43.4 0l-.4-.4c-11.9-12-11.9-31.4.1-43.4z" opacity=".1"/><path d="m845.6 1268.1-100.5 100.5c-12 12-31.4 12-43.3 0l-.4-.4c-12-12-12-31.4 0-43.4l100.5-100.5c12-12 31.4-12 43.4 0l.4.4c11.9 12 11.9 31.4-.1 43.4 0-.1 0-.1 0 0z" opacity=".1"/><path d="m61.5 1964.6 266.6-266.6c12-12 31.4-12 43.4 0l.4.4c12 12 12 31.4 0 43.4l-266.5 266.5c-12 12-31.4 12-43.4 0l-.4-.4c-12.1-12-12.1-31.4-.1-43.3z" opacity=".1"/><path d="m890.9 1135.1.7-.7c12-12 31.4-12 43.4 0l.4.4c12 12 12 31.4 0 43.4l-.7.7c-12 12-31.4 12-43.4 0l-.4-.4c-12-12-11.9-31.4 0-43.4z" opacity=".1"/><path d="m794.8 1016 100.5-100.6c12-12 31.4-12 43.3 0l.4.4c12 12 12 31.4 0 43.3l-100.5 100.5c-12 12-31.4 12-43.4 0l-.4-.4c-11.8-11.8-11.8-31.2.1-43.2z" opacity=".1"/><path d="m550.5 1260.4.8-.7c12-12 31.4-12 43.4 0l.4.4c12 12 12 31.4 0 43.4l-.8.7c-12 12-31.4 12-43.4 0l-.4-.4c-12-12.1-12-31.5 0-43.4z" opacity=".1"/><path d="m629.2 1051.6-100.5 100.5c-12 12-31.4 12-43.3 0l-.4-.4c-12-12-12-31.4 0-43.4l100.5-100.5c12-12 31.4-12 43.4 0l.4.4c11.9 12 11.9 31.4-.1 43.4z" opacity=".1"/><path d="m674.5 918.7.7-.7c12-12 31.4-12 43.4 0l.4.4c12 12 12 31.4 0 43.4l-.7.7c-12 12-31.4 12-43.4 0l-.4-.4c-12-12-12-31.4 0-43.4z" opacity=".1"/><path d="m56.6 1319 100.5-100.5c12-12 31.4-12 43.4 0l.4.4c12 12 12 31.4 0 43.4l-100.5 100.5c-12 12-31.4 12-43.4 0l-.4-.4c-12-12-12-31.5 0-43.4z" opacity=".1"/><path d="m465.9 909.7 100.5-100.5c12-12 31.4-12 43.4 0l.4.4c12 12 12 31.4 0 43.4l-100.5 100.5c-12 12-31.4 12-43.4 0l-.4-.4c-12-12-12-31.4 0-43.4z" opacity=".1"/><path d="m332.9 1042.7.8-.7c12-12 31.4-12 43.3 0l.4.4c12 12 12 31.4 0 43.3l-.8.8c-12 12-31.4 12-43.3 0l-.4-.4c-12-12-12-31.4 0-43.4z" opacity=".1"/><path d="m960.2 1503.4 100.5-100.5c12-12 31.4-12 43.4 0l.4.4c12 12 12 31.4 0 43.3l-100.5 100.6c-12 12-31.4 12-43.4 0l-.4-.4c-12-12-12-31.4 0-43.4z" opacity=".1"/><path d="m318.3 2145.3 332.2-332.2c12-12 31.4-12 43.4 0l.4.4c12 12 12 31.4 0 43.3l-332.3 332.3c-12 12-31.4 12-43.3 0l-.4-.4c-12-12-12-31.4 0-43.4z" opacity=".1"/><path d="m827.2 1636.4.8-.8c12-12 31.4-12 43.4 0l.4.4c12 12 12 31.4 0 43.4l-.8.8c-12 12-31.4 12-43.4 0l-.4-.4c-12-12-12-31.4 0-43.4z" opacity=".1"/><path d="m832.4 2284 100.6-100.5c12-12 31.4-12 43.4 0l.4.4c12 12 12 31.4 0 43.4l-100.5 100.5c-12 12-31.4 12-43.4 0l-.4-.4c-12-12-12-31.4-.1-43.4z" opacity=".1"/><path d="m1364.1 1752.3 100.5-100.5c12-12 31.4-12 43.4 0l.4.4c12 12 12 31.4 0 43.4l-100.5 100.5c-12 12-31.4 12-43.4 0l-.4-.4c-11.9-12-11.9-31.4 0-43.4z" opacity=".1"/><path d="m742.6 2373.8.8-.7c12-12 31.4-12 43.3 0l.4.4c12 12 12 31.4 0 43.4l-.8.8c-12 12-31.4 12-43.3 0l-.4-.4c-12-12.1-12-31.5 0-43.5z" opacity=".1"/><path d="m537.3 1796.3-100.5 100.5c-12 12-31.4 12-43.4 0l-.4-.4c-12-12-12-31.4 0-43.4l100.5-100.5c12-12 31.4-12 43.4 0l.4.4c11.9 12 11.9 31.5 0 43.4z" opacity=".1"/><path d="m712.4 1533.6 332.3-332.3c12-12 31.4-12 43.4 0l.4.4c12 12 12 31.4 0 43.4l-332.3 332.3c-12 12-31.4 12-43.4 0l-.4-.4c-12-12-12-31.4 0-43.4z" opacity=".1"/><path d="m670.2 1663.4-.8.7c-12 12-31.4 12-43.4 0l-.4-.4c-12-12-12-31.4 0-43.3l.8-.8c12-12 31.4-12 43.3 0l.4.4c12.1 12 12.1 31.4.1 43.4z" opacity=".1"/><path d="m178.4 2155.2-.8.8c-12 12-31.4 12-43.4 0l-.4-.4c-12-12-12-31.4 0-43.4l.8-.8c12-12 31.4-12 43.4 0l.4.4c12 12 12 31.4 0 43.4z" opacity=".1"/><path d="m463.1 2305.7-100.5 100.5c-12 12-31.4 12-43.3 0l-.4-.4c-12-12-12-31.4 0-43.4l100.5-100.5c12-12 31.4-12 43.4 0l.4.4c11.9 12 11.9 31.4-.1 43.4z" opacity=".1"/><path d="m546.3 2134.9 332.3-332.3c12-12 31.4-12 43.4 0l.4.4c12 12 12 31.4 0 43.4l-332.3 332.3c-12 12-31.4 12-43.4 0l-.4-.4c-12-12-12-31.4 0-43.4z" opacity=".1"/><path d="m254.5 2514.3-.8.8c-12 12-31.4 12-43.4 0l-.4-.4c-12-12-12-31.4 0-43.3l.8-.8c12-12 31.4-12 43.4 0l.4.4c12 11.9 12 31.3 0 43.3z" opacity=".1"/><path d="m1121.3 1560 100.5-100.5c12-12 31.4-12 43.4 0l.4.4c12 12 12 31.4 0 43.4l-100.5 100.5c-12 12-31.4 12-43.4 0l-.4-.4c-11.7-12-11.4-31.2 0-43.4z" opacity=".1"/><path d="m1329.8 1351.4.8-.8c12-12 31.4-12 43.3 0l.4.4c12 12 12 31.4 0 43.4l-.8.8c-12 12-31.4 12-43.4 0l-.4-.4c-11.9-12-11.9-31.4.1-43.4z" opacity=".1"/><path d="m1177.8 1721 100.5-100.5c12-12 31.4-12 43.4 0l.4.4c12 12 12 31.4 0 43.4l-100.5 100.5c-12 12-31.4 12-43.4 0l-.4-.4c-12-12-12-31.4 0-43.4z" opacity=".1"/><path d="m535.9 2362.9 332.3-332.3c12-12 31.4-12 43.4 0l.4.4c12 12 12 31.4 0 43.4l-332.3 332.3c-12 12-31.4 12-43.4 0l-.4-.4c-5-9.2 7.7-27.3 0-43.4z" opacity=".1"/><path d="m1044.9 1853.9.7-.7c12-12 31.4-12 43.4 0l.4.4c12 12 12 31.4 0 43.4l-.7.7c-12 12-31.4 12-43.4 0l-.4-.4c-12-12-12-31.4 0-43.4z" opacity=".1"/><path d="m1050 2501.6 100.5-100.5c12-12 31.4-12 43.4 0l.4.4c12 12 12 31.4 0 43.3l-100.5 100.5c-12 12-31.4 12-43.3 0l-.4-.4c-12-11.9-12.1-31.3-.1-43.3z" opacity=".1"/><path d="m1581.7 1969.9 100.5-100.5c12-12 31.4-12 43.4 0l.4.4c12 12 12 31.4 0 43.3l-100.5 100.5c-12 12-31.4 12-43.3 0l-.4-.4c-11.7-11.9-11.5-31.2-.1-43.3z" opacity=".1"/><path d="m1272.5 2279.2 332.3-332.2c12-12 31.4-12 43.3 0l.4.4c12 12 12 31.4 0 43.4l-332.2 332.2c-12 12-31.4 12-43.3 0l-.4-.4c-10.6-11.7-9.3-30.6-.1-43.4z" opacity=".1"/><path d="m750.8 2888.4-332.3 332.3c-12 12-31.4 12-43.4 0l-.4-.4c-12-12-12-31.4 0-43.3l332.3-332.4c12-12 31.4-12 43.4 0l.4.4c12 12 12 31.4 0 43.4z" opacity=".1"/><path d="m13.5 3538.2.7-.7c12-12 31.4-12 43.4 0l.4.4c12 12 12 31.4 0 43.4l-.7.7c-12 12-31.4 12-43.4 0l-.4-.4c-12-12-12-31.5 0-43.4z" opacity=".1"/><path d="m960.2 2591.4.8-.8c12-12 31.4-12 43.4 0l.4.4c12 12 12 31.4 0 43.3l-.8.8c-12 12-31.4 12-43.4 0l-.4-.4c-12-11.9-12-31.3 0-43.3z" opacity=".1"/><path d="m1001.9 2332.1 332.3-332.3c12-12 31.4-12 43.4 0l.4.4c12 12 12 31.4 0 43.4l-332.3 332.3c-12 12-31.4 12-43.4 0l-.4-.4c-8.6-11.1-4.8-29.4 0-43.4z" opacity=".1"/><path d="m789.5 2632.1-100.5 100.6c-12 12-31.4 12-43.3 0l-.4-.4c-12-12-12-31.4 0-43.4l100.5-100.5c12-12 31.4-12 43.4 0l.4.4c11.9 11.9 11.9 31.4-.1 43.3z" opacity=".1"/><path d="m440.9 2980.8-332.3 332.2c-12 12-31.4 12-43.4 0l-.4-.4c-12-12-12-31.4 0-43.3l332.3-332.3c12-12 31.4-12 43.4 0l.4.4c11.9 12 11.9 31.4 0 43.4z" opacity=".1"/><path d="m580.9 2840.7-.8.8c-12 12-31.4 12-43.4 0l-.4-.4c-12-12-12-31.4 0-43.3l.8-.8c12-12 31.4-12 43.3 0l.4.4c12.1 11.9 12.1 31.3.1 43.3z" opacity=".1"/><path d="m1447.7 1886.4 100.5-100.5c12-12 31.4-12 43.4 0l.4.4c12 12 12 31.4 0 43.4l-100.5 100.5c-12 12-31.4 12-43.4 0l-.4-.4c-12-12.1-12-31.5 0-43.4z" opacity=".1"/><path d="m1656.2 1677.8.8-.7c12-12 31.4-12 43.3 0l.4.4c12 12 12 31.4 0 43.4l-.8.8c-12 12-31.4 12-43.3 0l-.4-.4c-11.9-12.1-11.9-31.5 0-43.5z" opacity=".1"/><path d="m375.2 130 .8-.8c12-12 31.4-12 43.3 0l.4.4c12 12 12 31.4 0 43.4l-.8.8c-12 12-31.4 12-43.4 0l-.4-.4c-11.9-12-11.9-31.4.1-43.4z" opacity=".1"/><path d="m517 293.4-100.6 100.5c-12 12-31.4 12-43.4 0l-.4-.4c-12-12-12-31.4 0-43.4l100.5-100.5c12-12 31.4-12 43.3 0l.4.4c12.1 12 12.2 31.4.2 43.4z" opacity=".1"/><path d="m730 80.3-.8.8c-12 12-31.4 12-43.4 0l-.4-.4c-12-12-12-31.4 0-43.4l.8-.8c12-12 31.4-12 43.4 0l.4.5c12 12 12 31.4 0 43.3z" opacity=".1"/><path d="m737.1 290.8-100.5 100.6c-12 12-31.4 12-43.3 0l-.4-.4c-12-12-12-31.4 0-43.4l100.4-100.6c12-12 31.4-12 43.4 0l.4.4c12 12 12 31.4 0 43.4z" opacity=".1"/><path d="m782.4 157.9.7-.7c12-12 31.4-12 43.4 0l.4.4c12 12 12 31.4 0 43.4l-.7.7c-12 12-31.4 12-43.4 0l-.4-.4c-12-12-12-31.4 0-43.4z" opacity=".1"/><path d="m845.9 399.6-100.5 100.6c-12 12-31.4 12-43.3 0l-.4-.4c-12-12-12-31.4 0-43.3l100.5-100.5c12-12 31.4-12 43.4 0l.4.4c11.9 11.9 11.9 31.3-.1 43.2z" opacity=".1"/><path d="m978.9 266.7-.8.8c-12 12-31.4 12-43.4 0l-.4-.4c-12-12-12-31.4 0-43.4l.8-.8c12-12 31.4-12 43.4 0l.4.4c12 12 12 31.4 0 43.4z" opacity=".1"/><path d="m2049.3 64.4-332.3 332.3c-12 12-31.4 12-43.4 0l-.4-.4c-12-12-12-31.4 0-43.3l332.3-332.3c12-12 31.4-12 43.4 0l.4.4c11.9 11.9 11.9 31.3 0 43.3z" opacity=".1"/><path d="m1185.4 840.7 100.5-100.5c12-12 31.4-12 43.4 0l.4.4c12 12 12 31.4 0 43.4l-100.5 100.5c-12 12-31.4 12-43.4 0l-.4-.4c-12-12-12-31.4 0-43.4z" opacity=".1"/><path d="m1462.7 651-.8.8c-12 12-31.4 12-43.4 0l-.4-.4c-12-12-12-31.4 0-43.4l.8-.8c12-12 31.4-12 43.3 0l.4.4c12 12 12 31.4.1 43.4z" opacity=".1"/><path d="m1167.5 643.3 100.5-100.5c12-12 31.4-12 43.4 0l.4.4c12 12 12 31.4 0 43.4l-100.5 100.5c-12 12-31.4 12-43.4 0l-.4-.4c-12-12.1-12-31.5 0-43.4z" opacity=".1"/><path d="m1390 420.8 332.2-332.3c12-12 31.4-12 43.4 0l.4.4c12 12 12 31.4 0 43.4l-332.3 332.3c-12 12-31.4 12-43.4 0l-.4-.4c-11.9-12-11.9-31.4.1-43.4z" opacity=".1"/><path d="m1077.7 733.1.8-.7c12-12 31.4-12 43.3 0l.4.4c12 12 12 31.4 0 43.3l-.8.8c-12 12-31.4 12-43.3 0l-.4-.4c-12-12-12-31.4 0-43.4z" opacity=".1"/><path d="m1020.5 660.3-100.5 100.5c-12 12-31.4 12-43.4 0l-.4-.4c-12-12-12-31.4 0-43.4l100.5-100.5c12-12 31.4-12 43.4 0l.4.4c11.7 11.9 11.5 31.2 0 43.4z" opacity=".1"/><path d="m1195.6 397.6 332.3-332.3c12-12 31.4-12 43.4 0l.4.4c12 12 12 31.4 0 43.3l-332.3 332.3c-12 12-31.4 12-43.4 0l-.4-.4c-12-11.9-12-31.3 0-43.3z" opacity=".1"/><path d="m1153.5 527.3-.8.7c-12 12-31.4 12-43.3 0l-.4-.4c-12-12-12-31.4 0-43.4l.8-.8c12-12 31.4-12 43.3 0l.4.4c12 12.1 12 31.5 0 43.5z" opacity=".1"/><path d="m952.2 511-100.6 100.5c-12 12-31.4 12-43.3 0l-.4-.4c-12-12-12-31.4 0-43.3l100.5-100.5c12-12 31.4-12 43.4 0l.4.4c12 11.9 12.1 31.3.2 43.3-.1 0-.2 0-.2 0z" opacity=".1"/><path d="m743.6 719.6-.8.8c-12 12-31.4 12-43.4 0l-.4-.4c-12-12-12-31.4 0-43.4l.8-.8c12-12 31.4-12 43.3 0l.4.4c12.1 12 12.1 31.4.1 43.4z" opacity=".1"/><path d="m1444.2 1019.4 100.5-100.5c12-12 31.4-12 43.4 0l.4.4c12 12 12 31.4 0 43.3l-100.5 100.6c-12 12-31.4 12-43.3 0l-.4-.4c-12-12-12-31.5-.1-43.4z" opacity=".1"/><path d="m1792.9 670.8 332.2-332.3c12-12 31.4-12 43.4 0l.4.4c12 12 12 31.4 0 43.3l-332.2 332.3c-12 12-31.4 12-43.4 0l-.4-.4c-12-12-12-31.4 0-43.3z" opacity=".1"/><path d="m1354.4 1109.2.8-.8c12-12 31.4-12 43.4 0l.4.4c12 12 12 31.4 0 43.3l-.8.8c-12 12-31.4 12-43.3 0l-.4-.4c-12-11.9-12.1-31.3-.2-43.3-.1 0 0 0 .1 0z" opacity=".1"/><path d="m2966.5 149.9 100.5-100.5c12-12 31.4-12 43.4 0l.4.4c12 12 12 31.4 0 43.4l-100.5 100.5c-12 12-31.4 12-43.4 0l-.4-.4c-12-12-12-31.4 0-43.4z" opacity=".1"/><path d="m1569.5 1546.9 100.5-100.5c12-12 31.4-12 43.4 0l.4.4c12 12 12 31.4 0 43.4l-100.5 100.5c-12 12-31.4 12-43.4 0l-.4-.4c-12-12-12-31.4 0-43.4z" opacity=".1"/><path d="m2667.3 536.7-332.3 332.3c-12 12-31.4 12-43.3 0l-.4-.4c-12-12-12-31.4 0-43.4l332.2-332.2c12-12 31.4-12 43.4 0l.4.4c11.9 12 11.9 31.3 0 43.3z" opacity=".1"/><path d="m1958.1 1245.9-.8.8c-12 12-31.4 12-43.4 0l-.4-.4c-12-12-12-31.4 0-43.4l.8-.8c12-12 31.4-12 43.3 0l.4.4c12.1 12 12.1 31.4.1 43.4z" opacity=".1"/><path d="m2876.7 239.7.8-.8c12-12 31.4-12 43.4 0l.4.4c12 12 12 31.4 0 43.4l-.8.8c-12 12-31.4 12-43.3 0l-.4-.4c-12.1-12-12.1-31.4-.1-43.4 0 .1 0 .1 0 0z" opacity=".1"/><path d="m1398.2 847.8 332.3-332.2c12-12 31.4-12 43.3 0l.4.4c12 12 12 31.4 0 43.4l-332.2 332.2c-12 12-31.4 12-43.3 0l-.4-.4c-12.1-12.1-12-31.5-.1-43.4z" opacity=".1"/><path d="m2068.4 177.6 100.5-100.5c12-12 31.4-12 43.4 0l.4.4c12 12 12 31.4 0 43.4l-100.5 100.5c-12 12-31.4 12-43.4 0l-.4-.4c-12-12-12-31.4 0-43.4z" opacity=".1"/><path d="m1978.6 267.4.8-.8c12-12 31.4-12 43.4 0l.4.4c12 12 12 31.4 0 43.3l-.8.8c-12 12-31.4 12-43.3 0l-.4-.4c-12.1-11.9-12.1-31.3-.1-43.3z" opacity=".1"/><path d="m2597.2 171.7-100.5 100.5c-12 12-31.4 12-43.3 0l-.4-.4c-12-12-12-31.4 0-43.4l100.5-100.5c12-12 31.4-12 43.4 0l.4.4c11.8 12 11.8 31.4-.1 43.4z" opacity=".1"/><path d="m1607.6 1161.3-100.6 100.5c-12 12-31.4 12-43.3 0l-.4-.4c-12-12-12-31.4 0-43.3l100.5-100.5c12-12 31.4-12 43.4 0l.4.4c12 11.9 12.1 31.3.2 43.3-.1 0-.1 0-.2 0z" opacity=".1"/><path d="m2248.5 520.3-332.3 332.3c-12 12-31.4 12-43.4 0l-.4-.4c-12-12-12-31.4 0-43.4l332.3-332.3c12-12 31.4-12 43.4 0l.4.4c12 12 12 31.4 0 43.4z" opacity=".1"/><path d="m1740.5 1028.3-.8.8c-12 12-31.4 12-43.4 0l-.4-.4c-12-12-12-31.4 0-43.4l.8-.8c12-12 31.4-12 43.4 0l.4.4c12 12 12 31.4 0 43.4z" opacity=".1"/><path d="m2388.6 380.2-.8.8c-12 12-31.4 12-43.4 0l-.4-.4c-12-12-12-31.4 0-43.4l.8-.8c12-12 31.4-12 43.3 0l.4.4c12.1 12 12.1 31.4.1 43.4z" opacity=".1"/><path d="m2296.7 689.7-100.5 100.5c-12 12-31.4 12-43.4 0l-.4-.4c-12-12-12-31.4 0-43.4l100.5-100.5c12-12 31.4-12 43.4 0l.4.4c12 12 12 31.4 0 43.4z" opacity=".1"/><path d="m1948.1 1038.3-332.3 332.3c-12 12-31.4 12-43.4 0l-.4-.4c-12-12-12-31.4 0-43.4l332.3-332.3c12-12 31.4-12 43.4 0l.4.4c12.2 11.8 12.8 30.8 1 43-.3.4-.6.5-1 .4z" opacity=".1"/><path d="m2386.5 599.9-.8.8c-12 12-31.4 12-43.4 0l-.4-.4c-12-12-12-31.4 0-43.4l.8-.8c12-12 31.4-12 43.4 0l.4.4c12 12 12 31.4 0 43.4z" opacity=".1"/><path d="m2593.9 1045.3-332.3 332.3c-12 12-31.4 12-43.4 0l-.4-.4c-12-12-12-31.4 0-43.4l332.3-332.3c12-12 31.4-12 43.3 0l.4.4c12.1 12 12.1 31.4.1 43.4z" opacity=".1"/><path d="m3184.1 367.5 100.5-100.5c12-12 31.4-12 43.4 0l.4.4c12 12 12 31.4 0 43.3l-100.5 100.5c-12 12-31.4 12-43.4 0l-.4-.4c-12-11.9-12-31.3 0-43.3z" opacity=".1"/><path d="m1787.1 1764.6 100.5-100.5c12-12 31.4-12 43.4 0l.4.4c12 12 12 31.4 0 43.4l-100.5 100.5c-12 12-31.4 12-43.4 0l-.4-.4c-12-12.1-12-31.5 0-43.4z" opacity=".1"/><path d="m2175.7 1463.5-.8.8c-12 12-31.4 12-43.4 0l-.4-.4c-12-12-12-31.4 0-43.3l.7-.8c12-12 31.4-12 43.4 0l.4.4c12.1 11.9 12.1 31.3.1 43.3z" opacity=".1"/><path d="m3094.3 457.4.8-.8c12-12 31.4-12 43.4 0l.4.4c12 12 12 31.4 0 43.3l-.8.8c-12 12-31.4 12-43.4 0l-.4-.4c-12-12-12-31.4 0-43.3z" opacity=".1"/><path d="m2923.6 498.1-100.6 100.5c-12 12-31.4 12-43.4 0l-.4-.4c-12-12-12-31.4 0-43.4l100.5-100.5c12-12 31.4-12 43.4 0l.4.4c12 12 12 31.4.1 43.4-.1 0-.1 0 0 0z" opacity=".1"/><path d="m1789.6 1544.4 100.5-100.5c12-12 31.4-12 43.4 0l.4.4c12 12 12 31.4 0 43.4l-100.5 100.5c-12 12-31.4 12-43.4 0l-.4-.4c-11.9-12-11.9-31.4 0-43.4z" opacity=".1"/><path d="m2574.9 846.7-332.2 332.3c-12 12-31.4 12-43.4 0l-.4-.4c-12-12-12-31.4 0-43.4l332.3-332.3c12-12 31.4-12 43.4 0l.4.4c11.9 12.1 11.9 31.4-.1 43.4z" opacity=".1"/><path d="m2022.4 1311.8.7-.7c12-12 31.4-12 43.4 0l.4.4c12 12 12 31.4 0 43.4l-.7.7c-12 12-31.4 12-43.4 0l-.4-.4c-12-12-12-31.5 0-43.4z" opacity=".1"/><path d="m2715 706.6-.8.7c-12 12-31.4 12-43.3 0l-.4-.4c-12-12-12-31.4 0-43.4l.8-.7c12-12 31.4-12 43.3 0l.4.4c12 12 12 31.5 0 43.4z" opacity=".1"/><path d="m1914.7 2538.2 100.5-100.5c12-12 31.4-12 43.4 0l.4.4c12 12 12 31.4 0 43.4l-100.5 100.5c-12 12-31.4 12-43.4 0l-.4-.4c-12-12-12-31.4 0-43.4z" opacity=".1"/><path d="m1710.4 2830.1-332.3 332.3c-12 12-31.4 12-43.3 0l-.4-.4c-12-12-12-31.4 0-43.4l332.3-332.2c12-12 31.4-12 43.3 0l.4.4c12 11.9 12 31.3 0 43.3z" opacity=".1"/><path d="m1168.6 3371.9-266.5 266.6c-12 12-31.4 12-43.4 0l-.4-.4c-12-12-12-31.4 0-43.4l266.6-266.6c12-12 31.4-12 43.4 0l.4.4c10.3 11.6 8.8 30.5-.1 43.4z" opacity=".1"/><path d="m609 3931.5-.8.8c-12 12-31.4 12-43.4 0l-.4-.4c-12-12-12-31.4 0-43.4l.8-.8c12-12 31.4-12 43.4 0l.4.4c12 12 12 31.4 0 43.4z" opacity=".1"/><path d="m2148.9 2391.6-.8.8c-12 12-31.4 12-43.3 0l-.4-.4c-12-12-12-31.4 0-43.4l.8-.8c12-12 31.4-12 43.4 0l.4.4c11.8 12 11.8 31.4-.1 43.4z" opacity=".1"/><path d="m2007.1 2228.2 100.5-100.5c12-12 31.4-12 43.4 0l.4.4c12 12 12 31.4 0 43.4l-100.5 100.5c-12 12-31.4 12-43.3 0l-.4-.4c-13.3-10.5-17.3-27.4-6.8-40.7 1.3-1.9 3-3.6 6.7-2.7z" opacity=".1"/><path d="m468.1 3767.1 332.3-332.3c12-12 31.4-12 43.3 0l.4.4c12 12 12 31.4 0 43.3l-332.2 332.5c-12 12-31.4 12-43.4 0l-.4-.4c-11.9-12-12-31.4 0-43.5 0 .1 0 .1 0 0z" opacity=".1"/><path d="m1053.6 3181.7 332.3-332.3c12-12 31.4-12 43.4 0l.4.4c12 12 12 31.4 0 43.4l-332.3 332.3c-12 12-31.4 12-43.4 0l-.4-.4c-12-12-12-31.4 0-43.4z" opacity=".1"/><path d="m1762.8 2472.5.8-.8c12-12 31.4-12 43.3 0l.4.4c12 12 12 31.4 0 43.3l-.7.8c-12 12-31.4 12-43.4 0l-.4-.4c-12-11.9-12-31.3 0-43.3-.1 0-.1 0 0 0z" opacity=".1"/><path d="m1116.8 2900.9 332.2-332.3c12-12 31.4-12 43.4 0l.4.4c12 12 12 31.4 0 43.4l-332.3 332.3c-12 12-31.4 12-43.4 0l-.4-.4c-11.9-12-11.9-31.4.1-43.4-.1 0-.1 0 0 0z" opacity=".1"/><path d="m1697.1 2320.6 100.5-100.5c12-12 31.4-12 43.4 0l.4.4c12 12 12 31.4 0 43.4l-100.5 100.5c-12 12-31.4 12-43.4 0l-.4-.4c-12-12-12-31.4 0-43.4z" opacity=".1"/><path d="m273.8 3743.9 332.3-332.3c12-12 31.4-12 43.4 0l.4.4c12 12 12 31.4 0 43.4l-332.3 332.3c-12 12-31.4 12-43.4 0l-.4-.4c-16.9 0-30.7-4.7-30.7-21.7s13.8-30.7 30.7-21.7z" opacity=".1"/><path d="m231.7 3873.6-.8.8c-12 12-31.4 12-43.3 0l-.4-.4c-12-12-12-31.4 0-43.4l.8-.8c12-12 31.4-12 43.4 0l.4.4c16.9 0 30.6 4.8 30.6 21.7s-13.8 30.7-30.7 21.7z" opacity=".1"/><path d="m864.5 3153.1.7-.7c12-12 31.4-12 43.4 0l.4.4c12 12 12 31.4 0 43.4l-.7.7c-12 12-31.4 12-43.4 0l-.4-.4c-12-12-12-31.4 0-43.4z" opacity=".1"/><path d="m1931.2 2174-.8.8c-12 12-31.4 12-43.4 0l-.4-.4c-12-12-12-31.4 0-43.3l.8-.8c12-12 31.4-12 43.4 0l.4.4c12 11.9 12 31.3 0 43.3z" opacity=".1"/><path d="m1413.2 2474.5-100.5 100.5c-12 12-31.4 12-43.4 0l-.4-.4c-12-12-12-31.4 0-43.4l100.5-100.5c12-12 31.4-12 43.3 0l.4.4c12 12 12 31.4.1 43.4z" opacity=".1"/><path d="m1678.1 2121.9 100.5-100.5c12-12 31.4-12 43.4 0l.4.4c12 12 12 31.4 0 43.4l-100.5 100.5c-12 12-31.4 12-43.4 0l-.4-.4c-12-12-12-31.4 0-43.4z" opacity=".1"/><path d="m1064.6 2823.1-332.3 332.3c-12 12-31.4 12-43.4 0l-.4-.4c-12-12-12-31.4 0-43.4l332.3-332.3c12-12 31.4-12 43.3 0l.4.4c10.4 11.7 9 30.5.1 43.4z" opacity=".1"/><path d="m605.3 3282.4-332.3 332.2c-12 12-31.4 12-43.4 0l-.4-.4c-12-12-12-31.4 0-43.4l332.3-332.3c12-12 31.4-12 43.4 0l.4.4c12 12.1 12 31.5 0 43.5 0-.1 0-.1 0 0z" opacity=".1"/><path d="m1545.1 2254.9.8-.8c12-12 31.4-12 43.4 0l.4.4c12 12 12 31.4 0 43.4l-.8.8c-12 12-31.4 12-43.4 0l-.4-.4c-11.9-12-11.9-31.4 0-43.4z" opacity=".1"/><path d="m1204.6 2683-.8.8c-12 12-31.4 12-43.4 0l-.4-.4c-12-12-12-31.4 0-43.4l.8-.8c12-12 31.4-12 43.4 0l.4.4c12 12 12 31.4 0 43.4z" opacity=".1"/><path d="m2063.6 2606.9 100.5-100.5c12-12 31.4-12 43.4 0l.4.4c12 12 12 31.4 0 43.4l-100.5 100.5c-12 12-31.4 12-43.4 0l-.4-.4c-12-12.1-12-31.5 0-43.4z" opacity=".1"/><path d="m762.2 3908.3 332.3-332.3c12-12 31.4-12 43.3 0l.4.4c12 12 12 31.4 0 43.4l-332.2 332.3c-12 12-31.4 12-43.3 0l-.4-.4c-12.1-12-12.1-31.4-.1-43.4z" opacity=".1"/><path d="m1421.8 3248.8 332.2-332.3c12-12 31.4-12 43.3 0l.4.4c12 12 12 31.4 0 43.4l-332.3 332.2c-12 12-31.4 12-43.3 0l-.4-.4c-11.9-12-11.9-31.4.1-43.3-.1 0-.1 0 0 0z" opacity=".1"/><path d="m1930.7 2739.8.8-.8c12-12 31.4-12 43.4 0l.4.4c12 12 12 31.4 0 43.4l-.8.8c-12 12-31.4 12-43.4 0l-.4-.4c-12-12-12-31.4 0-43.4z" opacity=".1"/><path d="m1718.3 3169.8 100.5-100.5c12-12 31.4-12 43.4 0l.4.4c12 12 12 31.4 0 43.4l-100.5 100.5c-12 12-31.4 12-43.4 0l-.4-.4c-12-12-12-31.4 0-43.4z" opacity=".1"/><path d="m2250 2638.1 100.5-100.5c12-12 31.4-12 43.4 0l.4.4c12 12 12 31.4 0 43.4l-100.5 100.5c-12 12-31.4 12-43.4 0l-.4-.4c-12-12-12-31.4 0-43.4z" opacity=".1"/><path d="m1419.1 3556.6-332.3 332.3c-12 12-31.4 12-43.4 0l-.4-.4c-12-12-12-31.4 0-43.4l332.3-332.3c12-12 31.4-12 43.4 0l.4.4c11.9 12 11.9 31.5 0 43.4z" opacity=".1"/><path d="m1628.4 3259.6.8-.8c12-12 31.4-12 43.4 0l.4.4c12 12 12 31.4 0 43.3l-.8.8c-12 12-31.4 12-43.4 0l-.4-.4c-11.9-11.9-11.9-31.3 0-43.3z" opacity=".1"/><path d="m1967.1 3226.2-100.5 100.5c-12 12-31.4 12-43.3 0l-.4-.4c-12-12-12-31.4 0-43.4l100.5-100.5c12-12 31.4-12 43.4 0l.4.4c10.3 11.7 8.9 30.5-.1 43.4z" opacity=".1"/><path d="m2142.2 2963.5 332.3-332.3c12-12 31.4-12 43.4 0l.4.4c12 12 12 31.4 0 43.3l-332.3 332.4c-12 12-31.4 12-43.3 0l-.4-.4c-12.1-12-12.1-31.4-.1-43.4z" opacity=".1"/><path d="m2055.6 3050.1.8-.7c12-12 31.4-12 43.4 0l.4.4c12 12 12 31.4 0 43.4l-.7.7c-12 12-31.4 12-43.4 0l-.4-.4c-12.1-12-12.1-31.4-.1-43.4z" opacity=".1"/><path d="m1608.3 3585-.8.8c-12 12-31.4 12-43.4 0l-.4-.4c-12-12-12-31.4 0-43.3l.7-.8c12-12 31.4-12 43.4 0l.4.4c12 11.9 12 31.3.1 43.3z" opacity=".1"/><path d="m1784.1 3626.8-100.5 100.5c-12 12-31.4 12-43.3 0l-.4-.4c-12-12-12-31.4 0-43.4l100.5-100.5c12-12 31.4-12 43.4 0l.4.4c11.9 12 11.9 31.4-.1 43.4z" opacity=".1"/><path d="m1867.3 3456 332.3-332.3c12-12 31.4-12 43.4 0l.4.4c12 12 12 31.4 0 43.3l-332.2 332.3c-12 12-31.4 12-43.4 0l-.4-.4c-10.4-11.6-9-30.4-.1-43.3z" opacity=".1"/><path d="m1531 3792.5.7-.7c12-12 31.4-12 43.4 0l.4.4c12 12 12 31.4 0 43.4l-.7.7c-12 12-31.4 12-43.4 0l-.4-.4c-12-12-12-31.4 0-43.4z" opacity=".1"/><path d="m2442.3 2881 100.5-100.5c12-12 31.4-12 43.4 0l.4.4c12 12 12 31.4 0 43.4l-100.5 100.5c-12 12-31.4 12-43.4 0l-.4-.4c-12-12-12-31.4 0-43.4z" opacity=".1"/><path d="m2650.9 2672.2.8-.7c12-12 31.4-12 43.4 0l.4.4c12 12 12 31.4 0 43.4l-.7.7c-12 12-31.4 12-43.4 0l-.4-.4c-12.1-12-12.1-31.4-.1-43.4z" opacity=".1"/><path d="m2928.3 3350.7-100.5 100.5c-12 12-31.4 12-43.4 0l-.4-.4c-12-12-12-31.4 0-43.4l100.5-100.5c12-12 31.4-12 43.4 0l.4.4c12 12 12 31.4 0 43.4z" opacity=".1"/><path d="m3018.1 3260.9-.8.8c-12 12-31.4 12-43.4 0l-.4-.4c-12-12-12-31.4 0-43.4l.8-.8c12-12 31.4-12 43.4 0l.4.4c12 12 12 31.4 0 43.4z" opacity=".1"/><path d="m2877.5 3098.6 100.5-100.5c12-12 31.4-12 43.4 0l.4.4c12 12 12 31.4 0 43.4l-100.5 100.5c-12 12-31.4 12-43.4 0l-.4-.4c-12-12-12-31.4 0-43.4z" opacity=".1"/><path d="m2633.2 3343 .8-.8c12-12 31.4-12 43.4 0l.4.4c12 12 12 31.4 0 43.4l-.8.8c-12 12-31.4 12-43.4 0l-.4-.4c-12-12-12-31.4 0-43.4z" opacity=".1"/><path d="m1987.2 3771.4 332.3-332.3c12-12 31.4-12 43.4 0l.4.4c12 12 12 31.4 0 43.4l-332.3 332.2c-12 12-31.4 12-43.4 0l-.4-.4c-12-12-12-31.4 0-43.3z" opacity=".1"/><path d="m2567.5 3191 100.5-100.5c12-12 31.4-12 43.4 0l.4.4c12 12 12 31.4 0 43.4l-100.5 100.5c-12 12-31.4 12-43.4 0l-.4-.4c-12-12-12-31.4 0-43.4z" opacity=".1"/><path d="m2757.1 3001.6.8-.7c12-12 31.4-12 43.4 0l.4.4c12 12 12 31.4 0 43.4l-.8.7c-12 12-31.4 12-43.4 0l-.4-.4c-12-12-12-31.4 0-43.4z" opacity=".1"/><path d="m2283.6 3344.9-100.5 100.5c-12 12-31.4 12-43.4 0l-.4-.4c-12-12-12-31.4 0-43.3l100.5-100.5c12-12 31.4-12 43.3 0l.4.4c12.1 11.9 12.1 31.3.1 43.3z" opacity=".1"/><path d="m2548.5 2992.4 100.5-100.5c12-12 31.4-12 43.4 0l.4.4c12 12 12 31.4 0 43.4l-100.5 100.5c-12 12-31.4 12-43.4 0l-.4-.4c-12-12.1-12-31.5 0-43.4z" opacity=".1"/><path d="m2415.6 3125.4.8-.8c12-12 31.4-12 43.4 0l.4.4c12 12 12 31.4 0 43.3l-.8.8c-12 12-31.4 12-43.3 0l-.4-.4c-12.1-12-12.1-31.4-.1-43.3z" opacity=".1"/><path d="m2075 3553.5-.8.8c-12 12-31.4 12-43.3 0l-.4-.4c-12-12-12-31.4 0-43.4l.8-.7c12-12 31.4-12 43.4 0l.4.4c11.9 11.9 11.9 31.3-.1 43.3z" opacity=".1"/><path d="m3042.9 3586.1 100.5-100.5c12-12 31.4-12 43.4 0l.4.4c12 12 12 31.4 0 43.3l-100.5 100.5c-12 12-31.4 12-43.3 0l-.4-.4c-12.1-11.9-12.1-31.3-.1-43.3z" opacity=".1"/><path d="m2909.9 3719.1.8-.8c12-12 31.4-12 43.3 0l.4.4c12 12 12 31.4 0 43.4l-.8.8c-12 12-31.4 12-43.4 0l-.4-.4c-11.9-12-11.9-31.4.1-43.4z" opacity=".1"/><path d="m3446.8 3835 100.5-100.5c12-12 31.4-12 43.4 0l.4.4c12 12 12 31.4 0 43.4l-100.5 100.5c-12 12-31.4 12-43.4 0l-.4-.4c-12-12.1-12-31.5 0-43.4z" opacity=".1"/><path d="m2795 3616.3 332.3-332.3c12-12 31.4-12 43.4 0l.4.4c12 12 12 31.4 0 43.4l-332.3 332.3c-12 12-31.4 12-43.4 0l-.4-.4c-11.9-12-12-31.4 0-43.4z" opacity=".1"/><path d="m2752.9 3746-.8.8c-12 12-31.4 12-43.3 0l-.4-.4c-12-12-12-31.4 0-43.4l.7-.7c12-12 31.4-12 43.4 0l.4.4c12 11.9 12 31.3 0 43.3z" opacity=".1"/><path d="m3203.9 3642.6 100.5-100.5c12-12 31.4-12 43.4 0l.4.4c12 12 12 31.4 0 43.4l-100.5 100.5c-12 12-31.4 12-43.4 0l-.4-.4c-11.9-12-11.9-31.4 0-43.4z" opacity=".1"/><path d="m3412.5 3434 .8-.7c12-12 31.4-12 43.4 0l.4.4c12 12 12 31.4 0 43.4l-.8.7c-12 12-31.4 12-43.4 0l-.4-.4c-12-12-12-31.4 0-43.4z" opacity=".1"/><path d="m3260.5 3803.7 100.5-100.5c12-12 31.4-12 43.3 0l.4.4c12 12 12 31.4 0 43.4l-100.5 100.5c-12 12-31.4 12-43.4 0l-.4-.4c-11.9-12-11.9-31.4.1-43.4z" opacity=".1"/><path d="m3435.6 3628.5 100.5-100.5c12-12 31.4-12 43.4 0l.4.4c12 12 12 31.4 0 43.4l-100.5 100.5c-12 12-31.4 12-43.4 0l-.4-.4c-11.9-12-11.9-31.4 0-43.4z" opacity=".1"/><path d="m3176.1 3888.1.8-.8c12-12 31.4-12 43.4 0l.4.4c12 12 12 31.4 0 43.4l-.8.8c-12 12-31.4 12-43.4 0l-.4-.4c-12-12-12-31.5 0-43.4z" opacity=".1"/><path d="m3738.9 3760.5.8-.8c12-12 31.4-12 43.4 0l.4.4c12 12 12 31.4 0 43.4l-.8.8c-12 12-31.4 12-43.3 0l-.4-.4c-12.1-12-12.1-31.5-.1-43.4z" opacity=".1"/><path d="m2543.1 1997.4-100.5 100.5c-12 12-31.4 12-43.3 0l-.4-.4c-12-12-12-31.4 0-43.4l100.5-100.5c12-12 31.4-12 43.4 0l.4.4c11.9 12 11.9 31.4-.1 43.4z" opacity=".1"/><path d="m3844.5 696-332.3 332.3c-12 12-31.4 12-43.3 0l-.4-.4c-12-12-12-31.4 0-43.4l332.2-332.3c12-12 31.4-12 43.4 0l.4.4c12 12 12 31.4 0 43.4z" opacity=".1"/><path d="m3302.7 1237.8-266.6 266.6c-12 12-31.4 12-43.4 0l-.4-.4c-12-12-12-31.4 0-43.4l266.6-266.6c12-12 31.4-12 43.4 0l.4.4c12 11.9 12.1 31.3.2 43.3 0 .1-.1.1-.2.1z" opacity=".1"/><path d="m2631.6 1821.5.8-.7c12-12 31.4-12 43.4 0l.4.4c12 12 12 31.4 0 43.4l-.8.7c-12 12-31.4 12-43.4 0l-.4-.4c-12-12-12-31.4 0-43.4z" opacity=".1"/><path d="m3478.6 756.7 332.3-332.3c12-12 31.4-12 43.4 0l.4.4c12 12 12 31.4 0 43.4l-332.3 332.3c-12 12-31.4 12-43.4 0l-.4-.4c-12-12.1-12-31.5 0-43.4z" opacity=".1"/><path d="m2379.8 1855.5 100.5-100.5c12-12 31.4-12 43.4 0l.4.4c12 12 12 31.4 0 43.4l-100.5 100.5c-12 12-31.4 12-43.4 0l-.4-.4c-12-12-12-31.4 0-43.4z" opacity=".1"/><path d="m2602.2 1633.1 332.3-332.2c12-12 31.4-12 43.3 0l.4.4c12 12 12 31.4 0 43.4l-332.2 332.2c-12 12-31.4 12-43.3 0l-.4-.4c-12.1-12-12.1-31.4-.1-43.4z" opacity=".1"/><path d="m3896.8 338.5.8-.7c12-12 31.4-12 43.3 0l.4.4c12 12 12 31.4 0 43.4l-.8.8c-12 12-31.4 12-43.3 0l-.4-.4c-11.9-12.1-11.9-31.6 0-43.5z" opacity=".1"/><path d="m2290 1945.3.8-.8c12-12 31.4-12 43.4 0l.4.4c12 12 12 31.4 0 43.4l-.8.8c-12 12-31.4 12-43.4 0l-.4-.4c-12-12-12-31.4 0-43.4z" opacity=".1"/><path d="m3912.8 192.5-100.5 100.5c-12 12-31.4 12-43.4 0l-.4-.4c-12-12-12-31.4 0-43.4l100.5-100.5c12-12 31.4-12 43.4 0l.4.4c12 12 12 31.4 0 43.4z" opacity=".1"/><path d="m2088.4 1929.2 100.5-100.5c12-12 31.4-12 43.4 0l.4.4c12 12 12 31.4 0 43.4l-100.5 100.5c-12 12-31.4 12-43.4 0l-.4-.4c-11.9-12-11.9-31.4 0-43.4z" opacity=".1"/><path d="m2407.9 1609.8 332.3-332.3c12-12 31.4-12 43.3 0l.4.4c12 12 12 31.4 0 43.4l-332.3 332.2c-12 12-31.4 12-43.3 0l-.4-.4c-12-11.9-12.1-31.3-.2-43.3z" opacity=".1"/><path d="m2959.8 1057.8 332.3-332.2c12-12 31.4-12 43.3 0l.4.4c12 12 12 31.4 0 43.4l-332.3 332.2c-12 12-31.4 12-43.3 0l-.4-.4c-11.9-12-11.9-31.4 0-43.4z" opacity=".1"/><path d="m2365.7 1739.5-.8.8c-12 12-31.4 12-43.4 0l-.4-.4c-12-12-12-31.4 0-43.3l.7-.8c12-12 31.4-12 43.4 0l.4.4c12.1 12 12.1 31.4.1 43.3z" opacity=".1"/><path d="m2610.2 1277.5-332.3 332.3c-12 12-31.4 12-43.4 0l-.4-.4c-12-12-12-31.4 0-43.4l332.3-332.3c12-12 31.4-12 43.4 0l.4.4c11.9 12 11.9 31.4 0 43.4z" opacity=".1"/><path d="m3402.9 397.1 100.5-100.5c12-12 31.4-12 43.4 0l.4.4c12 12 12 31.4 0 43.4l-100.5 100.5c-12 12-31.4 12-43.4 0l-.4-.4c-12-12-12-31.4 0-43.4z" opacity=".1"/><path d="m3198.6 689-332.3 332.2c-12 12-31.4 12-43.3 0l-.4-.4c-12-12-12-31.4 0-43.4l332.2-332.3c12-12 31.4-12 43.4 0l.4.4c12 12.1 12 31.5 0 43.5z" opacity=".1"/><path d="m3679.2 120.9.8-.8c12-12 31.4-12 43.4 0l.4.4c12 12 12 31.4 0 43.4l-.8.8c-12 12-31.4 12-43.4 0l-.4-.4c-12-12.1-12-31.5 0-43.4z" opacity=".1"/><path d="m3338.7 549-.8.8c-12 12-31.4 12-43.4 0l-.4-.4c-12-12-12-31.4 0-43.4l.8-.8c12-12 31.4-12 43.4 0l.4.4c12 12 12 31.4 0 43.4z" opacity=".1"/><path d="m2020.1 1780 100.5-100.5c12-12 31.4-12 43.4 0l.4.4c12 12 12 31.4 0 43.4l-100.5 100.5c-12 12-31.4 12-43.4 0l-.4-.4c-12-12-12-31.4 0-43.4z" opacity=".1"/><path d="m1955.8 1931.8-.8.8c-12 12-31.4 12-43.3 0l-.4-.4c-12-12-12-31.4 0-43.4l.8-.8c12-12 31.4-12 43.4 0l.4.4c11.9 12 11.9 31.4-.1 43.4z" opacity=".1"/><path d="m3182.5 1575.6-100.5 100.5c-12 12-31.4 12-43.3 0l-.4-.4c-12-12-12-31.4 0-43.4l100.5-100.5c12-12 31.4-12 43.4 0l.4.4c11.9 12 11.9 31.4-.1 43.4z" opacity=".1"/><path d="m2398.3 2359.8-100.5 100.5c-12 12-31.4 12-43.4 0l-.4-.4c-12-12-12-31.4 0-43.4l100.5-100.5c12-12 31.4-12 43.3 0l.4.4c12.1 12 12.1 31.4.1 43.4z" opacity=".1"/><path d="m2833.9 1924.2-332.2 332.3c-12 12-31.4 12-43.4 0l-.4-.4c-12-12-12-31.4 0-43.3l332.2-332.3c12-12 31.4-12 43.4 0l.4.4c12 11.9 12 31.3 0 43.3z" opacity=".1"/><path d="m3555.8 1114.7 332.3-332.2c12-12 31.4-12 43.3 0l.4.4c12 12 12 31.4 0 43.4l-332.3 332.2c-12 12-31.4 12-43.3 0l-.4-.4c-11.9-12-11.9-31.5 0-43.4z" opacity=".1"/><path d="m3272.4 1485.7-.8.8c-12 12-31.4 12-43.3 0l-.4-.4c-12-12-12-31.4 0-43.4l.7-.7c12-12 31.4-12 43.4 0l.4.4c11.9 11.9 11.9 31.4 0 43.3z" opacity=".1"/><path d="m3788.8 1099.3 100.5-100.5c12-12 31.4-12 43.4 0l.4.4c12 12 12 31.4 0 43.4l-100.5 100.5c-12 12-31.4 12-43.4 0l-.4-.4c-12-12-12-31.4 0-43.4z" opacity=".1"/><path d="m2599.6 2376.1-100.5 100.5c-12 12-31.4 12-43.4 0l-.4-.4c-12-12-12-31.4 0-43.4l100.5-100.5c12-12 31.4-12 43.3 0l.4.4c12.1 11.9 12.2 31.3.1 43.4.1-.1.1-.1 0 0z" opacity=".1"/><path d="m3553.1 1422.6-332.3 332.3c-12 12-31.4 12-43.4 0l-.4-.4c-12-12-12-31.4 0-43.4l332.3-332.3c12-12 31.4-12 43.4 0l.4.4c12 12 12 31.4 0 43.4z" opacity=".1"/><path d="m2799.4 2088.6.8-.7c12-12 31.4-12 43.4 0l.4.4c12 12 12 31.4 0 43.4l-.8.7c-12 12-31.4 12-43.4 0l-.4-.4c-12-12-12-31.4 0-43.4z" opacity=".1"/><path d="m3699 1189.1.8-.8c12-12 31.4-12 43.3 0l.4.4c12 12 12 31.4 0 43.4l-.8.7c-12 12-31.4 12-43.3 0l-.4-.4c-12-11.9-12-31.3 0-43.3z" opacity=".1"/><path d="m3490 1703.3-332.3 332.3c-12 12-31.4 12-43.4 0l-.4-.4c-12-12-12-31.4 0-43.4l332.3-332.3c12-12 31.4-12 43.4 0l.4.4c11.9 12 12 31.4 0 43.4z" opacity=".1"/><path d="m2819.8 2373.5-100.5 100.5c-12 12-31.4 12-43.3 0l-.4-.4c-12-12-12-31.4 0-43.4l100.5-100.5c12-12 31.4-12 43.4 0l.4.4c11.9 12 11.9 31.4-.1 43.4z" opacity=".1"/><path d="m2909.6 2283.7-.8.8c-12 12-31.4 12-43.3 0l-.4-.4c-12-12-12-31.4 0-43.4l.8-.8c12-12 31.4-12 43.4 0l.4.4c11.9 12 11.9 31.4-.1 43.4z" opacity=".1"/><path d="m3918.2 1492.7-100.5 100.5c-12 12-31.4 12-43.4 0l-.4-.4c-12-12-12-31.4 0-43.4l100.5-100.5c12-12 31.4-12 43.4 0l.4.4c12 12 12 31.4 0 43.4z" opacity=".1"/><path d="m2928.6 2482.3-100.5 100.5c-12 12-31.4 12-43.4 0l-.4-.4c-12-12-12-31.4 0-43.4l100.5-100.5c12-12 31.4-12 43.4 0l.4.4c12 12 12 31.4 0 43.4z" opacity=".1"/><path d="m3569.6 1841.3-332.3 332.3c-12 12-31.4 12-43.4 0l-.4-.4c-12-12-12-31.4 0-43.4l332.3-332.3c12-12 31.4-12 43.4 0l.4.4c11.9 12 11.9 31.5 0 43.4z" opacity=".1"/><path d="m3061.6 2349.3-.8.8c-12 12-31.4 12-43.4 0l-.4-.4c-12-12-12-31.4 0-43.4l.8-.8c12-12 31.4-12 43.3 0l.4.4c12 12.1 12 31.5.1 43.4z" opacity=".1"/><path d="m3709.6 1701.3-.8.7c-12 12-31.4 12-43.3 0l-.4-.4c-12-12-12-31.4 0-43.3l.8-.8c12-12 31.4-12 43.3 0l.4.4c12 12 12 31.4 0 43.4z" opacity=".1"/><path d="m3412.4 2866.7-100.5 100.5c-12 12-31.4 12-43.4 0l-.4-.4c-12-12-12-31.4 0-43.4l100.5-100.5c12-12 31.4-12 43.4 0l.4.4c11.9 12 11.9 31.4 0 43.4z" opacity=".1"/><path d="m3172.6 3019.1.8-.7c12-12 31.4-12 43.4 0l.4.4c12 12 12 31.4 0 43.4l-.8.7c-12 12-31.4 12-43.4 0l-.4-.4c-12-12-12-31.5 0-43.4z" opacity=".1"/><path d="m3633.7 2645.4-.8.8c-12 12-31.4 12-43.4 0l-.4-.4c-12-12-12-31.4 0-43.4l.8-.8c12-12 31.4-12 43.4 0l.4.4c11.9 12 11.9 31.4 0 43.4 0-.1 0-.1 0 0z" opacity=".1"/><path d="m3250.2 2725.9 100.5-100.5c12-12 31.4-12 43.4 0l.4.4c12 12 12 31.4 0 43.4l-100.5 100.5c-12 12-31.4 12-43.4 0l-.4-.4c-12-12-12-31.4 0-43.4z" opacity=".1"/><path d="m3472.6 2503.5 332.3-332.3c12-12 31.4-12 43.4 0l.4.4c12 12 12 31.4 0 43.4l-332.3 332.3c-12 12-31.4 12-43.4 0l-.4-.4c-12-11.9-12.1-31.3-.2-43.3 0-.1.1-.1.2-.1z" opacity=".1"/><path d="m3160.4 2815.8.8-.8c12-12 31.4-12 43.4 0l.4.4c12 12 12 31.4 0 43.3l-.8.8c-12 12-31.4 12-43.4 0l-.4-.4c-12-12-12-31.4 0-43.3z" opacity=".1"/><path d="m3103.2 2742.9-100.5 100.5c-12 12-31.4 12-43.4 0l-.4-.4c-12-12-12-31.4 0-43.4l100.5-100.5c12-12 31.4-12 43.4 0l.4.4c11.9 12 11.9 31.5 0 43.4z" opacity=".1"/><path d="m3278.3 2480.2 332.3-332.2c12-12 31.4-12 43.4 0l.4.4c12 12 12 31.4 0 43.3l-332.3 332.3c-12 12-31.4 12-43.4 0l-.4-.4c-12-12-12-31.4 0-43.4z" opacity=".1"/><path d="m3236.2 2610-.8.8c-12 12-31.4 12-43.3 0l-.4-.4c-12-12-12-31.4 0-43.3l.8-.8c12-12 31.4-12 43.4 0l.4.4c11.8 11.9 11.8 31.3-.1 43.3z" opacity=".1"/><path d="m3480.6 2147.9-332.3 332.3c-12 12-31.4 12-43.4 0l-.4-.4c-12-12-12-31.4 0-43.4l332.3-332.3c12-12 31.4-12 43.4 0l.4.4c12 12 12 31.4 0 43.4z" opacity=".1"/><path d="m2890.5 2650.4 100.5-100.5c12-12 31.4-12 43.4 0l.4.4c12 12 12 31.4 0 43.4l-100.5 100.5c-12 12-31.4 12-43.4 0l-.4-.4c-12-12-12-31.4 0-43.4z" opacity=".1"/><path d="m2826.3 2802.2-.8.7c-12 12-31.4 12-43.3 0l-.4-.4c-12-12-12-31.4 0-43.4l.8-.8c12-12 31.4-12 43.3 0l.4.4c11.9 12.2 11.9 31.6 0 43.5z" opacity=".1"/><path d="m3526.9 3102 100.5-100.5c12-12 31.4-12 43.4 0l.4.4c12 12 12 31.4 0 43.4l-100.5 100.5c-12 12-31.4 12-43.4 0l-.4-.4c-12-12-12-31.4 0-43.4z" opacity=".1"/><path d="m3437.1 3191.9.8-.8c12-12 31.4-12 43.4 0l.4.4c12 12 12 31.4 0 43.3l-.8.8c-12 12-31.4 12-43.4 0l-.4-.4c-12-12-12-31.4 0-43.3z" opacity=".1"/><path d="m3313.8 3315.1.8-.8c12-12 31.4-12 43.4 0l.4.4c12 12 12 31.4 0 43.3l-.8.8c-12 12-31.4 12-43.4 0l-.4-.4c-12-11.9-12-31.3 0-43.3z" opacity=".1"/><path d="m3749 2879.9.8-.8c12-12 31.4-12 43.4 0l.4.4c12 12 12 31.4 0 43.3l-.8.8c-12 12-31.4 12-43.4 0l-.4-.4c-12-11.9-12-31.3 0-43.3z" opacity=".1"/><path d="m3796.5 3572.9-100.5 100.5c-12 12-31.4 12-43.4 0l-.4-.4c-12-12-12-31.4 0-43.4l100.5-100.5c12-12 31.4-12 43.3 0l.4.4c12 12 12 31.4.1 43.4z" opacity=".1"/><path d="m3472.6 3026.3-100.5 100.5c-12 12-31.4 12-43.4 0l-.4-.4c-12-12-12-31.4 0-43.3l100.5-100.5c12-12 31.4-12 43.3 0l.4.4c12.1 12 12.1 31.4.1 43.3z" opacity=".1"/><path d="m3694.1 2804.9-.7.7c-12 12-31.4 12-43.4 0l-.4-.4c-12-12-12-31.4 0-43.3l.8-.8c12-12 31.4-12 43.3 0l.4.4c11.9 12 11.9 31.4 0 43.4z" opacity=".1"/><path d="m3562.4 2936.5-.8.8c-12 12-31.4 12-43.4 0l-.4-.4c-12-12-12-31.4 0-43.3l.8-.8c12-12 31.4-12 43.4 0l.4.4c12 11.9 12 31.3 0 43.3z" opacity=".1"/><path d="m3690.2 3243.9-100.5 100.5c-12 12-31.4 12-43.4 0l-.4-.4c-12-12-12-31.4 0-43.4l100.5-100.5c12-12 31.4-12 43.4 0l.4.4c12 12 12 31.4 0 43.4z" opacity=".1"/><path d="m3823.2 3111-.8.8c-12 12-31.4 12-43.4 0l-.4-.4c-12-12-12-31.4 0-43.4l.8-.8c12-12 31.4-12 43.3 0l.4.4c12 12 12 31.4.1 43.4z" opacity=".1"/><path d="m3744.5 3319.6 100.5-100.5c12-12 31.4-12 43.4 0l.4.4c12 12 12 31.4 0 43.4l-100.5 100.5c-12 12-31.4 12-43.4 0l-.4-.4c-12-12-12-31.4 0-43.4z" opacity=".1"/><path d="m3654.7 3409.5.8-.8c12-12 31.4-12 43.3 0l.4.4c12 12 12 31.4 0 43.4l-.8.7c-12 12-31.4 12-43.4 0l-.4-.4c-11.9-11.9-11.9-31.4.1-43.3z" opacity=".1"/><path d="m3804.7 0c-3.6 11-.7 23.1 7.4 31.2l.4.4c12 12 31.4 12 43.4 0l31.8-31.6z" opacity=".1"/><path d="m3551.6 0-145.1 145.1c-12 12-12 31.4 0 43.4l.4.4c12 12 31.4 12 43.3 0l189-188.9z" opacity=".1"/><path d="m2259 0c.1 8.1 3.3 15.8 9 21.4l.4.4c12 12 31.4 12 43.4 0l.8-.8c5.6-5.6 8.9-13.2 9-21.1h-62.6z" opacity=".1"/><path d="m1158 0-47.1 47.1c-12 12-12 31.4 0 43.4l.4.4c12 12 31.4 12 43.4 0l90.9-90.9z" opacity=".1"/><path d="m505.2 0-40.2 40.2c-12 12-12 31.4 0 43.3l.4.4c12 12 31.4 12 43.4 0l84-83.9z" opacity=".1"/><path d="m307.9 0c1.3 5.6 4.1 10.8 8.2 14.8l.4.4c12 12 31.4 12 43.4 0l15.2-15.2z" opacity=".1"/><path d="m280.6 1356.9-.4-.4c-12-12-31.4-12-43.3 0l-236.9 236.7v87.6l280.6-280.6c11.9-12 11.9-31.4 0-43.3z" opacity=".1"/><path d="m17.4 967.2-.4-.4c-4.6-4.6-10.6-7.6-17-8.6v61.7c6.3-1 12.1-4 16.7-8.6l.8-.8c11.9-11.9 11.9-31.3-.1-43.3z" opacity=".1"/><path d="m125.3 424.1-.4-.4c-12-12-31.4-12-43.4 0l-81.5 81.5v71.7c9.2.9 18.3-2.3 24.8-8.8l100.5-100.5c12-12.1 12-31.5 0-43.5z" opacity=".1"/><path d="m68.7 45.5-.4-.5c-12-12-31.4-12-43.3 0l-25 25v87.6l68.7-68.8c12-12 12-31.4 0-43.3z" opacity=".1"/><path d="m242.2 2918.4-.4-.4c-12-12-31.4-12-43.4 0l-198.4 198.4v87.6l242.2-242.2c12-12 12-31.4 0-43.4z" opacity=".1"/><path d="m252.4 2690.6-.4-.4c-12-12-31.4-12-43.4 0l-208.6 208.6v87.6l252.4-252.4c12-12 12-31.4 0-43.4z" opacity=".1"/><path d="m114.5 2611-.4-.4c-12-12-31.4-12-43.3 0l-70.8 70.6v87.6l114.4-114.4c12-12 12-31.4.1-43.4z" opacity=".1"/><path d="m34.8 2473-.4-.4c-9.1-9-22.8-11.5-34.4-6.2v84.9l34.8-34.8c12-12.1 12-31.5 0-43.5z" opacity=".1"/><path d="m78.7 2211.6-.4-.4c-12-12-31.4-12-43.4 0l-34.9 34.8v87.6l78.7-78.7c11.9-11.9 11.9-31.3 0-43.3z" opacity=".1"/><path d="m217.4 1637.6-.4-.4c-12-12-31.4-12-43.3 0l-173.7 173.6v87.6l217.4-217.4c12-12 12-31.4 0-43.4z" opacity=".1"/><path d="m30.3 3814-.4-.4c-7.8-7.8-19.2-10.8-29.9-7.9v82l30.3-30.3c12-12 12-31.4 0-43.4z" opacity=".1"/><path d="m2310.5 3968.5 269.2-269.2c12-12 12-31.4 0-43.4l-.4-.4c-12-12-31.4-12-43.4 0l-313 313z" opacity=".1"/><path d="m1660 3968.5 275-275c12-12 12-31.4 0-43.3l-.4-.4c-12-12-31.4-12-43.4 0l-318.8 318.8z" opacity=".1"/><path d="m1440.7 3968.5c6.6-12 4.5-26.8-5.2-36.5l-.4-.4c-12-12-31.4-12-43.4 0l-36.9 36.9z" opacity=".1"/><path d="m136.8 3968.5 7.6-7.6c12-12 12-31.4 0-43.3l-.4-.4c-12-12-31.4-12-43.4 0l-51.4 51.4h87.6z" opacity=".1"/><path d="m354.4 3968.5 35.6-35.6c12-12 12-31.4 0-43.4l-.4-.4c-12-12-31.4-12-43.4 0l-79.5 79.4z" opacity=".1"/><path d="m3618.5 3968.5 56.2-56.2c12-12 12-31.4 0-43.3l-.4-.4c-12-12-31.4-12-43.4 0l-100 100z" opacity=".1"/><path d="m2530.4 3968.5 89.5-89.5c12-12 12-31.4 0-43.4l-.4-.4c-12-12-31.4-12-43.3 0l-100.5 100.5c-8.6 8.6-11.3 21.4-6.9 32.8z" opacity=".1"/><path d="m3817.2 3968.5c-1.1-6.1-4.1-11.6-8.4-16l-.4-.4c-12-12-31.4-12-43.4 0l-16.5 16.5z" opacity=".1"/><path d="m3968.5 2442.8-201.8 201.8c-12 12-12 31.4 0 43.4l.4.4c12 12 31.4 12 43.4 0l158-158z" opacity=".1"/><path d="m3968.5 2222.9-276.9 276.9c-12 12-12 31.4 0 43.4l.4.4c12 12 31.4 12 43.3 0l233.1-233.1z" opacity=".1"/><path d="m3968.5 2007.6-34.8 34.8c-12 12-12 31.4 0 43.4l.4.4c9 9 22.7 11.5 34.4 6.2z" opacity=".1"/><path d="m3968.5 1572.4-275.5 275.5c-12 12-12 31.4 0 43.3l.4.4c12 12 31.4 12 43.4 0l231.7-231.7z" opacity=".1"/><path d="m3968.5 1137.2-85.7 85.7c-12 12-12 31.4 0 43.4l.4.4c12 12 31.4 12 43.4 0l41.9-41.9z" opacity=".1"/><path d="m3968.5 2660.5-92.9 93c-12 12-12 31.4 0 43.4l.4.4c12 12 31.4 12 43.4 0l49.1-49.1z" opacity=".1"/><path d="m3968.5 2878.1-13.3 13.3c-12 12-12 31.4 0 43.4l.4.4c3.6 3.6 8 6.2 12.9 7.7z" opacity=".1"/><path d="m3968.5 3748.5-98.7 98.7c-12 12-12 31.4 0 43.4l.4.4c12 12 31.4 12 43.3 0l54.9-54.9z" opacity=".1"/></g></svg>