<svg viewBox="0 0 3968.51 3968.5" xmlns="http://www.w3.org/2000/svg" xmlns:xlink="http://www.w3.org/1999/xlink"><linearGradient id="a" gradientUnits="userSpaceOnUse" x1="270.08" x2="3700.69" y1="4177.78" y2="-213.21"><stop offset="0" stop-color="#cc0625"/><stop offset="1" stop-color="#fac319"/></linearGradient><path d="m2.26-3.96h3966.25v3972.5h-3966.25z" fill="url(#a)"/><g fill="#fff"><path d="m3968.51 1790-138.25 138.25a30.67 30.67 0 0 0 0 43.36l.44.44a30.67 30.67 0 0 0 43.36 0l94.45-94.45z" opacity=".04"/><path d="m2965.65 3968.5 168.57-168.57a30.67 30.67 0 0 0 0-43.36l-.44-.44a30.65 30.65 0 0 0 -43.35 0l-212.43 212.37z" opacity=".04"/><path d="m2215 3761.15 332.26-332.25a30.65 30.65 0 0 1 43.35 0l.44.43a30.65 30.65 0 0 1 0 43.35l-332.28 332.32a30.65 30.65 0 0 1 -43.35 0l-.44-.44a30.68 30.68 0 0 1 0-43.37z" opacity=".04"/><path d="m1224.8 3968.5 131.09-131.09a30.65 30.65 0 0 0 0-43.35l-.44-.44a30.67 30.67 0 0 0 -43.36 0l-174.89 174.88z" opacity=".04"/><path d="m160.72 1041.49-.44-.44a30.67 30.67 0 0 0 -43.36 0l-116.92 116.95v87.6l160.72-160.72a30.68 30.68 0 0 0 0-43.37z" opacity=".04"/><path d="m1397.92 65.26-332.26 332.25a30.65 30.65 0 0 1 -43.35 0l-.44-.44a30.67 30.67 0 0 1 0-43.36l332.25-332.25a30.65 30.65 0 0 1 43.35 0l.44.43a30.67 30.67 0 0 1 0 43.36z" opacity=".04"/><path d="m2463.61 0-110.49 110.48a30.68 30.68 0 0 0 0 43.37l.44.43a30.65 30.65 0 0 0 43.35 0l154.3-154.28z" opacity=".04"/><path d="m2898.82 0-232.91 232.91a30.65 30.65 0 0 0 0 43.35l.43.44a30.68 30.68 0 0 0 43.37 0l266.54-266.53a30.66 30.66 0 0 0 6.75-10.17z" opacity=".04"/><path d="m3334 0-198 198.06a30.67 30.67 0 0 0 0 43.36l.44.43a30.65 30.65 0 0 0 43.35 0l241.84-241.85z" opacity=".04"/><path d="m220.67 154.48-100.53 100.52a30.67 30.67 0 0 1 -43.36 0l-.44-.44a30.67 30.67 0 0 1 0-43.36l100.53-100.52a30.67 30.67 0 0 1 43.36 0l.43.44a30.29 30.29 0 0 1 1.19 42.81l-.19.19a.9.9 0 0 1 -.99.36z" opacity=".04"/><path d="m66.18 309-.74.74a30.67 30.67 0 0 1 -43.36 0l-.43-.43a30.65 30.65 0 0 1 0-43.35l.75-.75a30.65 30.65 0 0 1 43.35 0l.43.43c6.32 9.99-2.07 28.05 0 43.36z" opacity=".04"/><rect height="61.94" opacity=".04" rx="30.66" transform="matrix(.70747692 -.70673644 .70673644 .70747692 -149.09 259.6)" width="62.38" x="207.86" y="278.93"/><path d="m167.29 555.47 100.54-100.53a30.67 30.67 0 0 1 43.36 0l.44.44a30.67 30.67 0 0 1 0 43.36l-100.54 100.53a30.67 30.67 0 0 1 -43.36 0l-.44-.44a30.67 30.67 0 0 1 0-43.36z" opacity=".04"/><path d="m59.56 880.81 332.25-332.25a30.65 30.65 0 0 1 43.35 0l.44.43a30.67 30.67 0 0 1 0 43.36l-332.25 332.26a30.65 30.65 0 0 1 -43.35 0l-.43-.43c-61.89 0-112.07 40.21-112.07-21.69s50.17-112.06 112.06-21.68z" opacity=".04"/><path d="m53.58 1104.39.75-.75a30.67 30.67 0 0 1 43.36 0l.44.44a30.67 30.67 0 0 1 0 43.36l-.75.75a30.67 30.67 0 0 1 -43.36 0l-.44-.44c-16.94 0-30.67-4.74-30.67-21.68s13.73-30.67 30.67-21.68z" opacity=".04"/><path d="m359.64 798.33 100.53-100.53a30.67 30.67 0 0 1 43.36 0l.44.44a30.67 30.67 0 0 1 0 43.36l-100.53 100.53a30.67 30.67 0 0 1 -43.36 0l-.43-.44a30.65 30.65 0 0 1 0-43.35z" opacity=".04"/><path d="m568.19 589.78.75-.75a30.65 30.65 0 0 1 43.35 0l.44.44a30.67 30.67 0 0 1 0 43.36l-.75.75a30.67 30.67 0 0 1 -43.36 0l-.44-.44a30.67 30.67 0 0 1 .01-43.36z" opacity=".04"/><path d="m845.63 1268.05-100.53 100.53a30.65 30.65 0 0 1 -43.35 0l-.44-.44a30.67 30.67 0 0 1 0-43.36l100.54-100.53a30.67 30.67 0 0 1 43.36 0l.43.44a30.65 30.65 0 0 1 0 43.35z" opacity=".04"/><rect height="61.94" opacity=".04" rx="30.66" transform="matrix(.70710678 -.70710678 .70710678 .70710678 -1246.93 696.01)" width="438.27" x="-2.44" y="1822.21"/><rect height="61.94" opacity=".04" rx="30.66" transform="matrix(.70735356 -.70685991 .70685991 .70735356 -550.33 983.99)" width="62.38" x="882.01" y="1125.66"/><path d="m794.82 1016 100.53-100.56a30.65 30.65 0 0 1 43.35 0l.44.44a30.65 30.65 0 0 1 0 43.35l-100.52 100.54a30.67 30.67 0 0 1 -43.36 0l-.44-.44a30.67 30.67 0 0 1 0-43.33z" opacity=".04"/><rect height="61.94" opacity=".04" rx="30.66" transform="matrix(.70747692 -.70673644 .70673644 .70747692 -738.42 779.76)" width="62.38" x="541.55" y="1250.92"/><path d="m629.18 1051.6-100.53 100.53a30.65 30.65 0 0 1 -43.35 0l-.44-.44a30.67 30.67 0 0 1 0-43.36l100.52-100.53a30.68 30.68 0 0 1 43.37 0l.43.44a30.65 30.65 0 0 1 0 43.35z" opacity=".04"/><rect height="61.94" opacity=".04" rx="30.66" transform="matrix(.70747692 -.70673644 .70673644 .70747692 -460.69 767.45)" width="62.38" x="665.55" y="909.27"/><rect height="61.94" opacity=".04" rx="30.66" transform="matrix(.70710678 -.70710678 .70710678 .70710678 -874.87 469.07)" width="203.5" x="27.03" y="1259.63"/><rect height="61.94" opacity=".04" rx="30.66" transform="matrix(.70710678 -.70710678 .70710678 .70710678 -465.62 638.59)" width="203.5" x="436.28" y="850.37"/><path d="m332.89 1042.68.75-.74a30.65 30.65 0 0 1 43.35 0l.44.43a30.65 30.65 0 0 1 0 43.35l-.75.75a30.65 30.65 0 0 1 -43.35 0l-.44-.43a30.68 30.68 0 0 1 0-43.36z" opacity=".04"/><path d="m960.18 1503.43 100.53-100.53a30.67 30.67 0 0 1 43.36 0l.43.43a30.65 30.65 0 0 1 0 43.35l-100.5 100.55a30.67 30.67 0 0 1 -43.36 0l-.44-.44a30.68 30.68 0 0 1 -.02-43.36z" opacity=".04"/><path d="m318.31 2145.3 332.25-332.25a30.68 30.68 0 0 1 43.37 0l.43.44a30.65 30.65 0 0 1 0 43.35l-332.26 332.26a30.65 30.65 0 0 1 -43.35 0l-.43-.44a30.65 30.65 0 0 1 0-43.35z" opacity=".04"/><path d="m827.21 1636.4.75-.75a30.67 30.67 0 0 1 43.36 0l.44.44a30.67 30.67 0 0 1 0 43.36l-.75.75a30.67 30.67 0 0 1 -43.36 0l-.44-.44a30.65 30.65 0 0 1 0-43.35z" opacity=".04"/><rect height="61.94" opacity=".04" rx="30.66" transform="matrix(.70710678 -.70710678 .70710678 .70710678 -1330.01 1300.31)" width="203.5" x="802.85" y="2224.65"/><rect height="61.94" opacity=".04" rx="30.66" transform="matrix(.70710678 -.70710678 .70710678 .70710678 -798.32 1520.54)" width="203.5" x="1334.55" y="1692.96"/><path d="m742.61 2373.81.75-.74a30.65 30.65 0 0 1 43.35 0l.44.43a30.67 30.67 0 0 1 0 43.36l-.75.75a30.65 30.65 0 0 1 -43.35 0l-.44-.43a30.67 30.67 0 0 1 0-43.36z" opacity=".04"/><path d="m537.26 1796.34-100.53 100.53a30.67 30.67 0 0 1 -43.36 0l-.44-.44a30.67 30.67 0 0 1 0-43.36l100.53-100.53a30.67 30.67 0 0 1 43.36 0l.44.44a30.65 30.65 0 0 1 0 43.35z" opacity=".04"/><path d="m712.37 1533.63 332.26-332.26a30.67 30.67 0 0 1 43.36 0l.44.44a30.67 30.67 0 0 1 0 43.36l-332.26 332.26a30.67 30.67 0 0 1 -43.36 0l-.44-.44a30.67 30.67 0 0 1 0-43.36z" opacity=".04"/><path d="m670.24 1663.37-.75.74a30.67 30.67 0 0 1 -43.36 0l-.43-.43a30.65 30.65 0 0 1 0-43.35l.75-.75a30.65 30.65 0 0 1 43.35 0l.44.44a30.67 30.67 0 0 1 0 43.35z" opacity=".04"/><path d="m178.41 2155.19-.75.75a30.67 30.67 0 0 1 -43.36 0l-.44-.44a30.67 30.67 0 0 1 0-43.36l.75-.75a30.67 30.67 0 0 1 43.36 0l.44.44a30.65 30.65 0 0 1 0 43.35z" opacity=".04"/><path d="m463.08 2305.73-100.53 100.53a30.65 30.65 0 0 1 -43.35 0l-.44-.43a30.68 30.68 0 0 1 0-43.37l100.54-100.53a30.67 30.67 0 0 1 43.36 0l.43.44a30.65 30.65 0 0 1 0 43.35z" opacity=".04"/><path d="m546.28 2134.93 332.26-332.26a30.67 30.67 0 0 1 43.36 0l.44.44a30.67 30.67 0 0 1 0 43.36l-332.26 332.26a30.67 30.67 0 0 1 -43.36 0l-.44-.44a30.65 30.65 0 0 1 0-43.35z" opacity=".04"/><path d="m254.53 2514.29-.75.75a30.67 30.67 0 0 1 -43.36 0l-.44-.44a30.65 30.65 0 0 1 0-43.35l.75-.75a30.67 30.67 0 0 1 43.36 0l.44.44a30.67 30.67 0 0 1 0 43.35z" opacity=".04"/><path d="m1121.26 1560 100.53-100.53a30.67 30.67 0 0 1 43.36 0l.44.44a30.67 30.67 0 0 1 0 43.36l-100.53 100.53a30.67 30.67 0 0 1 -43.36 0l-.43-.44c-11.65-11.91-11.39-31.19-.01-43.36z" opacity=".04"/><path d="m1329.81 1351.4.75-.75a30.65 30.65 0 0 1 43.35 0l.44.44a30.67 30.67 0 0 1 0 43.36l-.75.75a30.67 30.67 0 0 1 -43.36 0l-.44-.44a30.67 30.67 0 0 1 .01-43.36z" opacity=".04"/><rect height="61.94" opacity=".04" rx="30.66" transform="matrix(.70710678 -.70710678 .70710678 .70710678 -830.78 1379.63)" width="203.5" x="1148.22" y="1661.69"/><path d="m535.91 2362.91 332.26-332.26a30.67 30.67 0 0 1 43.36 0l.44.44a30.67 30.67 0 0 1 0 43.36l-332.26 332.26a30.67 30.67 0 0 1 -43.36 0l-.44-.44c-5.03-9.18 7.65-27.27 0-43.36z" opacity=".04"/><rect height="61.94" opacity=".04" rx="30.66" transform="matrix(.70735356 -.70685991 .70685991 .70735356 -1013.38 1303.14)" width="62.38" x="1035.93" y="1844.46"/><path d="m1050 2501.6 100.53-100.53a30.67 30.67 0 0 1 43.36 0l.44.44a30.65 30.65 0 0 1 0 43.35l-100.5 100.54a30.65 30.65 0 0 1 -43.35 0l-.44-.44a30.68 30.68 0 0 1 -.04-43.36z" opacity=".04"/><path d="m1581.73 1969.9 100.53-100.53a30.67 30.67 0 0 1 43.36 0l.44.44a30.65 30.65 0 0 1 0 43.35l-100.53 100.54a30.65 30.65 0 0 1 -43.35 0l-.44-.44c-11.69-11.92-11.48-31.26-.01-43.36z" opacity=".04"/><path d="m1272.47 2279.16 332.26-332.25a30.65 30.65 0 0 1 43.35 0l.44.43a30.67 30.67 0 0 1 0 43.36l-332.25 332.3a30.65 30.65 0 0 1 -43.35 0l-.44-.43c-10.48-11.66-9.13-30.57-.01-43.41z" opacity=".04"/><path d="m750.84 2888.4-332.26 332.26a30.67 30.67 0 0 1 -43.36 0l-.44-.44a30.65 30.65 0 0 1 0-43.35l332.22-332.27a30.67 30.67 0 0 1 43.36 0l.44.44a30.67 30.67 0 0 1 .04 43.36z" opacity=".04"/><rect height="61.94" opacity=".04" rx="30.66" transform="matrix(.70747692 -.70673644 .70673644 .70747692 -2505.33 1066.55)" width="62.38" x="4.53" y="3528.74"/><path d="m960.21 2591.42.75-.75a30.67 30.67 0 0 1 43.36 0l.44.44a30.65 30.65 0 0 1 0 43.35l-.75.75a30.67 30.67 0 0 1 -43.36 0l-.44-.44a30.67 30.67 0 0 1 0-43.35z" opacity=".04"/><path d="m1001.9 2332.13 332.26-332.26a30.67 30.67 0 0 1 43.36 0l.44.44a30.67 30.67 0 0 1 0 43.36l-332.26 332.26a30.67 30.67 0 0 1 -43.36 0l-.44-.44c-8.57-11.06-4.82-29.41 0-43.36z" opacity=".04"/><path d="m789.49 2632.14-100.49 100.53a30.65 30.65 0 0 1 -43.35 0l-.44-.44a30.67 30.67 0 0 1 0-43.36l100.53-100.53a30.67 30.67 0 0 1 43.36 0l.44.44a30.65 30.65 0 0 1 0 43.35z" opacity=".04"/><path d="m440.87 2980.76-332.26 332.24a30.67 30.67 0 0 1 -43.36 0l-.44-.44a30.65 30.65 0 0 1 0-43.35l332.26-332.21a30.67 30.67 0 0 1 43.36 0l.44.44a30.67 30.67 0 0 1 0 43.32z" opacity=".04"/><path d="m580.94 2840.7-.75.75a30.68 30.68 0 0 1 -43.37 0l-.43-.44a30.65 30.65 0 0 1 0-43.35l.75-.75a30.65 30.65 0 0 1 43.35 0l.44.44a30.67 30.67 0 0 1 .01 43.35z" opacity=".04"/><path d="m1447.66 1886.36 100.54-100.53a30.67 30.67 0 0 1 43.36 0l.44.44a30.67 30.67 0 0 1 0 43.36l-100.54 100.53a30.67 30.67 0 0 1 -43.36 0l-.44-.44a30.67 30.67 0 0 1 0-43.36z" opacity=".04"/><path d="m1656.22 1677.8.75-.74a30.65 30.65 0 0 1 43.35 0l.44.43a30.67 30.67 0 0 1 0 43.36l-.75.75a30.65 30.65 0 0 1 -43.35 0l-.44-.43a30.68 30.68 0 0 1 0-43.37z" opacity=".04"/><path d="m375.19 130 .75-.75a30.65 30.65 0 0 1 43.35 0l.44.44a30.67 30.67 0 0 1 0 43.36l-.75.75a30.67 30.67 0 0 1 -43.36 0l-.44-.44a30.65 30.65 0 0 1 0-43.35z" opacity=".04"/><path d="m517 293.39-100.56 100.53a30.67 30.67 0 0 1 -43.36 0l-.44-.44a30.67 30.67 0 0 1 0-43.36l100.54-100.53a30.65 30.65 0 0 1 43.35 0l.44.44a30.67 30.67 0 0 1 .03 43.36z" opacity=".04"/><path d="m730 80.32-.75.75a30.67 30.67 0 0 1 -43.36 0l-.44-.44a30.67 30.67 0 0 1 0-43.36l.75-.75a30.67 30.67 0 0 1 43.36 0l.44.48a30.65 30.65 0 0 1 0 43.32z" opacity=".04"/><path d="m737.12 290.84-100.53 100.53a30.65 30.65 0 0 1 -43.35 0l-.44-.43a30.68 30.68 0 0 1 0-43.37l100.52-100.57a30.68 30.68 0 0 1 43.37 0l.43.44a30.65 30.65 0 0 1 0 43.35z" opacity=".04"/><rect height="61.94" opacity=".04" rx="30.66" transform="matrix(.70735356 -.70685991 .70685991 .70735356 108.63 621.3)" width="62.38" x="773.47" y="148.49"/><path d="m845.93 399.64-100.54 100.53a30.65 30.65 0 0 1 -43.35 0l-.43-.44a30.65 30.65 0 0 1 0-43.35l100.52-100.54a30.67 30.67 0 0 1 43.36 0l.44.44a30.67 30.67 0 0 1 0 43.36z" opacity=".04"/><path d="m978.9 266.67-.75.75a30.67 30.67 0 0 1 -43.36 0l-.44-.44a30.67 30.67 0 0 1 0-43.36l.75-.75a30.67 30.67 0 0 1 43.36 0l.44.44a30.67 30.67 0 0 1 0 43.36z" opacity=".04"/><path d="m2049.26 64.42-332.26 332.26a30.68 30.68 0 0 1 -43.37 0l-.43-.44a30.65 30.65 0 0 1 0-43.35l332.26-332.27a30.68 30.68 0 0 1 43.37 0l.43.44a30.65 30.65 0 0 1 0 43.35z" opacity=".04"/><rect height="61.94" opacity=".04" rx="30.66" transform="matrix(.70710678 -.70710678 .70710678 .70710678 -206.1 1127.14)" width="203.5" x="1155.78" y="781.39"/><path d="m1462.66 651-.75.75a30.67 30.67 0 0 1 -43.36 0l-.44-.44a30.67 30.67 0 0 1 0-43.36l.75-.75a30.65 30.65 0 0 1 43.35 0l.44.44a30.67 30.67 0 0 1 .01 43.36z" opacity=".04"/><rect height="61.94" opacity=".04" rx="30.66" transform="matrix(.70710678 -.70710678 .70710678 .70710678 -71.7 1056.69)" width="203.5" x="1137.94" y="583.92"/><path d="m1390 420.83 332.22-332.26a30.67 30.67 0 0 1 43.36 0l.44.44a30.67 30.67 0 0 1 0 43.36l-332.26 332.26a30.67 30.67 0 0 1 -43.36 0l-.44-.44a30.68 30.68 0 0 1 .04-43.36z" opacity=".04"/><path d="m1077.71 733.08.75-.74a30.65 30.65 0 0 1 43.35 0l.43.43a30.65 30.65 0 0 1 0 43.35l-.75.75a30.65 30.65 0 0 1 -43.35 0l-.43-.43a30.67 30.67 0 0 1 0-43.36z" opacity=".04"/><path d="m1020.52 660.27-100.52 100.53a30.67 30.67 0 0 1 -43.36 0l-.44-.44a30.67 30.67 0 0 1 0-43.36l100.52-100.53a30.67 30.67 0 0 1 43.36 0l.44.44c11.68 11.92 11.48 31.22 0 43.36z" opacity=".04"/><path d="m1195.62 397.56 332.26-332.26a30.67 30.67 0 0 1 43.36 0l.44.44a30.65 30.65 0 0 1 0 43.35l-332.26 332.27a30.67 30.67 0 0 1 -43.36 0l-.44-.44a30.64 30.64 0 0 1 -.09-43.33.09.09 0 0 1 .09-.03z" opacity=".04"/><path d="m1153.49 527.3-.75.74a30.65 30.65 0 0 1 -43.35 0l-.44-.43a30.67 30.67 0 0 1 0-43.36l.75-.75a30.65 30.65 0 0 1 43.35 0l.44.43a30.68 30.68 0 0 1 0 43.37z" opacity=".04"/><path d="m952.16 511-100.53 100.55a30.65 30.65 0 0 1 -43.35 0l-.44-.44a30.65 30.65 0 0 1 0-43.35l100.52-100.54a30.67 30.67 0 0 1 43.36 0l.44.44a30.6 30.6 0 0 1 .2 43.27.39.39 0 0 1 -.2.07z" opacity=".04"/><path d="m743.6 719.58-.75.75a30.67 30.67 0 0 1 -43.36 0l-.44-.44a30.67 30.67 0 0 1 0-43.36l.75-.75a30.65 30.65 0 0 1 43.35 0l.44.44a30.65 30.65 0 0 1 0 43.35z" opacity=".04"/><path d="m1444.23 1019.37 100.53-100.53a30.68 30.68 0 0 1 43.37 0l.43.44a30.65 30.65 0 0 1 0 43.35l-100.56 100.54a30.65 30.65 0 0 1 -43.35 0l-.44-.43a30.69 30.69 0 0 1 .02-43.37z" opacity=".04"/><path d="m1792.86 670.75 332.25-332.26a30.68 30.68 0 0 1 43.37 0l.43.44a30.65 30.65 0 0 1 0 43.35l-332.25 332.27a30.68 30.68 0 0 1 -43.37 0l-.43-.44a30.65 30.65 0 0 1 0-43.35z" opacity=".04"/><path d="m1354.41 1109.19.75-.75a30.68 30.68 0 0 1 43.37 0l.43.44a30.65 30.65 0 0 1 0 43.35l-.75.75a30.65 30.65 0 0 1 -43.35 0l-.44-.44a30.59 30.59 0 0 1 -.22-43.27.15.15 0 0 1 .21-.08z" opacity=".04"/><rect height="61.94" opacity=".04" rx="30.66" transform="matrix(.70710678 -.70710678 .70710678 .70710678 804.05 2184.26)" width="203.5" x="2936.92" y="90.58"/><rect height="61.94" opacity=".04" rx="30.66" transform="matrix(.70710678 -.70710678 .70710678 .70710678 -592.96 1605.59)" width="203.5" x="1539.89" y="1487.6"/><path d="m2667.3 536.72-332.3 332.28a30.65 30.65 0 0 1 -43.35 0l-.44-.44a30.67 30.67 0 0 1 0-43.36l332.26-332.2a30.67 30.67 0 0 1 43.36 0l.44.44a30.65 30.65 0 0 1 .03 43.28z" opacity=".04"/><path d="m1958.13 1245.9-.75.75a30.67 30.67 0 0 1 -43.36 0l-.44-.44a30.67 30.67 0 0 1 0-43.36l.75-.75a30.65 30.65 0 0 1 43.35 0l.44.44a30.67 30.67 0 0 1 .01 43.36z" opacity=".04"/><path d="m2876.68 239.74.75-.75a30.67 30.67 0 0 1 43.36 0l.44.44a30.67 30.67 0 0 1 0 43.36l-.75.75a30.65 30.65 0 0 1 -43.35 0l-.44-.44a30.65 30.65 0 0 1 0-43.35z" opacity=".04"/><path d="m1398.24 847.76 332.26-332.25a30.65 30.65 0 0 1 43.35 0l.44.43a30.68 30.68 0 0 1 0 43.37l-332.29 332.25a30.65 30.65 0 0 1 -43.35 0l-.44-.43a30.68 30.68 0 0 1 .03-43.37z" opacity=".04"/><rect height="61.94" opacity=".04" rx="30.66" transform="matrix(.70710678 -.70710678 .70710678 .70710678 521.44 1557.33)" width="203.5" x="2038.83" y="118.26"/><path d="m1978.59 267.41.75-.75a30.67 30.67 0 0 1 43.36 0l.44.44a30.65 30.65 0 0 1 0 43.35l-.75.75a30.65 30.65 0 0 1 -43.35 0l-.44-.44a30.67 30.67 0 0 1 -.01-43.35z" opacity=".04"/><path d="m2597.16 171.66-100.54 100.53a30.65 30.65 0 0 1 -43.35 0l-.44-.44a30.67 30.67 0 0 1 0-43.36l100.54-100.53a30.67 30.67 0 0 1 43.36 0l.44.44a30.67 30.67 0 0 1 -.01 43.36z" opacity=".04"/><path d="m1607.55 1161.26-100.55 100.53a30.65 30.65 0 0 1 -43.35 0l-.43-.44a30.65 30.65 0 0 1 0-43.35l100.53-100.53a30.67 30.67 0 0 1 43.36 0l.44.44a30.59 30.59 0 0 1 .22 43.27.15.15 0 0 1 -.22.08z" opacity=".04"/><path d="m2248.53 520.28-332.26 332.26a30.67 30.67 0 0 1 -43.36 0l-.44-.44a30.67 30.67 0 0 1 0-43.36l332.26-332.26a30.67 30.67 0 0 1 43.36 0l.44.44a30.67 30.67 0 0 1 0 43.36z" opacity=".04"/><path d="m1740.52 1028.29-.75.75a30.67 30.67 0 0 1 -43.36 0l-.44-.44a30.67 30.67 0 0 1 0-43.36l.75-.75a30.67 30.67 0 0 1 43.36 0l.44.44a30.67 30.67 0 0 1 0 43.36z" opacity=".04"/><path d="m2388.6 380.22-.75.75a30.67 30.67 0 0 1 -43.36 0l-.44-.44a30.67 30.67 0 0 1 0-43.36l.75-.75a30.65 30.65 0 0 1 43.35 0l.44.44a30.67 30.67 0 0 1 .01 43.36z" opacity=".04"/><path d="m2296.7 689.72-100.53 100.53a30.67 30.67 0 0 1 -43.36 0l-.44-.44a30.67 30.67 0 0 1 0-43.36l100.53-100.53a30.67 30.67 0 0 1 43.36 0l.43.44a30.65 30.65 0 0 1 0 43.35z" opacity=".04"/><path d="m1948.08 1038.34-332.26 332.26a30.67 30.67 0 0 1 -43.36 0l-.44-.44a30.67 30.67 0 0 1 0-43.36l332.26-332.26a30.67 30.67 0 0 1 43.36 0l.44.44c12.17 11.78 12.83 30.84 1 43a1 1 0 0 1 -1 .36z" opacity=".04"/><path d="m2386.52 599.9-.75.75a30.67 30.67 0 0 1 -43.36 0l-.44-.44a30.67 30.67 0 0 1 0-43.36l.75-.75a30.67 30.67 0 0 1 43.36 0l.44.44a30.65 30.65 0 0 1 0 43.35z" opacity=".04"/><path d="m2593.93 1045.31-332.26 332.26a30.67 30.67 0 0 1 -43.36 0l-.44-.44a30.67 30.67 0 0 1 0-43.36l332.26-332.26a30.65 30.65 0 0 1 43.35 0l.44.44a30.67 30.67 0 0 1 .01 43.36z" opacity=".04"/><path d="m3184.1 367.53 100.53-100.53a30.68 30.68 0 0 1 43.37 0l.43.44a30.65 30.65 0 0 1 0 43.35l-100.53 100.54a30.67 30.67 0 0 1 -43.36 0l-.44-.44a30.67 30.67 0 0 1 0-43.36z" opacity=".04"/><rect height="61.94" opacity=".04" rx="30.66" transform="matrix(.70710678 -.70710678 .70710678 .70710678 -683.11 1823.21)" width="203.5" x="1757.5" y="1705.22"/><path d="m2175.73 1463.5-.75.75a30.67 30.67 0 0 1 -43.36 0l-.43-.44a30.65 30.65 0 0 1 0-43.35l.74-.75a30.68 30.68 0 0 1 43.37 0l.43.44a30.65 30.65 0 0 1 0 43.35z" opacity=".04"/><path d="m3094.28 457.35.75-.75a30.68 30.68 0 0 1 43.37 0l.43.44a30.65 30.65 0 0 1 0 43.35l-.75.75a30.67 30.67 0 0 1 -43.36 0l-.44-.44a30.67 30.67 0 0 1 0-43.35z" opacity=".04"/><path d="m2923.56 498.07-100.56 100.53a30.67 30.67 0 0 1 -43.36 0l-.44-.44a30.67 30.67 0 0 1 0-43.36l100.53-100.53a30.68 30.68 0 0 1 43.37 0l.43.44a30.65 30.65 0 0 1 0 43.35z" opacity=".04"/><rect height="61.94" opacity=".04" rx="30.66" transform="matrix(.70710678 -.70710678 .70710678 .70710678 -526.68 1760.51)" width="203.5" x="1760.04" y="1485.05"/><path d="m2574.94 846.69-332.26 332.31a30.67 30.67 0 0 1 -43.36 0l-.44-.44a30.67 30.67 0 0 1 0-43.36l332.26-332.26a30.67 30.67 0 0 1 43.36 0l.44.44a30.68 30.68 0 0 1 0 43.31z" opacity=".04"/><rect height="61.94" opacity=".04" rx="30.66" transform="matrix(.70747692 -.70673644 .70673644 .70747692 -344.18 1835.07)" width="62.38" x="2013.49" y="1302.34"/><path d="m2715 706.63-.75.74a30.65 30.65 0 0 1 -43.35 0l-.44-.43a30.67 30.67 0 0 1 0-43.36l.75-.74a30.65 30.65 0 0 1 43.35 0l.44.43a30.68 30.68 0 0 1 0 43.36z" opacity=".04"/><rect height="61.94" opacity=".04" rx="30.66" transform="matrix(.70710678 -.70710678 .70710678 .70710678 -1192.77 2140.04)" width="203.5" x="1885.12" y="2478.84"/><path d="m1710.41 2830.07-332.26 332.26a30.65 30.65 0 0 1 -43.35 0l-.44-.44a30.67 30.67 0 0 1 0-43.36l332.26-332.25a30.65 30.65 0 0 1 43.35 0l.44.43a30.65 30.65 0 0 1 0 43.35z" opacity=".04"/><path d="m1168.6 3371.88-266.54 266.55a30.67 30.67 0 0 1 -43.36 0l-.44-.44a30.67 30.67 0 0 1 0-43.36l266.55-266.55a30.67 30.67 0 0 1 43.36 0l.43.44c10.4 11.63 8.94 30.48 0 43.36z" opacity=".04"/><path d="m609 3931.52-.75.75a30.67 30.67 0 0 1 -43.36 0l-.44-.44a30.67 30.67 0 0 1 0-43.36l.75-.75a30.67 30.67 0 0 1 43.36 0l.44.44a30.67 30.67 0 0 1 0 43.36z" opacity=".04"/><path d="m2148.85 2391.63-.75.75a30.65 30.65 0 0 1 -43.35 0l-.44-.44a30.67 30.67 0 0 1 0-43.36l.75-.75a30.68 30.68 0 0 1 43.37 0l.43.44a30.65 30.65 0 0 1 0 43.35z" opacity=".04"/><path d="m2007.07 2228.22 100.53-100.54a30.67 30.67 0 0 1 43.36 0l.44.44a30.67 30.67 0 0 1 0 43.36l-100.53 100.52a30.65 30.65 0 0 1 -43.35 0l-.44-.43c-13.26-10.52-17.35-27.45-6.83-40.72 1.45-1.85 3.12-3.51 6.82-2.63z" opacity=".04"/><path d="m468.14 3767.15 332.26-332.26a30.65 30.65 0 0 1 43.35 0l.43.44a30.65 30.65 0 0 1 0 43.35l-332.24 332.32a30.68 30.68 0 0 1 -43.37 0l-.43-.44a30.65 30.65 0 0 1 -.06-43.35z" opacity=".04"/><path d="m1053.57 3181.71 332.26-332.26a30.67 30.67 0 0 1 43.36 0l.44.44a30.67 30.67 0 0 1 0 43.36l-332.26 332.26a30.67 30.67 0 0 1 -43.36 0l-.44-.44a30.67 30.67 0 0 1 0-43.36z" opacity=".04"/><path d="m1762.75 2472.54.75-.75a30.65 30.65 0 0 1 43.35 0l.43.44a30.65 30.65 0 0 1 0 43.35l-.74.75a30.68 30.68 0 0 1 -43.37 0l-.43-.44a30.65 30.65 0 0 1 0-43.35z" opacity=".04"/><path d="m1116.75 2900.93 332.25-332.26a30.67 30.67 0 0 1 43.36 0l.44.44a30.67 30.67 0 0 1 0 43.36l-332.26 332.26a30.67 30.67 0 0 1 -43.36 0l-.44-.44a30.65 30.65 0 0 1 0-43.35z" opacity=".04"/><rect height="61.94" opacity=".04" rx="30.66" transform="matrix(.70710678 -.70710678 .70710678 .70710678 -1102.63 1922.44)" width="203.5" x="1667.52" y="2261.24"/><path d="m273.8 3743.88 332.26-332.26a30.67 30.67 0 0 1 43.36 0l.44.44a30.67 30.67 0 0 1 0 43.36l-332.26 332.26a30.67 30.67 0 0 1 -43.36 0l-.44-.44c-16.94 0-30.67-4.74-30.67-21.68s13.73-30.67 30.67-21.68z" opacity=".04"/><path d="m231.66 3873.61-.75.75a30.65 30.65 0 0 1 -43.35 0l-.44-.44a30.67 30.67 0 0 1 0-43.36l.75-.75a30.68 30.68 0 0 1 43.37 0l.43.44c16.93 0 30.65 4.75 30.65 21.68s-13.73 30.65-30.66 21.68z" opacity=".04"/><rect height="61.94" opacity=".04" rx="30.66" transform="matrix(.70735356 -.70685991 .70685991 .70735356 -1984.52 1555.86)" width="62.38" x="855.57" y="3143.67"/><path d="m1931.25 2174-.75.75a30.67 30.67 0 0 1 -43.36 0l-.44-.44a30.65 30.65 0 0 1 0-43.35l.75-.75a30.67 30.67 0 0 1 43.36 0l.44.44a30.67 30.67 0 0 1 0 43.35z" opacity=".04"/><path d="m1413.19 2474.48-100.54 100.52a30.67 30.67 0 0 1 -43.36 0l-.44-.44a30.67 30.67 0 0 1 0-43.36l100.54-100.53a30.65 30.65 0 0 1 43.35 0l.44.43a30.68 30.68 0 0 1 0 43.37z" opacity=".04"/><rect height="61.94" opacity=".04" rx="30.66" transform="matrix(.70710678 -.70710678 .70710678 .70710678 -967.74 1850.83)" width="203.5" x="1648.53" y="2062.61"/><path d="m1064.56 2823.11-332.26 332.26a30.67 30.67 0 0 1 -43.36 0l-.44-.44a30.67 30.67 0 0 1 0-43.36l332.26-332.26a30.65 30.65 0 0 1 43.35 0l.44.44c10.38 11.63 8.95 30.46.01 43.36z" opacity=".04"/><path d="m605.31 3282.36-332.31 332.26a30.67 30.67 0 0 1 -43.36 0l-.44-.44a30.67 30.67 0 0 1 0-43.36l332.3-332.26a30.67 30.67 0 0 1 43.36 0l.44.44a30.65 30.65 0 0 1 0 43.35z" opacity=".04"/><path d="m1545.14 2254.93.75-.75a30.67 30.67 0 0 1 43.36 0l.44.44a30.67 30.67 0 0 1 0 43.36l-.75.75a30.67 30.67 0 0 1 -43.36 0l-.44-.44a30.67 30.67 0 0 1 0-43.36z" opacity=".04"/><path d="m1204.63 2683-.75.75a30.67 30.67 0 0 1 -43.36 0l-.44-.44a30.67 30.67 0 0 1 0-43.36l.75-.75a30.67 30.67 0 0 1 43.36 0l.44.44a30.67 30.67 0 0 1 0 43.36z" opacity=".04"/><rect height="61.94" opacity=".04" rx="30.66" transform="matrix(.70710678 -.70710678 .70710678 .70710678 -1197.71 2265.45)" width="203.5" x="2034.04" y="2547.52"/><path d="m762.23 3908.27 332.26-332.27a30.65 30.65 0 0 1 43.35 0l.44.44a30.67 30.67 0 0 1 0 43.36l-332.28 332.26a30.65 30.65 0 0 1 -43.35 0l-.44-.43a30.65 30.65 0 0 1 0-43.35z" opacity=".04"/><path d="m1421.75 3248.75 332.25-332.26a30.65 30.65 0 0 1 43.35 0l.44.44a30.67 30.67 0 0 1 0 43.36l-332.26 332.25a30.65 30.65 0 0 1 -43.35 0l-.44-.43a30.65 30.65 0 0 1 0-43.35z" opacity=".04"/><path d="m1930.65 2739.84.75-.75a30.67 30.67 0 0 1 43.36 0l.44.44a30.67 30.67 0 0 1 0 43.36l-.75.75a30.67 30.67 0 0 1 -43.36 0l-.44-.44a30.67 30.67 0 0 1 0-43.36z" opacity=".04"/><rect height="61.94" opacity=".04" rx="30.66" transform="matrix(.70710678 -.70710678 .70710678 .70710678 -1696.94 2186.14)" width="203.5" x="1688.68" y="3110.49"/><rect height="61.94" opacity=".04" rx="30.66" transform="matrix(.70710678 -.70710678 .70710678 .70710678 -1165.25 2406.38)" width="203.5" x="2220.38" y="2578.8"/><path d="m1419.07 3556.63-332.26 332.26a30.67 30.67 0 0 1 -43.36 0l-.44-.44a30.67 30.67 0 0 1 0-43.36l332.26-332.26a30.67 30.67 0 0 1 43.36 0l.44.44a30.67 30.67 0 0 1 0 43.36z" opacity=".04"/><path d="m1628.44 3259.65.75-.75a30.68 30.68 0 0 1 43.37 0l.43.44a30.65 30.65 0 0 1 0 43.35l-.75.75a30.67 30.67 0 0 1 -43.36 0l-.43-.44a30.66 30.66 0 0 1 -.01-43.35z" opacity=".04"/><path d="m1967.11 3226.19-100.53 100.53a30.65 30.65 0 0 1 -43.35 0l-.44-.44a30.67 30.67 0 0 1 0-43.36l100.53-100.53a30.68 30.68 0 0 1 43.37 0l.43.44c10.36 11.63 8.93 30.46-.01 43.36z" opacity=".04"/><path d="m2142.22 2963.48 332.26-332.26a30.67 30.67 0 0 1 43.36 0l.44.44a30.65 30.65 0 0 1 0 43.35l-332.28 332.27a30.65 30.65 0 0 1 -43.35 0l-.44-.44a30.67 30.67 0 0 1 .01-43.36z" opacity=".04"/><rect height="61.94" opacity=".04" rx="30.66" transform="matrix(.70747692 -.70673644 .70673644 .70747692 -1563.04 2367)" width="62.38" x="2046.63" y="3040.68"/><path d="m1608.26 3585-.75.75a30.67 30.67 0 0 1 -43.36 0l-.43-.44a30.65 30.65 0 0 1 0-43.35l.74-.75a30.68 30.68 0 0 1 43.37 0l.43.44a30.65 30.65 0 0 1 0 43.35z" opacity=".04"/><path d="m1784.13 3626.78-100.53 100.53a30.65 30.65 0 0 1 -43.35 0l-.44-.44a30.67 30.67 0 0 1 0-43.36l100.52-100.51a30.68 30.68 0 0 1 43.37 0l.43.44a30.64 30.64 0 0 1 0 43.33z" opacity=".04"/><path d="m1867.33 3456 332.26-332.26a30.67 30.67 0 0 1 43.36 0l.43.44a30.65 30.65 0 0 1 0 43.35l-332.25 332.27a30.68 30.68 0 0 1 -43.37 0l-.43-.44c-10.33-11.63-8.94-30.46 0-43.36z" opacity=".04"/><rect height="61.94" opacity=".04" rx="30.66" transform="matrix(.70747692 -.70673644 .70673644 .70747692 -2241.15 2213.41)" width="62.38" x="1522.03" y="3783.05"/><path d="m2442.3 2881 100.54-100.53a30.67 30.67 0 0 1 43.36 0l.44.44a30.67 30.67 0 0 1 0 43.36l-100.54 100.53a30.67 30.67 0 0 1 -43.36 0l-.44-.44a30.67 30.67 0 0 1 0-43.36z" opacity=".04"/><rect height="61.94" opacity=".04" rx="30.66" transform="matrix(.70735356 -.70685991 .70685991 .70735356 -1121.84 2677.85)" width="62.38" x="2641.94" y="2662.81"/><path d="m2928.3 3350.72-100.53 100.53a30.67 30.67 0 0 1 -43.36 0l-.44-.44a30.67 30.67 0 0 1 0-43.36l100.53-100.53a30.68 30.68 0 0 1 43.37 0l.43.44a30.65 30.65 0 0 1 0 43.35z" opacity=".04"/><path d="m3018.12 3260.9-.75.75a30.67 30.67 0 0 1 -43.36 0l-.44-.44a30.67 30.67 0 0 1 0-43.36l.75-.75a30.67 30.67 0 0 1 43.36 0l.44.44a30.65 30.65 0 0 1 0 43.35z" opacity=".04"/><rect height="61.94" opacity=".04" rx="30.66" transform="matrix(.70710678 -.70710678 .70710678 .70710678 -1307.06 2984.98)" width="203.5" x="2847.91" y="3039.28"/><path d="m2633.17 3343 .75-.75a30.67 30.67 0 0 1 43.36 0l.44.44a30.67 30.67 0 0 1 0 43.36l-.75.75a30.67 30.67 0 0 1 -43.36 0l-.44-.44a30.65 30.65 0 0 1 0-43.35z" opacity=".04"/><path d="m1987.17 3771.35 332.26-332.26a30.67 30.67 0 0 1 43.36 0l.44.44a30.67 30.67 0 0 1 0 43.36l-332.23 332.26a30.67 30.67 0 0 1 -43.36 0l-.44-.44a30.67 30.67 0 0 1 -.03-43.36z" opacity=".04"/><rect height="61.94" opacity=".04" rx="30.66" transform="matrix(.70710678 -.70710678 .70710678 .70710678 -1463.16 2792.85)" width="203.5" x="2537.94" y="3131.64"/><rect height="61.94" opacity=".04" rx="30.66" transform="matrix(.70747692 -.70673644 .70673644 .70747692 -1323.54 2848.63)" width="62.38" x="2748.19" y="2992.18"/><path d="m2283.61 3344.91-100.53 100.53a30.67 30.67 0 0 1 -43.36 0l-.44-.44a30.65 30.65 0 0 1 0-43.35l100.53-100.53a30.65 30.65 0 0 1 43.35 0l.44.44a30.67 30.67 0 0 1 .01 43.35z" opacity=".04"/><rect height="61.94" opacity=".04" rx="30.66" transform="matrix(.70710678 -.70710678 .70710678 .70710678 -1328.28 2721.24)" width="203.5" x="2518.94" y="2933.02"/><path d="m2415.56 3125.35.75-.75a30.67 30.67 0 0 1 43.36 0l.44.44a30.65 30.65 0 0 1 0 43.35l-.75.75a30.65 30.65 0 0 1 -43.35 0l-.44-.44a30.67 30.67 0 0 1 -.01-43.35z" opacity=".04"/><path d="m2075 3553.46-.75.75a30.65 30.65 0 0 1 -43.35 0l-.44-.44a30.67 30.67 0 0 1 0-43.36l.75-.74a30.67 30.67 0 0 1 43.36 0l.44.44a30.65 30.65 0 0 1 0 43.35z" opacity=".04"/><path d="m3042.85 3586.09 100.53-100.53a30.67 30.67 0 0 1 43.36 0l.44.44a30.65 30.65 0 0 1 0 43.35l-100.53 100.53a30.65 30.65 0 0 1 -43.35 0l-.44-.43a30.68 30.68 0 0 1 -.01-43.36z" opacity=".04"/><path d="m2909.88 3719.07.75-.75a30.65 30.65 0 0 1 43.35 0l.44.44a30.67 30.67 0 0 1 0 43.36l-.75.75a30.67 30.67 0 0 1 -43.36 0l-.44-.44a30.65 30.65 0 0 1 0-43.35z" opacity=".04"/><rect height="61.94" opacity=".04" rx="30.66" transform="matrix(.70710678 -.70710678 .70710678 .70710678 -1660.98 3603.21)" width="203.5" x="3417.22" y="3775.62"/><path d="m2795 3616.3 332.3-332.3a30.67 30.67 0 0 1 43.36 0l.44.44a30.67 30.67 0 0 1 0 43.36l-332.26 332.3a30.67 30.67 0 0 1 -43.36 0l-.44-.44a30.67 30.67 0 0 1 -.04-43.36z" opacity=".04"/><path d="m2752.9 3746-.75.75a30.65 30.65 0 0 1 -43.35 0l-.43-.43a30.67 30.67 0 0 1 0-43.36l.74-.74a30.67 30.67 0 0 1 43.36 0l.43.43a30.65 30.65 0 0 1 0 43.35z" opacity=".04"/><path d="m3203.92 3642.62 100.54-100.53a30.67 30.67 0 0 1 43.36 0l.44.44a30.67 30.67 0 0 1 0 43.36l-100.54 100.53a30.67 30.67 0 0 1 -43.36 0l-.44-.44a30.67 30.67 0 0 1 0-43.36z" opacity=".04"/><rect height="61.94" opacity=".04" rx="30.66" transform="matrix(.70747692 -.70673644 .70673644 .70747692 -1437.42 3438.28)" width="62.38" x="3403.55" y="3424.57"/><path d="m3260.46 3803.7 100.54-100.53a30.65 30.65 0 0 1 43.35 0l.44.44a30.67 30.67 0 0 1 0 43.36l-100.53 100.53a30.68 30.68 0 0 1 -43.37 0l-.43-.44a30.65 30.65 0 0 1 0-43.35z" opacity=".04"/><path d="m3435.64 3628.52 100.53-100.52a30.67 30.67 0 0 1 43.36 0l.44.44a30.67 30.67 0 0 1 0 43.36l-100.54 100.53a30.67 30.67 0 0 1 -43.36 0l-.43-.44a30.65 30.65 0 0 1 0-43.35z" opacity=".04"/><path d="m3176.1 3888.06.75-.75a30.67 30.67 0 0 1 43.36 0l.44.44a30.67 30.67 0 0 1 0 43.36l-.75.75a30.67 30.67 0 0 1 -43.36 0l-.44-.44a30.65 30.65 0 0 1 0-43.35z" opacity=".04"/><path d="m3738.89 3760.47.75-.75a30.67 30.67 0 0 1 43.36 0l.44.44a30.67 30.67 0 0 1 0 43.36l-.75.75a30.65 30.65 0 0 1 -43.35 0l-.44-.44a30.67 30.67 0 0 1 -.01-43.36z" opacity=".04"/><path d="m2543.09 1997.4-100.54 100.53a30.65 30.65 0 0 1 -43.35 0l-.44-.44a30.67 30.67 0 0 1 0-43.36l100.54-100.53a30.67 30.67 0 0 1 43.36 0l.44.44a30.67 30.67 0 0 1 -.01 43.36z" opacity=".04"/><path d="m3844.48 696-332.26 332.26a30.65 30.65 0 0 1 -43.35 0l-.44-.44a30.67 30.67 0 0 1 0-43.36l332.25-332.26a30.67 30.67 0 0 1 43.36 0l.44.44a30.65 30.65 0 0 1 0 43.35z" opacity=".04"/><path d="m3302.68 1237.81-266.55 266.55a30.67 30.67 0 0 1 -43.36 0l-.44-.44a30.67 30.67 0 0 1 0-43.36l266.55-266.56a30.67 30.67 0 0 1 43.36 0l.44.44a30.6 30.6 0 0 1 .23 43.27.18.18 0 0 1 -.23.1z" opacity=".04"/><rect height="61.94" opacity=".04" rx="30.66" transform="matrix(.70747692 -.70673644 .70673644 .70747692 -526.27 2414.69)" width="62.38" x="2622.63" y="1812.11"/><path d="m3478.62 756.66 332.26-332.26a30.67 30.67 0 0 1 43.36 0l.44.44a30.67 30.67 0 0 1 0 43.36l-332.26 332.26a30.67 30.67 0 0 1 -43.36 0l-.44-.44a30.76 30.76 0 0 1 0-43.36z" opacity=".04"/><rect height="61.94" opacity=".04" rx="30.66" transform="matrix(.70710678 -.70710678 .70710678 .70710678 -573.81 2268.94)" width="203.5" x="2350.2" y="1796.16"/><path d="m2602.21 1633.07 332.26-332.25a30.65 30.65 0 0 1 43.35 0l.44.43a30.68 30.68 0 0 1 0 43.37l-332.26 332.25a30.65 30.65 0 0 1 -43.35 0l-.44-.43a30.67 30.67 0 0 1 0-43.36z" opacity=".04"/><path d="m3896.82 338.46.75-.74a30.65 30.65 0 0 1 43.35 0l.44.43a30.67 30.67 0 0 1 0 43.36l-.75.75a30.65 30.65 0 0 1 -43.35 0l-.44-.43a30.67 30.67 0 0 1 0-43.36z" opacity=".04"/><path d="m2290 1945.33.75-.75a30.67 30.67 0 0 1 43.36 0l.44.44a30.67 30.67 0 0 1 0 43.36l-.75.75a30.67 30.67 0 0 1 -43.36 0l-.44-.44a30.67 30.67 0 0 1 0-43.36z" opacity=".04"/><path d="m3912.82 192.46-100.54 100.54a30.67 30.67 0 0 1 -43.36 0l-.44-.44a30.67 30.67 0 0 1 0-43.36l100.52-100.54a30.67 30.67 0 0 1 43.36 0l.44.44a30.68 30.68 0 0 1 .02 43.36z" opacity=".04"/><rect height="61.94" opacity=".04" rx="30.66" transform="matrix(.70710678 -.70710678 .70710678 .70710678 -711.29 2084.53)" width="203.5" x="2058.85" y="1869.9"/><path d="m2407.87 1609.81 332.26-332.26a30.65 30.65 0 0 1 43.35 0l.44.44a30.67 30.67 0 0 1 0 43.36l-332.25 332.25a30.65 30.65 0 0 1 -43.35 0l-.44-.43a30.59 30.59 0 0 1 -.22-43.27.16.16 0 0 1 .21-.09z" opacity=".04"/><path d="m2959.84 1057.83 332.26-332.25a30.65 30.65 0 0 1 43.35 0l.44.44a30.67 30.67 0 0 1 0 43.36l-332.26 332.25a30.65 30.65 0 0 1 -43.35 0l-.44-.43a30.68 30.68 0 0 1 0-43.37z" opacity=".04"/><path d="m2365.73 1739.54-.75.75a30.67 30.67 0 0 1 -43.36 0l-.43-.44a30.65 30.65 0 0 1 0-43.35l.74-.75a30.68 30.68 0 0 1 43.37 0l.43.44a30.65 30.65 0 0 1 0 43.35z" opacity=".04"/><path d="m2610.17 1277.5-332.26 332.26a30.67 30.67 0 0 1 -43.36 0l-.44-.44a30.67 30.67 0 0 1 0-43.36l332.26-332.26a30.67 30.67 0 0 1 43.36 0l.44.44a30.67 30.67 0 0 1 0 43.36z" opacity=".04"/><rect height="61.94" opacity=".04" rx="30.66" transform="matrix(.70710678 -.70710678 .70710678 .70710678 757.07 2565.26)" width="203.5" x="3373.32" y="337.8"/><path d="m3198.63 689-332.26 332.25a30.65 30.65 0 0 1 -43.35 0l-.43-.43a30.67 30.67 0 0 1 0-43.36l332.24-332.26a30.67 30.67 0 0 1 43.36 0l.43.44a30.65 30.65 0 0 1 0 43.35z" opacity=".04"/><path d="m3679.21 120.86.75-.75a30.67 30.67 0 0 1 43.36 0l.44.44a30.67 30.67 0 0 1 0 43.36l-.75.75a30.67 30.67 0 0 1 -43.36 0l-.44-.44a30.67 30.67 0 0 1 0-43.36z" opacity=".04"/><path d="m3338.7 549-.75.75a30.67 30.67 0 0 1 -43.36 0l-.44-.44a30.67 30.67 0 0 1 0-43.36l.75-.75a30.67 30.67 0 0 1 43.36 0l.44.44a30.67 30.67 0 0 1 0 43.36z" opacity=".04"/><rect height="61.94" opacity=".04" rx="30.66" transform="matrix(.70710678 -.70710678 .70710678 .70710678 -625.78 1992.47)" width="203.5" x="1990.49" y="1720.65"/><path d="m1955.85 1931.82-.75.75a30.65 30.65 0 0 1 -43.35 0l-.44-.44a30.67 30.67 0 0 1 0-43.36l.75-.75a30.67 30.67 0 0 1 43.36 0l.44.44a30.68 30.68 0 0 1 -.01 43.36z" opacity=".04"/><path d="m3182.54 1575.55-100.54 100.53a30.65 30.65 0 0 1 -43.35 0l-.43-.43a30.67 30.67 0 0 1 0-43.36l100.53-100.53a30.67 30.67 0 0 1 43.36 0l.44.44a30.67 30.67 0 0 1 -.01 43.35z" opacity=".04"/><path d="m2398.31 2359.78-100.53 100.53a30.67 30.67 0 0 1 -43.36 0l-.44-.44a30.67 30.67 0 0 1 0-43.36l100.53-100.51a30.65 30.65 0 0 1 43.35 0l.44.43a30.65 30.65 0 0 1 0 43.35z" opacity=".04"/><path d="m2833.91 1924.18-332.25 332.25a30.67 30.67 0 0 1 -43.36 0l-.43-.43a30.65 30.65 0 0 1 0-43.35l332.25-332.26a30.67 30.67 0 0 1 43.36 0l.43.43a30.67 30.67 0 0 1 0 43.36z" opacity=".04"/><path d="m3555.82 1114.67 332.26-332.25a30.65 30.65 0 0 1 43.35 0l.44.43a30.68 30.68 0 0 1 0 43.37l-332.26 332.25a30.65 30.65 0 0 1 -43.35 0l-.44-.43a30.68 30.68 0 0 1 0-43.37z" opacity=".04"/><path d="m3272.35 1485.73-.75.75a30.65 30.65 0 0 1 -43.35 0l-.43-.43a30.67 30.67 0 0 1 0-43.36l.74-.74a30.67 30.67 0 0 1 43.36 0l.43.43a30.65 30.65 0 0 1 0 43.35z" opacity=".04"/><rect height="61.94" opacity=".04" rx="30.66" transform="matrix(.70710678 -.70710678 .70710678 .70710678 373.59 3043.78)" width="203.5" x="3759.21" y="1039.96"/><path d="m2599.64 2376.05-100.53 100.54a30.67 30.67 0 0 1 -43.36 0l-.44-.44a30.67 30.67 0 0 1 0-43.36l100.54-100.53a30.65 30.65 0 0 1 43.35 0l.43.43a30.62 30.62 0 0 1 .1 43.3.1.1 0 0 1 -.09.06z" opacity=".04"/><path d="m3553.14 1422.56-332.26 332.26a30.67 30.67 0 0 1 -43.36 0l-.44-.44a30.67 30.67 0 0 1 0-43.36l332.26-332.26a30.67 30.67 0 0 1 43.36 0l.44.44a30.67 30.67 0 0 1 0 43.36z" opacity=".04"/><rect height="61.94" opacity=".04" rx="30.66" transform="matrix(.70747692 -.70673644 .70673644 .70747692 -665.92 2611.46)" width="62.38" x="2790.49" y="2079.2"/><path d="m3699 1189.13.75-.75a30.65 30.65 0 0 1 43.35 0l.44.43a30.68 30.68 0 0 1 0 43.37l-.75.74a30.65 30.65 0 0 1 -43.35 0l-.44-.43a30.67 30.67 0 0 1 0-43.36z" opacity=".04"/><path d="m3490 1703.34-332.3 332.26a30.67 30.67 0 0 1 -43.36 0l-.44-.44a30.67 30.67 0 0 1 0-43.36l332.26-332.26a30.67 30.67 0 0 1 43.36 0l.44.44a30.65 30.65 0 0 1 .06 43.35z" opacity=".04"/><path d="m2819.79 2373.51-100.53 100.49a30.65 30.65 0 0 1 -43.35 0l-.44-.44a30.67 30.67 0 0 1 0-43.36l100.53-100.49a30.67 30.67 0 0 1 43.36 0l.44.44a30.65 30.65 0 0 1 0 43.35z" opacity=".04"/><path d="m2909.61 2283.69-.75.75a30.65 30.65 0 0 1 -43.35 0l-.44-.44a30.67 30.67 0 0 1 0-43.36l.75-.75a30.67 30.67 0 0 1 43.36 0l.44.44a30.67 30.67 0 0 1 -.01 43.36z" opacity=".04"/><path d="m3918.2 1492.71-100.53 100.53a30.67 30.67 0 0 1 -43.36 0l-.44-.44a30.67 30.67 0 0 1 0-43.36l100.54-100.53a30.67 30.67 0 0 1 43.36 0l.43.44a30.65 30.65 0 0 1 0 43.35z" opacity=".04"/><path d="m2928.59 2482.31-100.53 100.53a30.67 30.67 0 0 1 -43.36 0l-.44-.44a30.67 30.67 0 0 1 0-43.36l100.54-100.53a30.67 30.67 0 0 1 43.36 0l.44.44a30.67 30.67 0 0 1 0 43.36z" opacity=".04"/><path d="m3569.58 1841.33-332.26 332.26a30.67 30.67 0 0 1 -43.36 0l-.44-.44a30.67 30.67 0 0 1 0-43.36l332.26-332.26a30.67 30.67 0 0 1 43.36 0l.44.44a30.67 30.67 0 0 1 0 43.36z" opacity=".04"/><path d="m3061.57 2349.34-.75.75a30.67 30.67 0 0 1 -43.36 0l-.44-.44a30.67 30.67 0 0 1 0-43.36l.75-.75a30.65 30.65 0 0 1 43.35 0l.44.44a30.67 30.67 0 0 1 .01 43.36z" opacity=".04"/><path d="m3709.65 1701.27-.75.74a30.65 30.65 0 0 1 -43.35 0l-.44-.43a30.65 30.65 0 0 1 0-43.35l.75-.75a30.65 30.65 0 0 1 43.35 0l.44.43a30.68 30.68 0 0 1 0 43.36z" opacity=".04"/><path d="m3412.35 2866.67-100.53 100.53a30.67 30.67 0 0 1 -43.36 0l-.44-.44a30.67 30.67 0 0 1 0-43.36l100.54-100.53a30.67 30.67 0 0 1 43.36 0l.43.44a30.65 30.65 0 0 1 0 43.35z" opacity=".04"/><rect height="61.94" opacity=".04" rx="30.66" transform="matrix(.70747692 -.70673644 .70673644 .70747692 -1214.34 3147.38)" width="62.38" x="3163.68" y="3009.64"/><path d="m3633.67 2645.35-.75.75a30.67 30.67 0 0 1 -43.36 0l-.44-.44a30.67 30.67 0 0 1 0-43.36l.75-.75a30.67 30.67 0 0 1 43.36 0l.44.44a30.65 30.65 0 0 1 0 43.35z" opacity=".04"/><rect height="61.94" opacity=".04" rx="30.66" transform="matrix(.70710678 -.70710678 .70710678 .70710678 -934.36 3139.36)" width="203.5" x="3220.61" y="2666.58"/><path d="m3472.63 2503.5 332.26-332.26a30.67 30.67 0 0 1 43.36 0l.44.44a30.67 30.67 0 0 1 0 43.36l-332.26 332.26a30.67 30.67 0 0 1 -43.36 0l-.44-.44a30.59 30.59 0 0 1 -.22-43.27.14.14 0 0 1 .22-.09z" opacity=".04"/><path d="m3160.37 2815.75.75-.75a30.67 30.67 0 0 1 43.36 0l.44.44a30.65 30.65 0 0 1 0 43.35l-.75.75a30.67 30.67 0 0 1 -43.36 0l-.44-.44a30.67 30.67 0 0 1 0-43.35z" opacity=".04"/><path d="m3103.18 2742.94-100.53 100.53a30.67 30.67 0 0 1 -43.36 0l-.44-.44a30.67 30.67 0 0 1 0-43.36l100.53-100.53a30.67 30.67 0 0 1 43.36 0l.43.44a30.65 30.65 0 0 1 0 43.35z" opacity=".04"/><path d="m3278.29 2480.23 332.26-332.23a30.67 30.67 0 0 1 43.36 0l.44.44a30.65 30.65 0 0 1 0 43.35l-332.26 332.21a30.67 30.67 0 0 1 -43.36 0l-.44-.44a30.67 30.67 0 0 1 0-43.33z" opacity=".04"/><path d="m3236.16 2610-.75.75a30.65 30.65 0 0 1 -43.35 0l-.44-.44a30.65 30.65 0 0 1 0-43.35l.75-.75a30.67 30.67 0 0 1 43.36 0l.44.44a30.67 30.67 0 0 1 -.01 43.35z" opacity=".04"/><path d="m3480.59 2147.92-332.26 332.26a30.67 30.67 0 0 1 -43.36 0l-.44-.44a30.67 30.67 0 0 1 0-43.36l332.26-332.26a30.67 30.67 0 0 1 43.36 0l.44.44a30.67 30.67 0 0 1 0 43.36z" opacity=".04"/><rect height="61.94" opacity=".04" rx="30.66" transform="matrix(.70710678 -.70710678 .70710678 .70710678 -986.32 2862.89)" width="203.5" x="2860.91" y="2591.07"/><path d="m2826.27 2802.25-.75.74a30.65 30.65 0 0 1 -43.35 0l-.44-.43a30.67 30.67 0 0 1 0-43.36l.75-.75a30.65 30.65 0 0 1 43.35 0l.44.43a30.68 30.68 0 0 1 0 43.37z" opacity=".04"/><rect height="61.94" opacity=".04" rx="30.66" transform="matrix(.70710678 -.70710678 .70710678 .70710678 -1119.26 3445.18)" width="203.5" x="3497.32" y="3042.69"/><path d="m3437.08 3191.86.75-.75a30.67 30.67 0 0 1 43.36 0l.44.44a30.65 30.65 0 0 1 0 43.35l-.75.75a30.67 30.67 0 0 1 -43.36 0l-.44-.44a30.67 30.67 0 0 1 0-43.35z" opacity=".04"/><path d="m3313.79 3315.15.75-.75a30.67 30.67 0 0 1 43.36 0l.44.44a30.65 30.65 0 0 1 0 43.35l-.75.75a30.67 30.67 0 0 1 -43.36 0l-.44-.44a30.67 30.67 0 0 1 0-43.35z" opacity=".04"/><path d="m3749 2879.91.75-.75a30.67 30.67 0 0 1 43.36 0l.44.44a30.65 30.65 0 0 1 0 43.35l-.75.75a30.67 30.67 0 0 1 -43.36 0l-.44-.44a30.67 30.67 0 0 1 0-43.35z" opacity=".04"/><path d="m3796.48 3572.89-100.54 100.53a30.67 30.67 0 0 1 -43.36 0l-.44-.44a30.67 30.67 0 0 1 0-43.36l100.54-100.53a30.65 30.65 0 0 1 43.35 0l.44.43a30.69 30.69 0 0 1 .01 43.37z" opacity=".04"/><path d="m3472.61 3026.33-100.53 100.53a30.67 30.67 0 0 1 -43.36 0l-.44-.44a30.65 30.65 0 0 1 0-43.35l100.53-100.53a30.65 30.65 0 0 1 43.35 0l.44.44a30.67 30.67 0 0 1 .01 43.35z" opacity=".04"/><path d="m3694.07 2804.87-.74.74a30.68 30.68 0 0 1 -43.37 0l-.44-.44a30.65 30.65 0 0 1 0-43.35l.76-.76a30.65 30.65 0 0 1 43.35 0l.44.44a30.67 30.67 0 0 1 0 43.36z" opacity=".04"/><path d="m3562.43 2936.51-.75.75a30.67 30.67 0 0 1 -43.36 0l-.44-.44a30.65 30.65 0 0 1 0-43.35l.75-.75a30.67 30.67 0 0 1 43.36 0l.44.44a30.67 30.67 0 0 1 0 43.35z" opacity=".04"/><path d="m3690.21 3243.93-100.53 100.53a30.67 30.67 0 0 1 -43.36 0l-.44-.44a30.67 30.67 0 0 1 0-43.36l100.54-100.53a30.67 30.67 0 0 1 43.36 0l.43.44a30.65 30.65 0 0 1 0 43.35z" opacity=".04"/><path d="m3823.19 3111-.75.75a30.67 30.67 0 0 1 -43.36 0l-.44-.44a30.67 30.67 0 0 1 0-43.36l.75-.75a30.65 30.65 0 0 1 43.35 0l.44.44a30.68 30.68 0 0 1 .01 43.36z" opacity=".04"/><rect height="61.94" opacity=".04" rx="30.66" transform="matrix(.70710678 -.70710678 .70710678 .70710678 -1209.4 3662.78)" width="203.5" x="3714.92" y="3260.29"/><path d="m3654.69 3409.47.75-.75a30.65 30.65 0 0 1 43.35 0l.44.44a30.67 30.67 0 0 1 0 43.36l-.75.74a30.67 30.67 0 0 1 -43.36 0l-.44-.44a30.65 30.65 0 0 1 0-43.35z" opacity=".04"/><path d="m3804.74 0a30.65 30.65 0 0 0 7.44 31.25l.44.44a30.67 30.67 0 0 0 43.36 0l31.69-31.69z" opacity=".04"/><path d="m3551.63 0-145.09 145.09a30.67 30.67 0 0 0 0 43.36l.44.44a30.65 30.65 0 0 0 43.35 0l188.9-188.89z" opacity=".04"/><path d="m2259 0a30.54 30.54 0 0 0 9 21.43l.44.44a30.67 30.67 0 0 0 43.36 0l.75-.75a30.56 30.56 0 0 0 9-21.12z" opacity=".04"/><path d="m1158 0-47.12 47.12a30.67 30.67 0 0 0 0 43.36l.44.44a30.67 30.67 0 0 0 43.36 0l90.89-90.92z" opacity=".04"/><path d="m505.16 0-40.16 40.15a30.65 30.65 0 0 0 0 43.35l.44.44a30.67 30.67 0 0 0 43.36 0l83.96-83.94z" opacity=".04"/><path d="m307.89 0a30.51 30.51 0 0 0 8.2 14.83l.43.43a30.67 30.67 0 0 0 43.36 0l15.27-15.26z" opacity=".04"/><path d="m280.56 1356.86-.44-.43a30.65 30.65 0 0 0 -43.35 0l-236.77 236.76v87.6l280.56-280.57a30.67 30.67 0 0 0 0-43.36z" opacity=".04"/><path d="m17.42 967.19-.44-.44a30.51 30.51 0 0 0 -17-8.61v61.72a30.55 30.55 0 0 0 16.67-8.56l.75-.75a30.68 30.68 0 0 0 .02-43.36z" opacity=".04"/><path d="m125.29 424.11-.44-.44a30.67 30.67 0 0 0 -43.36 0l-81.49 81.49v71.66a30.64 30.64 0 0 0 24.76-8.82l100.53-100.53a30.67 30.67 0 0 0 0-43.36z" opacity=".04"/><path d="m68.73 45.45-.44-.45a30.65 30.65 0 0 0 -43.35 0l-24.94 25v87.6l68.73-68.78a30.68 30.68 0 0 0 0-43.37z" opacity=".04"/><path d="m242.25 2918.41-.44-.44a30.67 30.67 0 0 0 -43.36 0l-198.45 198.45v87.58l242.24-242.24a30.65 30.65 0 0 0 0-43.35z" opacity=".04"/><path d="m252.45 2690.61-.44-.44a30.67 30.67 0 0 0 -43.36 0l-208.65 208.64v87.6l252.45-252.41a30.68 30.68 0 0 0 0-43.37z" opacity=".04"/><path d="m114.46 2611-.44-.43a30.65 30.65 0 0 0 -43.35 0l-70.67 70.63v87.6l114.45-114.45a30.67 30.67 0 0 0 .01-43.35z" opacity=".04"/><path d="m34.84 2473-.44-.44a30.69 30.69 0 0 0 -34.4-6.22v84.86l34.83-34.84a30.65 30.65 0 0 0 0-43.35z" opacity=".04"/><path d="m78.67 2211.57-.44-.44a30.67 30.67 0 0 0 -43.36 0l-34.87 34.87v87.6l78.66-78.66a30.65 30.65 0 0 0 0-43.35z" opacity=".04"/><path d="m217.39 1637.64-.44-.43a30.65 30.65 0 0 0 -43.35 0l-173.6 173.57v87.6l217.39-217.38a30.67 30.67 0 0 0 0-43.36z" opacity=".04"/><path d="m30.33 3814-.43-.44a30.63 30.63 0 0 0 -29.9-7.88v82l30.32-30.32a30.65 30.65 0 0 0 0-43.35z" opacity=".04"/><path d="m2310.52 3968.5 269.16-269.16a30.67 30.67 0 0 0 0-43.36l-.44-.44a30.67 30.67 0 0 0 -43.36 0l-313 313z" opacity=".04"/><path d="m1660 3968.5 275-275a30.65 30.65 0 0 0 0-43.35l-.43-.44a30.67 30.67 0 0 0 -43.36 0l-318.8 318.8z" opacity=".04"/><path d="m1440.69 3968.5a30.68 30.68 0 0 0 -5.18-36.46l-.44-.44a30.67 30.67 0 0 0 -43.36 0l-36.9 36.9z" opacity=".04"/><path d="m136.78 3968.5 7.61-7.62a30.65 30.65 0 0 0 0-43.35l-.44-.44a30.67 30.67 0 0 0 -43.36 0l-51.41 51.41z" opacity=".04"/><path d="m354.38 3968.5 35.62-35.65a30.67 30.67 0 0 0 0-43.36l-.44-.44a30.67 30.67 0 0 0 -43.36 0l-79.45 79.45z" opacity=".04"/><path d="m3618.46 3968.5 56.2-56.2a30.65 30.65 0 0 0 0-43.35l-.43-.44a30.67 30.67 0 0 0 -43.36 0l-100 100z" opacity=".04"/><path d="m2530.44 3968.5 89.49-89.49a30.67 30.67 0 0 0 0-43.36l-.44-.44a30.65 30.65 0 0 0 -43.35 0l-100.54 100.53a30.66 30.66 0 0 0 -6.91 32.76z" opacity=".04"/><path d="m3817.18 3968.5a30.44 30.44 0 0 0 -8.45-16l-.44-.44a30.67 30.67 0 0 0 -43.36 0l-16.46 16.46z" opacity=".04"/><path d="m3968.51 2442.83-201.79 201.79a30.67 30.67 0 0 0 0 43.36l.44.44a30.67 30.67 0 0 0 43.36 0l158-158z" opacity=".04"/><path d="m3968.51 2222.91-276.86 276.86a30.67 30.67 0 0 0 0 43.36l.44.43a30.65 30.65 0 0 0 43.35 0l233.06-233.06z" opacity=".04"/><path d="m3968.51 2007.62-34.83 34.82a30.67 30.67 0 0 0 0 43.36l.44.44a30.65 30.65 0 0 0 34.39 6.23z" opacity=".04"/><path d="m3968.51 1572.41-275.51 275.51a30.65 30.65 0 0 0 0 43.35l.44.44a30.67 30.67 0 0 0 43.36 0l231.71-231.71z" opacity=".04"/><path d="m3968.51 1137.19-85.7 85.7a30.67 30.67 0 0 0 0 43.36l.44.44a30.67 30.67 0 0 0 43.36 0l41.9-41.9z" opacity=".04"/><path d="m3968.47 2660.47-92.95 93a30.67 30.67 0 0 0 0 43.36l.44.44a30.67 30.67 0 0 0 43.36 0l49.15-49.15z" opacity=".04"/><path d="m3968.47 2878.08-13.33 13.33a30.67 30.67 0 0 0 0 43.36l.44.44a30.5 30.5 0 0 0 12.89 7.7z" opacity=".04"/><path d="m3968.47 3748.5-98.72 98.72a30.67 30.67 0 0 0 0 43.36l.44.44a30.65 30.65 0 0 0 43.35 0l54.92-54.92z" opacity=".04"/></g></svg>