<svg viewBox="0 0 50 50" xmlns="http://www.w3.org/2000/svg" xmlns:xlink="http://www.w3.org/1999/xlink"><linearGradient id="a" gradientUnits="userSpaceOnUse" x1="8.03" x2="41.97" y1="41.97" y2="8.03"><stop offset="0" stop-color="#cc0625"/><stop offset="1" stop-color="#fac319"/></linearGradient><path d="m25 1a24 24 0 1 0 24 24 24 24 0 0 0 -24-24zm0 1.12a22.88 22.88 0 1 1 -22.88 22.88 22.88 22.88 0 0 1 22.88-22.88zm-.56 8.93a2.23 2.23 0 0 0 -2.23 2.21 2.23 2.23 0 1 0 4.45 0 2.21 2.21 0 0 0 -2.22-2.21zm0 1.11a1.1 1.1 0 0 1 1.12 1.1 1.14 1.14 0 0 1 -1.12 1.14 1.12 1.12 0 0 1 -1.1-1.14 1.08 1.08 0 0 1 1.1-1.1zm-3.44 6.14a.56.56 0 0 0 .1 1.12h3.35v17.86h-3.45a.56.56 0 0 0 -.51.61.57.57 0 0 0 .61.51h7.82a.56.56 0 0 0 0-1.12h-3.36v-18.42a.56.56 0 0 0 -.56-.56z" fill="url(#a)"/></svg>