<svg viewBox="0 0 50 50" xmlns="http://www.w3.org/2000/svg" xmlns:xlink="http://www.w3.org/1999/xlink"><linearGradient id="a" gradientUnits="userSpaceOnUse" x1="7.88" x2="41.65" y1="42.11" y2="8.35"><stop offset="0" stop-color="#cc0625"/><stop offset="1" stop-color="#fac319"/></linearGradient><linearGradient id="b" x1="16.46" x2="32.88" xlink:href="#a" y1="31.98" y2="15.56"/><g fill="none" stroke-miterlimit="10"><circle cx="24.77" cy="25.23" r="23.38" stroke="url(#a)"/><path d="m29.89 16.8a.89.89 0 0 0 -.22.89 2.4 2.4 0 0 0 -.38.12l-4.58 1.9h-.05l-4.55-1.62-.27-.1a.89.89 0 0 0 -.2-.95l-1.39-1.39a.93.93 0 0 0 -1.28 0l-5 5a.92.92 0 0 0 0 1.29l1.38 1.38a.93.93 0 0 0 .65.27.85.85 0 0 0 .35-.08 5.46 5.46 0 0 0 .51 2.73l.08.18a1.46 1.46 0 0 0 -.35.95 1.5 1.5 0 0 0 .41 1.07 1.53 1.53 0 0 0 1.07.45l-.2.19a1.51 1.51 0 0 0 1.44 2.53 1.51 1.51 0 0 0 1.46 1.87 1.52 1.52 0 0 0 .94-.34 1.52 1.52 0 0 0 1.51 1.52 1.38 1.38 0 0 0 .7-.19l.39.39a1.47 1.47 0 0 0 1 .44 1.47 1.47 0 0 0 1.47-1.45l.3.3a1.5 1.5 0 0 0 2 .11 1.46 1.46 0 0 0 .52-1.09l.08.08a1.49 1.49 0 0 0 2 .11 1.47 1.47 0 0 0 .51-1.11 1.5 1.5 0 0 0 1.64.06 1.45 1.45 0 0 0 .36-2.31l-.28-.29a14.32 14.32 0 0 0 2.66-3.71 5.52 5.52 0 0 0 .5-2.77.89.89 0 0 0 .5.15.9.9 0 0 0 .64-.26l1.38-1.39a.89.89 0 0 0 0-1.28l-5-5a.93.93 0 0 0 -1.28 0zm-16.25 6.2-1.39-1.39a.46.46 0 0 1 0-.65l5-5a.47.47 0 0 1 .33-.14.45.45 0 0 1 .33.14l1.38 1.38a.47.47 0 0 1 0 .66l-5 5a.48.48 0 0 1 -.65 0zm1.68 5.11a1.07 1.07 0 0 1 0-1.51l.33-.33a1.07 1.07 0 0 1 1.51 0 1.08 1.08 0 0 1 0 1.51l-.29.28s0 0 0 0h-.05a1.09 1.09 0 0 1 -1.5.07zm.87 2.77a1.05 1.05 0 0 1 0-1.51l.92-.92.05-.05a1.07 1.07 0 0 1 1.48 1.54l-1 1a1.1 1.1 0 0 1 -1.45-.04zm3.33 1.82a1.1 1.1 0 0 1 -1.51 0 1.08 1.08 0 0 1 0-1.51l.76-.76a1.07 1.07 0 0 1 1.51 1.57l-.06.06-.12.12zm.64.42a1 1 0 0 1 .25-.68l.13-.13a1.06 1.06 0 1 1 -.38.81zm11.54-1.2a1.06 1.06 0 0 1 -1.31-.18l-.52-.53-2.23-2.21a.23.23 0 0 0 -.32.32l2.24 2.23a1 1 0 0 1 -.06 1.45 1.06 1.06 0 0 1 -1.44-.1l-.82-.82h-.07v-.08l-1.54-1.53a.22.22 0 0 0 -.32 0 .23.23 0 0 0 0 .31l1.54 1.54h.07a.16.16 0 0 0 0 .07 1 1 0 0 1 .29.73 1 1 0 0 1 -.36.78 1.05 1.05 0 0 1 -1.42-.1l-1.05-1-.78-.8a.23.23 0 1 0 -.32.32l.8.79a1 1 0 0 1 .3.73 1 1 0 0 1 -.3.72 1 1 0 0 1 -1.45 0l-.34-.34a1.51 1.51 0 0 0 -1.07-2.58 2.3 2.3 0 0 0 -.26 0 1.51 1.51 0 0 0 -.36-1.52 1.53 1.53 0 0 0 -1.28-.41 1.53 1.53 0 0 0 -.32-1.6 1.5 1.5 0 0 0 -1.22-.42 1.48 1.48 0 0 0 -.31-1.69 1.52 1.52 0 0 0 -2.13 0l-.11.1a5.14 5.14 0 0 1 -.43-2.89s0 0 0 0l4.78-4.78.37.12 4.16 1.45-3 1.24-.14.08h-.05a1.51 1.51 0 0 0 -.58.57l-.69 1.19a1.51 1.51 0 0 0 -.15 1.14 1.53 1.53 0 0 0 .71.92 1.51 1.51 0 0 0 2.06-.55l.45-.78a.26.26 0 0 1 .16-.13l1.59-.68 4.3 4.2 3.11 3.11a1 1 0 0 1 -.18 1.59zm2.47-6.11a14.19 14.19 0 0 1 -2.57 3.61l-2.52-2.52-4.41-4.3a.23.23 0 0 0 -.24-.05l-1.71.7a.69.69 0 0 0 -.37.32l-.46.78a1.06 1.06 0 0 1 -1.45.39 1.08 1.08 0 0 1 -.5-.65 1 1 0 0 1 .11-.81l.68-1.19a1 1 0 0 1 .4-.39h.05l.11-.06 8.17-3.39a2.23 2.23 0 0 1 .44-.13l4.67 4.67a5.12 5.12 0 0 1 -.4 3.02zm-2.25-10.21a.46.46 0 0 1 .33.13l5 5a.47.47 0 0 1 0 .66l-1.36 1.41a.46.46 0 0 1 -.65 0l-5-5a.46.46 0 0 1 0-.65l1.38-1.39a.46.46 0 0 1 .3-.16z" stroke="url(#b)" stroke-width=".25"/></g></svg>