<svg enable-background="new 0 0 441 189" viewBox="0 0 441 189" xmlns="http://www.w3.org/2000/svg"><g fill="#fff"><path d="m406 51.1-.1-.1v-27.8c0-5.8-4.7-10.6-10.6-10.6h-94.4-40.2-12.8c-5.8 0-10.6 4.7-10.6 10.6v27.6l-.1.2c0 13.1-10.6 23.7-23.7 23.8 13.1 0 23.7 10.7 23.7 23.8l.1.3v25.2c0 5.8 4.7 10.6 10.6 10.6h9.5 34.6 103.4c5.8 0 10.6-4.7 10.6-10.6v-25.3l.1-.1c0-13.1 10.6-23.8 23.7-23.8-13.2-.1-23.8-10.7-23.8-23.8zm-130.9 57.9c0 .8-.3 1.4-1 1.9s-1.4.7-2.3.7-1.7-.2-2.4-.7c-.6-.5-1-1.1-1-1.9v-68.2c0-1.6 1.1-2.4 3.3-2.4s3.3.8 3.3 2.4v68.2zm52.8-70.4-38 74.2c-.4 1-1.2 1.5-2.5 1.5-.7 0-1.3-.3-1.8-.8s-.8-1.1-.8-1.8c0-.4.1-.8.3-1.2l38.3-74.8c.3-.8 1-1.2 2-1.2.7 0 1.3.3 2 .8.6.5 1 1.2 1 1.9-.1.6-.2 1.1-.5 1.4zm51.1 52.2c0 7.4-1.9 12.8-5.7 16.3-3.8 3.4-8.9 5.2-15.2 5.2-6.4 0-11.4-1.7-15.2-5.2-3.8-3.4-5.7-8.9-5.7-16.3v-31.1c0-7.3 1.9-12.7 5.7-16.2 3.8-3.4 8.9-5.2 15.2-5.2 6.4 0 11.4 1.7 15.2 5.2 3.8 3.4 5.7 8.8 5.7 16.2z"/><path d="m358.1 44.5c-9.5 0-14.3 5.1-14.3 15.2v31.1c0 10.2 4.8 15.3 14.3 15.3s14.3-5.1 14.3-15.3v-31.1c0-10.1-4.8-15.2-14.3-15.2z"/><path d="m26.9 164.6c.5.1 1.2.1 2.1.1 2.6 0 4.9-.9 4.9-3.7 0-2.6-2.3-3.7-5-3.7h-2zm0-9.2h2.2c2.6 0 4.2-1.4 4.2-3.2 0-2.2-1.7-3.1-4.2-3.1-1.1 0-1.8.1-2.2.2zm-2.5-7.9c1.1-.2 2.8-.4 4.5-.4 2.5 0 4.1.4 5.3 1.4 1 .7 1.6 1.9 1.6 3.4 0 1.8-1.2 3.5-3.2 4.2v.1c1.8.5 4 2 4 4.8 0 1.7-.7 2.9-1.6 3.8-1.3 1.2-3.5 1.8-6.6 1.8-1.7 0-3-.1-3.8-.2v-18.9z"/><path d="m41.4 159.6c0 3 1.7 5.3 4.2 5.3 2.4 0 4.2-2.2 4.2-5.3 0-2.3-1.2-5.3-4.1-5.3-3-.1-4.3 2.7-4.3 5.3m10.9-.2c0 5.1-3.5 7.3-6.9 7.3-3.7 0-6.6-2.7-6.6-7.1 0-4.6 3-7.3 6.8-7.3 4.1.1 6.7 2.9 6.7 7.1"/><path d="m55.5 157c0-1.6 0-3-.1-4.3h2.2l.1 2.7h.1c.6-1.8 2.1-3 3.8-3 .3 0 .5 0 .7.1v2.4c-.3-.1-.5-.1-.9-.1-1.8 0-3 1.3-3.4 3.2-.1.3-.1.7-.1 1.2v7.3h-2.5v-9.5z"/><path d="m74 158.3c0-.3 0-.7-.1-1.1-.4-1.6-1.7-2.9-3.6-2.9-2.6 0-4.1 2.3-4.1 5.3 0 2.8 1.4 5.1 4.1 5.1 1.7 0 3.2-1.1 3.7-3 .1-.3.1-.7.1-1.1v-2.3zm2.5-12v16.6c0 1.2 0 2.6.1 3.6h-2.3l-.1-2.4h-.1c-.8 1.5-2.5 2.7-4.7 2.7-3.3 0-5.9-2.8-5.9-7 0-4.6 2.8-7.4 6.2-7.4 2.1 0 3.5 1 4.2 2.1h.1v-8.2z"/><path d="m89.4 158.2c0-1.6-.7-4.1-3.5-4.1-2.5 0-3.6 2.3-3.8 4.1zm-7.4 1.8c.1 3.4 2.2 4.8 4.7 4.8 1.8 0 2.9-.3 3.8-.7l.4 1.8c-.9.4-2.4.9-4.6.9-4.2 0-6.8-2.8-6.8-6.9s2.5-7.4 6.5-7.4c4.5 0 5.7 3.9 5.7 6.5 0 .5-.1.9-.1 1.2h-9.6z"/><path d="m102.2 159.4c-2.7-.1-5.8.4-5.8 3.1 0 1.6 1.1 2.4 2.4 2.4 1.8 0 2.9-1.1 3.3-2.3.1-.3.1-.5.1-.8zm.4 7-.2-1.7h-.1c-.8 1.1-2.2 2-4.2 2-2.8 0-4.2-2-4.2-3.9 0-3.3 3-5.1 8.3-5.1v-.3c0-1.1-.3-3.2-3.1-3.2-1.3 0-2.6.4-3.6 1l-.6-1.7c1.1-.7 2.8-1.2 4.5-1.2 4.2 0 5.2 2.9 5.2 5.6v5.1c0 1.2.1 2.4.2 3.3h-2.2z"/><path d="m120.2 162.7c0 1.4 0 2.7.1 3.8h-2.2l-.1-2.2h-.1c-.7 1.1-2.1 2.6-4.6 2.6-2.2 0-4.8-1.2-4.8-6v-8h2.5v7.6c0 2.6.8 4.4 3.1 4.4 1.7 0 2.8-1.2 3.3-2.3.1-.4.2-.8.2-1.3v-8.4h2.5v9.8z"/><path d="m125.5 152.7 2 3c.5.8.9 1.5 1.4 2.2h.1c.5-.8.9-1.5 1.4-2.3l1.9-2.9h2.7l-4.7 6.6 4.8 7.1h-2.8l-2-3.1c-.5-.8-1-1.6-1.5-2.4h-.1c-.5.8-.9 1.6-1.5 2.4l-2 3.1h-2.8l4.9-7-4.7-6.7z"/><path d="m146.2 164.5c.6.1 1.5.1 2.5.1 5.3 0 8.2-3 8.2-8.1 0-4.5-2.5-7.4-7.8-7.4-1.3 0-2.2.1-2.9.3zm-2.5-17c1.5-.2 3.3-.4 5.3-.4 3.6 0 6.1.8 7.8 2.4s2.7 3.8 2.7 6.9-1 5.7-2.8 7.4c-1.8 1.8-4.8 2.8-8.5 2.8-1.8 0-3.2-.1-4.5-.2z"/><path d="m171.5 158.2c0-1.6-.7-4.1-3.5-4.1-2.5 0-3.6 2.3-3.8 4.1zm-7.4 1.8c.1 3.4 2.2 4.8 4.7 4.8 1.8 0 2.9-.3 3.8-.7l.4 1.8c-.9.4-2.4.9-4.6.9-4.2 0-6.8-2.8-6.8-6.9s2.5-7.4 6.5-7.4c4.5 0 5.7 3.9 5.7 6.5 0 .5-.1.9-.1 1.2h-9.6z"/><path d="m178 152.7 2.7 7.7c.5 1.3.8 2.4 1.1 3.5h.1c.3-1.1.7-2.3 1.2-3.5l2.7-7.7h2.6l-5.4 13.8h-2.4l-5.2-13.8z"/><path d="m199.2 158.2c0-1.6-.7-4.1-3.5-4.1-2.5 0-3.6 2.3-3.8 4.1zm-7.4 1.8c.1 3.4 2.2 4.8 4.7 4.8 1.8 0 2.9-.3 3.8-.7l.4 1.8c-.9.4-2.4.9-4.6.9-4.2 0-6.8-2.8-6.8-6.9s2.4-7.4 6.5-7.4c4.5 0 5.7 3.9 5.7 6.5 0 .5-.1.9-.1 1.2h-9.6z"/><path d="m204.7 146.3h2.5v20.2h-2.5z"/><path d="m213 159.6c0 3 1.7 5.3 4.2 5.3 2.4 0 4.2-2.2 4.2-5.3 0-2.3-1.2-5.3-4.1-5.3-3-.1-4.3 2.7-4.3 5.3m10.9-.2c0 5.1-3.5 7.3-6.9 7.3-3.7 0-6.6-2.7-6.6-7.1 0-4.6 3-7.3 6.8-7.3 4.1.1 6.7 2.9 6.7 7.1"/><path d="m229.6 160.8c0 .4.1.7.1 1 .5 1.7 2 2.9 3.8 2.9 2.6 0 4.2-2.2 4.2-5.3 0-2.8-1.5-5.1-4.1-5.1-1.7 0-3.3 1.2-3.8 3.1-.1.3-.2.7-.2 1zm-2.5-3.6c0-1.8-.1-3.2-.1-4.5h2.3l.1 2.4c1-1.7 2.7-2.7 4.9-2.7 3.3 0 5.8 2.8 5.8 7 0 4.9-3 7.4-6.3 7.4-1.8 0-3.4-.8-4.2-2.2h-.1v7.5h-2.5v-14.9z"/><path d="m252.4 158.2c0-1.6-.7-4.1-3.5-4.1-2.5 0-3.6 2.3-3.8 4.1zm-7.4 1.8c.1 3.4 2.2 4.8 4.7 4.8 1.8 0 2.9-.3 3.8-.7l.4 1.8c-.9.4-2.4.9-4.6.9-4.2 0-6.8-2.8-6.8-6.9s2.4-7.4 6.5-7.4c4.5 0 5.7 3.9 5.7 6.5 0 .5-.1.9-.1 1.2h-9.6z"/><path d="m257.9 157c0-1.6 0-3-.1-4.3h2.2l.1 2.7h.1c.6-1.8 2.1-3 3.8-3 .3 0 .5 0 .7.1v2.4c-.3-.1-.5-.1-.9-.1-1.8 0-3 1.3-3.4 3.2-.1.3-.1.7-.1 1.2v7.3h-2.5v-9.5z"/><path d="m282.9 158.2c0-1.6-.7-4.1-3.5-4.1-2.5 0-3.7 2.3-3.8 4.1zm-7.3 1.8c.1 3.4 2.2 4.8 4.7 4.8 1.8 0 2.9-.3 3.8-.7l.4 1.8c-.9.4-2.4.9-4.6.9-4.2 0-6.8-2.8-6.8-6.9s2.5-7.4 6.5-7.4c4.5 0 5.7 3.9 5.7 6.5 0 .5-.1.9-.1 1.2h-9.6z"/><path d="m299.1 166.4-2.5-4.2c-1-1.6-1.6-2.7-2.2-3.8h-.1c-.5 1.1-1.1 2.1-2.1 3.8l-2.3 4.2h-2.8l5.9-9.7-5.6-9.5h2.9l2.5 4.5c.7 1.3 1.3 2.2 1.8 3.2h.1c.5-1.1 1-2 1.7-3.2l2.6-4.5h2.9l-5.8 9.3 6 9.8h-3z"/><path d="m307.2 160.8c0 .4.1.7.1 1 .5 1.7 2 2.9 3.8 2.9 2.6 0 4.2-2.2 4.2-5.3 0-2.8-1.5-5.1-4.1-5.1-1.7 0-3.3 1.2-3.8 3.1-.1.3-.2.7-.2 1zm-2.5-3.6c0-1.8-.1-3.2-.1-4.5h2.3l.1 2.4c1-1.7 2.7-2.7 4.9-2.7 3.3 0 5.8 2.8 5.8 7 0 4.9-3 7.4-6.3 7.4-1.8 0-3.4-.8-4.2-2.2h-.1v7.5h-2.5v-14.9z"/><path d="m329.7 158.2c0-1.6-.7-4.1-3.5-4.1-2.5 0-3.6 2.3-3.8 4.1zm-7.3 1.8c.1 3.4 2.2 4.8 4.7 4.8 1.8 0 2.9-.3 3.8-.7l.4 1.8c-.9.4-2.4.9-4.6.9-4.2 0-6.8-2.8-6.8-6.9s2.5-7.4 6.5-7.4c4.5 0 5.7 3.9 5.7 6.5 0 .5-.1.9-.1 1.2h-9.6z"/><path d="m335.3 157c0-1.6 0-3-.1-4.3h2.2l.1 2.7h.1c.6-1.8 2.1-3 3.8-3 .3 0 .5 0 .7.1v2.4c-.3-.1-.5-.1-.9-.1-1.8 0-3 1.3-3.4 3.2-.1.3-.1.7-.1 1.2v7.3h-2.5v-9.5z"/><path d="m344.7 152.7h2.5v13.8h-2.5zm2.8-3.9c0 .9-.6 1.5-1.6 1.5-.9 0-1.5-.7-1.5-1.5 0-.9.7-1.6 1.6-1.6.9.1 1.5.7 1.5 1.6"/><path d="m360.1 158.2c0-1.6-.7-4.1-3.5-4.1-2.5 0-3.6 2.3-3.8 4.1zm-7.3 1.8c.1 3.4 2.2 4.8 4.7 4.8 1.8 0 2.9-.3 3.8-.7l.4 1.8c-.9.4-2.4.9-4.6.9-4.2 0-6.8-2.8-6.8-6.9s2.5-7.4 6.5-7.4c4.5 0 5.7 3.9 5.7 6.5 0 .5-.1.9-.1 1.2h-9.6z"/><path d="m365.7 156.4c0-1.4 0-2.6-.1-3.7h2.2l.1 2.3h.1c.7-1.3 2.3-2.6 4.6-2.6 1.9 0 4.9 1.1 4.9 5.9v8.2h-2.5v-7.9c0-2.2-.8-4.1-3.2-4.1-1.7 0-2.9 1.2-3.4 2.6-.1.3-.2.7-.2 1.2v8.3h-2.5z"/><path d="m391.3 165.9c-.7.3-2.1.8-4 .8-4.2 0-6.9-2.8-6.9-7s2.9-7.3 7.4-7.3c1.5 0 2.8.4 3.5.7l-.6 1.9c-.6-.3-1.5-.7-2.9-.7-3.2 0-4.9 2.3-4.9 5.2 0 3.2 2.1 5.1 4.8 5.1 1.4 0 2.4-.4 3.1-.7z"/><path d="m402.8 158.2c0-1.6-.7-4.1-3.5-4.1-2.5 0-3.7 2.3-3.8 4.1zm-7.3 1.8c.1 3.4 2.2 4.8 4.7 4.8 1.8 0 2.9-.3 3.8-.7l.4 1.8c-.9.4-2.4.9-4.6.9-4.2 0-6.8-2.8-6.8-6.9s2.5-7.4 6.5-7.4c4.5 0 5.7 3.9 5.7 6.5 0 .5-.1.9-.1 1.2h-9.6z"/><path d="m34 106.3c1.9.3 4.7.4 8.1.4 10 0 19.2-3.6 19.2-14.5 0-10.1-8.8-14.2-19.3-14.2h-8zm0-35.6h8.8c10.2 0 16.2-5.3 16.2-12.5 0-8.7-6.7-12.1-16.4-12.1-4.4 0-7 .3-8.5.7v23.9zm-9.6-30.5c4.2-.9 10.9-1.5 17.6-1.5 9.6 0 15.8 1.7 20.5 5.4 3.9 2.9 6.2 7.3 6.2 13.1 0 7.2-4.8 13.5-12.6 16.3v.2c7.1 1.8 15.4 7.6 15.4 18.7 0 6.4-2.5 11.3-6.3 14.9-5.2 4.8-13.6 7-25.8 7-6.6 0-11.7-.4-15-.9z"/><path d="m94.1 106c2.4.4 6 .6 9.7.6 20.6 0 31.8-11.5 31.8-31.6.1-17.6-9.9-28.7-30.2-28.7-5 0-8.8.4-11.3 1zm-9.7-65.8c5.9-.9 12.9-1.5 20.5-1.5 13.8 0 23.7 3.2 30.2 9.3 6.6 6.1 10.5 14.7 10.5 26.7 0 12.1-3.8 22.1-10.8 28.9-7 7-18.5 10.7-33 10.7-6.9 0-12.6-.3-17.5-.9v-73.2z"/><path d="m196.1 113.6-9.5-16.5c-3.9-6.3-6.3-10.4-8.6-14.7h-.2c-2.1 4.3-4.2 8.3-8.1 14.8l-9 16.3h-11.1l22.8-37.5-21.9-36.8h11.2l9.9 17.4c2.8 4.9 4.9 8.6 6.9 12.6h.3c2.1-4.4 4-7.8 6.8-12.6l10.2-17.4h11.1l-22.9 36.2 23.3 38.2z"/></g></svg>