<svg id="Calque_1" data-name="Calque 1" xmlns="http://www.w3.org/2000/svg" xmlns:xlink="http://www.w3.org/1999/xlink" viewBox="0 0 453.74 563.87"><defs><style>.cls-1{fill:none;}.cls-2{fill:#d42a23;}.cls-3{fill:#fac627;}.cls-4{clip-path:url(#clip-path);}.cls-5{clip-path:url(#clip-path-2);}.cls-6{clip-path:url(#clip-path-3);}.cls-7{clip-path:url(#clip-path-4);}</style><clipPath id="clip-path"><path class="cls-1" d="M390.35,211.28h0a11.61,11.61,0,0,0-.5,3.35A11.39,11.39,0,0,0,401.24,226a11.18,11.18,0,0,0,3.35-.5v19.27a6.7,6.7,0,0,1-6.69,6.69H371.09a6.7,6.7,0,0,1-6.7-6.69V218a6.7,6.7,0,0,1,6.7-6.7Z"/></clipPath><clipPath id="clip-path-2"><circle class="cls-1" cx="222.54" cy="171.64" r="10.97"/></clipPath><clipPath id="clip-path-3"><circle class="cls-1" cx="192.5" cy="171.64" r="10.97"/></clipPath><clipPath id="clip-path-4"><circle class="cls-1" cx="282.6" cy="171.64" r="10.97"/></clipPath></defs><title>Plan de travail 1 copie</title><path class="cls-2" d="M86.81,168.78l60.32,87.72-60.32-3.05V168.78m-3-9.66V256.3L153,259.8,83.81,159.12Z"/><path class="cls-2" d="M92.62,101.68C77.07,99.16,65.2,86.38,65.2,71S77.07,42.91,92.62,40.39V19.65c-27,2.71-48,24.68-48,51.39s21,48.67,48,51.38Z"/><path class="cls-2" d="M356.85,85.06a2,2,0,0,1,.93-1.72l11-7.22a1,1,0,0,1,.63-.17,2,2,0,0,1,1.37.63,2,2,0,0,1,.65,1.47,1.38,1.38,0,0,1-.63,1.22L362,85.06l8.86,5.8a1.26,1.26,0,0,1,.63,1.22,1.94,1.94,0,0,1-.65,1.45,2,2,0,0,1-1.37.61,1,1,0,0,1-.63-.17l-11-7.23A1.94,1.94,0,0,1,356.85,85.06Zm30.22,8.47a1.9,1.9,0,0,1-.65-1.45,1.33,1.33,0,0,1,.59-1.22l8.86-5.8L387,79.27a1.47,1.47,0,0,1-.59-1.22,2.2,2.2,0,0,1,2-2.1.94.94,0,0,1,.59.17l11.05,7.22a2,2,0,0,1,.92,1.72,1.88,1.88,0,0,1-.92,1.68L389,94a.94.94,0,0,1-.59.17A2,2,0,0,1,387.07,93.53Z"/><path class="cls-3" d="M373.3,97.76a1.72,1.72,0,0,1,0-.64L381,72a1.25,1.25,0,0,1,1.11-1,1.88,1.88,0,0,1,1.28.25A1.45,1.45,0,0,1,384.1,73l-7.69,25a1.39,1.39,0,0,1-1.23,1,1.63,1.63,0,0,1-1.88-1.26Z"/><path class="cls-3" d="M379.74,338.39l-4-8.5-5.49,4.22V311.69l16.89,14.52-6.62,1.2,4.07,8.68Zm-3.48-10.55,4.11,8.75,2.48-1.17-4.25-9,5.56-1-12.61-10.81v16.83Z"/><path class="cls-3" d="M284.24,49.14l-4-8.5-5.49,4.21V22.43L291.67,37l-6.62,1.21,4.07,8.68Zm-3.47-10.56,4.1,8.75,2.48-1.17-4.25-9,5.56-1-12.6-10.8V42.16Z"/><g class="cls-4"><rect class="cls-2" x="311.46" y="214.89" width="70.35" height="2.68" transform="matrix(0.26, -0.96, 0.96, 0.26, 46.57, 493.5)"/><rect class="cls-2" x="317.28" y="216.48" width="70.35" height="2.68" transform="translate(49.32 500.28) rotate(-74.69)"/><rect class="cls-2" x="323.09" y="218.08" width="70.35" height="2.68" transform="translate(52.07 507.06) rotate(-74.69)"/><rect class="cls-2" x="328.91" y="219.67" width="70.35" height="2.68" transform="translate(54.81 513.84) rotate(-74.69)"/><rect class="cls-2" x="334.73" y="221.26" width="70.35" height="2.68" transform="translate(57.56 520.62) rotate(-74.69)"/><rect class="cls-2" x="340.54" y="222.85" width="70.35" height="2.68" transform="translate(60.31 527.41) rotate(-74.69)"/><rect class="cls-2" x="346.36" y="224.44" width="70.35" height="2.68" transform="translate(63.06 534.19) rotate(-74.69)"/><rect class="cls-2" x="352.18" y="226.03" width="70.35" height="2.68" transform="translate(65.8 540.97) rotate(-74.69)"/><rect class="cls-2" x="358" y="227.59" width="70.35" height="2.68" transform="translate(68.59 547.73) rotate(-74.69)"/><rect class="cls-2" x="363.82" y="229.18" width="70.35" height="2.68" transform="translate(71.33 554.52) rotate(-74.69)"/><rect class="cls-2" x="369.64" y="230.77" width="70.35" height="2.68" transform="translate(74.08 561.3) rotate(-74.69)"/><rect class="cls-2" x="375.45" y="232.36" width="70.35" height="2.68" transform="translate(76.83 568.08) rotate(-74.69)"/><rect class="cls-2" x="381.27" y="233.95" width="70.35" height="2.68" transform="translate(79.57 574.86) rotate(-74.69)"/><rect class="cls-2" x="387.09" y="235.54" width="70.35" height="2.68" transform="translate(82.32 581.64) rotate(-74.69)"/></g><circle class="cls-3" cx="401.24" cy="213.96" r="8.71"/><path class="cls-2" d="M261.53,468.2a18.21,18.21,0,0,1-8.87,2c-8.18,0-15.11-6-15.11-15.55,0-10.27,7.13-19.14,18.2-19.14,8.67,0,14.5,6.08,14.5,14.41,0,7.47-4.18,11.86-8.87,11.86-2,0-3.84-1.35-3.69-4.39h-.2c-1.74,2.94-4,4.39-7,4.39s-5.38-2.35-5.38-6.28a11.76,11.76,0,0,1,11.81-11.81,13.14,13.14,0,0,1,5.34,1l-1.7,9c-.74,3.79-.15,5.54,1.5,5.59,2.54,0,5.38-3.34,5.38-9.13,0-7.22-4.34-12.41-12.06-12.41-8.12,0-15,6.43-15,16.55,0,8.33,5.44,13.46,12.81,13.46a15.63,15.63,0,0,0,7.53-1.74Zm-2.74-21.54a9.07,9.07,0,0,0-2.49-.34c-4.39,0-7.93,4.13-7.93,9,0,2.19,1.1,3.79,3.29,3.79,2.89,0,5.53-3.69,6.08-6.78Z"/><path class="cls-2" d="M282.76,331.32a2.28,2.28,0,0,1-1.57-.61,38.69,38.69,0,0,0-54.75,0,2.16,2.16,0,0,1-3.06-3.06,43.08,43.08,0,0,1,60.87,0,2.12,2.12,0,0,1,0,3.06A1.83,1.83,0,0,1,282.76,331.32Z"/><path class="cls-2" d="M272.36,342.77a2.24,2.24,0,0,1-1.58-.61,23.22,23.22,0,0,0-32.88,0,2.16,2.16,0,0,1-3.06-3.06,27.67,27.67,0,0,1,39,0,2.1,2.1,0,0,1,0,3.06A1.9,1.9,0,0,1,272.36,342.77Z"/><path class="cls-2" d="M290.81,318.81a2.24,2.24,0,0,1-1.58-.61,50.08,50.08,0,0,0-70.74,0,2.16,2.16,0,0,1-3.06-3.06,54.57,54.57,0,0,1,76.95,0,2.1,2.1,0,0,1,0,3.06A2.23,2.23,0,0,1,290.81,318.81Z"/><path class="cls-2" d="M254.78,361.31a7.54,7.54,0,0,1-5.16-2.1,7.28,7.28,0,0,1,0-10.23,7.45,7.45,0,0,1,10.23,0,7.28,7.28,0,0,1,0,10.23A7.18,7.18,0,0,1,254.78,361.31Zm0-10.14a2.84,2.84,0,0,0-2.1.87,2.91,2.91,0,1,0,4.11,0A2.54,2.54,0,0,0,254.78,351.17Z"/><circle class="cls-2" cx="252.57" cy="171.64" r="10.97"/><g class="cls-5"><rect class="cls-3" x="191.95" y="154.19" width="32.92" height="2.31" transform="translate(-51 171.88) rotate(-40.35)"/><rect class="cls-3" x="195.32" y="158.16" width="32.92" height="2.31" transform="translate(-52.77 175) rotate(-40.35)"/><rect class="cls-3" x="198.68" y="162.12" width="32.92" height="2.31" transform="translate(-54.53 178.12) rotate(-40.35)"/><rect class="cls-3" x="202.05" y="166.08" width="32.92" height="2.31" transform="translate(-56.29 181.24) rotate(-40.35)"/><rect class="cls-3" x="205.41" y="170.04" width="32.92" height="2.31" transform="translate(-58.06 184.36) rotate(-40.35)"/><rect class="cls-3" x="208.78" y="174" width="32.92" height="2.31" transform="translate(-59.82 187.48) rotate(-40.35)"/><rect class="cls-3" x="212.15" y="177.96" width="32.92" height="2.31" transform="translate(-61.58 190.6) rotate(-40.35)"/><rect class="cls-3" x="215.51" y="181.92" width="32.92" height="2.31" transform="translate(-63.35 193.73) rotate(-40.35)"/></g><g class="cls-6"><rect class="cls-3" x="161.92" y="154.19" width="32.92" height="2.31" transform="translate(-58.15 152.43) rotate(-40.35)"/><rect class="cls-3" x="165.28" y="158.16" width="32.92" height="2.31" transform="translate(-59.91 155.55) rotate(-40.35)"/><rect class="cls-3" x="168.65" y="162.12" width="32.92" height="2.31" transform="translate(-61.67 158.68) rotate(-40.35)"/><rect class="cls-3" x="172.02" y="166.08" width="32.92" height="2.31" transform="translate(-63.44 161.8) rotate(-40.35)"/><rect class="cls-3" x="175.38" y="170.04" width="32.92" height="2.31" transform="translate(-65.2 164.92) rotate(-40.35)"/><rect class="cls-3" x="178.75" y="174" width="32.92" height="2.31" transform="translate(-66.96 168.04) rotate(-40.35)"/><rect class="cls-3" x="182.11" y="177.96" width="32.92" height="2.31" transform="translate(-68.73 171.16) rotate(-40.35)"/><rect class="cls-3" x="185.48" y="181.92" width="32.92" height="2.31" transform="translate(-70.49 174.28) rotate(-40.35)"/></g><g class="cls-7"><rect class="cls-3" x="252.01" y="154.19" width="32.92" height="2.31" transform="translate(-36.72 210.76) rotate(-40.35)"/><rect class="cls-3" x="255.38" y="158.16" width="32.92" height="2.31" transform="translate(-38.48 213.88) rotate(-40.35)"/><rect class="cls-3" x="258.75" y="162.12" width="32.92" height="2.31" transform="translate(-40.24 217.01) rotate(-40.35)"/><rect class="cls-3" x="262.11" y="166.08" width="32.92" height="2.31" transform="translate(-42.01 220.13) rotate(-40.35)"/><rect class="cls-3" x="265.48" y="170.04" width="32.92" height="2.31" transform="translate(-43.77 223.25) rotate(-40.35)"/><rect class="cls-3" x="268.84" y="174" width="32.92" height="2.31" transform="translate(-45.53 226.37) rotate(-40.35)"/><rect class="cls-3" x="272.21" y="177.96" width="32.92" height="2.31" transform="translate(-47.3 229.49) rotate(-40.35)"/><rect class="cls-3" x="275.58" y="181.92" width="32.92" height="2.31" transform="translate(-49.06 232.61) rotate(-40.35)"/></g><path class="cls-3" d="M217.36,103a2.6,2.6,0,0,0-3.16-2.44,2.6,2.6,0,0,0,.09,5.09,2.15,2.15,0,0,1-1.65,1.31.54.54,0,0,0-.47.51V109a.52.52,0,0,0,.55.52c2.85-.26,4.56-2.58,4.63-6.31a1,1,0,0,0,0-.16s0,0,0,0,0,0,0-.07h0Z"/><path class="cls-3" d="M214.77,90.05a2.6,2.6,0,1,0,2.6,2.6A2.59,2.59,0,0,0,214.77,90.05Z"/><path class="cls-2" d="M209.05,86.15h-.78a3.91,3.91,0,0,0-3.9,3.9v6l-2.22,2.22a1.3,1.3,0,0,0,0,1.84l2.22,2.22v6a3.91,3.91,0,0,0,3.9,3.9h.78a.52.52,0,0,0,.52-.52v-1.56a.52.52,0,0,0-.52-.53h-.78a1.3,1.3,0,0,1-1.3-1.3v-6.5a1.34,1.34,0,0,0-.38-.92l-1.68-1.67,1.68-1.68a1.3,1.3,0,0,0,.38-.92v-6.5a1.3,1.3,0,0,1,1.3-1.3H209a.52.52,0,0,0,.53-.52V86.67A.52.52,0,0,0,209.05,86.15Z"/><path class="cls-2" d="M227.39,98.23,225.17,96v-6a3.91,3.91,0,0,0-3.9-3.9h-.78a.52.52,0,0,0-.52.52v1.57a.52.52,0,0,0,.52.52h.78a1.3,1.3,0,0,1,1.3,1.3v6.5a1.34,1.34,0,0,0,.38.92l1.68,1.68L223,100.83a1.29,1.29,0,0,0-.38.92v6.5a1.3,1.3,0,0,1-1.3,1.3h-.78a.52.52,0,0,0-.52.53v1.56a.52.52,0,0,0,.52.52h.78a3.91,3.91,0,0,0,3.9-3.9v-6l2.22-2.22A1.3,1.3,0,0,0,227.39,98.23Z"/><path class="cls-3" d="M79.36,435.9a36,36,0,0,0-27.07,43l1.09,4.83,35-7.95Z"/><path class="cls-3" d="M125.84,467.26l-1.1-4.83A36,36,0,0,0,84.21,434.9l9,39.76Z"/><path class="cls-2" d="M62.7,524.75a28.56,28.56,0,0,0,34.07,21.48l16.91-3.84a28.56,28.56,0,0,0,21.47-34.07l-8.22-36.23L54.48,488.53Z"/><path class="cls-2" d="M78,429.86c-.47-1.34-11.38-32.72,1.47-49.26,5.72-7.36,15.12-10.5,27.92-9.34,18.85,1.71,33.79-2.46,43.2-12.06a32.43,32.43,0,0,0,8.55-14.79l4.86.94c-.07.36-7.43,35.35-57.05,30.85-11-1-19,1.5-23.56,7.43-11.2,14.4-.2,46.62-.56,45.14Z"/><path class="cls-2" d="M377.68,462.93H351.23c-2.79,0-5,1.78-5,4.07s2.28,4.06,5,4.06h26.32c2.8,0,5-1.78,5-4.06S380.35,462.93,377.68,462.93Z"/><path class="cls-2" d="M382.63,478.44c0-2.16-2.28-4.07-4.95-4.07H351.23c-2.79,0-5,1.78-5,4.07s2.28,4.06,5,4.06h26.32C380.35,482.5,382.63,480.73,382.63,478.44Z"/><path class="cls-2" d="M355.05,486.19c-2.8,0-5,1.78-5,4.07s2.29,4.07,5,4.07H374c2.8,0,5-1.78,5-4.07s-2.29-4.07-5-4.07Z"/><path class="cls-3" d="M364.46,383.35a33.2,33.2,0,0,0-33.18,33.18c0,9.28,2.92,14.36,5.84,19.7,2.8,5,5.85,10.17,6.74,19.45a3.91,3.91,0,0,0,3.82,3.82H381a4,4,0,0,0,3.31-1.91,7.24,7.24,0,0,0,.63-2.92,1.61,1.61,0,0,1,.13-.77c1.14-8.13,3.94-13.09,6.61-17.79,3-5.34,5.85-10.43,5.85-19.71A33,33,0,0,0,364.46,383.35Z"/></svg>