<?xml version="1.0" encoding="utf-8"?>
<!-- Generator: Adobe Illustrator 22.0.1, SVG Export Plug-In . SVG Version: 6.00 Build 0)  -->
<svg version="1.1" id="Calque_1" xmlns="http://www.w3.org/2000/svg" xmlns:xlink="http://www.w3.org/1999/xlink" x="0px" y="0px"
	 viewBox="0 0 50 50" style="enable-background:new 0 0 50 50;" xml:space="preserve">
<style type="text/css">
	.st0{fill:#2B2D42;}
</style>
<title>Mesa de trabajo 1</title>
<g id="Objects">
	<path class="st0" d="M0,0v50h2.3c-0.1-2.1,0.1-4.3,0.4-6.4c0.3-0.9,0.8-1.7,1.4-2.3c1-1,2.1-2,3.3-2.8c0.7-0.3,4.3-1.7,5.1-2.1
		s2.3-0.9,2.3-0.9l0.2-0.4c0.5-0.5,1-0.9,1.6-1.3c0.6-0.4,1.3-0.7,2-0.9c0.2-0.6,0.3-1.3,0.3-2c0-0.4-0.1-0.8-0.3-1.2
		c0,0-0.4-1.5-0.5-1.9s-0.1-1-0.1-1s-0.1,0.1-0.4,0.1c-0.4,0-0.7-0.2-0.9-0.5c-0.2-0.3-0.2-0.6-0.3-0.9c0-0.4-0.1-0.8-0.3-1.2
		c-0.1-0.5-0.3-1-0.6-1.5c-0.2-0.4-0.4-0.9-0.4-1.3c0-0.3,0-0.7,0.1-1c0.1-0.3,0.3-0.5,0.5-0.6c0.2-0.1,0.4-0.1,0.7,0.2l0.6,0.7
		c-0.2-0.6-0.3-1.3-0.4-1.9c0-0.6,0.1-1.3,0.1-1.8s0.5-2.3,0.6-2.8c0.1-0.5,0.3-1,0.6-1.4c0.9-1.1,2-2,3.3-2.6
		c1.3-0.6,2.7-0.8,4.1-0.8c1.4,0.1,2.8,0.5,4.1,1.2c1,0.7,1.8,1.5,2.5,2.5c0.3,0.6,0.6,1.3,0.7,2c0.1,0.5,0.1,2.2,0.2,2.7
		c0.1,0.5,0,1-0.1,1.6c-0.1,0.4-0.3,1.1-0.3,1.1c0.3-0.2,0.6-0.4,0.9-0.6c0.3-0.1,0.5-0.1,0.7,0.1c0.3,0.2,0.4,0.5,0.5,0.8
		c0.1,0.3,0.1,0.7,0,1c-0.1,0.3-0.5,1.1-0.7,1.5s-0.4,1-0.5,1.3s0,1-0.2,1.3c-0.3,0.6-0.9,0.9-1.5,0.8c0,0-0.2,1.2-0.3,1.5
		S31,30.4,31,30.4s-0.1,1.5,0,1.8c0.1,0.9,0.2,0.5,0.6,0.9c1.1,0.8,2,1.7,2.8,2.8c0.1,0.1,0.1,0.2,0.2,0.3c0,0,3.4,1.4,4.6,1.9
		c1.4,0.6,2.7,1.2,3.9,2c0.7,0.5,1.3,1.1,1.3,1.1c0.7,0.6,1.3,1.4,1.8,2.3c0.6,2.1,1,4.3,1.1,6.5H50V0H0z"/>
</g>
</svg>
