<svg enable-background="new 0 0 50 50" viewBox="0 0 50 50" xmlns="http://www.w3.org/2000/svg"><path d="m0 0h50v50h-50z" fill="#fff"/><path d="m0 0v50h2.3c-.1-2.1.1-4.3.4-6.4.3-.9.8-1.7 1.4-2.3 1-1 2.1-2 3.3-2.8.7-.3 4.3-1.7 5.1-2.1s2.3-.9 2.3-.9l.2-.4c.5-.5 1-.9 1.6-1.3s1.3-.7 2-.9c.2-.6.3-1.3.3-2 0-.4-.1-.8-.3-1.2 0 0-.4-1.5-.5-1.9s-.1-1-.1-1-.1.1-.4.1c-.4 0-.7-.2-.9-.5s-.2-.6-.3-.9c0-.4-.1-.8-.3-1.2-.1-.5-.3-1-.6-1.5-.2-.4-.4-.9-.4-1.3 0-.3 0-.7.1-1s.3-.5.5-.6.4-.1.7.2l.6.7c-.2-.6-.3-1.3-.4-1.9 0-.6.1-1.3.1-1.8s.5-2.3.6-2.8.3-1 .6-1.4c.9-1.1 2-2 3.3-2.6s2.7-.8 4.1-.8c1.4.1 2.8.5 4.1 1.2 1 .7 1.8 1.5 2.5 2.5.3.6.6 1.3.7 2 .1.5.1 2.2.2 2.7s0 1-.1 1.6c-.1.4-.3 1.1-.3 1.1.3-.2.6-.4.9-.6.3-.1.5-.1.7.1.3.2.4.5.5.8s.1.7 0 1-.5 1.1-.7 1.5-.4 1-.5 1.3 0 1-.2 1.3c-.3.6-.9.9-1.5.8 0 0-.2 1.2-.3 1.5s-.3 2.1-.3 2.1-.1 1.5 0 1.8c.1.9.2.5.6.9 1.1.8 2 1.7 2.8 2.8.1.1.1.2.2.3 0 0 3.4 1.4 4.6 1.9 1.4.6 2.7 1.2 3.9 2 .7.5 1.3 1.1 1.3 1.1.7.6 1.3 1.4 1.8 2.3.6 2.1 1 4.3 1.1 6.5h2.7v-50z" fill="#2b2d42"/></svg>