<svg enable-background="new 0 0 50 50" viewBox="0 0 50 50" xmlns="http://www.w3.org/2000/svg"><path d="m53.2 0h50v50h-50z" fill="#fff"/><path d="m0 0h50v50h-50z" fill="#fff"/><g fill="#2b2d42"><path d="m0 0v50h2.3c-.1-2.1.1-4.3.4-6.4.3-.9.8-1.7 1.4-2.3 1-1 2.1-2 3.3-2.8.7-.3 4.3-1.7 5.1-2.1s2.3-.9 2.3-.9l.2-.4c.5-.5 1-.9 1.6-1.3s1.3-.7 2-.9c.2-.6.3-1.3.3-2 0-.4-.1-.8-.3-1.2 0 0-.4-1.5-.5-1.9s-.1-1-.1-1-.1.1-.4.1c-.4 0-.7-.2-.9-.5s-.2-.6-.3-.9c0-.4-.1-.8-.3-1.2-.1-.5-.3-1-.6-1.5-.2-.4-.4-.9-.4-1.3 0-.3 0-.7.1-1s.3-.5.5-.6.4-.1.7.2l.6.7c-.2-.6-.3-1.3-.4-1.9 0-.6.1-1.3.1-1.8s.5-2.3.6-2.8.3-1 .6-1.4c.9-1.1 2-2 3.3-2.6s2.7-.8 4.1-.8c1.4.1 2.8.5 4.1 1.2 1 .7 1.8 1.5 2.5 2.5.3.6.6 1.3.7 2 .1.5.1 2.2.2 2.7s0 1-.1 1.6c-.1.4-.3 1.1-.3 1.1.3-.2.6-.4.9-.6.3-.1.5-.1.7.1.3.2.4.5.5.8s.1.7 0 1-.5 1.1-.7 1.5-.4 1-.5 1.3 0 1-.2 1.3c-.3.6-.9.9-1.5.8 0 0-.2 1.2-.3 1.5s-.3 2.1-.3 2.1-.1 1.5 0 1.8c.1.9.2.5.6.9 1.1.8 2 1.7 2.8 2.8.1.1.1.2.2.3 0 0 3.4 1.4 4.6 1.9 1.4.6 2.7 1.2 3.9 2 .7.5 1.3 1.1 1.3 1.1.7.6 1.3 1.4 1.8 2.3.6 2.1 1 4.3 1.1 6.5h2.7v-50z"/><path d="m53.2 0v50h5.4v-1l-.6-.1s0-.2 0-.7-.1-1.1 0-1.6c.1-.4.3-.7.3-.7l.5-.2s.7-2.7 1.2-3.8.5-1.6 1.4-2 2.5-1 3.3-1.3 2.5-.5 3.1-.8c.6-.2 3.7-1.3 4.4-2s1.5-1.8 1.6-2.5 0-4.3 0-4.3l-.5-1h-.3l-.2.6s-.3 0-.1.5.7 1.2.7 2.2c0 1.1-.1 1.4-.5 2s-1 1.3-1 1.3.7-1.3.9-2 .2-1.6 0-2.3c-.2-.6-.8-1.6-.8-1.6s.4.8.5 1.2c.2.4.3 1.1.3 1.4s-.2.7-.2.8c0-.2.1-1.1 0-1.4-.1-.4-.6-1.3-.6-1.3s.2.9.3 1.4c0 .5-.3 1.6-.3 1.6s.1-1.7 0-2.2-.4-1.3-.6-1.7-.4-2.3-.4-2.3-.1 1.1-.1 1.4.1.7.3 1.1.4.6.4 1.2-.2 1.2-.2 1.2.1-.9 0-1.3c-.1-.3-.3-.8-.4-.9s-.4-1.1-.4-1.1-.2.2-.2.6.1 1.1.1 1.1-.4-1.1-.4-1.8c-.1-.7.4-1.7.5-2.2s.1-1.1.1-1.1-.1.9-.3 1.4-.4.7-.4 1.2v1s-.2-1-.1-1.5.3-1.1.3-1.5-.1-.5.2-1.2.4-1.9.4-1.9 0-1.9.3-3.1 1-2.3 1.4-2.7 1-1.7 1-1.7-.4.1-.8.7c-.3.6-.5 1.2-.5 1.2s.2-.9.3-1.2.5-1.2 1-1.7 1-.9 1-.9.1-.5-.2-.7-.5 0-.5-.3.1-.5.4-.7.8-.3 1.2-.3h1s.4-.6.9-1c0-.5.7-.9 1.4-.9s1.8.1 2 .1c.3.1.3.3.3.3s.5-.1 1.1.3 1 .7 1.3 1c.2.3 1.5 1.5 2.1 2.6s.8 2.1.8 2.1l-.1.2s.2.5.3.9 0 .9 0 .9.2.2.3.7.2 1.3.2 1.6v1.1s.5 1.2.8 1.8c.3.7.5.8.5 1.6s0 1.4-.1 2c-.2.6-.4 1.2-.4 1.1s.2-.6.2-1.2.1-1.5-.1-2-.4-.6-.4-.6-.1.9-.1 1.5.1 1.4.2 1.8.2.9.5 1.3.7 1.1.9 1.5.3 1.5.3 1.5-.2-1.2-.6-1.8-.8-1.2-1-1.5-.5-1.8-.5-1.8.1 2.3-.2 3.2-.9 1.8-1.3 2.4c-.3.5-1.3 2.3-1.6 2.9.1-.4.4-1.3.7-2.1.5-1.2.9-1.9 1.1-2.5.3-.6.6-1.5.6-2.1s-.1-1.9-.1-1.9l-.1 1.3s0 .8-.2 1.1c-.2.2-.3.3-.4.3s-.1 0-.1 0l-.2-.1s-.1.6-.3 1-.3.7-.6 1c-.2.2-.6.6-.6.6s-.2 1.2-.3 1.6c0 .4-.2 1.2.1 2 .4.8 1 1.2 1.7 1.5.8.3 2 1 2.9 1.2s.7.3 1.2.3 1-.1 1.8.2c.7.3 1.3.8 2.1 1.1s1.6.6 2.2 1.4c.6.7.8 1.4.9 2.5s.3 4.6.3 4.6l.3.1s.1.2.1.6v1.6.3h6.1v-49.7z"/></g></svg>