<?xml version="1.0" encoding="utf-8"?>
<!-- Generator: Adobe Illustrator 22.1.0, SVG Export Plug-In . SVG Version: 6.00 Build 0)  -->
<svg version="1.1" id="Calque_1" xmlns="http://www.w3.org/2000/svg" xmlns:xlink="http://www.w3.org/1999/xlink" x="0px" y="0px"
	 viewBox="0 0 50 50" style="enable-background:new 0 0 50 50;" xml:space="preserve">
<style type="text/css">
	.st0{fill:#FFFFFF;}
	.st1{fill:#2B2D42;}
</style>
<rect x="53.2" class="st0" width="50" height="50"/>
<title>Mesa de trabajo 1</title>
<rect x="0" class="st0" width="50" height="50"/>
<g id="Objects_1_">
	<path class="st1" d="M0,0v50h2.3c-0.1-2.1,0.1-4.3,0.4-6.4c0.3-0.9,0.8-1.7,1.4-2.3c1-1,2.1-2,3.3-2.8c0.7-0.3,4.3-1.7,5.1-2.1
		s2.3-0.9,2.3-0.9l0.2-0.4c0.5-0.5,1-0.9,1.6-1.3c0.6-0.4,1.3-0.7,2-0.9c0.2-0.6,0.3-1.3,0.3-2c0-0.4-0.1-0.8-0.3-1.2
		c0,0-0.4-1.5-0.5-1.9s-0.1-1-0.1-1s-0.1,0.1-0.4,0.1c-0.4,0-0.7-0.2-0.9-0.5c-0.2-0.3-0.2-0.6-0.3-0.9c0-0.4-0.1-0.8-0.3-1.2
		c-0.1-0.5-0.3-1-0.6-1.5c-0.2-0.4-0.4-0.9-0.4-1.3c0-0.3,0-0.7,0.1-1s0.3-0.5,0.5-0.6s0.4-0.1,0.7,0.2l0.6,0.7
		c-0.2-0.6-0.3-1.3-0.4-1.9c0-0.6,0.1-1.3,0.1-1.8s0.5-2.3,0.6-2.8s0.3-1,0.6-1.4c0.9-1.1,2-2,3.3-2.6c1.3-0.6,2.7-0.8,4.1-0.8
		c1.4,0.1,2.8,0.5,4.1,1.2c1,0.7,1.8,1.5,2.5,2.5c0.3,0.6,0.6,1.3,0.7,2c0.1,0.5,0.1,2.2,0.2,2.7c0.1,0.5,0,1-0.1,1.6
		c-0.1,0.4-0.3,1.1-0.3,1.1c0.3-0.2,0.6-0.4,0.9-0.6c0.3-0.1,0.5-0.1,0.7,0.1c0.3,0.2,0.4,0.5,0.5,0.8s0.1,0.7,0,1S34,23,33.8,23.4
		s-0.4,1-0.5,1.3s0,1-0.2,1.3c-0.3,0.6-0.9,0.9-1.5,0.8c0,0-0.2,1.2-0.3,1.5S31,30.4,31,30.4s-0.1,1.5,0,1.8
		c0.1,0.9,0.2,0.5,0.6,0.9c1.1,0.8,2,1.7,2.8,2.8c0.1,0.1,0.1,0.2,0.2,0.3c0,0,3.4,1.4,4.6,1.9c1.4,0.6,2.7,1.2,3.9,2
		c0.7,0.5,1.3,1.1,1.3,1.1c0.7,0.6,1.3,1.4,1.8,2.3c0.6,2.1,1,4.3,1.1,6.5H50V0H0z"/>
</g>
<path class="st1" d="M53.2,0v50h5.4l0-1L58,48.9c0,0,0-0.2,0-0.7c0-0.5-0.1-1.1,0-1.6c0.1-0.4,0.3-0.7,0.3-0.7l0.5-0.2
	c0,0,0.7-2.7,1.2-3.8c0.5-1.1,0.5-1.6,1.4-2s2.5-1,3.3-1.3c0.8-0.3,2.5-0.5,3.1-0.8c0.6-0.2,3.7-1.3,4.4-2c0.7-0.7,1.5-1.8,1.6-2.5
	c0.1-0.7,0-4.3,0-4.3L73.3,28H73l-0.2,0.6c0,0-0.3,0-0.1,0.5c0.2,0.5,0.7,1.2,0.7,2.2c0,1.1-0.1,1.4-0.5,2c-0.4,0.6-1,1.3-1,1.3
	s0.7-1.3,0.9-2c0.2-0.7,0.2-1.6,0-2.3c-0.2-0.6-0.8-1.6-0.8-1.6s0.4,0.8,0.5,1.2c0.2,0.4,0.3,1.1,0.3,1.4c0,0.3-0.2,0.7-0.2,0.8
	c0-0.2,0.1-1.1,0-1.4c-0.1-0.4-0.6-1.3-0.6-1.3s0.2,0.9,0.3,1.4c0,0.5-0.3,1.6-0.3,1.6s0.1-1.7,0-2.2c-0.1-0.5-0.4-1.3-0.6-1.7
	c-0.2-0.4-0.4-2.3-0.4-2.3s-0.1,1.1-0.1,1.4c0,0.3,0.1,0.7,0.3,1.1c0.2,0.4,0.4,0.6,0.4,1.2c0,0.6-0.2,1.2-0.2,1.2s0.1-0.9,0-1.3
	c-0.1-0.3-0.3-0.8-0.4-0.9c-0.1-0.1-0.4-1.1-0.4-1.1s-0.2,0.2-0.2,0.6c0,0.4,0.1,1.1,0.1,1.1s-0.4-1.1-0.4-1.8
	c-0.1-0.7,0.4-1.7,0.5-2.2s0.1-1.1,0.1-1.1s-0.1,0.9-0.3,1.4s-0.4,0.7-0.4,1.2c0,0.5,0,1,0,1s-0.2-1-0.1-1.5
	c0.1-0.5,0.3-1.1,0.3-1.5c0-0.4-0.1-0.5,0.2-1.2c0.3-0.7,0.4-1.9,0.4-1.9s0-1.9,0.3-3.1s1-2.3,1.4-2.7c0.4-0.4,1-1.7,1-1.7
	s-0.4,0.1-0.8,0.7c-0.3,0.6-0.5,1.2-0.5,1.2s0.2-0.9,0.3-1.2c0.1-0.3,0.5-1.2,1-1.7c0.5-0.5,1-0.9,1-0.9s0.1-0.5-0.2-0.7
	s-0.5,0-0.5-0.3c0-0.3,0.1-0.5,0.4-0.7c0.3-0.2,0.8-0.3,1.2-0.3c0.4,0,1,0,1,0s0.4-0.6,0.9-1C77.3,9,78,8.6,78.7,8.6
	c0.7,0,1.8,0.1,2,0.1C81,8.8,81,9,81,9s0.5-0.1,1.1,0.3s1,0.7,1.3,1c0.2,0.3,1.5,1.5,2.1,2.6c0.6,1.1,0.8,2.1,0.8,2.1l-0.1,0.2
	c0,0,0.2,0.5,0.3,0.9c0.1,0.4,0,0.9,0,0.9s0.2,0.2,0.3,0.7c0.1,0.5,0.2,1.3,0.2,1.6c0,0.3,0,1.1,0,1.1s0.5,1.2,0.8,1.8
	c0.3,0.7,0.5,0.8,0.5,1.6c0,0.8,0,1.4-0.1,2c-0.2,0.6-0.4,1.2-0.4,1.1s0.2-0.6,0.2-1.2s0.1-1.5-0.1-2c-0.2-0.5-0.4-0.6-0.4-0.6
	s-0.1,0.9-0.1,1.5c0,0.6,0.1,1.4,0.2,1.8c0.1,0.4,0.2,0.9,0.5,1.3c0.3,0.4,0.7,1.1,0.9,1.5c0.2,0.4,0.3,1.5,0.3,1.5
	s-0.2-1.2-0.6-1.8c-0.4-0.6-0.8-1.2-1-1.5c-0.2-0.3-0.5-1.8-0.5-1.8s0.1,2.3-0.2,3.2c-0.3,0.9-0.9,1.8-1.3,2.4
	c-0.3,0.5-1.3,2.3-1.6,2.9c0.1-0.4,0.4-1.3,0.7-2.1c0.5-1.2,0.9-1.9,1.1-2.5c0.3-0.6,0.6-1.5,0.6-2.1c0-0.6-0.1-1.9-0.1-1.9
	l-0.1,1.3c0,0,0,0.8-0.2,1.1c-0.2,0.2-0.3,0.3-0.4,0.3c-0.1,0-0.1,0-0.1,0l-0.2-0.1c0,0-0.1,0.6-0.3,1s-0.3,0.7-0.6,1
	c-0.2,0.2-0.6,0.6-0.6,0.6s-0.2,1.2-0.3,1.6c0,0.4-0.2,1.2,0.1,2c0.4,0.8,1,1.2,1.7,1.5c0.8,0.3,2,1,2.9,1.2
	c0.9,0.2,0.7,0.3,1.2,0.3s1-0.1,1.8,0.2c0.7,0.3,1.3,0.8,2.1,1.1c0.8,0.3,1.6,0.6,2.2,1.4c0.6,0.7,0.8,1.4,0.9,2.5
	c0.1,1.1,0.3,4.6,0.3,4.6l0.3,0.1c0,0,0.1,0.2,0.1,0.6c0,0.4,0,1.3,0,1.6c0,0,0,0.2,0,0.3h6.1V0H53.2z"/>
</svg>
