<svg viewBox="0 0 50 50" xmlns="http://www.w3.org/2000/svg"><path d="m0 0h50v50h-50z" fill="#fff"/><path d="m0 0v50h5.43v-1l-.6-.1s0-.2 0-.7-.15-1.14 0-1.59a2.43 2.43 0 0 1 .3-.75l.5-.2a27.84 27.84 0 0 1 1.24-3.79c.55-1.1.55-1.64 1.4-2s2.54-1.05 3.34-1.35 2.49-.55 3.14-.8 3.69-1.3 4.39-2a6.36 6.36 0 0 0 1.65-2.5c.1-.69 0-4.34 0-4.34l-.6-.79h-.35l-.25.59s-.35.05-.1.55a4.6 4.6 0 0 1 .75 2.18 3 3 0 0 1 -.53 2 7.86 7.86 0 0 1 -1 1.26 12.87 12.87 0 0 0 .95-2 4.09 4.09 0 0 0 0-2.3 9.62 9.62 0 0 0 -.85-1.59s.37.78.53 1.22a3.68 3.68 0 0 1 .29 1.42 4.08 4.08 0 0 1 -.23.77 4.31 4.31 0 0 0 0-1.41 10.38 10.38 0 0 0 -.63-1.29 10.36 10.36 0 0 1 .23 1.31 6.2 6.2 0 0 1 -.32 1.57 13.12 13.12 0 0 0 0-2.19 8.31 8.31 0 0 0 -.68-1.66 10.72 10.72 0 0 1 -.36-2.32s-.12 1.11-.11 1.41a2.71 2.71 0 0 0 .26 1.06 2.54 2.54 0 0 1 .39 1.21 3.94 3.94 0 0 1 -.18 1.22 4.67 4.67 0 0 0 0-1.26c-.12-.32-.32-.78-.39-.93s-.38-1.1-.38-1.1a1.11 1.11 0 0 0 -.24.62 5.1 5.1 0 0 0 .12 1.07 11.24 11.24 0 0 1 -.45-1.79 10.22 10.22 0 0 1 .5-2.25 8.85 8.85 0 0 0 .08-1.14 5.85 5.85 0 0 1 -.35 1.42 3.2 3.2 0 0 0 -.45 1.26 5.27 5.27 0 0 0 0 1 5.5 5.5 0 0 1 -.15-1.49c.07-.5.32-1.15.35-1.55a2.22 2.22 0 0 1 .17-1.17 9.89 9.89 0 0 0 .43-1.92 15.34 15.34 0 0 1 .32-3.12 8 8 0 0 1 1.44-2.81 12.43 12.43 0 0 0 1-1.7 1.4 1.4 0 0 0 -.8.7 5.85 5.85 0 0 0 -.52 1.2 9.2 9.2 0 0 1 .3-1.2 5.39 5.39 0 0 1 1-1.67c.5-.5 1-.9 1-.9s.13-.52-.2-.7-.55 0-.52-.27a.88.88 0 0 1 .42-.72 2.67 2.67 0 0 1 1.2-.35h1.05a4.23 4.23 0 0 1 .87-1 3.23 3.23 0 0 1 1.87-.67c.7 0 1.82.1 2 .15a.27.27 0 0 1 .22.2 1.84 1.84 0 0 1 1.1.27 5.78 5.78 0 0 1 1.27 1 13.7 13.7 0 0 1 2.07 2.57 8.58 8.58 0 0 1 .78 2.06l-.1.23a5.25 5.25 0 0 1 .32.92 2.25 2.25 0 0 1 -.05.87 2 2 0 0 1 .3.7 9.1 9.1 0 0 1 .2 1.62v1.08s.53 1.17.85 1.84a3.05 3.05 0 0 1 .53 1.6 6 6 0 0 1 -.15 2 4 4 0 0 1 -.45 1.12 4.37 4.37 0 0 0 .25-1.17 6.4 6.4 0 0 0 -.13-2 1.6 1.6 0 0 0 -.45-.65s-.07.95-.12 1.53a6.44 6.44 0 0 0 .2 1.79 3.88 3.88 0 0 0 .47 1.32 9.55 9.55 0 0 1 .87 1.5 7.31 7.31 0 0 1 .28 1.52 6.29 6.29 0 0 0 -.6-1.85c-.4-.62-.82-1.19-1-1.49a9 9 0 0 1 -.5-1.85 11.52 11.52 0 0 1 -.22 3.22 21.7 21.7 0 0 1 -1.27 2.37c-.29.51-1.32 2.26-1.6 2.93.13-.43.4-1.31.7-2.11a23.43 23.43 0 0 1 1.06-2.45 7.37 7.37 0 0 0 .65-2.12c0-.57-.08-1.94-.08-1.94l-.15 1.32a2.78 2.78 0 0 1 -.22 1.1.84.84 0 0 1 -.45.35h-.13l-.12-.05a3.67 3.67 0 0 1 -.33 1 4.53 4.53 0 0 1 -.57 1l-.6.62s-.25 1.2-.3 1.64a3.25 3.25 0 0 0 .15 2 3 3 0 0 0 1.7 1.58 29.51 29.51 0 0 0 2.95 1.21c.9.2.72.27 1.2.3a3.78 3.78 0 0 1 1.77.2c.72.32 1.32.84 2.14 1.14a4.71 4.71 0 0 1 2.2 1.38 3.94 3.94 0 0 1 .87 2.49c.1 1.12.27 4.56.27 4.56l.28.15a2 2 0 0 1 .12.65v1.62.3h6.15v-50z" fill="#2b2d42"/></svg>