<?xml version="1.0" encoding="utf-8"?>
<!-- Generator: Adobe Illustrator 22.1.0, SVG Export Plug-In . SVG Version: 6.00 Build 0)  -->
<svg version="1.1" id="Capa_1" xmlns="http://www.w3.org/2000/svg" xmlns:xlink="http://www.w3.org/1999/xlink" x="0px" y="0px"
	 viewBox="0 0 3968.5 3968.5" style="enable-background:new 0 0 3968.5 3968.5;" xml:space="preserve">
<style type="text/css">
	.st0{opacity:0.1;fill:#FFFFFF;enable-background:new    ;}
</style>
<title>Plan de travail 1</title>
<path class="st0" d="M3968.5,1790l-138.2,138.2c-12,12-12,31.4,0,43.4l0.4,0.4c12,12,31.4,12,43.4,0l94.4-94.4V1790z"/>
<path class="st0" d="M2965.6,3968.5l168.6-168.6c12-12,12-31.4,0-43.4l-0.4-0.4c-12-12-31.4-12-43.3,0c0,0,0,0,0,0l0,0L2878,3968.5
	H2965.6z"/>
<path class="st0" d="M2215,3761.1l332.3-332.2c12-12,31.4-12,43.3,0c0,0,0,0,0,0l0,0l0.4,0.4c12,12,12,31.4,0,43.3c0,0,0,0,0,0l0,0
	L2258.8,3805c-12,12-31.4,12-43.3,0c0,0,0,0,0,0l0,0l-0.4-0.4C2203,3792.6,2203,3773.2,2215,3761.1L2215,3761.1z"/>
<path class="st0" d="M1224.8,3968.5l131.1-131.1c12-12,12-31.4,0-43.3c0,0,0,0,0,0l0,0l-0.4-0.4c-12-12-31.4-12-43.4,0l-174.9,174.9
	H1224.8z"/>
<path class="st0" d="M160.7,1041.5l-0.4-0.4c-12-12-31.4-12-43.4,0L0,1158v87.6l160.7-160.7C172.7,1072.9,172.7,1053.5,160.7,1041.5
	L160.7,1041.5z"/>
<path class="st0" d="M1397.9,65.3l-332.3,332.2c-12,12-31.4,12-43.3,0c0,0,0,0,0,0l0,0l-0.4-0.4c-12-12-12-31.4,0-43.4l332.2-332.3
	c12-12,31.4-12,43.3,0c0,0,0,0,0,0l0,0l0.4,0.4C1409.9,33.9,1409.9,53.3,1397.9,65.3L1397.9,65.3L1397.9,65.3z"/>
<path class="st0" d="M2463.6,0l-110.5,110.5c-12,12-12,31.4,0,43.4l0.4,0.4c12,12,31.4,12,43.3,0c0,0,0,0,0,0l0,0L2551.2,0H2463.6z"
	/>
<path class="st0" d="M2898.8,0l-232.9,232.9c-12,12-12,31.4,0,43.3c0,0,0,0,0,0l0,0l0.4,0.4c12,12,31.4,12,43.4,0l266.5-266.5
	c2.9-2.9,5.2-6.4,6.8-10.2H2898.8z"/>
<path class="st0" d="M3334,0l-198,198.1c-12,12-12,31.4,0,43.4l0.4,0.4c12,12,31.4,12,43.3,0c0,0,0,0,0,0l0,0L3421.6,0H3334z"/>
<path class="st0" d="M220.7,154.5L120.1,255c-12,12-31.4,12-43.4,0l-0.4-0.4c-12-12-12-31.4,0-43.4l100.5-100.5
	c12-12,31.4-12,43.4,0l0,0l0.4,0.4c12.1,11.5,12.7,30.7,1.2,42.8l-0.2,0.2C221.4,154.4,221,154.6,220.7,154.5z"/>
<path class="st0" d="M66.2,309l-0.7,0.7c-12,12-31.4,12-43.4,0l0,0l-0.4-0.4c-12-12-12-31.4,0-43.3c0,0,0,0,0,0l0,0l0.8-0.8
	c12-12,31.4-12,43.3,0c0,0,0,0,0,0l0,0l0.4,0.4C72.5,275.6,64.1,293.7,66.2,309z"/>
<path class="st0" d="M216.8,288.4l0.7-0.7c12-12,31.4-12,43.4,0l0.4,0.4c12,12,12,31.4,0,43.4l-0.7,0.7c-12,12-31.4,12-43.4,0
	l-0.4-0.4C204.8,319.7,204.8,300.3,216.8,288.4z"/>
<path class="st0" d="M167.3,555.5l100.5-100.5c12-12,31.4-12,43.4,0l0,0l0.4,0.4c12,12,12,31.4,0,43.4L211.1,599.3
	c-12,12-31.4,12-43.4,0l-0.4-0.4C155.3,586.9,155.3,567.4,167.3,555.5z"/>
<path class="st0" d="M59.6,880.8l332.2-332.2c12-12,31.4-12,43.3,0c0,0,0,0,0,0l0,0l0.4,0.4c12,12,12,31.4,0,43.4l0,0L103.3,924.6
	c-12,12-31.4,12-43.3,0c0,0,0,0,0,0l0,0l-0.4-0.4c-61.9,0-112.1,40.2-112.1-21.7S-2.3,790.4,59.6,880.8z"/>
<path class="st0" d="M53.6,1104.4l0.8-0.8c12-12,31.4-12,43.4,0l0.4,0.4c12,12,12,31.4,0,43.4l-0.8,0.8c-12,12-31.4,12-43.4,0
	l-0.4-0.4c-16.9,0-30.7-4.7-30.7-21.7S36.6,1095.4,53.6,1104.4z"/>
<path class="st0" d="M359.6,798.3l100.5-100.5c12-12,31.4-12,43.4,0l0.4,0.4c12,12,12,31.4,0,43.4L403.4,842.1
	c-12,12-31.4,12-43.4,0l0,0l-0.4-0.4C347.7,829.7,347.7,810.3,359.6,798.3C359.6,798.3,359.6,798.3,359.6,798.3L359.6,798.3
	L359.6,798.3z"/>
<path class="st0" d="M568.2,589.8l0.8-0.8c12-12,31.4-12,43.3,0c0,0,0,0,0,0l0,0l0.4,0.4c12,12,12,31.4,0,43.4l-0.8,0.8
	c-12,12-31.4,12-43.4,0l-0.4-0.4C556.2,621.2,556.2,601.8,568.2,589.8z"/>
<path class="st0" d="M845.6,1268.1l-100.5,100.5c-12,12-31.4,12-43.3,0c0,0,0,0,0,0l0,0l-0.4-0.4c-12-12-12-31.4,0-43.4l100.5-100.5
	c12-12,31.4-12,43.4,0l0.4,0.4C857.6,1236.7,857.6,1256.1,845.6,1268.1C845.6,1268,845.6,1268,845.6,1268.1L845.6,1268.1
	L845.6,1268.1z"/>
<path class="st0" d="M61.5,1964.6L328.1,1698c12-12,31.4-12,43.4,0l0.4,0.4c12,12,12,31.4,0,43.4l-266.5,266.5
	c-12,12-31.4,12-43.4,0l-0.4-0.4C49.5,1995.9,49.5,1976.5,61.5,1964.6z"/>
<path class="st0" d="M890.9,1135.1l0.7-0.7c12-12,31.4-12,43.4,0l0.4,0.4c12,12,12,31.4,0,43.4l-0.7,0.7c-12,12-31.4,12-43.4,0
	l-0.4-0.4C878.9,1166.5,879,1147.1,890.9,1135.1z"/>
<path class="st0" d="M794.8,1016l100.5-100.6c12-12,31.4-12,43.3,0c0,0,0,0,0,0l0,0l0.4,0.4c12,12,12,31.4,0,43.3c0,0,0,0,0,0l0,0
	l-100.5,100.5c-12,12-31.4,12-43.4,0l-0.4-0.4C782.9,1047.4,782.9,1028,794.8,1016z"/>
<path class="st0" d="M550.5,1260.4l0.8-0.7c12-12,31.4-12,43.4,0l0.4,0.4c12,12,12,31.4,0,43.4l-0.8,0.7c-12,12-31.4,12-43.4,0
	l-0.4-0.4C538.5,1291.7,538.5,1272.3,550.5,1260.4z"/>
<path class="st0" d="M629.2,1051.6l-100.5,100.5c-12,12-31.4,12-43.3,0c0,0,0,0,0,0l0,0l-0.4-0.4c-12-12-12-31.4,0-43.4l100.5-100.5
	c12-12,31.4-12,43.4,0l0.4,0.4C641.2,1020.2,641.2,1039.6,629.2,1051.6C629.2,1051.6,629.2,1051.6,629.2,1051.6L629.2,1051.6
	L629.2,1051.6z"/>
<path class="st0" d="M674.5,918.7l0.7-0.7c12-12,31.4-12,43.4,0l0.4,0.4c12,12,12,31.4,0,43.4l-0.7,0.7c-12,12-31.4,12-43.4,0
	l-0.4-0.4C662.5,950.1,662.5,930.7,674.5,918.7z"/>
<path class="st0" d="M56.6,1319l100.5-100.5c12-12,31.4-12,43.4,0l0.4,0.4c12,12,12,31.4,0,43.4l-100.5,100.5c-12,12-31.4,12-43.4,0
	l-0.4-0.4C44.6,1350.4,44.6,1330.9,56.6,1319z"/>
<path class="st0" d="M465.9,909.7l100.5-100.5c12-12,31.4-12,43.4,0l0.4,0.4c12,12,12,31.4,0,43.4L509.7,953.5
	c-12,12-31.4,12-43.4,0l-0.4-0.4C453.9,941.1,453.9,921.7,465.9,909.7z"/>
<path class="st0" d="M332.9,1042.7l0.8-0.7c12-12,31.4-12,43.3,0c0,0,0,0,0,0l0,0l0.4,0.4c12,12,12,31.4,0,43.3c0,0,0,0,0,0l0,0
	l-0.8,0.8c-12,12-31.4,12-43.3,0c0,0,0,0,0,0l0,0l-0.4-0.4C320.9,1074.1,320.9,1054.7,332.9,1042.7z"/>
<path class="st0" d="M960.2,1503.4l100.5-100.5c12-12,31.4-12,43.4,0l0,0l0.4,0.4c12,12,12,31.4,0,43.3c0,0,0,0,0,0l0,0L1004,1547.2
	c-12,12-31.4,12-43.4,0l-0.4-0.4C948.2,1534.8,948.2,1515.4,960.2,1503.4z"/>
<path class="st0" d="M318.3,2145.3l332.2-332.2c12-12,31.4-12,43.4,0l0.4,0.4c12,12,12,31.4,0,43.3c0,0,0,0,0,0l0,0l-332.3,332.3
	c-12,12-31.4,12-43.3,0c0,0,0,0,0,0l0,0l-0.4-0.4C306.3,2176.7,306.3,2157.3,318.3,2145.3C318.3,2145.3,318.3,2145.3,318.3,2145.3
	L318.3,2145.3L318.3,2145.3z"/>
<path class="st0" d="M827.2,1636.4l0.8-0.8c12-12,31.4-12,43.4,0l0.4,0.4c12,12,12,31.4,0,43.4l-0.8,0.8c-12,12-31.4,12-43.4,0
	l-0.4-0.4C815.2,1667.8,815.2,1648.4,827.2,1636.4C827.2,1636.4,827.2,1636.4,827.2,1636.4L827.2,1636.4L827.2,1636.4z"/>
<path class="st0" d="M832.4,2284L933,2183.5c12-12,31.4-12,43.4,0l0.4,0.4c12,12,12,31.4,0,43.4l-100.5,100.5c-12,12-31.4,12-43.4,0
	l-0.4-0.4C820.5,2315.4,820.5,2296,832.4,2284z"/>
<path class="st0" d="M1364.1,1752.3l100.5-100.5c12-12,31.4-12,43.4,0l0.4,0.4c12,12,12,31.4,0,43.4l-100.5,100.5
	c-12,12-31.4,12-43.4,0l-0.4-0.4C1352.2,1783.7,1352.2,1764.3,1364.1,1752.3z"/>
<path class="st0" d="M742.6,2373.8l0.8-0.7c12-12,31.4-12,43.3,0c0,0,0,0,0,0l0,0l0.4,0.4c12,12,12,31.4,0,43.4l-0.8,0.8
	c-12,12-31.4,12-43.3,0c0,0,0,0,0,0l0,0l-0.4-0.4C730.6,2405.2,730.6,2385.8,742.6,2373.8L742.6,2373.8L742.6,2373.8z"/>
<path class="st0" d="M537.3,1796.3l-100.5,100.5c-12,12-31.4,12-43.4,0l-0.4-0.4c-12-12-12-31.4,0-43.4l100.5-100.5
	c12-12,31.4-12,43.4,0l0.4,0.4C549.2,1764.9,549.2,1784.4,537.3,1796.3C537.3,1796.3,537.3,1796.3,537.3,1796.3L537.3,1796.3
	L537.3,1796.3z"/>
<path class="st0" d="M712.4,1533.6l332.3-332.3c12-12,31.4-12,43.4,0l0.4,0.4c12,12,12,31.4,0,43.4l-332.3,332.3
	c-12,12-31.4,12-43.4,0l-0.4-0.4C700.4,1565,700.4,1545.6,712.4,1533.6z"/>
<path class="st0" d="M670.2,1663.4l-0.8,0.7c-12,12-31.4,12-43.4,0l0,0l-0.4-0.4c-12-12-12-31.4,0-43.3c0,0,0,0,0,0l0,0l0.8-0.8
	c12-12,31.4-12,43.3,0c0,0,0,0,0,0l0,0l0.4,0.4C682.2,1632,682.2,1651.4,670.2,1663.4z"/>
<path class="st0" d="M178.4,2155.2l-0.8,0.8c-12,12-31.4,12-43.4,0l-0.4-0.4c-12-12-12-31.4,0-43.4l0.8-0.8c12-12,31.4-12,43.4,0
	l0.4,0.4C190.4,2123.8,190.4,2143.2,178.4,2155.2C178.4,2155.2,178.4,2155.2,178.4,2155.2L178.4,2155.2L178.4,2155.2z"/>
<path class="st0" d="M463.1,2305.7l-100.5,100.5c-12,12-31.4,12-43.3,0c0,0,0,0,0,0l0,0l-0.4-0.4c-12-12-12-31.4,0-43.4l100.5-100.5
	c12-12,31.4-12,43.4,0l0.4,0.4C475.1,2274.3,475.1,2293.7,463.1,2305.7C463.1,2305.7,463.1,2305.7,463.1,2305.7L463.1,2305.7
	L463.1,2305.7z"/>
<path class="st0" d="M546.3,2134.9l332.3-332.3c12-12,31.4-12,43.4,0l0.4,0.4c12,12,12,31.4,0,43.4l-332.3,332.3
	c-12,12-31.4,12-43.4,0l-0.4-0.4C534.3,2166.3,534.3,2146.9,546.3,2134.9C546.3,2134.9,546.3,2134.9,546.3,2134.9L546.3,2134.9
	L546.3,2134.9z"/>
<path class="st0" d="M254.5,2514.3l-0.8,0.8c-12,12-31.4,12-43.4,0l-0.4-0.4c-12-12-12-31.4,0-43.3c0,0,0,0,0,0l0,0l0.8-0.8
	c12-12,31.4-12,43.4,0l0.4,0.4C266.5,2482.9,266.5,2502.3,254.5,2514.3z"/>
<path class="st0" d="M1121.3,1560l100.5-100.5c12-12,31.4-12,43.4,0l0.4,0.4c12,12,12,31.4,0,43.4l-100.5,100.5
	c-12,12-31.4,12-43.4,0l0,0l-0.4-0.4C1109.6,1591.4,1109.9,1572.2,1121.3,1560z"/>
<path class="st0" d="M1329.8,1351.4l0.8-0.8c12-12,31.4-12,43.3,0c0,0,0,0,0,0l0,0l0.4,0.4c12,12,12,31.4,0,43.4l-0.8,0.8
	c-12,12-31.4,12-43.4,0l-0.4-0.4C1317.8,1382.8,1317.8,1363.4,1329.8,1351.4z"/>
<path class="st0" d="M1177.8,1721l100.5-100.5c12-12,31.4-12,43.4,0l0.4,0.4c12,12,12,31.4,0,43.4l-100.5,100.5
	c-12,12-31.4,12-43.4,0l-0.4-0.4C1165.8,1752.4,1165.8,1733,1177.8,1721z"/>
<path class="st0" d="M535.9,2362.9l332.3-332.3c12-12,31.4-12,43.4,0l0.4,0.4c12,12,12,31.4,0,43.4l-332.3,332.3
	c-12,12-31.4,12-43.4,0l-0.4-0.4C530.9,2397.1,543.6,2379,535.9,2362.9z"/>
<path class="st0" d="M1044.9,1853.9l0.7-0.7c12-12,31.4-12,43.4,0l0.4,0.4c12,12,12,31.4,0,43.4l-0.7,0.7c-12,12-31.4,12-43.4,0
	l-0.4-0.4C1032.9,1885.3,1032.9,1865.9,1044.9,1853.9z"/>
<path class="st0" d="M1050,2501.6l100.5-100.5c12-12,31.4-12,43.4,0l0.4,0.4c12,12,12,31.4,0,43.3c0,0,0,0,0,0l0,0l-100.5,100.5
	c-12,12-31.4,12-43.3,0c0,0,0,0,0,0l0,0l-0.4-0.4C1038.1,2533,1038,2513.6,1050,2501.6z"/>
<path class="st0" d="M1581.7,1969.9l100.5-100.5c12-12,31.4-12,43.4,0l0.4,0.4c12,12,12,31.4,0,43.3c0,0,0,0,0,0l0,0l-100.5,100.5
	c-12,12-31.4,12-43.3,0c0,0,0,0,0,0l0,0l-0.4-0.4C1570.1,2001.3,1570.3,1982,1581.7,1969.9z"/>
<path class="st0" d="M1272.5,2279.2l332.3-332.2c12-12,31.4-12,43.3,0c0,0,0,0,0,0l0,0l0.4,0.4c12,12,12,31.4,0,43.4L1316.3,2323
	c-12,12-31.4,12-43.3,0c0,0,0,0,0,0l0,0l-0.4-0.4C1262,2310.9,1263.3,2292,1272.5,2279.2z"/>
<path class="st0" d="M750.8,2888.4l-332.3,332.3c-12,12-31.4,12-43.4,0l-0.4-0.4c-12-12-12-31.4,0-43.3c0,0,0,0,0,0l0,0L707,2844.6
	c12-12,31.4-12,43.4,0l0.4,0.4C762.8,2857,762.8,2876.4,750.8,2888.4z"/>
<path class="st0" d="M13.5,3538.2l0.7-0.7c12-12,31.4-12,43.4,0l0.4,0.4c12,12,12,31.4,0,43.4l-0.7,0.7c-12,12-31.4,12-43.4,0
	l-0.4-0.4C1.5,3569.6,1.5,3550.1,13.5,3538.2z"/>
<path class="st0" d="M960.2,2591.4l0.8-0.8c12-12,31.4-12,43.4,0l0.4,0.4c12,12,12,31.4,0,43.3c0,0,0,0,0,0l0,0l-0.8,0.8
	c-12,12-31.4,12-43.4,0l-0.4-0.4C948.2,2622.8,948.2,2603.4,960.2,2591.4z"/>
<path class="st0" d="M1001.9,2332.1l332.3-332.3c12-12,31.4-12,43.4,0l0.4,0.4c12,12,12,31.4,0,43.4l-332.3,332.3
	c-12,12-31.4,12-43.4,0l-0.4-0.4C993.3,2364.4,997.1,2346.1,1001.9,2332.1z"/>
<path class="st0" d="M789.5,2632.1L689,2732.7c-12,12-31.4,12-43.3,0c0,0,0,0,0,0l0,0l-0.4-0.4c-12-12-12-31.4,0-43.4l100.5-100.5
	c12-12,31.4-12,43.4,0l0.4,0.4C801.5,2600.7,801.5,2620.2,789.5,2632.1C789.5,2632.1,789.5,2632.1,789.5,2632.1L789.5,2632.1
	L789.5,2632.1z"/>
<path class="st0" d="M440.9,2980.8L108.6,3313c-12,12-31.4,12-43.4,0l-0.4-0.4c-12-12-12-31.4,0-43.3c0,0,0,0,0,0l0,0L397.1,2937
	c12-12,31.4-12,43.4,0l0.4,0.4C452.8,2949.4,452.8,2968.8,440.9,2980.8z"/>
<path class="st0" d="M580.9,2840.7l-0.8,0.8c-12,12-31.4,12-43.4,0l-0.4-0.4c-12-12-12-31.4,0-43.3c0,0,0,0,0,0l0,0l0.8-0.8
	c12-12,31.4-12,43.3,0c0,0,0,0,0,0l0,0l0.4,0.4C592.9,2809.3,592.9,2828.7,580.9,2840.7z"/>
<path class="st0" d="M1447.7,1886.4l100.5-100.5c12-12,31.4-12,43.4,0l0.4,0.4c12,12,12,31.4,0,43.4l-100.5,100.5
	c-12,12-31.4,12-43.4,0l-0.4-0.4C1435.7,1917.7,1435.7,1898.3,1447.7,1886.4z"/>
<path class="st0" d="M1656.2,1677.8l0.8-0.7c12-12,31.4-12,43.3,0c0,0,0,0,0,0l0,0l0.4,0.4c12,12,12,31.4,0,43.4l-0.8,0.8
	c-12,12-31.4,12-43.3,0c0,0,0,0,0,0l0,0l-0.4-0.4C1644.3,1709.2,1644.3,1689.8,1656.2,1677.8z"/>
<path class="st0" d="M375.2,130l0.8-0.8c12-12,31.4-12,43.3,0c0,0,0,0,0,0l0,0l0.4,0.4c12,12,12,31.4,0,43.4l-0.8,0.8
	c-12,12-31.4,12-43.4,0l-0.4-0.4C363.2,161.4,363.2,142,375.2,130C375.2,130,375.2,130,375.2,130L375.2,130L375.2,130z"/>
<path class="st0" d="M517,293.4L416.4,393.9c-12,12-31.4,12-43.4,0l-0.4-0.4c-12-12-12-31.4,0-43.4l100.5-100.5
	c12-12,31.4-12,43.3,0c0,0,0,0,0,0l0,0l0.4,0.4C528.9,262,529,281.4,517,293.4z"/>
<path class="st0" d="M730,80.3l-0.8,0.8c-12,12-31.4,12-43.4,0l-0.4-0.4c-12-12-12-31.4,0-43.4l0.8-0.8c12-12,31.4-12,43.4,0L730,37
	C742,49,742,68.4,730,80.3z"/>
<path class="st0" d="M737.1,290.8L636.6,391.4c-12,12-31.4,12-43.3,0c0,0,0,0,0,0l0,0l-0.4-0.4c-12-12-12-31.4,0-43.4L693.3,247
	c12-12,31.4-12,43.4,0l0.4,0.4C749.1,259.4,749.1,278.8,737.1,290.8C737.1,290.8,737.1,290.8,737.1,290.8L737.1,290.8L737.1,290.8z"
	/>
<path class="st0" d="M782.4,157.9l0.7-0.7c12-12,31.4-12,43.4,0l0.4,0.4c12,12,12,31.4,0,43.4l-0.7,0.7c-12,12-31.4,12-43.4,0
	l-0.4-0.4C770.4,189.3,770.4,169.9,782.4,157.9z"/>
<path class="st0" d="M845.9,399.6L745.4,500.2c-12,12-31.4,12-43.3,0c0,0,0,0,0,0l0,0l-0.4-0.4c-12-12-12-31.4,0-43.3c0,0,0,0,0,0
	l0,0l100.5-100.5c12-12,31.4-12,43.4,0l0.4,0.4C857.9,368.3,857.9,387.7,845.9,399.6z"/>
<path class="st0" d="M978.9,266.7l-0.8,0.8c-12,12-31.4,12-43.4,0l-0.4-0.4c-12-12-12-31.4,0-43.4l0.8-0.8c12-12,31.4-12,43.4,0
	l0.4,0.4C990.9,235.3,990.9,254.7,978.9,266.7z"/>
<path class="st0" d="M2049.3,64.4L1717,396.7c-12,12-31.4,12-43.4,0l-0.4-0.4c-12-12-12-31.4,0-43.3c0,0,0,0,0,0l0,0l332.3-332.3
	c12-12,31.4-12,43.4,0l0.4,0.4C2061.2,33,2061.2,52.4,2049.3,64.4C2049.3,64.4,2049.3,64.4,2049.3,64.4L2049.3,64.4L2049.3,64.4z"/>
<path class="st0" d="M1185.4,840.7l100.5-100.5c12-12,31.4-12,43.4,0l0.4,0.4c12,12,12,31.4,0,43.4l-100.5,100.5
	c-12,12-31.4,12-43.4,0l-0.4-0.4C1173.4,872.1,1173.4,852.7,1185.4,840.7z"/>
<path class="st0" d="M1462.7,651l-0.8,0.8c-12,12-31.4,12-43.4,0l-0.4-0.4c-12-12-12-31.4,0-43.4l0.8-0.8c12-12,31.4-12,43.3,0
	c0,0,0,0,0,0l0,0l0.4,0.4C1474.6,619.6,1474.6,639,1462.7,651z"/>
<path class="st0" d="M1167.5,643.3l100.5-100.5c12-12,31.4-12,43.4,0l0.4,0.4c12,12,12,31.4,0,43.4l-100.5,100.5
	c-12,12-31.4,12-43.4,0l-0.4-0.4C1155.5,674.6,1155.5,655.2,1167.5,643.3z"/>
<path class="st0" d="M1390,420.8l332.2-332.3c12-12,31.4-12,43.4,0l0.4,0.4c12,12,12,31.4,0,43.4l-332.3,332.3
	c-12,12-31.4,12-43.4,0l-0.4-0.4C1378,452.2,1378,432.8,1390,420.8z"/>
<path class="st0" d="M1077.7,733.1l0.8-0.7c12-12,31.4-12,43.3,0c0,0,0,0,0,0l0,0l0.4,0.4c12,12,12,31.4,0,43.3c0,0,0,0,0,0l0,0
	l-0.8,0.8c-12,12-31.4,12-43.3,0c0,0,0,0,0,0l0,0l-0.4-0.4C1065.7,764.5,1065.7,745.1,1077.7,733.1z"/>
<path class="st0" d="M1020.5,660.3L920,760.8c-12,12-31.4,12-43.4,0l-0.4-0.4c-12-12-12-31.4,0-43.4l100.5-100.5
	c12-12,31.4-12,43.4,0l0.4,0.4C1032.2,628.8,1032,648.1,1020.5,660.3z"/>
<path class="st0" d="M1195.6,397.6l332.3-332.3c12-12,31.4-12,43.4,0l0.4,0.4c12,12,12,31.4,0,43.3c0,0,0,0,0,0l0,0l-332.3,332.3
	c-12,12-31.4,12-43.4,0l-0.4-0.4C1183.6,429,1183.6,409.6,1195.6,397.6L1195.6,397.6C1195.6,397.6,1195.6,397.6,1195.6,397.6z"/>
<path class="st0" d="M1153.5,527.3l-0.8,0.7c-12,12-31.4,12-43.3,0c0,0,0,0,0,0l0,0l-0.4-0.4c-12-12-12-31.4,0-43.4l0.8-0.8
	c12-12,31.4-12,43.3,0c0,0,0,0,0,0l0,0l0.4,0.4C1165.5,495.9,1165.5,515.3,1153.5,527.3z"/>
<path class="st0" d="M952.2,511L851.6,611.5c-12,12-31.4,12-43.3,0c0,0,0,0,0,0l0,0l-0.4-0.4c-12-12-12-31.4,0-43.3c0,0,0,0,0,0l0,0
	l100.5-100.5c12-12,31.4-12,43.4,0l0.4,0.4c12,11.9,12.1,31.3,0.2,43.3l0,0C952.3,511,952.2,511,952.2,511z"/>
<path class="st0" d="M743.6,719.6l-0.8,0.8c-12,12-31.4,12-43.4,0l-0.4-0.4c-12-12-12-31.4,0-43.4l0.8-0.8c12-12,31.4-12,43.3,0
	c0,0,0,0,0,0l0,0l0.4,0.4C755.6,688.2,755.6,707.6,743.6,719.6C743.6,719.6,743.6,719.6,743.6,719.6L743.6,719.6L743.6,719.6z"/>
<path class="st0" d="M1444.2,1019.4l100.5-100.5c12-12,31.4-12,43.4,0l0.4,0.4c12,12,12,31.4,0,43.3c0,0,0,0,0,0l0,0L1488,1063.2
	c-12,12-31.4,12-43.3,0c0,0,0,0,0,0l0,0l-0.4-0.4C1432.3,1050.8,1432.3,1031.3,1444.2,1019.4z"/>
<path class="st0" d="M1792.9,670.8l332.2-332.3c12-12,31.4-12,43.4,0l0.4,0.4c12,12,12,31.4,0,43.3c0,0,0,0,0,0l0,0l-332.2,332.3
	c-12,12-31.4,12-43.4,0l-0.4-0.4C1780.9,702.1,1780.9,682.7,1792.9,670.8C1792.9,670.8,1792.9,670.8,1792.9,670.8L1792.9,670.8
	L1792.9,670.8z"/>
<path class="st0" d="M1354.4,1109.2l0.8-0.8c12-12,31.4-12,43.4,0l0.4,0.4c12,12,12,31.4,0,43.3c0,0,0,0,0,0l0,0l-0.8,0.8
	c-12,12-31.4,12-43.3,0c0,0,0,0,0,0l0,0l-0.4-0.4c-12-11.9-12.1-31.3-0.2-43.3c0,0,0,0,0,0l0,0
	C1354.2,1109.2,1354.3,1109.2,1354.4,1109.2C1354.4,1109.2,1354.4,1109.2,1354.4,1109.2z"/>
<path class="st0" d="M2966.5,149.9L3067,49.4c12-12,31.4-12,43.4,0l0.4,0.4c12,12,12,31.4,0,43.4l-100.5,100.5
	c-12,12-31.4,12-43.4,0l-0.4-0.4C2954.5,181.3,2954.5,161.9,2966.5,149.9z"/>
<path class="st0" d="M1569.5,1546.9l100.5-100.5c12-12,31.4-12,43.4,0l0.4,0.4c12,12,12,31.4,0,43.4l-100.5,100.5
	c-12,12-31.4,12-43.4,0l-0.4-0.4C1557.5,1578.3,1557.5,1558.9,1569.5,1546.9z"/>
<path class="st0" d="M2667.3,536.7L2335,869c-12,12-31.4,12-43.3,0c0,0,0,0,0,0l0,0l-0.4-0.4c-12-12-12-31.4,0-43.4L2623.5,493
	c12-12,31.4-12,43.4,0l0,0l0.4,0.4C2679.2,505.4,2679.2,524.7,2667.3,536.7z"/>
<path class="st0" d="M1958.1,1245.9l-0.8,0.8c-12,12-31.4,12-43.4,0l-0.4-0.4c-12-12-12-31.4,0-43.4l0.8-0.8c12-12,31.4-12,43.3,0
	c0,0,0,0,0,0l0,0l0.4,0.4C1970.1,1214.5,1970.1,1233.9,1958.1,1245.9z"/>
<path class="st0" d="M2876.7,239.7l0.8-0.8c12-12,31.4-12,43.4,0l0.4,0.4c12,12,12,31.4,0,43.4l-0.8,0.8c-12,12-31.4,12-43.3,0
	c0,0,0,0,0,0l0,0l-0.4-0.4C2864.7,271.1,2864.7,251.7,2876.7,239.7C2876.7,239.8,2876.7,239.8,2876.7,239.7L2876.7,239.7
	L2876.7,239.7z"/>
<path class="st0" d="M1398.2,847.8l332.3-332.2c12-12,31.4-12,43.3,0c0,0,0,0,0,0l0,0l0.4,0.4c12,12,12,31.4,0,43.4L1442,891.6
	c-12,12-31.4,12-43.3,0c0,0,0,0,0,0l0,0l-0.4-0.4C1386.2,879.1,1386.3,859.7,1398.2,847.8z"/>
<path class="st0" d="M2068.4,177.6l100.5-100.5c12-12,31.4-12,43.4,0l0.4,0.4c12,12,12,31.4,0,43.4l-100.5,100.5
	c-12,12-31.4,12-43.4,0l-0.4-0.4C2056.4,209,2056.4,189.6,2068.4,177.6z"/>
<path class="st0" d="M1978.6,267.4l0.8-0.8c12-12,31.4-12,43.4,0l0.4,0.4c12,12,12,31.4,0,43.3c0,0,0,0,0,0l0,0l-0.8,0.8
	c-12,12-31.4,12-43.3,0c0,0,0,0,0,0l0,0l-0.4-0.4C1966.6,298.8,1966.6,279.4,1978.6,267.4z"/>
<path class="st0" d="M2597.2,171.7l-100.5,100.5c-12,12-31.4,12-43.3,0c0,0,0,0,0,0l0,0l-0.4-0.4c-12-12-12-31.4,0-43.4l100.5-100.5
	c12-12,31.4-12,43.4,0l0.4,0.4C2609.1,140.3,2609.1,159.7,2597.2,171.7z"/>
<path class="st0" d="M1607.6,1161.3L1507,1261.8c-12,12-31.4,12-43.3,0c0,0,0,0,0,0l0,0l-0.4-0.4c-12-12-12-31.4,0-43.3c0,0,0,0,0,0
	l0,0l100.5-100.5c12-12,31.4-12,43.4,0l0.4,0.4c12,11.9,12.1,31.3,0.2,43.3c0,0,0,0,0,0l0,0
	C1607.7,1161.3,1607.7,1161.3,1607.6,1161.3C1607.6,1161.3,1607.6,1161.3,1607.6,1161.3z"/>
<path class="st0" d="M2248.5,520.3l-332.3,332.3c-12,12-31.4,12-43.4,0l-0.4-0.4c-12-12-12-31.4,0-43.4l332.3-332.3
	c12-12,31.4-12,43.4,0l0.4,0.4C2260.5,488.9,2260.5,508.3,2248.5,520.3L2248.5,520.3z"/>
<path class="st0" d="M1740.5,1028.3l-0.8,0.8c-12,12-31.4,12-43.4,0l-0.4-0.4c-12-12-12-31.4,0-43.4l0.8-0.8c12-12,31.4-12,43.4,0
	l0.4,0.4C1752.5,996.9,1752.5,1016.3,1740.5,1028.3z"/>
<path class="st0" d="M2388.6,380.2l-0.8,0.8c-12,12-31.4,12-43.4,0l-0.4-0.4c-12-12-12-31.4,0-43.4l0.8-0.8c12-12,31.4-12,43.3,0
	c0,0,0,0,0,0l0,0l0.4,0.4C2400.6,348.8,2400.6,368.2,2388.6,380.2z"/>
<path class="st0" d="M2296.7,689.7l-100.5,100.5c-12,12-31.4,12-43.4,0l-0.4-0.4c-12-12-12-31.4,0-43.4l100.5-100.5
	c12-12,31.4-12,43.4,0l0,0l0.4,0.4C2308.7,658.3,2308.7,677.7,2296.7,689.7C2296.7,689.7,2296.7,689.7,2296.7,689.7L2296.7,689.7
	L2296.7,689.7z"/>
<path class="st0" d="M1948.1,1038.3l-332.3,332.3c-12,12-31.4,12-43.4,0l-0.4-0.4c-12-12-12-31.4,0-43.4l332.3-332.3
	c12-12,31.4-12,43.4,0l0.4,0.4c12.2,11.8,12.8,30.8,1,43C1948.8,1038.3,1948.5,1038.4,1948.1,1038.3z"/>
<path class="st0" d="M2386.5,599.9l-0.8,0.8c-12,12-31.4,12-43.4,0l-0.4-0.4c-12-12-12-31.4,0-43.4l0.8-0.8c12-12,31.4-12,43.4,0
	l0.4,0.4C2398.5,568.5,2398.5,587.9,2386.5,599.9C2386.5,599.9,2386.5,599.9,2386.5,599.9L2386.5,599.9L2386.5,599.9z"/>
<path class="st0" d="M2593.9,1045.3l-332.3,332.3c-12,12-31.4,12-43.4,0l-0.4-0.4c-12-12-12-31.4,0-43.4l332.3-332.3
	c12-12,31.4-12,43.3,0c0,0,0,0,0,0l0,0l0.4,0.4C2605.9,1013.9,2605.9,1033.3,2593.9,1045.3z"/>
<path class="st0" d="M3184.1,367.5L3284.6,267c12-12,31.4-12,43.4,0l0.4,0.4c12,12,12,31.4,0,43.3c0,0,0,0,0,0l0,0l-100.5,100.5
	c-12,12-31.4,12-43.4,0l-0.4-0.4C3172.1,398.9,3172.1,379.5,3184.1,367.5L3184.1,367.5z"/>
<path class="st0" d="M1787.1,1764.6l100.5-100.5c12-12,31.4-12,43.4,0l0.4,0.4c12,12,12,31.4,0,43.4l-100.5,100.5
	c-12,12-31.4,12-43.4,0l-0.4-0.4C1775.1,1795.9,1775.1,1776.5,1787.1,1764.6z"/>
<path class="st0" d="M2175.7,1463.5l-0.8,0.8c-12,12-31.4,12-43.4,0l-0.4-0.4c-12-12-12-31.4,0-43.3c0,0,0,0,0,0l0,0l0.7-0.8
	c12-12,31.4-12,43.4,0l0.4,0.4C2187.7,1432.1,2187.7,1451.5,2175.7,1463.5C2175.7,1463.5,2175.7,1463.5,2175.7,1463.5z"/>
<path class="st0" d="M3094.3,457.4l0.8-0.8c12-12,31.4-12,43.4,0l0.4,0.4c12,12,12,31.4,0,43.3c0,0,0,0,0,0l0,0l-0.8,0.8
	c-12,12-31.4,12-43.4,0l-0.4-0.4C3082.3,488.7,3082.3,469.3,3094.3,457.4z"/>
<path class="st0" d="M2923.6,498.1L2823,598.6c-12,12-31.4,12-43.4,0l-0.4-0.4c-12-12-12-31.4,0-43.4l100.5-100.5
	c12-12,31.4-12,43.4,0l0.4,0.4C2935.5,466.7,2935.5,486.1,2923.6,498.1C2923.5,498.1,2923.5,498.1,2923.6,498.1L2923.6,498.1
	L2923.6,498.1z"/>
<path class="st0" d="M1789.6,1544.4l100.5-100.5c12-12,31.4-12,43.4,0l0.4,0.4c12,12,12,31.4,0,43.4l-100.5,100.5
	c-12,12-31.4,12-43.4,0l-0.4-0.4C1777.7,1575.8,1777.7,1556.4,1789.6,1544.4z"/>
<path class="st0" d="M2574.9,846.7L2242.7,1179c-12,12-31.4,12-43.4,0l-0.4-0.4c-12-12-12-31.4,0-43.4l332.3-332.3
	c12-12,31.4-12,43.4,0l0.4,0.4C2586.9,815.4,2586.9,834.7,2574.9,846.7z"/>
<path class="st0" d="M2022.4,1311.8l0.7-0.7c12-12,31.4-12,43.4,0l0.4,0.4c12,12,12,31.4,0,43.4l-0.7,0.7c-12,12-31.4,12-43.4,0
	l-0.4-0.4C2010.4,1343.2,2010.4,1323.7,2022.4,1311.8z"/>
<path class="st0" d="M2715,706.6l-0.8,0.7c-12,12-31.4,12-43.3,0c0,0,0,0,0,0l0,0l-0.4-0.4c-12-12-12-31.4,0-43.4l0,0l0.8-0.7
	c12-12,31.4-12,43.3,0c0,0,0,0,0,0l0,0l0.4,0.4C2727,675.2,2727,694.7,2715,706.6z"/>
<path class="st0" d="M1914.7,2538.2l100.5-100.5c12-12,31.4-12,43.4,0l0.4,0.4c12,12,12,31.4,0,43.4L1958.5,2582
	c-12,12-31.4,12-43.4,0l-0.4-0.4C1902.7,2569.6,1902.7,2550.2,1914.7,2538.2z"/>
<path class="st0" d="M1710.4,2830.1l-332.3,332.3c-12,12-31.4,12-43.3,0c0,0,0,0,0,0l0,0l-0.4-0.4c-12-12-12-31.4,0-43.4
	l332.3-332.2c12-12,31.4-12,43.3,0c0,0,0,0,0,0l0,0l0.4,0.4C1722.4,2798.7,1722.4,2818.1,1710.4,2830.1
	C1710.4,2830.1,1710.4,2830.1,1710.4,2830.1L1710.4,2830.1L1710.4,2830.1z"/>
<path class="st0" d="M1168.6,3371.9l-266.5,266.6c-12,12-31.4,12-43.4,0l-0.4-0.4c-12-12-12-31.4,0-43.4l266.6-266.6
	c12-12,31.4-12,43.4,0l0.4,0.4C1179,3340.1,1177.5,3359,1168.6,3371.9z"/>
<path class="st0" d="M609,3931.5l-0.8,0.8c-12,12-31.4,12-43.4,0l-0.4-0.4c-12-12-12-31.4,0-43.4l0.8-0.8c12-12,31.4-12,43.4,0
	l0.4,0.4C621,3900.1,621,3919.5,609,3931.5z"/>
<path class="st0" d="M2148.9,2391.6l-0.8,0.8c-12,12-31.4,12-43.3,0c0,0,0,0,0,0l0,0l-0.4-0.4c-12-12-12-31.4,0-43.4l0.8-0.8
	c12-12,31.4-12,43.4,0l0.4,0.4C2160.8,2360.2,2160.8,2379.6,2148.9,2391.6C2148.9,2391.6,2148.9,2391.6,2148.9,2391.6L2148.9,2391.6
	L2148.9,2391.6z"/>
<path class="st0" d="M2007.1,2228.2l100.5-100.5c12-12,31.4-12,43.4,0l0.4,0.4c12,12,12,31.4,0,43.4L2050.9,2272
	c-12,12-31.4,12-43.3,0c0,0,0,0,0,0l0,0l-0.4-0.4c-13.3-10.5-17.3-27.4-6.8-40.7C2001.7,2229,2003.4,2227.3,2007.1,2228.2z"/>
<path class="st0" d="M468.1,3767.1l332.3-332.3c12-12,31.4-12,43.3,0c0,0,0,0,0,0l0,0l0.4,0.4c12,12,12,31.4,0,43.3c0,0,0,0,0,0l0,0
	L511.9,3811c-12,12-31.4,12-43.4,0l-0.4-0.4C456.2,3798.6,456.1,3779.2,468.1,3767.1C468.1,3767.2,468.1,3767.2,468.1,3767.1
	L468.1,3767.1L468.1,3767.1z"/>
<path class="st0" d="M1053.6,3181.7l332.3-332.3c12-12,31.4-12,43.4,0l0.4,0.4c12,12,12,31.4,0,43.4l-332.3,332.3
	c-12,12-31.4,12-43.4,0l-0.4-0.4C1041.6,3213.1,1041.6,3193.7,1053.6,3181.7z"/>
<path class="st0" d="M1762.8,2472.5l0.8-0.8c12-12,31.4-12,43.3,0c0,0,0,0,0,0l0,0l0.4,0.4c12,12,12,31.4,0,43.3c0,0,0,0,0,0l0,0
	l-0.7,0.8c-12,12-31.4,12-43.4,0l-0.4-0.4C1750.8,2503.9,1750.8,2484.5,1762.8,2472.5C1762.7,2472.5,1762.7,2472.5,1762.8,2472.5
	L1762.8,2472.5L1762.8,2472.5z"/>
<path class="st0" d="M1116.8,2900.9l332.2-332.3c12-12,31.4-12,43.4,0l0.4,0.4c12,12,12,31.4,0,43.4l-332.3,332.3
	c-12,12-31.4,12-43.4,0l-0.4-0.4C1104.8,2932.3,1104.8,2912.9,1116.8,2900.9C1116.7,2900.9,1116.7,2900.9,1116.8,2900.9
	L1116.8,2900.9L1116.8,2900.9z"/>
<path class="st0" d="M1697.1,2320.6l100.5-100.5c12-12,31.4-12,43.4,0l0.4,0.4c12,12,12,31.4,0,43.4l-100.5,100.5
	c-12,12-31.4,12-43.4,0l-0.4-0.4C1685.1,2352,1685.1,2332.6,1697.1,2320.6z"/>
<path class="st0" d="M273.8,3743.9l332.3-332.3c12-12,31.4-12,43.4,0l0.4,0.4c12,12,12,31.4,0,43.4l-332.3,332.3
	c-12,12-31.4,12-43.4,0l-0.4-0.4c-16.9,0-30.7-4.7-30.7-21.7S256.9,3734.9,273.8,3743.9z"/>
<path class="st0" d="M231.7,3873.6l-0.8,0.8c-12,12-31.4,12-43.3,0c0,0,0,0,0,0l0,0l-0.4-0.4c-12-12-12-31.4,0-43.4l0.8-0.8
	c12-12,31.4-12,43.4,0l0.4,0.4c16.9,0,30.6,4.8,30.6,21.7S248.6,3882.6,231.7,3873.6z"/>
<path class="st0" d="M864.5,3153.1l0.7-0.7c12-12,31.4-12,43.4,0l0.4,0.4c12,12,12,31.4,0,43.4l-0.7,0.7c-12,12-31.4,12-43.4,0
	l-0.4-0.4C852.5,3184.5,852.5,3165.1,864.5,3153.1z"/>
<path class="st0" d="M1931.2,2174l-0.8,0.8c-12,12-31.4,12-43.4,0l-0.4-0.4c-12-12-12-31.4,0-43.3c0,0,0,0,0,0l0,0l0.8-0.8
	c12-12,31.4-12,43.4,0l0.4,0.4C1943.2,2142.6,1943.2,2162,1931.2,2174z"/>
<path class="st0" d="M1413.2,2474.5L1312.7,2575c-12,12-31.4,12-43.4,0l-0.4-0.4c-12-12-12-31.4,0-43.4l100.5-100.5
	c12-12,31.4-12,43.3,0c0,0,0,0,0,0l0,0l0.4,0.4C1425.1,2443.1,1425.1,2462.5,1413.2,2474.5L1413.2,2474.5z"/>
<path class="st0" d="M1678.1,2121.9l100.5-100.5c12-12,31.4-12,43.4,0l0.4,0.4c12,12,12,31.4,0,43.4l-100.5,100.5
	c-12,12-31.4,12-43.4,0l-0.4-0.4C1666.1,2153.3,1666.1,2133.9,1678.1,2121.9z"/>
<path class="st0" d="M1064.6,2823.1l-332.3,332.3c-12,12-31.4,12-43.4,0l-0.4-0.4c-12-12-12-31.4,0-43.4l332.3-332.3
	c12-12,31.4-12,43.3,0c0,0,0,0,0,0l0,0l0.4,0.4C1074.9,2791.4,1073.5,2810.2,1064.6,2823.1z"/>
<path class="st0" d="M605.3,3282.4L273,3614.6c-12,12-31.4,12-43.4,0l-0.4-0.4c-12-12-12-31.4,0-43.4l332.3-332.3
	c12-12,31.4-12,43.4,0l0.4,0.4C617.3,3251,617.3,3270.4,605.3,3282.4C605.3,3282.3,605.3,3282.3,605.3,3282.4L605.3,3282.4
	L605.3,3282.4z"/>
<path class="st0" d="M1545.1,2254.9l0.8-0.8c12-12,31.4-12,43.4,0l0.4,0.4c12,12,12,31.4,0,43.4l-0.8,0.8c-12,12-31.4,12-43.4,0
	l-0.4-0.4C1533.2,2286.3,1533.2,2266.9,1545.1,2254.9z"/>
<path class="st0" d="M1204.6,2683l-0.8,0.8c-12,12-31.4,12-43.4,0l-0.4-0.4c-12-12-12-31.4,0-43.4l0.8-0.8c12-12,31.4-12,43.4,0
	l0.4,0.4C1216.6,2651.6,1216.6,2671,1204.6,2683z"/>
<path class="st0" d="M2063.6,2606.9l100.5-100.5c12-12,31.4-12,43.4,0l0.4,0.4c12,12,12,31.4,0,43.4l-100.5,100.5
	c-12,12-31.4,12-43.4,0l-0.4-0.4C2051.6,2638.2,2051.6,2618.8,2063.6,2606.9z"/>
<path class="st0" d="M762.2,3908.3l332.3-332.3c12-12,31.4-12,43.3,0c0,0,0,0,0,0l0,0l0.4,0.4c12,12,12,31.4,0,43.4L806,3952.1
	c-12,12-31.4,12-43.3,0c0,0,0,0,0,0l0,0l-0.4-0.4C750.2,3939.7,750.2,3920.3,762.2,3908.3C762.2,3908.3,762.2,3908.3,762.2,3908.3
	L762.2,3908.3L762.2,3908.3z"/>
<path class="st0" d="M1421.8,3248.8l332.2-332.3c12-12,31.4-12,43.3,0c0,0,0,0,0,0l0,0l0.4,0.4c12,12,12,31.4,0,43.4l-332.3,332.2
	c-12,12-31.4,12-43.3,0c0,0,0,0,0,0l0,0l-0.4-0.4C1409.8,3280.1,1409.8,3260.7,1421.8,3248.8
	C1421.7,3248.8,1421.7,3248.8,1421.8,3248.8L1421.8,3248.8L1421.8,3248.8z"/>
<path class="st0" d="M1930.7,2739.8l0.8-0.8c12-12,31.4-12,43.4,0l0.4,0.4c12,12,12,31.4,0,43.4l-0.8,0.8c-12,12-31.4,12-43.4,0
	l-0.4-0.4C1918.7,2771.2,1918.7,2751.8,1930.7,2739.8z"/>
<path class="st0" d="M1718.3,3169.8l100.5-100.5c12-12,31.4-12,43.4,0l0.4,0.4c12,12,12,31.4,0,43.4l-100.5,100.5
	c-12,12-31.4,12-43.4,0l-0.4-0.4C1706.3,3201.2,1706.3,3181.8,1718.3,3169.8z"/>
<path class="st0" d="M2250,2638.1l100.5-100.5c12-12,31.4-12,43.4,0l0.4,0.4c12,12,12,31.4,0,43.4l-100.5,100.5
	c-12,12-31.4,12-43.4,0l-0.4-0.4C2238,2669.5,2238,2650.1,2250,2638.1z"/>
<path class="st0" d="M1419.1,3556.6l-332.3,332.3c-12,12-31.4,12-43.4,0l-0.4-0.4c-12-12-12-31.4,0-43.4l332.3-332.3
	c12-12,31.4-12,43.4,0l0.4,0.4C1431,3525.2,1431,3544.7,1419.1,3556.6z"/>
<path class="st0" d="M1628.4,3259.6l0.8-0.8c12-12,31.4-12,43.4,0l0.4,0.4c12,12,12,31.4,0,43.3c0,0,0,0,0,0l0,0l-0.8,0.8
	c-12,12-31.4,12-43.4,0l-0.4-0.4C1616.5,3291,1616.5,3271.6,1628.4,3259.6z"/>
<path class="st0" d="M1967.1,3226.2l-100.5,100.5c-12,12-31.4,12-43.3,0c0,0,0,0,0,0l0,0l-0.4-0.4c-12-12-12-31.4,0-43.4
	l100.5-100.5c12-12,31.4-12,43.4,0l0.4,0.4C1977.5,3194.5,1976.1,3213.3,1967.1,3226.2z"/>
<path class="st0" d="M2142.2,2963.5l332.3-332.3c12-12,31.4-12,43.4,0l0.4,0.4c12,12,12,31.4,0,43.3c0,0,0,0,0,0l0,0L2186,3007.3
	c-12,12-31.4,12-43.3,0c0,0,0,0,0,0l0,0l-0.4-0.4C2130.2,2994.9,2130.2,2975.5,2142.2,2963.5z"/>
<path class="st0" d="M2055.6,3050.1l0.8-0.7c12-12,31.4-12,43.4,0l0.4,0.4c12,12,12,31.4,0,43.4l-0.7,0.7c-12,12-31.4,12-43.4,0
	l-0.4-0.4C2043.6,3081.5,2043.6,3062.1,2055.6,3050.1z"/>
<path class="st0" d="M1608.3,3585l-0.8,0.8c-12,12-31.4,12-43.4,0l-0.4-0.4c-12-12-12-31.4,0-43.3c0,0,0,0,0,0l0,0l0.7-0.8
	c12-12,31.4-12,43.4,0l0.4,0.4C1620.2,3553.6,1620.2,3573,1608.3,3585C1608.3,3585,1608.3,3585,1608.3,3585z"/>
<path class="st0" d="M1784.1,3626.8l-100.5,100.5c-12,12-31.4,12-43.3,0c0,0,0,0,0,0l0,0l-0.4-0.4c-12-12-12-31.4,0-43.4
	l100.5-100.5c12-12,31.4-12,43.4,0l0.4,0.4C1796.1,3595.4,1796.1,3614.8,1784.1,3626.8L1784.1,3626.8z"/>
<path class="st0" d="M1867.3,3456l332.3-332.3c12-12,31.4-12,43.4,0l0.4,0.4c12,12,12,31.4,0,43.3c0,0,0,0,0,0l0,0l-332.2,332.3
	c-12,12-31.4,12-43.4,0l-0.4-0.4C1857,3487.7,1858.4,3468.9,1867.3,3456z"/>
<path class="st0" d="M1531,3792.5l0.7-0.7c12-12,31.4-12,43.4,0l0.4,0.4c12,12,12,31.4,0,43.4l-0.7,0.7c-12,12-31.4,12-43.4,0
	l-0.4-0.4C1519,3823.9,1519,3804.5,1531,3792.5z"/>
<path class="st0" d="M2442.3,2881l100.5-100.5c12-12,31.4-12,43.4,0l0.4,0.4c12,12,12,31.4,0,43.4l-100.5,100.5
	c-12,12-31.4,12-43.4,0l-0.4-0.4C2430.3,2912.4,2430.3,2893,2442.3,2881z"/>
<path class="st0" d="M2650.9,2672.2l0.8-0.7c12-12,31.4-12,43.4,0l0.4,0.4c12,12,12,31.4,0,43.4l-0.7,0.7c-12,12-31.4,12-43.4,0
	l-0.4-0.4C2638.9,2703.6,2638.9,2684.2,2650.9,2672.2z"/>
<path class="st0" d="M2928.3,3350.7l-100.5,100.5c-12,12-31.4,12-43.4,0l-0.4-0.4c-12-12-12-31.4,0-43.4l100.5-100.5
	c12-12,31.4-12,43.4,0l0.4,0.4C2940.3,3319.3,2940.3,3338.7,2928.3,3350.7C2928.3,3350.7,2928.3,3350.7,2928.3,3350.7L2928.3,3350.7
	L2928.3,3350.7z"/>
<path class="st0" d="M3018.1,3260.9l-0.8,0.8c-12,12-31.4,12-43.4,0l-0.4-0.4c-12-12-12-31.4,0-43.4l0.8-0.8c12-12,31.4-12,43.4,0
	l0.4,0.4C3030.1,3229.5,3030.1,3248.9,3018.1,3260.9C3018.1,3260.9,3018.1,3260.9,3018.1,3260.9L3018.1,3260.9L3018.1,3260.9z"/>
<path class="st0" d="M2877.5,3098.6l100.5-100.5c12-12,31.4-12,43.4,0l0.4,0.4c12,12,12,31.4,0,43.4l-100.5,100.5
	c-12,12-31.4,12-43.4,0l-0.4-0.4C2865.5,3130,2865.5,3110.6,2877.5,3098.6z"/>
<path class="st0" d="M2633.2,3343l0.8-0.8c12-12,31.4-12,43.4,0l0.4,0.4c12,12,12,31.4,0,43.4l-0.8,0.8c-12,12-31.4,12-43.4,0
	l-0.4-0.4C2621.2,3374.4,2621.2,3355,2633.2,3343C2633.2,3343,2633.2,3343,2633.2,3343L2633.2,3343L2633.2,3343z"/>
<path class="st0" d="M1987.2,3771.4l332.3-332.3c12-12,31.4-12,43.4,0l0.4,0.4c12,12,12,31.4,0,43.4L2031,3815.1
	c-12,12-31.4,12-43.4,0l-0.4-0.4C1975.2,3802.7,1975.2,3783.3,1987.2,3771.4z"/>
<path class="st0" d="M2567.5,3191l100.5-100.5c12-12,31.4-12,43.4,0l0.4,0.4c12,12,12,31.4,0,43.4l-100.5,100.5
	c-12,12-31.4,12-43.4,0l-0.4-0.4C2555.5,3222.4,2555.5,3203,2567.5,3191z"/>
<path class="st0" d="M2757.1,3001.6l0.8-0.7c12-12,31.4-12,43.4,0l0.4,0.4c12,12,12,31.4,0,43.4l-0.8,0.7c-12,12-31.4,12-43.4,0
	l-0.4-0.4C2745.1,3033,2745.1,3013.6,2757.1,3001.6z"/>
<path class="st0" d="M2283.6,3344.9l-100.5,100.5c-12,12-31.4,12-43.4,0l-0.4-0.4c-12-12-12-31.4,0-43.3c0,0,0,0,0,0l0,0
	l100.5-100.5c12-12,31.4-12,43.3,0c0,0,0,0,0,0l0,0l0.4,0.4C2295.6,3313.5,2295.6,3332.9,2283.6,3344.9z"/>
<path class="st0" d="M2548.5,2992.4l100.5-100.5c12-12,31.4-12,43.4,0l0.4,0.4c12,12,12,31.4,0,43.4l-100.5,100.5
	c-12,12-31.4,12-43.4,0l-0.4-0.4C2536.5,3023.7,2536.5,3004.3,2548.5,2992.4z"/>
<path class="st0" d="M2415.6,3125.4l0.8-0.8c12-12,31.4-12,43.4,0l0.4,0.4c12,12,12,31.4,0,43.3c0,0,0,0,0,0l0,0l-0.8,0.8
	c-12,12-31.4,12-43.3,0c0,0,0,0,0,0l0,0l-0.4-0.4C2403.6,3156.7,2403.6,3137.3,2415.6,3125.4z"/>
<path class="st0" d="M2075,3553.5l-0.8,0.8c-12,12-31.4,12-43.3,0c0,0,0,0,0,0l0,0l-0.4-0.4c-12-12-12-31.4,0-43.4l0.8-0.7
	c12-12,31.4-12,43.4,0l0,0l0.4,0.4C2087,3522.1,2087,3541.5,2075,3553.5C2075,3553.5,2075,3553.5,2075,3553.5L2075,3553.5
	L2075,3553.5z"/>
<path class="st0" d="M3042.9,3586.1l100.5-100.5c12-12,31.4-12,43.4,0l0.4,0.4c12,12,12,31.4,0,43.3c0,0,0,0,0,0l0,0l-100.5,100.5
	c-12,12-31.4,12-43.3,0c0,0,0,0,0,0l0,0l-0.4-0.4C3030.9,3617.5,3030.9,3598.1,3042.9,3586.1z"/>
<path class="st0" d="M2909.9,3719.1l0.8-0.8c12-12,31.4-12,43.3,0c0,0,0,0,0,0l0,0l0.4,0.4c12,12,12,31.4,0,43.4l-0.8,0.8
	c-12,12-31.4,12-43.4,0l-0.4-0.4C2897.9,3750.5,2897.9,3731.1,2909.9,3719.1C2909.9,3719.1,2909.9,3719.1,2909.9,3719.1
	L2909.9,3719.1L2909.9,3719.1z"/>
<path class="st0" d="M3446.8,3835l100.5-100.5c12-12,31.4-12,43.4,0l0.4,0.4c12,12,12,31.4,0,43.4l-100.5,100.5
	c-12,12-31.4,12-43.4,0l-0.4-0.4C3434.8,3866.3,3434.8,3846.9,3446.8,3835z"/>
<path class="st0" d="M2795,3616.3l332.3-332.3c12-12,31.4-12,43.4,0l0.4,0.4c12,12,12,31.4,0,43.4l-332.3,332.3
	c-12,12-31.4,12-43.4,0l-0.4-0.4C2783.1,3647.7,2783,3628.3,2795,3616.3z"/>
<path class="st0" d="M2752.9,3746l-0.8,0.8c-12,12-31.4,12-43.3,0c0,0,0,0,0,0l0,0l-0.4-0.4c-12-12-12-31.4,0-43.4l0,0l0.7-0.7
	c12-12,31.4-12,43.4,0l0,0l0.4,0.4C2764.9,3714.6,2764.9,3734,2752.9,3746C2752.9,3746,2752.9,3746,2752.9,3746z"/>
<path class="st0" d="M3203.9,3642.6l100.5-100.5c12-12,31.4-12,43.4,0l0.4,0.4c12,12,12,31.4,0,43.4l-100.5,100.5
	c-12,12-31.4,12-43.4,0l-0.4-0.4C3192,3674,3192,3654.6,3203.9,3642.6z"/>
<path class="st0" d="M3412.5,3434l0.8-0.7c12-12,31.4-12,43.4,0l0.4,0.4c12,12,12,31.4,0,43.4l-0.8,0.7c-12,12-31.4,12-43.4,0
	l-0.4-0.4C3400.5,3465.4,3400.5,3446,3412.5,3434z"/>
<path class="st0" d="M3260.5,3803.7l100.5-100.5c12-12,31.4-12,43.3,0c0,0,0,0,0,0l0,0l0.4,0.4c12,12,12,31.4,0,43.4l-100.5,100.5
	c-12,12-31.4,12-43.4,0l-0.4-0.4C3248.5,3835.1,3248.5,3815.7,3260.5,3803.7C3260.5,3803.7,3260.5,3803.7,3260.5,3803.7
	L3260.5,3803.7L3260.5,3803.7z"/>
<path class="st0" d="M3435.6,3628.5l100.5-100.5c12-12,31.4-12,43.4,0l0.4,0.4c12,12,12,31.4,0,43.4l-100.5,100.5
	c-12,12-31.4,12-43.4,0l-0.4-0.4C3423.7,3659.9,3423.7,3640.5,3435.6,3628.5C3435.6,3628.5,3435.6,3628.5,3435.6,3628.5
	L3435.6,3628.5L3435.6,3628.5z"/>
<path class="st0" d="M3176.1,3888.1l0.8-0.8c12-12,31.4-12,43.4,0l0.4,0.4c12,12,12,31.4,0,43.4l-0.8,0.8c-12,12-31.4,12-43.4,0
	l-0.4-0.4C3164.1,3919.5,3164.1,3900,3176.1,3888.1C3176.1,3888.1,3176.1,3888.1,3176.1,3888.1L3176.1,3888.1L3176.1,3888.1z"/>
<path class="st0" d="M3738.9,3760.5l0.8-0.8c12-12,31.4-12,43.4,0l0.4,0.4c12,12,12,31.4,0,43.4l-0.8,0.8c-12,12-31.4,12-43.3,0
	c0,0,0,0,0,0l0,0l-0.4-0.4C3726.9,3791.9,3726.9,3772.4,3738.9,3760.5z"/>
<path class="st0" d="M2543.1,1997.4l-100.5,100.5c-12,12-31.4,12-43.3,0c0,0,0,0,0,0l0,0l-0.4-0.4c-12-12-12-31.4,0-43.4
	l100.5-100.5c12-12,31.4-12,43.4,0l0.4,0.4C2555.1,1966,2555.1,1985.4,2543.1,1997.4z"/>
<path class="st0" d="M3844.5,696l-332.3,332.3c-12,12-31.4,12-43.3,0c0,0,0,0,0,0l0,0l-0.4-0.4c-12-12-12-31.4,0-43.4l332.2-332.3
	c12-12,31.4-12,43.4,0l0.4,0.4C3856.5,664.6,3856.5,684,3844.5,696C3844.5,696,3844.5,696,3844.5,696L3844.5,696L3844.5,696z"/>
<path class="st0" d="M3302.7,1237.8l-266.6,266.6c-12,12-31.4,12-43.4,0l-0.4-0.4c-12-12-12-31.4,0-43.4l266.6-266.6
	c12-12,31.4-12,43.4,0l0.4,0.4c12,11.9,12.1,31.3,0.2,43.3l0,0C3302.9,1237.8,3302.8,1237.8,3302.7,1237.8z"/>
<path class="st0" d="M2631.6,1821.5l0.8-0.7c12-12,31.4-12,43.4,0l0.4,0.4c12,12,12,31.4,0,43.4l-0.8,0.7c-12,12-31.4,12-43.4,0
	l-0.4-0.4C2619.6,1852.9,2619.6,1833.5,2631.6,1821.5z"/>
<path class="st0" d="M3478.6,756.7l332.3-332.3c12-12,31.4-12,43.4,0l0.4,0.4c12,12,12,31.4,0,43.4l-332.3,332.3
	c-12,12-31.4,12-43.4,0l-0.4-0.4C3466.6,788,3466.6,768.6,3478.6,756.7z"/>
<path class="st0" d="M2379.8,1855.5l100.5-100.5c12-12,31.4-12,43.4,0l0.4,0.4c12,12,12,31.4,0,43.4l-100.5,100.5
	c-12,12-31.4,12-43.4,0l-0.4-0.4C2367.8,1886.9,2367.8,1867.5,2379.8,1855.5z"/>
<path class="st0" d="M2602.2,1633.1l332.3-332.2c12-12,31.4-12,43.3,0c0,0,0,0,0,0l0,0l0.4,0.4c12,12,12,31.4,0,43.4L2646,1676.9
	c-12,12-31.4,12-43.3,0c0,0,0,0,0,0l0,0l-0.4-0.4C2590.2,1664.5,2590.2,1645.1,2602.2,1633.1L2602.2,1633.1L2602.2,1633.1z"/>
<path class="st0" d="M3896.8,338.5l0.8-0.7c12-12,31.4-12,43.3,0c0,0,0,0,0,0l0,0l0.4,0.4c12,12,12,31.4,0,43.4l-0.8,0.8
	c-12,12-31.4,12-43.3,0c0,0,0,0,0,0l0,0l-0.4-0.4C3884.9,369.9,3884.9,350.4,3896.8,338.5L3896.8,338.5L3896.8,338.5z"/>
<path class="st0" d="M2290,1945.3l0.8-0.8c12-12,31.4-12,43.4,0l0.4,0.4c12,12,12,31.4,0,43.4l-0.8,0.8c-12,12-31.4,12-43.4,0
	l-0.4-0.4C2278,1976.7,2278,1957.3,2290,1945.3z"/>
<path class="st0" d="M3912.8,192.5L3812.3,293c-12,12-31.4,12-43.4,0l-0.4-0.4c-12-12-12-31.4,0-43.4L3869,148.7
	c12-12,31.4-12,43.4,0l0.4,0.4C3924.8,161.1,3924.8,180.5,3912.8,192.5z"/>
<path class="st0" d="M2088.4,1929.2l100.5-100.5c12-12,31.4-12,43.4,0l0.4,0.4c12,12,12,31.4,0,43.4L2132.2,1973
	c-12,12-31.4,12-43.4,0l-0.4-0.4C2076.5,1960.6,2076.5,1941.2,2088.4,1929.2z"/>
<path class="st0" d="M2407.9,1609.8l332.3-332.3c12-12,31.4-12,43.3,0c0,0,0,0,0,0l0,0l0.4,0.4c12,12,12,31.4,0,43.4l-332.3,332.2
	c-12,12-31.4,12-43.3,0c0,0,0,0,0,0l0,0l-0.4-0.4c-12-11.9-12.1-31.3-0.2-43.3c0,0,0,0,0,0l0,0
	C2407.7,1609.8,2407.8,1609.8,2407.9,1609.8C2407.9,1609.8,2407.9,1609.8,2407.9,1609.8z"/>
<path class="st0" d="M2959.8,1057.8l332.3-332.2c12-12,31.4-12,43.3,0c0,0,0,0,0,0l0,0l0.4,0.4c12,12,12,31.4,0,43.4l-332.3,332.2
	c-12,12-31.4,12-43.3,0c0,0,0,0,0,0l0,0l-0.4-0.4C2947.9,1089.2,2947.9,1069.8,2959.8,1057.8z"/>
<path class="st0" d="M2365.7,1739.5l-0.8,0.8c-12,12-31.4,12-43.4,0l-0.4-0.4c-12-12-12-31.4,0-43.3c0,0,0,0,0,0l0,0l0.7-0.8
	c12-12,31.4-12,43.4,0l0.4,0.4C2377.7,1708.2,2377.7,1727.6,2365.7,1739.5C2365.7,1739.5,2365.7,1739.5,2365.7,1739.5z"/>
<path class="st0" d="M2610.2,1277.5l-332.3,332.3c-12,12-31.4,12-43.4,0l-0.4-0.4c-12-12-12-31.4,0-43.4l332.3-332.3
	c12-12,31.4-12,43.4,0l0.4,0.4C2622.1,1246.1,2622.1,1265.5,2610.2,1277.5z"/>
<path class="st0" d="M3402.9,397.1l100.5-100.5c12-12,31.4-12,43.4,0l0.4,0.4c12,12,12,31.4,0,43.4l-100.5,100.5
	c-12,12-31.4,12-43.4,0l-0.4-0.4C3390.9,428.5,3390.9,409.1,3402.9,397.1z"/>
<path class="st0" d="M3198.6,689l-332.3,332.2c-12,12-31.4,12-43.3,0c0,0,0,0,0,0l0,0l-0.4-0.4c-12-12-12-31.4,0-43.4l0,0
	l332.2-332.3c12-12,31.4-12,43.4,0l0,0l0.4,0.4C3210.6,657.6,3210.6,677,3198.6,689C3198.6,689,3198.6,689,3198.6,689L3198.6,689
	L3198.6,689z"/>
<path class="st0" d="M3679.2,120.9l0.8-0.8c12-12,31.4-12,43.4,0l0.4,0.4c12,12,12,31.4,0,43.4l-0.8,0.8c-12,12-31.4,12-43.4,0
	l-0.4-0.4C3667.2,152.2,3667.2,132.8,3679.2,120.9z"/>
<path class="st0" d="M3338.7,549l-0.8,0.8c-12,12-31.4,12-43.4,0l-0.4-0.4c-12-12-12-31.4,0-43.4l0.8-0.8c12-12,31.4-12,43.4,0
	l0.4,0.4C3350.7,517.6,3350.7,537,3338.7,549z"/>
<path class="st0" d="M2020.1,1780l100.5-100.5c12-12,31.4-12,43.4,0l0.4,0.4c12,12,12,31.4,0,43.4l-100.5,100.5
	c-12,12-31.4,12-43.4,0l-0.4-0.4C2008.1,1811.4,2008.1,1792,2020.1,1780z"/>
<path class="st0" d="M1955.8,1931.8l-0.8,0.8c-12,12-31.4,12-43.3,0c0,0,0,0,0,0l0,0l-0.4-0.4c-12-12-12-31.4,0-43.4l0.8-0.8
	c12-12,31.4-12,43.4,0l0.4,0.4C1967.8,1900.4,1967.8,1919.8,1955.8,1931.8z"/>
<path class="st0" d="M3182.5,1575.6L3082,1676.1c-12,12-31.4,12-43.3,0c0,0,0,0,0,0l0,0l-0.4-0.4c-12-12-12-31.4,0-43.4l0,0
	l100.5-100.5c12-12,31.4-12,43.4,0l0.4,0.4C3194.5,1544.2,3194.5,1563.6,3182.5,1575.6z"/>
<path class="st0" d="M2398.3,2359.8l-100.5,100.5c-12,12-31.4,12-43.4,0l-0.4-0.4c-12-12-12-31.4,0-43.4l100.5-100.5
	c12-12,31.4-12,43.3,0c0,0,0,0,0,0l0,0l0.4,0.4C2410.3,2328.4,2410.3,2347.8,2398.3,2359.8
	C2398.3,2359.8,2398.3,2359.8,2398.3,2359.8L2398.3,2359.8z"/>
<path class="st0" d="M2833.9,1924.2l-332.2,332.3c-12,12-31.4,12-43.4,0l0,0l-0.4-0.4c-12-12-12-31.4,0-43.3c0,0,0,0,0,0l0,0
	l332.2-332.3c12-12,31.4-12,43.4,0l0,0l0.4,0.4C2845.9,1892.8,2845.9,1912.2,2833.9,1924.2L2833.9,1924.2z"/>
<path class="st0" d="M3555.8,1114.7l332.3-332.2c12-12,31.4-12,43.3,0c0,0,0,0,0,0l0,0l0.4,0.4c12,12,12,31.4,0,43.4l-332.3,332.2
	c-12,12-31.4,12-43.3,0c0,0,0,0,0,0l0,0l-0.4-0.4C3543.9,1146.1,3543.9,1126.6,3555.8,1114.7z"/>
<path class="st0" d="M3272.4,1485.7l-0.8,0.8c-12,12-31.4,12-43.3,0c0,0,0,0,0,0l0,0l-0.4-0.4c-12-12-12-31.4,0-43.4l0,0l0.7-0.7
	c12-12,31.4-12,43.4,0l0,0l0.4,0.4C3284.3,1454.3,3284.3,1473.8,3272.4,1485.7C3272.4,1485.7,3272.4,1485.7,3272.4,1485.7z"/>
<path class="st0" d="M3788.8,1099.3l100.5-100.5c12-12,31.4-12,43.4,0l0.4,0.4c12,12,12,31.4,0,43.4l-100.5,100.5
	c-12,12-31.4,12-43.4,0l-0.4-0.4C3776.8,1130.7,3776.8,1111.3,3788.8,1099.3z"/>
<path class="st0" d="M2599.6,2376.1l-100.5,100.5c-12,12-31.4,12-43.4,0l-0.4-0.4c-12-12-12-31.4,0-43.4l100.5-100.5
	c12-12,31.4-12,43.3,0c0,0,0,0,0,0l0,0l0.4,0.4C2611.6,2344.6,2611.7,2364,2599.6,2376.1L2599.6,2376.1
	C2599.7,2376,2599.7,2376,2599.6,2376.1z"/>
<path class="st0" d="M3553.1,1422.6l-332.3,332.3c-12,12-31.4,12-43.4,0l-0.4-0.4c-12-12-12-31.4,0-43.4l332.3-332.3
	c12-12,31.4-12,43.4,0l0.4,0.4C3565.1,1391.2,3565.1,1410.6,3553.1,1422.6z"/>
<path class="st0" d="M2799.4,2088.6l0.8-0.7c12-12,31.4-12,43.4,0l0.4,0.4c12,12,12,31.4,0,43.4l-0.8,0.7c-12,12-31.4,12-43.4,0
	l-0.4-0.4C2787.4,2120,2787.4,2100.6,2799.4,2088.6z"/>
<path class="st0" d="M3699,1189.1l0.8-0.8c12-12,31.4-12,43.3,0c0,0,0,0,0,0l0,0l0.4,0.4c12,12,12,31.4,0,43.4l-0.8,0.7
	c-12,12-31.4,12-43.3,0c0,0,0,0,0,0l0,0l-0.4-0.4C3687,1220.5,3687,1201.1,3699,1189.1z"/>
<path class="st0" d="M3490,1703.3l-332.3,332.3c-12,12-31.4,12-43.4,0l-0.4-0.4c-12-12-12-31.4,0-43.4l332.3-332.3
	c12-12,31.4-12,43.4,0l0.4,0.4C3501.9,1671.9,3502,1691.3,3490,1703.3C3490,1703.3,3490,1703.3,3490,1703.3L3490,1703.3L3490,1703.3
	z"/>
<path class="st0" d="M2819.8,2373.5L2719.3,2474c-12,12-31.4,12-43.3,0c0,0,0,0,0,0l0,0l-0.4-0.4c-12-12-12-31.4,0-43.4l100.5-100.5
	c12-12,31.4-12,43.4,0l0.4,0.4C2831.8,2342.1,2831.8,2361.5,2819.8,2373.5C2819.8,2373.5,2819.8,2373.5,2819.8,2373.5L2819.8,2373.5
	L2819.8,2373.5z"/>
<path class="st0" d="M2909.6,2283.7l-0.8,0.8c-12,12-31.4,12-43.3,0c0,0,0,0,0,0l0,0l-0.4-0.4c-12-12-12-31.4,0-43.4l0.8-0.8
	c12-12,31.4-12,43.4,0l0.4,0.4C2921.6,2252.3,2921.6,2271.7,2909.6,2283.7z"/>
<path class="st0" d="M3918.2,1492.7l-100.5,100.5c-12,12-31.4,12-43.4,0l-0.4-0.4c-12-12-12-31.4,0-43.4l100.5-100.5
	c12-12,31.4-12,43.4,0l0.4,0.4C3930.2,1461.3,3930.2,1480.7,3918.2,1492.7C3918.2,1492.7,3918.2,1492.7,3918.2,1492.7L3918.2,1492.7
	L3918.2,1492.7z"/>
<path class="st0" d="M2928.6,2482.3l-100.5,100.5c-12,12-31.4,12-43.4,0l-0.4-0.4c-12-12-12-31.4,0-43.4l100.5-100.5
	c12-12,31.4-12,43.4,0l0.4,0.4C2940.6,2450.9,2940.6,2470.3,2928.6,2482.3L2928.6,2482.3L2928.6,2482.3z"/>
<path class="st0" d="M3569.6,1841.3l-332.3,332.3c-12,12-31.4,12-43.4,0l-0.4-0.4c-12-12-12-31.4,0-43.4l332.3-332.3
	c12-12,31.4-12,43.4,0l0.4,0.4C3581.5,1809.9,3581.5,1829.4,3569.6,1841.3z"/>
<path class="st0" d="M3061.6,2349.3l-0.8,0.8c-12,12-31.4,12-43.4,0l-0.4-0.4c-12-12-12-31.4,0-43.4l0.8-0.8c12-12,31.4-12,43.3,0
	c0,0,0,0,0,0l0,0l0.4,0.4C3073.5,2318,3073.5,2337.4,3061.6,2349.3z"/>
<path class="st0" d="M3709.6,1701.3l-0.8,0.7c-12,12-31.4,12-43.3,0c0,0,0,0,0,0l0,0l-0.4-0.4c-12-12-12-31.4,0-43.3c0,0,0,0,0,0
	l0,0l0.8-0.8c12-12,31.4-12,43.3,0c0,0,0,0,0,0l0,0l0.4,0.4C3721.6,1669.9,3721.6,1689.3,3709.6,1701.3z"/>
<path class="st0" d="M3412.4,2866.7l-100.5,100.5c-12,12-31.4,12-43.4,0l-0.4-0.4c-12-12-12-31.4,0-43.4l100.5-100.5
	c12-12,31.4-12,43.4,0l0.4,0.4C3424.3,2835.3,3424.3,2854.7,3412.4,2866.7C3412.4,2866.7,3412.4,2866.7,3412.4,2866.7L3412.4,2866.7
	L3412.4,2866.7z"/>
<path class="st0" d="M3172.6,3019.1l0.8-0.7c12-12,31.4-12,43.4,0l0.4,0.4c12,12,12,31.4,0,43.4l-0.8,0.7c-12,12-31.4,12-43.4,0
	l-0.4-0.4C3160.6,3050.5,3160.6,3031,3172.6,3019.1z"/>
<path class="st0" d="M3633.7,2645.4l-0.8,0.8c-12,12-31.4,12-43.4,0l-0.4-0.4c-12-12-12-31.4,0-43.4l0.8-0.8c12-12,31.4-12,43.4,0
	l0.4,0.4C3645.6,2614,3645.6,2633.4,3633.7,2645.4C3633.7,2645.3,3633.7,2645.3,3633.7,2645.4L3633.7,2645.4L3633.7,2645.4z"/>
<path class="st0" d="M3250.2,2725.9l100.5-100.5c12-12,31.4-12,43.4,0l0.4,0.4c12,12,12,31.4,0,43.4L3294,2769.7
	c-12,12-31.4,12-43.4,0l-0.4-0.4C3238.2,2757.3,3238.2,2737.9,3250.2,2725.9z"/>
<path class="st0" d="M3472.6,2503.5l332.3-332.3c12-12,31.4-12,43.4,0l0.4,0.4c12,12,12,31.4,0,43.4l-332.3,332.3
	c-12,12-31.4,12-43.4,0l-0.4-0.4c-12-11.9-12.1-31.3-0.2-43.3c0,0,0,0,0,0l0,0C3472.4,2503.5,3472.5,2503.5,3472.6,2503.5
	C3472.6,2503.5,3472.6,2503.5,3472.6,2503.5z"/>
<path class="st0" d="M3160.4,2815.8l0.8-0.8c12-12,31.4-12,43.4,0l0.4,0.4c12,12,12,31.4,0,43.3c0,0,0,0,0,0l0,0l-0.8,0.8
	c-12,12-31.4,12-43.4,0l0,0l-0.4-0.4C3148.4,2847.1,3148.4,2827.7,3160.4,2815.8z"/>
<path class="st0" d="M3103.2,2742.9l-100.5,100.5c-12,12-31.4,12-43.4,0l-0.4-0.4c-12-12-12-31.4,0-43.4l100.5-100.5
	c12-12,31.4-12,43.4,0l0,0l0.4,0.4C3115.1,2711.5,3115.1,2731,3103.2,2742.9C3103.2,2742.9,3103.2,2742.9,3103.2,2742.9
	L3103.2,2742.9L3103.2,2742.9z"/>
<path class="st0" d="M3278.3,2480.2l332.3-332.2c12-12,31.4-12,43.4,0l0.4,0.4c12,12,12,31.4,0,43.3c0,0,0,0,0,0l0,0L3322.1,2524
	c-12,12-31.4,12-43.4,0l-0.4-0.4C3266.3,2511.6,3266.3,2492.2,3278.3,2480.2z"/>
<path class="st0" d="M3236.2,2610l-0.8,0.8c-12,12-31.4,12-43.3,0c0,0,0,0,0,0l0,0l-0.4-0.4c-12-12-12-31.4,0-43.3c0,0,0,0,0,0l0,0
	l0.8-0.8c12-12,31.4-12,43.4,0l0.4,0.4C3248.1,2578.6,3248.1,2598,3236.2,2610z"/>
<path class="st0" d="M3480.6,2147.9l-332.3,332.3c-12,12-31.4,12-43.4,0l-0.4-0.4c-12-12-12-31.4,0-43.4l332.3-332.3
	c12-12,31.4-12,43.4,0l0.4,0.4C3492.6,2116.5,3492.6,2135.9,3480.6,2147.9z"/>
<path class="st0" d="M2890.5,2650.4l100.5-100.5c12-12,31.4-12,43.4,0l0.4,0.4c12,12,12,31.4,0,43.4l-100.5,100.5
	c-12,12-31.4,12-43.4,0l-0.4-0.4C2878.5,2681.8,2878.5,2662.4,2890.5,2650.4z"/>
<path class="st0" d="M2826.3,2802.2l-0.8,0.7c-12,12-31.4,12-43.3,0c0,0,0,0,0,0l0,0l-0.4-0.4c-12-12-12-31.4,0-43.4l0.8-0.8
	c12-12,31.4-12,43.3,0c0,0,0,0,0,0l0,0l0.4,0.4C2838.2,2770.9,2838.2,2790.3,2826.3,2802.2z"/>
<path class="st0" d="M3526.9,3102l100.5-100.5c12-12,31.4-12,43.4,0l0.4,0.4c12,12,12,31.4,0,43.4l-100.5,100.5
	c-12,12-31.4,12-43.4,0l-0.4-0.4C3514.9,3133.4,3514.9,3114,3526.9,3102z"/>
<path class="st0" d="M3437.1,3191.9l0.8-0.8c12-12,31.4-12,43.4,0l0.4,0.4c12,12,12,31.4,0,43.3c0,0,0,0,0,0l0,0l-0.8,0.8
	c-12,12-31.4,12-43.4,0l-0.4-0.4C3425.1,3223.2,3425.1,3203.8,3437.1,3191.9z"/>
<path class="st0" d="M3313.8,3315.1l0.8-0.8c12-12,31.4-12,43.4,0l0.4,0.4c12,12,12,31.4,0,43.3c0,0,0,0,0,0l0,0l-0.8,0.8
	c-12,12-31.4,12-43.4,0l-0.4-0.4C3301.8,3346.5,3301.8,3327.1,3313.8,3315.1z"/>
<path class="st0" d="M3749,2879.9l0.8-0.8c12-12,31.4-12,43.4,0l0.4,0.4c12,12,12,31.4,0,43.3c0,0,0,0,0,0l0,0l-0.8,0.8
	c-12,12-31.4,12-43.4,0l-0.4-0.4C3737,2911.3,3737,2891.9,3749,2879.9z"/>
<path class="st0" d="M3796.5,3572.9l-100.5,100.5c-12,12-31.4,12-43.4,0l-0.4-0.4c-12-12-12-31.4,0-43.4l100.5-100.5
	c12-12,31.4-12,43.3,0c0,0,0,0,0,0l0,0l0.4,0.4C3808.4,3541.5,3808.4,3560.9,3796.5,3572.9z"/>
<path class="st0" d="M3472.6,3026.3l-100.5,100.5c-12,12-31.4,12-43.4,0l-0.4-0.4c-12-12-12-31.4,0-43.3c0,0,0,0,0,0l0,0
	l100.5-100.5c12-12,31.4-12,43.3,0c0,0,0,0,0,0l0,0l0.4,0.4C3484.6,2995,3484.6,3014.4,3472.6,3026.3z"/>
<path class="st0" d="M3694.1,2804.9l-0.7,0.7c-12,12-31.4,12-43.4,0l-0.4-0.4c-12-12-12-31.4,0-43.3c0,0,0,0,0,0l0,0l0.8-0.8
	c12-12,31.4-12,43.3,0c0,0,0,0,0,0l0,0l0.4,0.4C3706,2773.5,3706,2792.9,3694.1,2804.9L3694.1,2804.9L3694.1,2804.9z"/>
<path class="st0" d="M3562.4,2936.5l-0.8,0.8c-12,12-31.4,12-43.4,0l-0.4-0.4c-12-12-12-31.4,0-43.3c0,0,0,0,0,0l0,0l0.8-0.8
	c12-12,31.4-12,43.4,0l0.4,0.4C3574.4,2905.1,3574.4,2924.5,3562.4,2936.5z"/>
<path class="st0" d="M3690.2,3243.9l-100.5,100.5c-12,12-31.4,12-43.4,0l-0.4-0.4c-12-12-12-31.4,0-43.4l100.5-100.5
	c12-12,31.4-12,43.4,0l0.4,0.4C3702.2,3212.5,3702.2,3231.9,3690.2,3243.9C3690.2,3243.9,3690.2,3243.9,3690.2,3243.9L3690.2,3243.9
	L3690.2,3243.9z"/>
<path class="st0" d="M3823.2,3111l-0.8,0.8c-12,12-31.4,12-43.4,0l-0.4-0.4c-12-12-12-31.4,0-43.4l0.8-0.8c12-12,31.4-12,43.3,0
	c0,0,0,0,0,0l0,0l0.4,0.4C3835.1,3079.6,3835.1,3099,3823.2,3111z"/>
<path class="st0" d="M3744.5,3319.6l100.5-100.5c12-12,31.4-12,43.4,0l0.4,0.4c12,12,12,31.4,0,43.4l-100.5,100.5
	c-12,12-31.4,12-43.4,0l-0.4-0.4C3732.5,3351,3732.5,3331.6,3744.5,3319.6z"/>
<path class="st0" d="M3654.7,3409.5l0.8-0.8c12-12,31.4-12,43.3,0c0,0,0,0,0,0l0,0l0.4,0.4c12,12,12,31.4,0,43.4l-0.8,0.7
	c-12,12-31.4,12-43.4,0l0,0l-0.4-0.4C3642.7,3440.9,3642.7,3421.4,3654.7,3409.5C3654.7,3409.5,3654.7,3409.5,3654.7,3409.5
	L3654.7,3409.5L3654.7,3409.5z"/>
<path class="st0" d="M3804.7,0c-3.6,11-0.7,23.1,7.4,31.2l0.4,0.4c12,12,31.4,12,43.4,0L3887.7,0H3804.7z"/>
<path class="st0" d="M3551.6,0l-145.1,145.1c-12,12-12,31.4,0,43.4l0.4,0.4c12,12,31.4,12,43.3,0c0,0,0,0,0,0l0,0L3639.2,0H3551.6z"
	/>
<path class="st0" d="M2259,0c0.1,8.1,3.3,15.8,9,21.4l0.4,0.4c12,12,31.4,12,43.4,0l0.8-0.8c5.6-5.6,8.9-13.2,9-21.1H2259z"/>
<path class="st0" d="M1158,0l-47.1,47.1c-12,12-12,31.4,0,43.4l0.4,0.4c12,12,31.4,12,43.4,0L1245.6,0H1158z"/>
<path class="st0" d="M505.2,0L465,40.2c-12,12-12,31.4,0,43.3c0,0,0,0,0,0l0,0l0.4,0.4c12,12,31.4,12,43.4,0l84-83.9H505.2z"/>
<path class="st0" d="M307.9,0c1.3,5.6,4.1,10.8,8.2,14.8l0.4,0.4c12,12,31.4,12,43.4,0l0,0L375.1,0H307.9z"/>
<path class="st0" d="M280.6,1356.9l-0.4-0.4c-12-12-31.4-12-43.3,0c0,0,0,0,0,0l0,0L0,1593.2v87.6l280.6-280.6
	C292.5,1388.2,292.5,1368.8,280.6,1356.9z"/>
<path class="st0" d="M17.4,967.2l-0.4-0.4c-4.6-4.6-10.6-7.6-17-8.6v61.7c6.3-1,12.1-4,16.7-8.6l0.8-0.8
	C29.4,998.6,29.4,979.2,17.4,967.2z"/>
<path class="st0" d="M125.3,424.1l-0.4-0.4c-12-12-31.4-12-43.4,0L0,505.2v71.7c9.2,0.9,18.3-2.3,24.8-8.8l100.5-100.5
	C137.3,455.5,137.3,436.1,125.3,424.1z"/>
<path class="st0" d="M68.7,45.5L68.3,45c-12-12-31.4-12-43.3,0c0,0,0,0,0,0l0,0L0,70v87.6l68.7-68.8C80.7,76.8,80.7,57.4,68.7,45.5z
	"/>
<path class="st0" d="M242.2,2918.4l-0.4-0.4c-12-12-31.4-12-43.4,0L0,3116.4v87.6l242.2-242.2
	C254.2,2949.8,254.2,2930.4,242.2,2918.4C242.2,2918.4,242.2,2918.4,242.2,2918.4L242.2,2918.4L242.2,2918.4z"/>
<path class="st0" d="M252.4,2690.6l-0.4-0.4c-12-12-31.4-12-43.4,0L0,2898.8v87.6L252.4,2734C264.4,2722,264.4,2702.6,252.4,2690.6
	L252.4,2690.6z"/>
<path class="st0" d="M114.5,2611l-0.4-0.4c-12-12-31.4-12-43.3,0c0,0,0,0,0,0l0,0L0,2681.2v87.6l114.4-114.4
	C126.4,2642.4,126.4,2623,114.5,2611z"/>
<path class="st0" d="M34.8,2473l-0.4-0.4c-9.1-9-22.8-11.5-34.4-6.2v84.9l34.8-34.8C46.8,2504.4,46.8,2485,34.8,2473
	C34.8,2473,34.8,2473,34.8,2473L34.8,2473L34.8,2473z"/>
<path class="st0" d="M78.7,2211.6l-0.4-0.4c-12-12-31.4-12-43.4,0L0,2246v87.6l78.7-78.7C90.6,2243,90.6,2223.6,78.7,2211.6
	C78.7,2211.6,78.7,2211.6,78.7,2211.6L78.7,2211.6L78.7,2211.6z"/>
<path class="st0" d="M217.4,1637.6l-0.4-0.4c-12-12-31.4-12-43.3,0c0,0,0,0,0,0l0,0L0,1810.8v87.6L217.4,1681
	C229.4,1669,229.4,1649.6,217.4,1637.6z"/>
<path class="st0" d="M30.3,3814l-0.4-0.4c-7.8-7.8-19.2-10.8-29.9-7.9v82l30.3-30.3C42.3,3845.4,42.3,3826,30.3,3814
	C30.3,3814,30.3,3814,30.3,3814L30.3,3814L30.3,3814z"/>
<path class="st0" d="M2310.5,3968.5l269.2-269.2c12-12,12-31.4,0-43.4l-0.4-0.4c-12-12-31.4-12-43.4,0l-313,313L2310.5,3968.5z"/>
<path class="st0" d="M1660,3968.5l275-275c12-12,12-31.4,0-43.3c0,0,0,0,0,0l0,0l-0.4-0.4c-12-12-31.4-12-43.4,0l-318.8,318.8
	L1660,3968.5z"/>
<path class="st0" d="M1440.7,3968.5c6.6-12,4.5-26.8-5.2-36.5l-0.4-0.4c-12-12-31.4-12-43.4,0l-36.9,36.9H1440.7z"/>
<path class="st0" d="M136.8,3968.5l7.6-7.6c12-12,12-31.4,0-43.3c0,0,0,0,0,0l0,0l-0.4-0.4c-12-12-31.4-12-43.4,0l-51.4,51.4H136.8z
	"/>
<path class="st0" d="M354.4,3968.5l35.6-35.6c12-12,12-31.4,0-43.4l-0.4-0.4c-12-12-31.4-12-43.4,0l-79.5,79.4H354.4z"/>
<path class="st0" d="M3618.5,3968.5l56.2-56.2c12-12,12-31.4,0-43.3c0,0,0,0,0,0l0,0l-0.4-0.4c-12-12-31.4-12-43.4,0l0,0l-100,100
	L3618.5,3968.5z"/>
<path class="st0" d="M2530.4,3968.5l89.5-89.5c12-12,12-31.4,0-43.4l-0.4-0.4c-12-12-31.4-12-43.3,0c0,0,0,0,0,0l0,0l-100.5,100.5
	c-8.6,8.6-11.3,21.4-6.9,32.8H2530.4z"/>
<path class="st0" d="M3817.2,3968.5c-1.1-6.1-4.1-11.6-8.4-16l-0.4-0.4c-12-12-31.4-12-43.4,0l-16.5,16.5L3817.2,3968.5z"/>
<path class="st0" d="M3968.5,2442.8l-201.8,201.8c-12,12-12,31.4,0,43.4l0.4,0.4c12,12,31.4,12,43.4,0l158-158L3968.5,2442.8z"/>
<path class="st0" d="M3968.5,2222.9l-276.9,276.9c-12,12-12,31.4,0,43.4l0,0l0.4,0.4c12,12,31.4,12,43.3,0c0,0,0,0,0,0l0,0
	l233.1-233.1L3968.5,2222.9z"/>
<path class="st0" d="M3968.5,2007.6l-34.8,34.8c-12,12-12,31.4,0,43.4l0.4,0.4c9,9,22.7,11.5,34.4,6.2L3968.5,2007.6z"/>
<path class="st0" d="M3968.5,1572.4L3693,1847.9c-12,12-12,31.4,0,43.3c0,0,0,0,0,0l0,0l0.4,0.4c12,12,31.4,12,43.4,0l231.7-231.7
	V1572.4z"/>
<path class="st0" d="M3968.5,1137.2l-85.7,85.7c-12,12-12,31.4,0,43.4l0.4,0.4c12,12,31.4,12,43.4,0l41.9-41.9V1137.2z"/>
<path class="st0" d="M3968.5,2660.5l-92.9,93c-12,12-12,31.4,0,43.4l0.4,0.4c12,12,31.4,12,43.4,0l49.1-49.1V2660.5z"/>
<path class="st0" d="M3968.5,2878.1l-13.3,13.3c-12,12-12,31.4,0,43.4l0.4,0.4c3.6,3.6,8,6.2,12.9,7.7L3968.5,2878.1z"/>
<path class="st0" d="M3968.5,3748.5l-98.7,98.7c-12,12-12,31.4,0,43.4l0.4,0.4c12,12,31.4,12,43.3,0c0,0,0,0,0,0l0,0l54.9-54.9
	L3968.5,3748.5z"/>
</svg>
