<svg xmlns="http://www.w3.org/2000/svg" viewBox="0 0 50 50"><defs><style>.cls-1{fill:#b3bcdc;}</style></defs><title>Mesa de trabajo 1</title><g id="Objects"><path class="cls-1" d="M0,0V50H2.32a34.58,34.58,0,0,1,.43-6.37,6.3,6.3,0,0,1,1.44-2.32A21.59,21.59,0,0,1,7.47,38.5c.74-.33,4.28-1.74,5.09-2.07s2.27-.87,2.27-.87l.2-.4a7.45,7.45,0,0,1,1.62-1.29,15.37,15.37,0,0,1,2-.92,5.23,5.23,0,0,0,.29-2,2.25,2.25,0,0,0-.33-1.18s-.41-1.54-.46-1.94-.08-1-.08-1-.06.11-.36.11a1.2,1.2,0,0,1-.88-.51,2,2,0,0,1-.27-.88,6.58,6.58,0,0,0-.26-1.22,8,8,0,0,0-.57-1.47,3.11,3.11,0,0,1-.42-1.33,2.36,2.36,0,0,1,.11-1,1,1,0,0,1,.53-.65c.25-.08.42-.06.71.23l.65.67a10.52,10.52,0,0,1-.36-1.93c0-.63.09-1.26.13-1.75s.53-2.31.61-2.77a4.11,4.11,0,0,1,.63-1.41,9.35,9.35,0,0,1,3.26-2.59,9.19,9.19,0,0,1,4.13-.76,9.57,9.57,0,0,1,4.06,1.18,10.21,10.21,0,0,1,2.52,2.52A6.85,6.85,0,0,1,33,15.28c.08.52.1,2.19.16,2.73a4.94,4.94,0,0,1-.06,1.56c-.08.42-.29,1.13-.29,1.13a2.83,2.83,0,0,1,.88-.58c.32-.07.48-.09.69.08a1.15,1.15,0,0,1,.45.82,2,2,0,0,1,0,1c-.1.27-.54,1.11-.65,1.53s-.4.95-.48,1.33,0,1-.17,1.32A1.4,1.4,0,0,1,32,27s-.24,1.16-.34,1.52-.71,1.83-.71,1.83-.06,1.52,0,1.82c.14.88.24.54.6.9a10.86,10.86,0,0,1,2.79,2.82,1.93,1.93,0,0,0,.21.3s3.39,1.38,4.61,1.91a29.21,29.21,0,0,1,3.93,2c.65.48,1.35,1.09,1.35,1.09a7.63,7.63,0,0,1,1.78,2.3A33.63,33.63,0,0,1,47.33,50H50V0Z"/></g></svg>