<svg viewBox="0 0 453.74 563.87" xmlns="http://www.w3.org/2000/svg" xmlns:xlink="http://www.w3.org/1999/xlink"><clipPath id="a"><path d="m19.23 301.05h179.67v135.1h-179.67z"/></clipPath><clipPath id="b"><path d="m252.32 167.06h54.38a2.29 2.29 0 0 1 2.29 2.29v13.52a1.25 1.25 0 0 1 -1.25 1.25h-55.42a4.54 4.54 0 0 1 -4.54-4.54v-8a4.54 4.54 0 0 1 4.54-4.52z"/></clipPath><clipPath id="c"><path d="m252.32 193.5h54.38a2.29 2.29 0 0 1 2.3 2.3v13.52a1.25 1.25 0 0 1 -1.25 1.25h-55.43a4.54 4.54 0 0 1 -4.54-4.54v-8a4.54 4.54 0 0 1 4.54-4.53z"/></clipPath><clipPath id="d"><circle cx="63.4" cy="254.06" r="14.93"/></clipPath><circle cx="335.24" cy="123.73" fill="#d42a23" r="111.68"/><g clip-path="url(#a)" fill="#d42a23"><path d="m172.09 183.39h4.4v217.5h-4.4z" transform="matrix(.67042662 -.74197584 .74197584 .67042662 -159.32 225.62)"/><path d="m110.66 251.38h4.4v217.5h-4.4z" transform="matrix(.67042662 -.74197584 .74197584 .67042662 -230.02 202.45)"/><path d="m165.26 190.94h4.4v217.5h-4.4z" transform="matrix(.67042662 -.74197584 .74197584 .67042662 -167.18 223.04)"/><path d="m158.44 198.5h4.4v217.5h-4.4z" transform="matrix(.67042662 -.74197584 .74197584 .67042662 -175.03 220.47)"/><path d="m151.61 206.05h4.4v217.5h-4.4z" transform="matrix(.67042662 -.74197584 .74197584 .67042662 -182.89 217.89)"/><path d="m144.79 213.61h4.4v217.5h-4.4z" transform="matrix(.67042662 -.74197584 .74197584 .67042662 -190.74 215.32)"/><path d="m137.96 221.16h4.4v217.5h-4.4z" transform="matrix(.67042662 -.74197584 .74197584 .67042662 -198.6 212.75)"/><path d="m131.14 228.72h4.4v217.5h-4.4z" transform="matrix(.67042662 -.74197584 .74197584 .67042662 -206.45 210.17)"/><path d="m124.31 236.27h4.4v217.5h-4.4z" transform="matrix(.67042662 -.74197584 .74197584 .67042662 -214.31 207.6)"/><path d="m117.49 243.83h4.4v217.5h-4.4z" transform="matrix(.67042662 -.74197584 .74197584 .67042662 -222.16 205.02)"/><path d="m104.81 259.81h4.4v217.5h-4.4z" transform="matrix(.67042662 -.74197584 .74197584 .67042662 -238.21 200.89)"/><path d="m43.38 327.81h4.4v217.5h-4.4z" transform="matrix(.67042662 -.74197584 .74197584 .67042662 -308.91 177.72)"/><path d="m97.98 267.37h4.4v217.5h-4.4z" transform="matrix(.67042662 -.74197584 .74197584 .67042662 -246.06 198.31)"/><path d="m91.16 274.92h4.4v217.5h-4.4z" transform="matrix(.67042662 -.74197584 .74197584 .67042662 -253.92 195.74)"/><path d="m84.33 282.48h4.4v217.5h-4.4z" transform="matrix(.67042662 -.74197584 .74197584 .67042662 -261.77 193.16)"/><path d="m77.51 290.03h4.4v217.5h-4.4z" transform="matrix(.67042662 -.74197584 .74197584 .67042662 -269.63 190.59)"/><path d="m70.68 297.59h4.4v217.5h-4.4z" transform="matrix(.67042662 -.74197584 .74197584 .67042662 -277.48 188.01)"/><path d="m63.86 305.14h4.4v217.5h-4.4z" transform="matrix(.67042662 -.74197584 .74197584 .67042662 -285.34 185.44)"/><path d="m57.03 312.7h4.4v217.5h-4.4z" transform="matrix(.67042662 -.74197584 .74197584 .67042662 -293.19 182.87)"/><path d="m50.21 320.25h4.4v217.5h-4.4z" transform="matrix(.67042662 -.74197584 .74197584 .67042662 -301.05 180.29)"/></g><path d="m347.07 345.54a1.52 1.52 0 0 1 .71-1.32l8.46-5.54a.82.82 0 0 1 .49-.13 1.47 1.47 0 0 1 1 .49 1.51 1.51 0 0 1 .5 1.12 1.07 1.07 0 0 1 -.48.94l-6.75 4.44 6.79 4.44a1 1 0 0 1 .48.93 1.48 1.48 0 0 1 -.5 1.11 1.52 1.52 0 0 1 -1 .47.82.82 0 0 1 -.49-.13l-8.46-5.54a1.49 1.49 0 0 1 -.75-1.28zm23.15 6.46a1.48 1.48 0 0 1 -.5-1.11 1 1 0 0 1 .45-.93l6.79-4.44-6.79-4.45a1.11 1.11 0 0 1 -.45-.93 1.51 1.51 0 0 1 .5-1.12 1.47 1.47 0 0 1 1-.49.75.75 0 0 1 .45.13l8.46 5.54a1.52 1.52 0 0 1 .71 1.32 1.44 1.44 0 0 1 -.71 1.28l-8.46 5.54a.75.75 0 0 1 -.45.13 1.53 1.53 0 0 1 -1-.47z" fill="#d42a23"/><path d="m359.68 355.26a1.15 1.15 0 0 1 0-.49l5.9-19.23a1 1 0 0 1 .86-.73 1.43 1.43 0 0 1 1 .19 1.09 1.09 0 0 1 .55.79.94.94 0 0 1 0 .53l-5.88 19.13a1.09 1.09 0 0 1 -.95.78 1.18 1.18 0 0 1 -.95-.22 1.15 1.15 0 0 1 -.53-.75z" fill="#fac627"/><path d="m263.55 167.06h-96.55a2.58 2.58 0 0 0 -2.51 2.62v11.82a2.58 2.58 0 0 0 2.51 2.62h96.55c-.11 0-.11-17.06 0-17.06z" fill="#fac627"/><g clip-path="url(#b)" fill="#fac627"><path d="m222.66 170.96h52.68v2.01h-52.68z" transform="matrix(.0010472 -.99999945 .99999945 .0010472 76.77 420.78)"/><path d="m227.17 170.96h52.68v2.01h-52.68z" transform="matrix(.0010472 -.99999945 .99999945 .0010472 81.27 425.29)"/><path d="m231.69 170.97h52.68v2.01h-52.68z" transform="matrix(.0010472 -.99999945 .99999945 .0010472 85.78 429.81)"/><path d="m236.2 170.97h52.68v2.01h-52.68z" transform="matrix(.0010472 -.99999945 .99999945 .0010472 90.29 434.33)"/><path d="m240.72 170.98h52.68v2.01h-52.68z" transform="matrix(.0010472 -.99999945 .99999945 .0010472 94.79 438.85)"/><path d="m245.24 170.98h52.68v2.01h-52.68z" transform="matrix(.0010472 -.99999945 .99999945 .0010472 99.3 443.37)"/><path d="m249.75 170.98h52.68v2.01h-52.68z" transform="matrix(.0010472 -.99999945 .99999945 .0010472 103.81 447.89)"/><path d="m254.27 170.99h52.68v2.01h-52.68z" transform="matrix(.0010472 -.99999945 .99999945 .0010472 108.31 452.41)"/><path d="m258.78 170.97h52.68v2.01h-52.68z" transform="matrix(.0010472 -.99999945 .99999945 .0010472 112.84 456.91)"/><path d="m263.3 170.97h52.68v2.01h-52.68z" transform="matrix(.0010472 -.99999945 .99999945 .0010472 117.35 461.43)"/><path d="m267.81 170.98h52.68v2.01h-52.68z" transform="matrix(.0010472 -.99999945 .99999945 .0010472 121.86 465.95)"/><path d="m272.33 170.98h52.68v2.01h-52.68z" transform="matrix(.0010472 -.99999945 .99999945 .0010472 126.36 470.47)"/><path d="m276.84 170.98h52.68v2.01h-52.68z" transform="matrix(.0010472 -.99999945 .99999945 .0010472 130.87 474.99)"/><path d="m281.36 170.99h52.68v2.01h-52.68z" transform="matrix(.0010472 -.99999945 .99999945 .0010472 135.38 479.51)"/></g><path d="m277.09 193.5h-109.75a2.75 2.75 0 0 0 -2.85 2.63v11.81a2.75 2.75 0 0 0 2.85 2.62h109.75c-.09 0-.09-17.06 0-17.06z" fill="#fac627"/><g clip-path="url(#c)" fill="#fac627"><path d="m222.66 197.4h52.68v2.01h-52.68z" transform="matrix(.0010472 -.99999945 .99999945 .0010472 50.32 447.19)"/><path d="m227.17 197.41h52.68v2.01h-52.68z" transform="matrix(0 -1 1 0 54.83 451.71)"/><path d="m231.69 197.41h52.68v2.01h-52.68z" transform="matrix(.0010472 -.99999945 .99999945 .0010472 59.34 456.23)"/><path d="m236.2 197.42h52.68v2.01h-52.68z" transform="matrix(.0010472 -.99999945 .99999945 .0010472 63.84 460.75)"/><path d="m240.72 197.42h52.68v2.01h-52.68z" transform="matrix(.0010472 -.99999945 .99999945 .0010472 68.35 465.27)"/><path d="m245.24 197.42h52.68v2.01h-52.68z" transform="matrix(.0010472 -.99999945 .99999945 .0010472 72.86 469.79)"/><path d="m249.75 197.43h52.68v2.01h-52.68z" transform="matrix(0 -1 1 0 77.36 474.31)"/><path d="m254.27 197.43h52.68v2.01h-52.68z" transform="matrix(.0010472 -.99999945 .99999945 .0010472 81.87 478.83)"/><path d="m258.78 197.41h52.68v2.01h-52.68z" transform="matrix(.0010472 -.99999945 .99999945 .0010472 86.4 483.32)"/><path d="m263.3 197.42h52.68v2.01h-52.68z" transform="matrix(0 -1 1 0 90.91 487.84)"/><path d="m267.81 197.42h52.68v2.01h-52.68z" transform="matrix(.0010472 -.99999945 .99999945 .0010472 95.41 492.36)"/><path d="m272.33 197.42h52.68v2.01h-52.68z" transform="matrix(.0010472 -.99999945 .99999945 .0010472 99.92 496.88)"/><path d="m276.84 197.43h52.68v2.01h-52.68z" transform="matrix(0 -1 1 0 104.43 501.4)"/><path d="m281.36 197.43h52.68v2.01h-52.68z" transform="matrix(.0010472 -.99999945 .99999945 .0010472 108.93 505.92)"/></g><path d="m91.09 212.26-3-6.51-4.25 3.25v-17.2l13 11.13-5.08.92 3.12 6.65zm-2.66-8.08 3.15 6.7 1.89-.9-3.25-6.91 4.26-.76-9.66-8.31v12.89z" fill="#fac627"/><path d="m285 512.41-3-6.51-4.2 3.23v-17.13l12.94 11.13-5.07.92 3.12 6.65zm-2.66-8.09 3.15 6.71 1.9-.9-3.26-6.92 4.26-.76-9.66-8.27v12.89z" fill="#fac627"/><g fill="#d42a23"><circle cx="250.38" cy="444.07" r="6.44"/><circle cx="273.06" cy="404.83" r="6.44"/><circle cx="250.38" cy="416.48" r="6.44"/><circle cx="273.67" cy="455.72" r="6.44"/><circle cx="293.91" cy="415.87" r="6.44"/><circle cx="293.91" cy="443.46" r="6.44"/><path d="m195.71 509.7v-7.47c0-3.43.18-4.71-3.26-4.71h-36c-3.43 0-3.77 1.28-3.77 4.71v43.5a6 6 0 0 0 6.09 6.09h31.31c3.43 0 5.58-2.66 5.58-6.09v-7.46c7.63-.35 14.07-6.35 14.07-14.07a14.73 14.73 0 0 0 -14.02-14.5zm-36 14.76c0 .34-.6.68-1.37.68s-1.37-.34-1.37-.68v-21.54c0-.34.6-.69 1.37-.69s1.37.35 1.37.69zm36 8.66v-18.27c4.81.34 9.36 4.46 9.36 9.35s-4.47 8.58-9.36 8.92z"/></g><path d="m306.46 307a1.48 1.48 0 0 1 -1-.41 25.46 25.46 0 0 0 -36 0 1.42 1.42 0 0 1 -2-2 28.34 28.34 0 0 1 40.05 0 1.4 1.4 0 0 1 0 2 1.19 1.19 0 0 1 -1.05.41z" fill="#fac627"/><path d="m299.61 314.52a1.46 1.46 0 0 1 -1-.41 15.28 15.28 0 0 0 -21.64 0 1.42 1.42 0 0 1 -2-2 18.19 18.19 0 0 1 25.67 0 1.38 1.38 0 0 1 0 2 1.26 1.26 0 0 1 -1.03.41z" fill="#fac627"/><path d="m311.75 298.75a1.47 1.47 0 0 1 -1-.41 33 33 0 0 0 -46.56 0 1.42 1.42 0 1 1 -2-2 35.91 35.91 0 0 1 50.64 0 1.38 1.38 0 0 1 0 2 1.48 1.48 0 0 1 -1.08.41z" fill="#fac627"/><path d="m288.05 326.72a5 5 0 0 1 -3.4-1.39 4.79 4.79 0 0 1 0-6.73 4.91 4.91 0 0 1 6.73 0 4.79 4.79 0 0 1 0 6.73 4.71 4.71 0 0 1 -3.33 1.39zm0-6.68a1.87 1.87 0 0 0 -1.39.58 1.91 1.91 0 1 0 2.71 0 1.66 1.66 0 0 0 -1.32-.62z" fill="#fac627"/><path d="m36.64 167.7a2 2 0 1 0 -2.35 2 1.66 1.66 0 0 1 -1.26 1 .41.41 0 0 0 -.36.4v1.2a.39.39 0 0 0 .42.4c2.18-.2 3.49-2 3.55-4.84 0 0 0-.08 0-.12a.43.43 0 0 0 0-.05z" fill="#fac627"/><path d="m34.66 157.82a2 2 0 1 0 2 2 2 2 0 0 0 -2-2z" fill="#fac627"/><path d="m30.27 154.84h-.59a3 3 0 0 0 -3 3v4.57l-1.7 1.7a1 1 0 0 0 0 1.41l1.7 1.7v4.57a3 3 0 0 0 3 3h.59a.39.39 0 0 0 .4-.4v-1.19a.39.39 0 0 0 -.4-.4h-.59a1 1 0 0 1 -1-1v-5a1 1 0 0 0 -.29-.7l-1.29-1.3 1.29-1.29a1 1 0 0 0 .29-.71v-5a1 1 0 0 1 1-1h.6a.4.4 0 0 0 .4-.4v-1.19a.39.39 0 0 0 -.41-.37z" fill="#d42a23"/><path d="m44.33 164.09-1.71-1.7v-4.57a3 3 0 0 0 -3-3h-.62a.39.39 0 0 0 -.4.4v1.19a.4.4 0 0 0 .4.4h.6a1 1 0 0 1 1 1v5a1 1 0 0 0 .29.7l1.29 1.29-1.29 1.29a1 1 0 0 0 -.29.7v5a1 1 0 0 1 -1 1h-.6a.39.39 0 0 0 -.4.4v1.19a.4.4 0 0 0 .4.4h.6a3 3 0 0 0 3-3v-4.58l1.71-1.7a1 1 0 0 0 .02-1.41z" fill="#d42a23"/><path d="m207.05 264.6a2 2 0 1 0 -2.35 2 1.67 1.67 0 0 1 -1.27 1 .41.41 0 0 0 -.36.39v1.21a.4.4 0 0 0 .43.4c2.18-.2 3.49-2 3.55-4.84 0 0 0-.08 0-.12s0 0 0 0z" fill="#fac627"/><path d="m205.07 254.72a2 2 0 1 0 2 2 2 2 0 0 0 -2-2z" fill="#fac627"/><path d="m200.68 251.73h-.59a3 3 0 0 0 -3 3v4.57l-1.7 1.7a1 1 0 0 0 0 1.4l1.7 1.7v4.57a3 3 0 0 0 3 3h.59a.4.4 0 0 0 .4-.4v-1.2a.39.39 0 0 0 -.4-.4h-.59a1 1 0 0 1 -1-1v-5a1.05 1.05 0 0 0 -.29-.71l-1.29-1.28 1.29-1.29a1 1 0 0 0 .29-.7v-5a1 1 0 0 1 1-1h.6a.39.39 0 0 0 .4-.4v-1.19a.39.39 0 0 0 -.41-.37z" fill="#d42a23"/><path d="m214.73 261-1.7-1.71v-4.56a3 3 0 0 0 -3-3h-.6a.4.4 0 0 0 -.4.4v1.2a.4.4 0 0 0 .4.4h.6a1 1 0 0 1 1 1v5a1 1 0 0 0 .29.71l1.29 1.28-1.28 1.28a1 1 0 0 0 -.29.71v5a1 1 0 0 1 -1 1h-.6a.4.4 0 0 0 -.4.4v1.2a.4.4 0 0 0 .4.4h.6a3 3 0 0 0 3-3v-4.58l1.7-1.7a1 1 0 0 0 -.01-1.43z" fill="#d42a23"/><path d="m361.07 479.71a21.46 21.46 0 0 0 -21.65 21.16v2.95l21.41.24z" fill="#fac627"/><path d="m383.67 504.32v-2.95a21.48 21.48 0 0 0 -19.67-21.57l-.28 24.3z" fill="#fac627"/><path d="m339.1 528.92a17 17 0 0 0 16.79 17.17l10.33.12a17 17 0 0 0 17.17-16.79l.25-22.15-44.29-.49z" fill="#d42a23"/><path d="m361.11 476c-.09-.84-2.07-20.55 7.67-28.36 4.33-3.48 10.22-4 17.48-1.55 10.69 3.6 19.93 3.25 26.72-1a19.39 19.39 0 0 0 7-7.4l2.69 1.22c-.09.2-9.21 19.47-37.36 10-6.25-2.11-11.19-1.75-14.69 1.05-8.49 6.8-6.57 27-6.57 26.1z" fill="#d42a23"/><path d="m65.37 236h-40.08a18.47 18.47 0 0 0 -18.47 18.46 18.47 18.47 0 0 0 18.47 18.46h40.08a18.46 18.46 0 0 0 18.46-18.46 18.46 18.46 0 0 0 -18.46-18.46zm-2 33a14.93 14.93 0 1 1 14.93-14.93 14.93 14.93 0 0 1 -14.9 14.93z" fill="#d42a23"/><g clip-path="url(#d)" fill="#fac627"><path d="m21.79 230.14h44.79v3.52h-44.79z" transform="matrix(.76199059 -.64758809 .64758809 .76199059 -139.65 83.79)"/><path d="m26.36 235.53h44.79v3.52h-44.79z" transform="matrix(.76199059 -.64758809 .64758809 .76199059 -142.05 88.04)"/><path d="m30.94 240.92h44.79v3.52h-44.79z" transform="matrix(.76199059 -.64758809 .64758809 .76199059 -144.45 92.29)"/><path d="m35.52 246.31h44.79v3.52h-44.79z" transform="matrix(.76199059 -.64758809 .64758809 .76199059 -146.85 96.53)"/><path d="m40.1 251.7h44.79v3.52h-44.79z" transform="matrix(.76199059 -.64758809 .64758809 .76199059 -149.25 100.78)"/><path d="m44.68 257.09h44.79v3.52h-44.79z" transform="matrix(.76199059 -.64758809 .64758809 .76199059 -151.65 105.03)"/><path d="m49.26 262.47h44.79v3.52h-44.79z" transform="matrix(.76199059 -.64758809 .64758809 .76199059 -154.05 109.28)"/><path d="m53.84 267.86h44.79v3.52h-44.79z" transform="matrix(.76199059 -.64758809 .64758809 .76199059 -156.45 113.53)"/></g></svg>