<svg id="Calque_1" data-name="Calque 1" xmlns="http://www.w3.org/2000/svg" xmlns:xlink="http://www.w3.org/1999/xlink" viewBox="0 0 453.74 563.87"><defs><style>.cls-1{fill:none;}.cls-2{fill:#d42a23;}.cls-3{clip-path:url(#clip-path);}.cls-4{fill:#fac627;}.cls-5{clip-path:url(#clip-path-2);}.cls-6{clip-path:url(#clip-path-3);}.cls-7{clip-path:url(#clip-path-4);}</style><clipPath id="clip-path"><rect class="cls-1" x="19.23" y="301.05" width="179.67" height="135.1"/></clipPath><clipPath id="clip-path-2"><path class="cls-1" d="M252.32,167.06H306.7a2.29,2.29,0,0,1,2.29,2.29v13.52a1.25,1.25,0,0,1-1.25,1.25H252.32a4.54,4.54,0,0,1-4.54-4.54v-8A4.54,4.54,0,0,1,252.32,167.06Z"/></clipPath><clipPath id="clip-path-3"><path class="cls-1" d="M252.32,193.5H306.7A2.29,2.29,0,0,1,309,195.8v13.52a1.25,1.25,0,0,1-1.25,1.25H252.32a4.54,4.54,0,0,1-4.54-4.54v-8A4.54,4.54,0,0,1,252.32,193.5Z"/></clipPath><clipPath id="clip-path-4"><circle class="cls-1" cx="63.4" cy="254.06" r="14.93"/></clipPath></defs><title>Plan de travail 1</title><circle class="cls-2" cx="335.24" cy="123.73" r="111.68"/><g class="cls-3"><rect class="cls-2" x="172.09" y="183.39" width="4.4" height="217.5" transform="translate(-159.32 225.62) rotate(-47.9)"/><rect class="cls-2" x="110.66" y="251.38" width="4.4" height="217.5" transform="translate(-230.02 202.45) rotate(-47.9)"/><rect class="cls-2" x="165.26" y="190.94" width="4.4" height="217.5" transform="translate(-167.18 223.04) rotate(-47.9)"/><rect class="cls-2" x="158.44" y="198.5" width="4.4" height="217.5" transform="translate(-175.03 220.47) rotate(-47.9)"/><rect class="cls-2" x="151.61" y="206.05" width="4.4" height="217.5" transform="translate(-182.89 217.89) rotate(-47.9)"/><rect class="cls-2" x="144.79" y="213.61" width="4.4" height="217.5" transform="translate(-190.74 215.32) rotate(-47.9)"/><rect class="cls-2" x="137.96" y="221.16" width="4.4" height="217.5" transform="translate(-198.6 212.75) rotate(-47.9)"/><rect class="cls-2" x="131.14" y="228.72" width="4.4" height="217.5" transform="translate(-206.45 210.17) rotate(-47.9)"/><rect class="cls-2" x="124.31" y="236.27" width="4.4" height="217.5" transform="translate(-214.31 207.6) rotate(-47.9)"/><rect class="cls-2" x="117.49" y="243.83" width="4.4" height="217.5" transform="translate(-222.16 205.02) rotate(-47.9)"/><rect class="cls-2" x="104.81" y="259.81" width="4.4" height="217.5" transform="translate(-238.21 200.89) rotate(-47.9)"/><rect class="cls-2" x="43.38" y="327.81" width="4.4" height="217.5" transform="translate(-308.91 177.72) rotate(-47.9)"/><rect class="cls-2" x="97.98" y="267.37" width="4.4" height="217.5" transform="translate(-246.06 198.31) rotate(-47.9)"/><rect class="cls-2" x="91.16" y="274.92" width="4.4" height="217.5" transform="translate(-253.92 195.74) rotate(-47.9)"/><rect class="cls-2" x="84.33" y="282.48" width="4.4" height="217.5" transform="translate(-261.77 193.16) rotate(-47.9)"/><rect class="cls-2" x="77.51" y="290.03" width="4.4" height="217.5" transform="translate(-269.63 190.59) rotate(-47.9)"/><rect class="cls-2" x="70.68" y="297.59" width="4.4" height="217.5" transform="translate(-277.48 188.01) rotate(-47.9)"/><rect class="cls-2" x="63.86" y="305.14" width="4.4" height="217.5" transform="translate(-285.34 185.44) rotate(-47.9)"/><rect class="cls-2" x="57.03" y="312.7" width="4.4" height="217.5" transform="translate(-293.19 182.87) rotate(-47.9)"/><rect class="cls-2" x="50.21" y="320.25" width="4.4" height="217.5" transform="translate(-301.05 180.29) rotate(-47.9)"/></g><path class="cls-2" d="M347.07,345.54a1.52,1.52,0,0,1,.71-1.32l8.46-5.54a.82.82,0,0,1,.49-.13,1.47,1.47,0,0,1,1,.49,1.51,1.51,0,0,1,.5,1.12,1.07,1.07,0,0,1-.48.94L351,345.54l6.79,4.44a1,1,0,0,1,.48.93,1.48,1.48,0,0,1-.5,1.11,1.52,1.52,0,0,1-1,.47.82.82,0,0,1-.49-.13l-8.46-5.54A1.49,1.49,0,0,1,347.07,345.54ZM370.22,352a1.48,1.48,0,0,1-.5-1.11,1,1,0,0,1,.45-.93l6.79-4.44-6.79-4.45a1.11,1.11,0,0,1-.45-.93,1.51,1.51,0,0,1,.5-1.12,1.47,1.47,0,0,1,1-.49.75.75,0,0,1,.45.13l8.46,5.54a1.52,1.52,0,0,1,.71,1.32,1.44,1.44,0,0,1-.71,1.28l-8.46,5.54a.75.75,0,0,1-.45.13A1.53,1.53,0,0,1,370.22,352Z"/><path class="cls-4" d="M359.68,355.26a1.15,1.15,0,0,1,0-.49l5.9-19.23a1,1,0,0,1,.86-.73,1.43,1.43,0,0,1,1,.19,1.09,1.09,0,0,1,.55.79.94.94,0,0,1,0,.53l-5.88,19.13a1.09,1.09,0,0,1-.95.78,1.18,1.18,0,0,1-.95-.22A1.15,1.15,0,0,1,359.68,355.26Z"/><path class="cls-4" d="M263.55,167.06H167a2.58,2.58,0,0,0-2.51,2.62V181.5a2.58,2.58,0,0,0,2.51,2.62h96.55C263.44,184.12,263.44,167.06,263.55,167.06Z"/><g class="cls-5"><rect class="cls-4" x="222.66" y="170.96" width="52.68" height="2.01" transform="translate(76.77 420.78) rotate(-89.94)"/><rect class="cls-4" x="227.17" y="170.96" width="52.68" height="2.01" transform="translate(81.27 425.29) rotate(-89.94)"/><rect class="cls-4" x="231.69" y="170.97" width="52.68" height="2.01" transform="translate(85.78 429.81) rotate(-89.94)"/><rect class="cls-4" x="236.2" y="170.97" width="52.68" height="2.01" transform="translate(90.29 434.33) rotate(-89.94)"/><rect class="cls-4" x="240.72" y="170.98" width="52.68" height="2.01" transform="translate(94.79 438.85) rotate(-89.94)"/><rect class="cls-4" x="245.24" y="170.98" width="52.68" height="2.01" transform="translate(99.3 443.37) rotate(-89.94)"/><rect class="cls-4" x="249.75" y="170.98" width="52.68" height="2.01" transform="translate(103.81 447.89) rotate(-89.94)"/><rect class="cls-4" x="254.27" y="170.99" width="52.68" height="2.01" transform="translate(108.31 452.41) rotate(-89.94)"/><rect class="cls-4" x="258.78" y="170.97" width="52.68" height="2.01" transform="translate(112.84 456.91) rotate(-89.94)"/><rect class="cls-4" x="263.3" y="170.97" width="52.68" height="2.01" transform="translate(117.35 461.43) rotate(-89.94)"/><rect class="cls-4" x="267.81" y="170.98" width="52.68" height="2.01" transform="translate(121.86 465.95) rotate(-89.94)"/><rect class="cls-4" x="272.33" y="170.98" width="52.68" height="2.01" transform="translate(126.36 470.47) rotate(-89.94)"/><rect class="cls-4" x="276.84" y="170.98" width="52.68" height="2.01" transform="translate(130.87 474.99) rotate(-89.94)"/><rect class="cls-4" x="281.36" y="170.99" width="52.68" height="2.01" transform="translate(135.38 479.51) rotate(-89.94)"/></g><path class="cls-4" d="M277.09,193.5H167.34a2.75,2.75,0,0,0-2.85,2.63v11.81a2.75,2.75,0,0,0,2.85,2.62H277.09C277,210.56,277,193.5,277.09,193.5Z"/><g class="cls-6"><rect class="cls-4" x="222.66" y="197.4" width="52.68" height="2.01" transform="translate(50.32 447.19) rotate(-89.94)"/><rect class="cls-4" x="227.17" y="197.41" width="52.68" height="2.01" transform="matrix(0, -1, 1, 0, 54.83, 451.71)"/><rect class="cls-4" x="231.69" y="197.41" width="52.68" height="2.01" transform="translate(59.34 456.23) rotate(-89.94)"/><rect class="cls-4" x="236.2" y="197.42" width="52.68" height="2.01" transform="translate(63.84 460.75) rotate(-89.94)"/><rect class="cls-4" x="240.72" y="197.42" width="52.68" height="2.01" transform="translate(68.35 465.27) rotate(-89.94)"/><rect class="cls-4" x="245.24" y="197.42" width="52.68" height="2.01" transform="translate(72.86 469.79) rotate(-89.94)"/><rect class="cls-4" x="249.75" y="197.43" width="52.68" height="2.01" transform="matrix(0, -1, 1, 0, 77.36, 474.31)"/><rect class="cls-4" x="254.27" y="197.43" width="52.68" height="2.01" transform="translate(81.87 478.83) rotate(-89.94)"/><rect class="cls-4" x="258.78" y="197.41" width="52.68" height="2.01" transform="translate(86.4 483.32) rotate(-89.94)"/><rect class="cls-4" x="263.3" y="197.42" width="52.68" height="2.01" transform="matrix(0, -1, 1, 0, 90.91, 487.84)"/><rect class="cls-4" x="267.81" y="197.42" width="52.68" height="2.01" transform="translate(95.41 492.36) rotate(-89.94)"/><rect class="cls-4" x="272.33" y="197.42" width="52.68" height="2.01" transform="translate(99.92 496.88) rotate(-89.94)"/><rect class="cls-4" x="276.84" y="197.43" width="52.68" height="2.01" transform="matrix(0, -1, 1, 0, 104.43, 501.4)"/><rect class="cls-4" x="281.36" y="197.43" width="52.68" height="2.01" transform="translate(108.93 505.92) rotate(-89.94)"/></g><path class="cls-4" d="M91.09,212.26l-3-6.51L83.84,209V191.8l13,11.13-5.08.92,3.12,6.65Zm-2.66-8.08,3.15,6.7,1.89-.9-3.25-6.91,4.26-.76L84.82,194v12.89Z"/><path class="cls-4" d="M285,512.41l-3-6.51-4.2,3.23V492l12.94,11.13-5.07.92,3.12,6.65Zm-2.66-8.09,3.15,6.71,1.9-.9-3.26-6.92,4.26-.76-9.66-8.27v12.89Z"/><circle class="cls-2" cx="250.38" cy="444.07" r="6.44"/><circle class="cls-2" cx="273.06" cy="404.83" r="6.44"/><circle class="cls-2" cx="250.38" cy="416.48" r="6.44"/><circle class="cls-2" cx="273.67" cy="455.72" r="6.44"/><circle class="cls-2" cx="293.91" cy="415.87" r="6.44"/><circle class="cls-2" cx="293.91" cy="443.46" r="6.44"/><path class="cls-2" d="M195.71,509.7v-7.47c0-3.43.18-4.71-3.26-4.71h-36c-3.43,0-3.77,1.28-3.77,4.71v43.5a6,6,0,0,0,6.09,6.09h31.31c3.43,0,5.58-2.66,5.58-6.09v-7.46c7.63-.35,14.07-6.35,14.07-14.07A14.73,14.73,0,0,0,195.71,509.7Zm-36,14.76c0,.34-.6.68-1.37.68s-1.37-.34-1.37-.68V502.92c0-.34.6-.69,1.37-.69s1.37.35,1.37.69Zm36,8.66V514.85c4.81.34,9.36,4.46,9.36,9.35S200.6,532.78,195.71,533.12Z"/><path class="cls-4" d="M306.46,307a1.48,1.48,0,0,1-1-.41,25.46,25.46,0,0,0-36,0,1.42,1.42,0,0,1-2-2,28.34,28.34,0,0,1,40.05,0,1.4,1.4,0,0,1,0,2A1.19,1.19,0,0,1,306.46,307Z"/><path class="cls-4" d="M299.61,314.52a1.46,1.46,0,0,1-1-.41,15.28,15.28,0,0,0-21.64,0,1.42,1.42,0,0,1-2-2,18.19,18.19,0,0,1,25.67,0,1.38,1.38,0,0,1,0,2A1.26,1.26,0,0,1,299.61,314.52Z"/><path class="cls-4" d="M311.75,298.75a1.47,1.47,0,0,1-1-.41,33,33,0,0,0-46.56,0,1.42,1.42,0,1,1-2-2,35.91,35.91,0,0,1,50.64,0,1.38,1.38,0,0,1,0,2A1.48,1.48,0,0,1,311.75,298.75Z"/><path class="cls-4" d="M288.05,326.72a5,5,0,0,1-3.4-1.39,4.79,4.79,0,0,1,0-6.73,4.91,4.91,0,0,1,6.73,0,4.79,4.79,0,0,1,0,6.73A4.71,4.71,0,0,1,288.05,326.72Zm0-6.68a1.87,1.87,0,0,0-1.39.58,1.91,1.91,0,1,0,2.71,0A1.66,1.66,0,0,0,288.05,320Z"/><path class="cls-4" d="M36.64,167.7a2,2,0,1,0-2.35,2,1.66,1.66,0,0,1-1.26,1,.41.41,0,0,0-.36.4v1.2a.39.39,0,0,0,.42.4c2.18-.2,3.49-2,3.55-4.84,0,0,0-.08,0-.12v0a.43.43,0,0,0,0-.05Z"/><path class="cls-4" d="M34.66,157.82a2,2,0,1,0,2,2A2,2,0,0,0,34.66,157.82Z"/><path class="cls-2" d="M30.27,154.84h-.59a3,3,0,0,0-3,3v4.57l-1.7,1.7a1,1,0,0,0,0,1.41l1.7,1.7v4.57a3,3,0,0,0,3,3h.59a.39.39,0,0,0,.4-.4v-1.19a.39.39,0,0,0-.4-.4h-.59a1,1,0,0,1-1-1v-5a1,1,0,0,0-.29-.7L27.1,164.8l1.29-1.29a1,1,0,0,0,.29-.71v-5a1,1,0,0,1,1-1h.6a.4.4,0,0,0,.4-.4v-1.19A.39.39,0,0,0,30.27,154.84Z"/><path class="cls-2" d="M44.33,164.09l-1.71-1.7v-4.57a3,3,0,0,0-3-3H39a.39.39,0,0,0-.4.4v1.19a.4.4,0,0,0,.4.4h.6a1,1,0,0,1,1,1v5a1,1,0,0,0,.29.7l1.29,1.29-1.29,1.29a1,1,0,0,0-.29.7v5a1,1,0,0,1-1,1H39a.39.39,0,0,0-.4.4v1.19a.4.4,0,0,0,.4.4h.6a3,3,0,0,0,3-3V167.2l1.71-1.7A1,1,0,0,0,44.33,164.09Z"/><path class="cls-4" d="M207.05,264.6a2,2,0,1,0-2.35,2,1.67,1.67,0,0,1-1.27,1,.41.41,0,0,0-.36.39v1.21a.4.4,0,0,0,.43.4c2.18-.2,3.49-2,3.55-4.84,0,0,0-.08,0-.12s0,0,0,0,0,0,0,0Z"/><path class="cls-4" d="M205.07,254.72a2,2,0,1,0,2,2A2,2,0,0,0,205.07,254.72Z"/><path class="cls-2" d="M200.68,251.73h-.59a3,3,0,0,0-3,3v4.57l-1.7,1.7a1,1,0,0,0,0,1.4l1.7,1.7v4.57a3,3,0,0,0,3,3h.59a.4.4,0,0,0,.4-.4v-1.2a.39.39,0,0,0-.4-.4h-.59a1,1,0,0,1-1-1v-5a1.05,1.05,0,0,0-.29-.71l-1.29-1.28,1.29-1.29a1,1,0,0,0,.29-.7v-5a1,1,0,0,1,1-1h.6a.39.39,0,0,0,.4-.4v-1.19A.39.39,0,0,0,200.68,251.73Z"/><path class="cls-2" d="M214.73,261l-1.7-1.71v-4.56a3,3,0,0,0-3-3h-.6a.4.4,0,0,0-.4.4v1.2a.4.4,0,0,0,.4.4h.6a1,1,0,0,1,1,1v5a1,1,0,0,0,.29.71l1.29,1.28L211.33,263a1,1,0,0,0-.29.71v5a1,1,0,0,1-1,1h-.6a.4.4,0,0,0-.4.4v1.2a.4.4,0,0,0,.4.4h.6a3,3,0,0,0,3-3v-4.58l1.7-1.7A1,1,0,0,0,214.73,261Z"/><path class="cls-4" d="M361.07,479.71a21.46,21.46,0,0,0-21.65,21.16l0,2.95,21.41.24Z"/><path class="cls-4" d="M383.67,504.32l0-2.95A21.48,21.48,0,0,0,364,479.8l-.28,24.3Z"/><path class="cls-2" d="M339.1,528.92a17,17,0,0,0,16.79,17.17l10.33.12a17,17,0,0,0,17.17-16.79l.25-22.15-44.29-.49Z"/><path class="cls-2" d="M361.11,476c-.09-.84-2.07-20.55,7.67-28.36,4.33-3.48,10.22-4,17.48-1.55,10.69,3.6,19.93,3.25,26.72-1a19.39,19.39,0,0,0,7-7.4l2.69,1.22c-.09.2-9.21,19.47-37.36,10-6.25-2.11-11.19-1.75-14.69,1.05-8.49,6.8-6.57,27-6.57,26.1Z"/><path class="cls-2" d="M65.37,236H25.29A18.47,18.47,0,0,0,6.82,254.46h0a18.47,18.47,0,0,0,18.47,18.46H65.37a18.46,18.46,0,0,0,18.46-18.46h0A18.46,18.46,0,0,0,65.37,236Zm-2,33a14.93,14.93,0,1,1,14.93-14.93A14.93,14.93,0,0,1,63.4,269Z"/><g class="cls-7"><rect class="cls-4" x="21.79" y="230.14" width="44.79" height="3.52" transform="translate(-139.65 83.79) rotate(-40.36)"/><rect class="cls-4" x="26.36" y="235.53" width="44.79" height="3.52" transform="translate(-142.05 88.04) rotate(-40.36)"/><rect class="cls-4" x="30.94" y="240.92" width="44.79" height="3.52" transform="translate(-144.45 92.29) rotate(-40.36)"/><rect class="cls-4" x="35.52" y="246.31" width="44.79" height="3.52" transform="translate(-146.85 96.53) rotate(-40.36)"/><rect class="cls-4" x="40.1" y="251.7" width="44.79" height="3.52" transform="translate(-149.25 100.78) rotate(-40.36)"/><rect class="cls-4" x="44.68" y="257.09" width="44.79" height="3.52" transform="translate(-151.65 105.03) rotate(-40.36)"/><rect class="cls-4" x="49.26" y="262.47" width="44.79" height="3.52" transform="translate(-154.05 109.28) rotate(-40.36)"/><rect class="cls-4" x="53.84" y="267.86" width="44.79" height="3.52" transform="translate(-156.45 113.53) rotate(-40.36)"/></g></svg>