<svg enable-background="new 0 0 50 50" viewBox="0 0 50 50" xmlns="http://www.w3.org/2000/svg" xmlns:xlink="http://www.w3.org/1999/xlink"><linearGradient id="a"><stop offset="0" stop-color="#cc0625"/><stop offset="1" stop-color="#fac319"/></linearGradient><linearGradient id="b" gradientTransform="matrix(1 0 0 -1 0 50)" gradientUnits="userSpaceOnUse" x1="8.1143" x2="41.8857" xlink:href="#a" y1="8.1143" y2="41.8857"/><linearGradient id="c" gradientUnits="userSpaceOnUse" x1="11.8163" x2="38.184" xlink:href="#a" y1="25" y2="25"/><g fill="none" stroke-miterlimit="10"><circle cx="25" cy="25" r="23.4" stroke="url(#b)"/><path d="m38 29.8c-.2-.5-.5-1-.7-1.5-1-2-2.4-3.7-4.2-5.1-.2-.1-.3-.3-.5-.4 1-.8 1.7-2 2-3.3.3-1.5-.1-2.9-.9-4.1-1-1.5-2.7-2.4-4.5-2.4-1.1 0-2.2.3-3.2 1-.1.1-.1.1-.2.2-1-.6-2.2-1-3.4-1-1.3 0-2.6.4-3.7 1.2-2.9 2-3.6 6-1.6 8.9.3.5.8.9 1.2 1.3-.2.1-.4.3-.6.4-2 1.6-3.6 3.6-4.8 5.9-.3.6-.6 1.1-.8 1.7l-.1.2.2.2c2.8 2.6 6.4 4 10.2 4 3.7 0 7.3-1.4 10.1-3.9 2-.5 3.9-1.5 5.5-3v-.1zm-11.3 5.8c-.2.1-.3.1-.5.1-1.2.3-2.5.5-3.9.5-3.5 0-6.9-1.3-9.6-3.6.2-.5.5-1 .7-1.5 1.1-2.2 2.7-4.2 4.7-5.7.3-.2.6-.4.9-.6l.4-.2-.4-.3c-.6-.4-1-.9-1.4-1.4-1.8-2.6-1.2-6.2 1.4-8 1-.7 2.1-1 3.3-1 .9 0 2 .2 3 .8.8.5 1.5 1.3 1.7 1.7.9 1.3 1.2 2.8.9 4.3-.1.8-.4 1.5-.9 2.2-.4.7-1 1.3-1.8 1.8l-.1.1.4.2c.3.2.6.4.9.6 1.9 1.6 3.5 3.5 4.7 5.7.2.5.5 1 .7 1.4-.5.6-3.5 2.4-5.1 2.9zm5.8-3.1c-.2-.5-.5-1.1-.8-1.6-1.2-2.3-2.8-4.3-4.8-5.9-.2-.1-.4-.3-.6-.4 1.2-1 2-2.3 2.3-3.8.3-1.7-.1-3.4-1.1-4.8-.4-.5-.9-1-1.4-1.4.8-.6 1.8-.9 2.8-.9 1.6 0 3.2.8 4.1 2.1.8 1.1 1.1 2.4.8 3.7-.2 1.3-1 2.4-2.1 3.2l-.4.2.4.2c.3.2.5.3.8.5 1.7 1.4 3 3 4 4.9.2.4.4.8.6 1.3-1.1 1.3-2.8 2.2-4.6 2.7z" stroke="url(#c)" stroke-width=".25"/></g></svg>