<svg enable-background="new 0 0 50 50" viewBox="0 0 50 50" xmlns="http://www.w3.org/2000/svg"><g fill="#fff" stroke="#fff" stroke-miterlimit="10" stroke-width=".5"><path d="m31.7 15.8c0 .6.2 1.1.5 1.6.4.4.9.7 1.5.7h.1c1.2 0 2.2-1 2.2-2.2s-1-2.2-2.2-2.2c-.5 0-1.1.2-1.5.5-.3.4-.5 1-.6 1.6zm1.1 0c0-.3.1-.5.4-.7.2-.2.5-.3.8-.3.6 0 1 .5 1 1.1s-.5 1-1.1 1c-.3 0-.5-.2-.7-.4-.3-.1-.4-.4-.4-.7z"/><path d="m24.7 47.4c0 .1.1.2.1.2.5.5 1.1.8 1.8.8h.2c.9-.1 1.7-.7 2.1-1.5.1-.1.1-.3 0-.5 0-.2-5.3-17 4.6-25.9l.1-.1h.2l.1.1c9.9 8.9 4.7 25.7 4.6 25.9s0 .3.1.5c.4.8 1.2 1.4 2.1 1.5h.2c.7 0 1.3-.3 1.8-.8.1-.1.1-.1.1-.2 5.4-19.9-3.2-27.2-5.3-28.7l.1-.1c6.4-8.8-1.6-16.8-1.6-16.9-.1-.1-.4-.2-.5-.1-.3 0-.5.2-.5.4l-1.1 5.6-2.2-5.4c-.1-.2-.2-.3-.4-.3s-.4 0-.5.1-7.2 8.8-.6 16.5c-1.7 1.2-11.1 8.3-5.5 28.9zm6.9-28.9c-.2-.2-.4-.4-.5-.6-.5-.6-.7-1.4-.6-2.2.1-1.8 1.6-3.3 3.5-3.3h.2c1.9.1 3.4 1.8 3.3 3.7s-1.8 3.4-3.7 3.3c-.9-.1-1.6-.4-2.2-.9zm1.9-9-.4 1.9c-2 .3-3.5 1.9-3.8 3.9-1-2.3-1.1-4.9-.4-7.3.5-1.6 1.2-3 2.1-4.4zm4.9 5.4c-.4-1.9-2.1-3.4-4.1-3.6l1.6-8c1.5 1.8 4.4 6.3 2.5 11.6zm-3.2 5.4c.6-.2 1.1-.4 1.5-.8 1.4 1 10.3 7.9 5 27.5-.3.3-.6.4-1 .4-.5-.1-.9-.4-1.1-.8.7-2.2 4.6-17.4-4.4-26.3zm-9 4.9c1-2.3 2.7-4.3 4.8-5.7.4.4.9.6 1.4.8-9.1 8.8-5.1 24.1-4.5 26.3-.2.4-.6.7-1.1.8-.4 0-.8-.1-1.1-.4-2.9-11.1-1.3-18 .5-21.8z"/><path d="m7.6 8.7c0 3.4 2.3 6.3 5.5 7.2l-.5 9.7h-.4c-.3 0-.6.3-.6.6v18.6c.1 1.9 1.7 3.3 3.6 3.2 1.7-.1 3.1-1.5 3.2-3.2v-18.6c0-.3-.3-.6-.6-.6h-.4l-.5-9.7c4-1.1 6.4-5.2 5.3-9.2-.4-2-1.7-3.7-3.6-4.7-.3-.1-.6 0-.8.2 0 .1-.1.2-.1.3v5.6c0 .8-.6 1.4-1.4 1.4h-2.4c-.8 0-1.4-.6-1.4-1.4v-5.6c0-.3-.2-.6-.6-.6-.1 0-.2 0-.3.1-2.4 1.3-4 3.9-4 6.7zm5.2 18h4.6v18.1c.1 1.3-.9 2.4-2.1 2.4-1.3.1-2.4-.9-2.4-2.1 0-.1 0-.2 0-.3v-18.1zm1.4-10.6c.6.1 1.1.1 1.7 0l.5 9.5h-2.8zm-5.5-7.4c0-2 1-4 2.6-5.2v4.6c0 1.4 1.1 2.5 2.5 2.5h2.4c1.4 0 2.5-1.1 2.5-2.5v-4.6c2.8 2.1 3.5 6.1 1.4 8.9s-6.1 3.5-8.9 1.4c-1.5-1.2-2.5-3.1-2.5-5.1z"/></g></svg>