<?xml version="1.0" encoding="utf-8"?>
<!-- Generator: Adobe Illustrator 22.0.1, SVG Export Plug-In . SVG Version: 6.00 Build 0)  -->
<svg version="1.1" id="Calque_1" xmlns="http://www.w3.org/2000/svg" xmlns:xlink="http://www.w3.org/1999/xlink" x="0px" y="0px"
	 viewBox="0 0 50 50" style="enable-background:new 0 0 50 50;" xml:space="preserve">
<style type="text/css">
	.st0{fill:#FFFFFF;}
</style>
<title>Plan de travail 1 copie 5</title>
<path class="st0" d="M38.5,18.8h-35c-1.3,0-2.4-1-2.4-2.4c0,0,0,0,0,0v-6.3c0-1.3,1.1-2.4,2.4-2.4c0,0,0,0,0,0h35
	c1.3,0,2.3,1.1,2.4,2.4v6.3C40.8,17.7,39.8,18.8,38.5,18.8C38.5,18.8,38.5,18.8,38.5,18.8z M3.4,9.4c-0.4,0-0.8,0.4-0.8,0.8l0,0v6.2
	c0,0.4,0.4,0.8,0.8,0.8h35c0.4,0,0.8-0.4,0.8-0.8v-6.3c0-0.4-0.4-0.8-0.8-0.8L3.4,9.4L3.4,9.4z"/>
<path class="st0" d="M38.5,19.2h-35c-1.5,0-2.7-1.2-2.7-2.7v-6.3c0-1.5,1.2-2.7,2.7-2.7l0,0h35c1.5,0,2.7,1.2,2.7,2.7v6.3
	C41.2,17.9,39.9,19.1,38.5,19.2z M3.4,8.2c-1.1,0-2,0.9-2,2v6.2c0,1.1,0.9,2,2,2h35c1.1,0,2-0.9,2-2v-6.3c0-1.1-0.9-2-2-2L3.4,8.2
	L3.4,8.2z M38.5,17.6h-35c-0.6,0-1.2-0.5-1.2-1.1c0,0,0,0,0,0v-6.3C2.2,9.5,2.7,9,3.4,9c0,0,0,0,0,0h35c0.6,0,1.2,0.5,1.2,1.2
	c0,0,0,0,0,0v6.3C39.6,17.1,39.1,17.6,38.5,17.6C38.5,17.6,38.5,17.6,38.5,17.6z M3.4,9.8C3.2,9.8,3,10,3,10.2c0,0,0,0,0,0v6.2
	c0,0.2,0.2,0.4,0.4,0.4c0,0,0,0,0,0h35c0.2,0,0.4-0.2,0.4-0.4c0,0,0,0,0,0v-6.3c0-0.2-0.2-0.4-0.4-0.4c0,0,0,0,0,0L3.4,9.8L3.4,9.8z
	"/>
<rect x="4.9" y="12.5" class="st0" width="1.6" height="1.6"/>
<path class="st0" d="M6.5,14.4H5c-0.2,0-0.4-0.1-0.4-0.3c0,0,0,0,0,0v-1.6c0-0.2,0.1-0.4,0.3-0.4c0,0,0,0,0,0h1.5
	c0.2,0,0.4,0.1,0.4,0.3c0,0,0,0,0,0v1.6C6.9,14.3,6.7,14.4,6.5,14.4C6.5,14.5,6.5,14.5,6.5,14.4z M5.3,13.7h0.8v-0.8H5.3V13.7z"/>
<rect x="8.1" y="12.5" class="st0" width="1.6" height="1.6"/>
<path class="st0" d="M9.6,14.4H8.1c-0.2,0-0.4-0.1-0.4-0.3c0,0,0,0,0,0v-1.6c0-0.2,0.1-0.4,0.3-0.4c0,0,0,0,0,0h1.6
	c0.2,0,0.4,0.1,0.4,0.3c0,0,0,0,0,0v1.6C10,14.3,9.8,14.4,9.6,14.4C9.6,14.5,9.6,14.5,9.6,14.4z M8.4,13.7h0.8v-0.8H8.4V13.7z"/>
<rect x="11.1" y="12.5" class="st0" width="1.6" height="1.6"/>
<path class="st0" d="M12.8,14.4h-1.6c-0.2,0-0.4-0.1-0.4-0.3c0,0,0,0,0,0v-1.6c0-0.2,0.1-0.4,0.3-0.4c0,0,0,0,0,0h1.6
	c0.2,0,0.4,0.1,0.4,0.3c0,0,0,0,0,0v1.6C13.1,14.3,13,14.4,12.8,14.4z M11.5,13.7h0.9v-0.8h-0.8L11.5,13.7L11.5,13.7z"/>
<path class="st0" d="M38.5,31.3h-35c-1.3,0-2.4-1-2.4-2.4c0,0,0,0,0,0v-6.3c0-1.3,1.1-2.4,2.4-2.4c0,0,0,0,0,0h35
	c1.3,0,2.3,1.1,2.4,2.4v6.3C40.8,30.2,39.8,31.3,38.5,31.3C38.5,31.3,38.5,31.3,38.5,31.3z M3.4,21.9c-0.4,0-0.8,0.4-0.8,0.8V29
	c0,0.4,0.4,0.8,0.8,0.8h35c0.4,0,0.8-0.4,0.8-0.8v-6.3c0-0.4-0.4-0.8-0.8-0.8H3.4z"/>
<path class="st0" d="M38.5,31.6h-35c-1.5,0-2.7-1.2-2.7-2.7v-6.3c0-1.5,1.2-2.7,2.7-2.7h35c1.5,0,2.7,1.2,2.7,2.7v6.3
	C41.2,30.4,39.9,31.6,38.5,31.6z M3.4,20.7c-1.1,0-2,0.9-2,2V29c0,1.1,0.9,2,2,2h35c1.1,0,2-0.9,2-2v-6.3c0-1.1-0.9-2-2-2L3.4,20.7z
	 M38.5,30.1h-35c-0.6,0-1.2-0.5-1.2-1.1c0,0,0,0,0,0v-6.3c0-0.6,0.5-1.2,1.2-1.2c0,0,0,0,0,0h35c0.6,0,1.2,0.5,1.2,1.2c0,0,0,0,0,0
	v6.3C39.6,29.6,39.1,30.1,38.5,30.1C38.5,30.1,38.5,30.1,38.5,30.1z M3.4,22.3c-0.2,0-0.4,0.2-0.4,0.4c0,0,0,0,0,0V29
	c0,0.2,0.2,0.4,0.4,0.4c0,0,0,0,0,0h35c0.2,0,0.4-0.2,0.4-0.4c0,0,0,0,0,0v-6.3c0-0.2-0.2-0.4-0.4-0.4c0,0,0,0,0,0L3.4,22.3z"/>
<rect x="4.9" y="25" class="st0" width="1.6" height="1.5"/>
<path class="st0" d="M6.5,27H5c-0.2,0-0.4-0.1-0.4-0.3c0,0,0,0,0,0v-1.5c0-0.2,0.1-0.4,0.3-0.4c0,0,0,0,0,0h1.5
	c0.2,0,0.4,0.1,0.4,0.3c0,0,0,0,0,0v1.5C6.9,26.8,6.7,27,6.5,27z M5.3,26.3h0.8v-0.8H5.3V26.3z"/>
<rect x="8.1" y="25" class="st0" width="1.6" height="1.5"/>
<path class="st0" d="M9.6,27H8.1c-0.2,0-0.4-0.1-0.4-0.3c0,0,0,0,0,0v-1.5c0-0.2,0.1-0.4,0.3-0.4c0,0,0,0,0,0h1.6
	c0.2,0,0.4,0.1,0.4,0.3c0,0,0,0,0,0v1.5C10,26.8,9.8,27,9.6,27z M8.4,26.3h0.8v-0.8H8.4V26.3z"/>
<rect x="11.1" y="25" class="st0" width="1.6" height="1.5"/>
<path class="st0" d="M12.8,27h-1.6c-0.2,0-0.4-0.1-0.4-0.3c0,0,0,0,0,0v-1.5c0-0.2,0.1-0.4,0.3-0.4c0,0,0,0,0,0h1.6
	c0.2,0,0.4,0.1,0.4,0.3c0,0,0,0,0,0v1.5C13.1,26.8,13,27,12.8,27z M11.5,26.3h0.9v-0.8h-0.8L11.5,26.3L11.5,26.3z"/>
<path class="st0" d="M38.5,43.7h-35c-1.3,0-2.4-1-2.4-2.4c0,0,0,0,0,0v-6.3c0-1.3,1.1-2.4,2.4-2.4c0,0,0,0,0,0h35
	c1.3,0,2.3,1.1,2.4,2.4v6.3C40.8,42.7,39.8,43.7,38.5,43.7C38.5,43.7,38.5,43.7,38.5,43.7z M3.4,34.4c-0.4,0-0.8,0.4-0.8,0.8v6.3
	c0,0.4,0.4,0.8,0.8,0.8h35c0.4,0,0.8-0.4,0.8-0.8v-6.3c0-0.4-0.4-0.8-0.8-0.8H3.4z"/>
<path class="st0" d="M38.5,44.1h-35c-1.5,0-2.7-1.2-2.7-2.7v-6.3c0-1.5,1.2-2.7,2.7-2.7c0,0,0,0,0,0h35c1.5,0,2.7,1.2,2.7,2.7v6.3
	C41.2,42.9,39.9,44.1,38.5,44.1z M3.4,33.2c-1.1,0-2,0.9-2,2v6.3c0,1.1,0.9,2,2,2h35c1.1,0,2-0.9,2-2v-6.3c0-1.1-0.9-2-2-2L3.4,33.2
	z M38.5,42.6h-35c-0.6,0-1.2-0.5-1.2-1.2c0,0,0,0,0,0v-6.3c0-0.6,0.5-1.2,1.2-1.2c0,0,0,0,0,0h35c0.6,0,1.2,0.5,1.2,1.2c0,0,0,0,0,0
	v6.3C39.6,42,39.1,42.6,38.5,42.6C38.5,42.6,38.5,42.6,38.5,42.6z M3.4,34.7c-0.2,0-0.4,0.2-0.4,0.4c0,0,0,0,0,0v6.3
	c0,0.2,0.2,0.4,0.4,0.4c0,0,0,0,0,0h35c0.2,0,0.4-0.2,0.4-0.4c0,0,0,0,0,0v-6.3c0-0.2-0.2-0.4-0.4-0.4c0,0,0,0,0,0H3.4z"/>
<rect x="4.9" y="37.5" class="st0" width="1.6" height="1.5"/>
<path class="st0" d="M6.5,39.5H5c-0.2,0-0.4-0.1-0.4-0.3c0,0,0,0,0,0v-1.5c0-0.2,0.1-0.4,0.3-0.4c0,0,0,0,0,0h1.5
	c0.2,0,0.4,0.1,0.4,0.3c0,0,0,0,0,0v1.5C6.9,39.3,6.7,39.4,6.5,39.5z M5.3,38.7h0.8v-0.9H5.3V38.7z"/>
<rect x="8.1" y="37.5" class="st0" width="1.6" height="1.5"/>
<path class="st0" d="M9.6,39.5H8.1c-0.2,0-0.4-0.1-0.4-0.3c0,0,0,0,0,0v-1.5c0-0.2,0.1-0.4,0.3-0.4c0,0,0,0,0,0h1.6
	c0.2,0,0.4,0.1,0.4,0.3c0,0,0,0,0,0v1.5C10,39.3,9.8,39.4,9.6,39.5z M8.4,38.7h0.8v-0.9H8.4V38.7z"/>
<rect x="11.1" y="37.5" class="st0" width="1.6" height="1.5"/>
<path class="st0" d="M12.8,39.5h-1.6c-0.2,0-0.4-0.1-0.4-0.3c0,0,0,0,0,0v-1.5c0-0.2,0.1-0.4,0.3-0.4c0,0,0,0,0,0h1.6
	c0.2,0,0.4,0.1,0.4,0.3c0,0,0,0,0,0v1.5C13.1,39.3,13,39.4,12.8,39.5z M11.5,38.7h0.9v-0.9h-0.8L11.5,38.7L11.5,38.7z"/>
<rect x="44.7" y="2.4" class="st0" width="1.5" height="46"/>
<path class="st0" d="M46.3,48.8h-1.5c-0.2,0-0.4-0.1-0.4-0.3c0,0,0,0,0,0v-46c0-0.2,0.1-0.4,0.3-0.4c0,0,0,0,0,0h1.5
	c0.2,0,0.3,0.1,0.4,0.3c0,0,0,0,0,0.1v46C46.6,48.6,46.5,48.7,46.3,48.8C46.3,48.8,46.3,48.8,46.3,48.8z M45.1,48h0.8V2.8h-0.8V48z"
	/>
<rect x="40" y="12.5" class="st0" width="5.5" height="1.6"/>
<path class="st0" d="M45.5,14.4H40c-0.2,0-0.3-0.1-0.4-0.3c0,0,0,0,0-0.1v-1.6c0-0.2,0.1-0.4,0.3-0.4c0,0,0,0,0.1,0h5.5
	c0.2,0,0.4,0.1,0.4,0.3c0,0,0,0,0,0v1.6C45.8,14.3,45.7,14.4,45.5,14.4C45.5,14.5,45.5,14.5,45.5,14.4z M40.4,13.7h4.7v-0.8h-4.7
	V13.7z"/>
<rect x="40" y="25" class="st0" width="5.5" height="1.5"/>
<path class="st0" d="M45.5,27H40c-0.2,0-0.3-0.1-0.4-0.3c0,0,0,0,0-0.1v-1.5c0-0.2,0.1-0.4,0.3-0.4c0,0,0,0,0.1,0h5.5
	c0.2,0,0.4,0.1,0.4,0.3c0,0,0,0,0,0.1v1.5C45.8,26.8,45.7,27,45.5,27z M40.4,26.3h4.7v-0.8h-4.7V26.3z"/>
<rect x="40" y="37.5" class="st0" width="5.5" height="1.5"/>
<path class="st0" d="M45.5,39.5H40c-0.2,0-0.3-0.1-0.4-0.3c0,0,0,0,0-0.1v-1.5c0-0.2,0.1-0.4,0.3-0.4c0,0,0,0,0.1,0h5.5
	c0.2,0,0.4,0.1,0.4,0.3c0,0,0,0,0,0v1.5C45.8,39.3,45.7,39.5,45.5,39.5z M40.4,38.7h4.7v-0.9h-4.7V38.7z"/>
<path class="st0" d="M45.5,15.7c-1.3,0-2.3-1.1-2.4-2.4c0-1.3,1-2.3,2.3-2.4c0,0,0,0,0,0c1.3,0,2.4,1.1,2.4,2.4
	C47.8,14.7,46.8,15.7,45.5,15.7C45.5,15.7,45.5,15.7,45.5,15.7z M45.5,12.5c-0.5,0-0.8,0.4-0.8,0.8s0.4,0.8,0.8,0.8
	c0.5,0,0.8-0.4,0.8-0.8c0,0,0,0,0,0C46.3,12.9,45.9,12.5,45.5,12.5z"/>
<path class="st0" d="M45.5,16.1c-1.5,0-2.7-1.2-2.7-2.7s1.2-2.7,2.7-2.7s2.7,1.2,2.7,2.7S47,16.1,45.5,16.1L45.5,16.1z M45.5,11.3
	c-1.1,0-2,0.9-2,2s0.9,2,2,2s2-0.9,2-2S46.6,11.3,45.5,11.3z M45.5,14.4c-0.7,0-1.2-0.5-1.2-1.2s0.5-1.2,1.2-1.2s1.2,0.5,1.2,1.2
	C46.6,13.9,46.1,14.4,45.5,14.4C45.5,14.5,45.5,14.5,45.5,14.4z M45.5,12.9c-0.2,0-0.4,0.2-0.4,0.4c0,0,0,0,0,0
	c0,0.2,0.3,0.4,0.5,0.4c0.2,0,0.3-0.2,0.4-0.4C45.9,13.1,45.7,12.9,45.5,12.9C45.5,12.9,45.5,12.9,45.5,12.9z"/>
<path class="st0" d="M45.5,28.2c-1.3,0-2.4-1.1-2.3-2.4s1.1-2.4,2.4-2.3c1.3,0,2.3,1.1,2.4,2.4C47.8,27.1,46.8,28.2,45.5,28.2z
	 M45.5,25c-0.4,0-0.8,0.4-0.8,0.8c0,0.4,0.4,0.8,0.8,0.8c0.4,0,0.8-0.4,0.8-0.8C46.3,25.4,45.9,25,45.5,25z"/>
<path class="st0" d="M45.5,28.5c-1.5,0-2.7-1.2-2.7-2.7c0-1.5,1.2-2.7,2.7-2.7c1.5,0,2.7,1.2,2.7,2.7C48.2,27.3,47,28.5,45.5,28.5
	L45.5,28.5z M45.5,23.8c-1.1,0-2,0.9-2,2s0.9,2,2,2s2-0.9,2-2S46.6,23.8,45.5,23.8C45.5,23.8,45.5,23.8,45.5,23.8z M45.5,27
	c-0.7,0-1.2-0.5-1.2-1.2s0.5-1.2,1.2-1.2s1.2,0.5,1.2,1.2C46.6,26.5,46.1,27,45.5,27C45.5,27,45.5,27,45.5,27L45.5,27z M45.5,25.4
	c-0.2,0-0.4,0.2-0.4,0.4c0,0,0,0,0,0c0,0.2,0.1,0.5,0.4,0.5c0.2,0,0.5-0.1,0.5-0.4c0,0,0-0.1,0-0.1C45.9,25.6,45.7,25.4,45.5,25.4
	C45.5,25.4,45.5,25.4,45.5,25.4z"/>
<path class="st0" d="M45.5,40.6c-1.3,0-2.4-1.1-2.3-2.4c0-1.3,1.1-2.4,2.4-2.3c1.3,0,2.3,1.1,2.4,2.4C47.8,39.6,46.8,40.6,45.5,40.6
	z M45.5,37.5c-0.4,0-0.8,0.4-0.8,0.8c0,0.4,0.4,0.8,0.8,0.8c0.4,0,0.8-0.4,0.8-0.8C46.3,37.8,45.9,37.5,45.5,37.5z"/>
<path class="st0" d="M45.5,41c-1.5,0-2.7-1.2-2.7-2.7s1.2-2.7,2.7-2.7s2.7,1.2,2.7,2.7C48.2,39.8,47,41,45.5,41L45.5,41z M45.5,36.3
	c-1.1,0-2,0.9-2,2s0.9,2,2,2s2-0.9,2-2C47.4,37.2,46.6,36.3,45.5,36.3L45.5,36.3z M45.5,39.4c-0.6,0-1.2-0.5-1.2-1.1c0,0,0,0,0,0
	c0-0.6,0.5-1.2,1.2-1.2c0.7,0,1.2,0.5,1.2,1.2S46.1,39.4,45.5,39.4z M45.5,37.8c-0.2,0-0.4,0.2-0.4,0.4c0,0,0,0,0,0
	c0,0.2,0.1,0.4,0.3,0.4c0,0,0.1,0,0.1,0c0.3,0,0.5-0.1,0.5-0.4C45.9,38,45.7,37.8,45.5,37.8C45.5,37.8,45.5,37.8,45.5,37.8
	L45.5,37.8z"/>
</svg>
