<svg id="Calque_1" data-name="Calque 1" xmlns="http://www.w3.org/2000/svg" xmlns:xlink="http://www.w3.org/1999/xlink" viewBox="0 0 50 50"><defs><style>.cls-1,.cls-2{fill:none;stroke-miterlimit:10;}.cls-1{stroke:url(#Dégradé_sans_nom_14);}.cls-2{stroke-width:0.25px;stroke:url(#Dégradé_sans_nom_14-2);}</style><linearGradient id="Dégradé_sans_nom_14" x1="7.88" y1="42.11" x2="41.65" y2="8.35" gradientUnits="userSpaceOnUse"><stop offset="0" stop-color="#cc0625"/><stop offset="1" stop-color="#fac319"/></linearGradient><linearGradient id="Dégradé_sans_nom_14-2" x1="16.46" y1="31.98" x2="32.88" y2="15.56" xlink:href="#Dégradé_sans_nom_14"/></defs><title>Plan de travail 1 copie 2</title><circle class="cls-1" cx="24.77" cy="25.23" r="23.38"/><path class="cls-2" d="M29.89,16.8a.89.89,0,0,0-.22.89,2.4,2.4,0,0,0-.38.12l-4.58,1.9-.05,0-4.55-1.62-.27-.1a.89.89,0,0,0-.2-.95l-1.39-1.39a.93.93,0,0,0-1.28,0l-5,5a.92.92,0,0,0,0,1.29l1.38,1.38a.93.93,0,0,0,.65.27.85.85,0,0,0,.35-.08,5.46,5.46,0,0,0,.51,2.73l.08.18a1.46,1.46,0,0,0-.35.95A1.5,1.5,0,0,0,15,28.44a1.53,1.53,0,0,0,1.07.45l-.2.19a1.51,1.51,0,0,0,1.44,2.53,1.51,1.51,0,0,0,1.46,1.87,1.52,1.52,0,0,0,.94-.34h0a1.52,1.52,0,0,0,1.51,1.52,1.38,1.38,0,0,0,.7-.19l.39.39a1.47,1.47,0,0,0,1,.44h0a1.47,1.47,0,0,0,1.47-1.45l.3.3a1.5,1.5,0,0,0,2,.11,1.46,1.46,0,0,0,.52-1.09l.08.08a1.49,1.49,0,0,0,2,.11,1.47,1.47,0,0,0,.51-1.11h0a1.5,1.5,0,0,0,1.64.06A1.45,1.45,0,0,0,32.19,30l-.28-.29A14.32,14.32,0,0,0,34.57,26a5.52,5.52,0,0,0,.5-2.77.89.89,0,0,0,.5.15.9.9,0,0,0,.64-.26l1.38-1.39a.89.89,0,0,0,0-1.28l-5-5a.93.93,0,0,0-1.28,0ZM13.64,23l-1.39-1.39a.46.46,0,0,1,0-.65l5-5a.47.47,0,0,1,.33-.14.45.45,0,0,1,.33.14l1.38,1.38a.47.47,0,0,1,0,.66l-5,5A.48.48,0,0,1,13.64,23Zm1.68,5.11a1.07,1.07,0,0,1,0-1.51l.33-.33a1.07,1.07,0,0,1,1.51,0,1.08,1.08,0,0,1,0,1.51l-.29.28s0,0,0,0l-.05,0A1.09,1.09,0,0,1,15.32,28.13Zm.87,2.77a1.05,1.05,0,0,1,0-1.51l.92-.92,0,0,.05-.05a1.07,1.07,0,0,1,1.48,1.54l-1,1A1.1,1.1,0,0,1,16.19,30.9Zm3.33,1.82a1.1,1.1,0,0,1-1.51,0,1.08,1.08,0,0,1,0-1.51l.76-.76A1.07,1.07,0,0,1,20.28,32l-.06.06-.12.12Zm.64.42a1,1,0,0,1,.25-.68l.13-.13a1.06,1.06,0,1,1-.38.81ZM31.7,31.92a1.06,1.06,0,0,1-1.31-.18l-.52-.53h0L27.64,29a.23.23,0,0,0-.32.32l2.24,2.23h0A1,1,0,0,1,29.5,33a1.06,1.06,0,0,1-1.44-.1l-.82-.82-.07,0,0-.08-1.54-1.53a.22.22,0,0,0-.32,0,.23.23,0,0,0,0,.31l1.54,1.54.07,0a.16.16,0,0,0,0,.07h0a1,1,0,0,1,.29.73,1,1,0,0,1-.36.78,1.05,1.05,0,0,1-1.42-.1l-1.05-1L23.6,32a.23.23,0,1,0-.32.32l.8.79a1,1,0,0,1,.3.73,1,1,0,0,1-.3.72,1,1,0,0,1-1.45,0l-.34-.34a1.51,1.51,0,0,0-1.07-2.58,2.3,2.3,0,0,0-.26,0,1.51,1.51,0,0,0-.36-1.52,1.53,1.53,0,0,0-1.28-.41A1.53,1.53,0,0,0,19,28.11a1.5,1.5,0,0,0-1.22-.42A1.48,1.48,0,0,0,17.47,26a1.52,1.52,0,0,0-2.13,0l-.11.1h0a5.14,5.14,0,0,1-.43-2.89s0,0,0,0l4.78-4.78.37.12L24.11,20l-3,1.24-.14.08-.05,0a1.51,1.51,0,0,0-.58.57l-.69,1.19a1.51,1.51,0,0,0-.15,1.14,1.53,1.53,0,0,0,.71.92,1.51,1.51,0,0,0,2.06-.55l.45-.78a.26.26,0,0,1,.16-.13L24.47,23l4.3,4.2,3.11,3.11a1,1,0,0,1-.18,1.59Zm2.47-6.11a14.19,14.19,0,0,1-2.57,3.61L29.08,26.9l-4.41-4.3a.23.23,0,0,0-.24-.05l-1.71.7a.69.69,0,0,0-.37.32l-.46.78a1.06,1.06,0,0,1-1.45.39,1.08,1.08,0,0,1-.5-.65,1,1,0,0,1,.11-.81l.68-1.19a1,1,0,0,1,.4-.39l.05,0,.11-.06,8.17-3.39a2.23,2.23,0,0,1,.44-.13l4.67,4.67h0A5.12,5.12,0,0,1,34.17,25.81ZM31.92,15.6a.46.46,0,0,1,.33.13l5,5a.47.47,0,0,1,0,.66L35.89,22.8a.46.46,0,0,1-.65,0l-5-5a.46.46,0,0,1,0-.65l1.38-1.39A.46.46,0,0,1,31.92,15.6Z"/></svg>