<svg id="Calque_1" data-name="Calque 1" xmlns="http://www.w3.org/2000/svg" xmlns:xlink="http://www.w3.org/1999/xlink" viewBox="0 0 50 50"><defs><style>.cls-1{fill:url(#Dégradé_sans_nom_14);}</style><linearGradient id="Dégradé_sans_nom_14" x1="8.03" y1="41.97" x2="41.97" y2="8.03" gradientUnits="userSpaceOnUse"><stop offset="0" stop-color="#cc0625"/><stop offset="1" stop-color="#fac319"/></linearGradient></defs><title>Plan de travail 1</title><path class="cls-1" d="M25,1A24,24,0,1,0,49,25,24,24,0,0,0,25,1Zm0,1.12A22.88,22.88,0,1,1,2.12,25,22.88,22.88,0,0,1,25,2.12Zm-.56,8.93a2.23,2.23,0,0,0-2.23,2.21,2.23,2.23,0,1,0,4.45,0A2.21,2.21,0,0,0,24.44,11.05Zm0,1.11a1.1,1.1,0,0,1,1.12,1.1,1.14,1.14,0,0,1-1.12,1.14,1.12,1.12,0,0,1-1.1-1.14A1.08,1.08,0,0,1,24.44,12.16ZM21,18.3a.56.56,0,0,0,.1,1.12h3.35V37.28H21a.56.56,0,0,0-.51.61.57.57,0,0,0,.61.51h7.82a.56.56,0,0,0,0-1.12H25.56V18.86A.56.56,0,0,0,25,18.3H21Z"/></svg>