<?xml version="1.0" encoding="utf-8"?>
<!-- Generator: Adobe Illustrator 22.0.1, SVG Export Plug-In . SVG Version: 6.00 Build 0)  -->
<svg version="1.1" id="Calque_1" xmlns="http://www.w3.org/2000/svg" xmlns:xlink="http://www.w3.org/1999/xlink" x="0px" y="0px"
	 viewBox="0 0 50 50" style="enable-background:new 0 0 50 50;" xml:space="preserve">
<style type="text/css">
	.st0{fill:#FFFFFF;stroke:#FFFFFF;stroke-width:0.5;stroke-miterlimit:10;}
</style>
<title>icon_theme_design</title>
<path class="st0" d="M4.5,6.9C4.5,6.4,4.9,6,5.4,6s0.9,0.4,0.9,0.9S5.9,7.8,5.4,7.8c0,0,0,0,0,0C4.9,7.8,4.5,7.4,4.5,6.9z M8.2,7.8
	c0.5,0,0.9-0.4,0.9-0.9S8.7,6,8.2,6C7.7,6,7.3,6.4,7.3,6.9l0,0C7.3,7.4,7.7,7.8,8.2,7.8C8.2,7.8,8.2,7.8,8.2,7.8L8.2,7.8z M11,7.8
	c0.5,0,0.9-0.4,0.9-0.9S11.5,6,11,6c-0.5,0-0.9,0.4-0.9,0.9l0,0C10.1,7.4,10.5,7.8,11,7.8C11,7.8,11,7.8,11,7.8L11,7.8z M48.8,5.2
	v39.5c0,1.4-1.1,2.5-2.5,2.5H3.7c-1.4,0-2.5-1.1-2.5-2.5V5.2c0-1.4,1.1-2.5,2.5-2.5h42.6C47.7,2.7,48.8,3.8,48.8,5.2
	C48.8,5.2,48.8,5.2,48.8,5.2L48.8,5.2z M2.2,5.2V10h45.6V5.2c0-0.8-0.7-1.5-1.5-1.5H3.7C2.9,3.7,2.2,4.4,2.2,5.2
	C2.2,5.2,2.2,5.2,2.2,5.2L2.2,5.2L2.2,5.2z M47.8,44.7V11H2.2v33.7c0,0.8,0.7,1.5,1.5,1.5h42.7C47.1,46.2,47.8,45.5,47.8,44.7z
	 M37.4,17.3c0.9,0.9,0.9,2.3,0,3.2l0,0l-14.1,14v0.1c0.2,1.2-0.2,2.4-1,3.2c-1.4,1.2-3.1,1.8-4.9,1.8h-0.1c-1.8-0.1-3.5-0.8-4.8-2.1
	c-0.1-0.1-0.1-0.3,0-0.4c0,0,0.1-0.1,0.1-0.1c1-0.2,1.8-0.8,2.2-1.8c0.5-2.3,2.6-4,5-3.9h0.1l14.3-14.1
	C35.1,16.4,36.5,16.4,37.4,17.3z M14.3,37.5l0.2,0.1c0.7,0.5,1.5,0.8,2.4,0.7l0,0c1.6,0,3.2-0.6,4.4-1.6l0,0c0.6-0.5,0.9-1.3,0.9-2
	c0-0.4-0.1-0.7-0.3-1l-1.2-1.2h0c-2.2-0.2-4.2,1.1-4.9,3.1c-0.3,0.7-0.7,1.2-1.2,1.7L14.3,37.5z M22.9,32.9l2-2l-1.4-1.4l-2,2
	L22.9,32.9z M36.5,19.6c0.4-0.4,0.4-1,0-1.4l0,0c-0.4-0.4-1-0.4-1.4,0L24.4,28.7l1.4,1.4L36.5,19.6z"/>
</svg>
