<?xml version="1.0" encoding="utf-8"?>
<!-- Generator: Adobe Illustrator 22.0.1, SVG Export Plug-In . SVG Version: 6.00 Build 0)  -->
<svg version="1.1" id="Calque_1" xmlns="http://www.w3.org/2000/svg" xmlns:xlink="http://www.w3.org/1999/xlink" x="0px" y="0px"
	 viewBox="0 0 50 50" style="enable-background:new 0 0 50 50;" xml:space="preserve">
<style type="text/css">
	.st0{fill:#FFFFFF;}
</style>
<title>icon_theme_internet</title>
<path class="st0" d="M49.4,21.4h-18v-14h18V21.4z M33.4,19.4h14v-10h-14V19.4z"/>
<rect x="36.7" y="23.4" class="st0" width="7.3" height="2"/>
<rect x="39.4" y="20.4" class="st0" width="2" height="4"/>
<path class="st0" d="M49.4,45.4h-18v-14h18V45.4z M33.4,43.4h14v-10h-14V43.4z"/>
<rect x="36.7" y="47.4" class="st0" width="7.3" height="2"/>
<rect x="39.4" y="44.4" class="st0" width="2" height="4"/>
<polygon class="st0" points="30,39.4 26.5,39.4 26.5,12.4 30.5,12.4 30.5,14.4 28.5,14.4 28.5,37.4 30,37.4 "/>
<rect x="21.4" y="32.4" class="st0" width="6" height="2"/>
<path class="st0" d="M12.4,23.4c-6.1,0-11-4.9-11-11s4.9-11,11-11s11,4.9,11,11v0C23.4,18.5,18.5,23.4,12.4,23.4z M12.4,3.4
	c-5,0-9,4-9,9s4,9,9,9s9-4,9-9l0,0C21.4,7.4,17.4,3.4,12.4,3.4z"/>
<path class="st0" d="M12.4,23.4c-3.2,0-5-5.7-5-11s1.8-11,5-11s5,5.7,5,11S15.6,23.4,12.4,23.4z M12.4,3.4c-1.2,0-3,3.5-3,9
	s1.8,9,3,9s3-3.5,3-9S13.6,3.4,12.4,3.4z"/>
<rect x="3.7" y="6.4" class="st0" width="17.3" height="2"/>
<rect x="3.7" y="16.4" class="st0" width="17.3" height="2"/>
<rect x="2.4" y="11.4" class="st0" width="20" height="2"/>
<polygon class="st0" points="28.5,13.4 26.5,13.4 26.5,12.4 24.5,12.4 24.5,10.4 28.5,10.4 "/>
<path class="st0" d="M19.4,39.4h-18v-14h18V39.4z M3.4,37.4h14v-10h-14V37.4z"/>
<rect x="6.7" y="41.4" class="st0" width="7.3" height="2"/>
<rect x="9.4" y="38.4" class="st0" width="2" height="4"/>
</svg>
