<svg enable-background="new 0 0 50 50" viewBox="0 0 50 50" xmlns="http://www.w3.org/2000/svg"><path d="m4.5 6.9c0-.5.4-.9.9-.9s.9.4.9.9-.4.9-.9.9c-.5 0-.9-.4-.9-.9zm3.7.9c.5 0 .9-.4.9-.9s-.4-.9-.9-.9-.9.4-.9.9c0 .5.4.9.9.9zm2.8 0c.5 0 .9-.4.9-.9s-.4-.9-.9-.9-.9.4-.9.9c0 .5.4.9.9.9zm37.8-2.6v39.5c0 1.4-1.1 2.5-2.5 2.5h-42.6c-1.4 0-2.5-1.1-2.5-2.5v-39.5c0-1.4 1.1-2.5 2.5-2.5h42.6c1.4 0 2.5 1.1 2.5 2.5zm-46.6 0v4.8h45.6v-4.8c0-.8-.7-1.5-1.5-1.5h-42.6c-.8 0-1.5.7-1.5 1.5zm45.6 39.5v-33.7h-45.6v33.7c0 .8.7 1.5 1.5 1.5h42.7c.7 0 1.4-.7 1.4-1.5zm-10.4-27.4c.9.9.9 2.3 0 3.2l-14.1 14v.1c.2 1.2-.2 2.4-1 3.2-1.4 1.2-3.1 1.8-4.9 1.8h-.1c-1.8-.1-3.5-.8-4.8-2.1-.1-.1-.1-.3 0-.4 0 0 .1-.1.1-.1 1-.2 1.8-.8 2.2-1.8.5-2.3 2.6-4 5-3.9h.1l14.3-14.1c.9-.8 2.3-.8 3.2.1zm-23.1 20.2.2.1c.7.5 1.5.8 2.4.7 1.6 0 3.2-.6 4.4-1.6.6-.5.9-1.3.9-2 0-.4-.1-.7-.3-1l-1.2-1.2c-2.2-.2-4.2 1.1-4.9 3.1-.3.7-.7 1.2-1.2 1.7zm8.6-4.6 2-2-1.4-1.4-2 2zm13.6-13.3c.4-.4.4-1 0-1.4-.4-.4-1-.4-1.4 0l-10.7 10.5 1.4 1.4z" fill="#fff" stroke="#fff" stroke-miterlimit="10" stroke-width=".5"/></svg>