<?xml version="1.0" encoding="utf-8"?>
<!-- Generator: Adobe Illustrator 22.0.1, SVG Export Plug-In . SVG Version: 6.00 Build 0)  -->
<svg version="1.1" id="Calque_1" xmlns="http://www.w3.org/2000/svg" xmlns:xlink="http://www.w3.org/1999/xlink" x="0px" y="0px"
	 viewBox="0 0 50 50" style="enable-background:new 0 0 50 50;" xml:space="preserve">
<style type="text/css">
	.st0{fill:#FFFFFF;}
</style>
<title>icon_theme_front</title>
<path class="st0" d="M14.4,48.9h22.3c1.8,0,3.2-1.4,3.2-3.2c0,0,0,0,0,0V4.2c0-1.8-1.4-3.2-3.2-3.2c0,0,0,0,0,0H14.4
	c-1.8,0-3.2,1.4-3.2,3.2c0,0,0,0,0,0v41.5C11.1,47.5,12.6,48.9,14.4,48.9C14.4,48.9,14.4,48.9,14.4,48.9z M12.4,4.2c0-1.1,0.9-2,2-2
	h22.3c1.1,0,2,0.9,2,2v41.5c0,1.1-0.9,2-2,2H14.4c-1.1,0-2-0.9-2-2V4.2z"/>
<path class="st0" d="M36.6,49.4H14.4c-2,0-3.6-1.6-3.7-3.6c0,0,0,0,0,0V4.2c0-2,1.6-3.6,3.7-3.7h22.3c2,0,3.7,1.6,3.7,3.7v41.4
	C40.3,47.7,38.7,49.4,36.6,49.4z M14.4,1.5c-1.5,0-2.7,1.2-2.8,2.7c0,0,0,0.1,0,0.1v41.5c0,1.5,1.3,2.7,2.8,2.7h22.3
	c1.6,0,2.8-1.3,2.8-2.8V4.2c0-1.5-1.2-2.8-2.8-2.8c0,0,0,0,0,0H14.4z M36.6,48.2H14.4c-1.3,0-2.4-1.1-2.5-2.4c0,0,0,0,0-0.1V4.2
	c0-1.3,1.1-2.4,2.4-2.5c0,0,0,0,0.1,0h22.3c1.4,0,2.5,1.1,2.5,2.4c0,0,0,0,0,0v41.5C39.1,47.1,38,48.2,36.6,48.2z M14.4,2.7
	c-0.9,0-1.6,0.7-1.6,1.5c0,0,0,0,0,0v41.5c0,0.9,0.7,1.6,1.5,1.6c0,0,0,0,0,0h22.3c0.9,0,1.6-0.7,1.6-1.6V4.2c0-0.9-0.7-1.6-1.6-1.6
	c0,0,0,0-0.1,0H14.4z"/>
<path class="st0" d="M15.7,39.5h19.6c0.3,0,0.5-0.2,0.5-0.5l0,0V8.3c0-0.3-0.2-0.5-0.5-0.5l0,0H15.7c-0.3,0-0.5,0.2-0.5,0.5V39
	C15.1,39.3,15.3,39.5,15.7,39.5C15.6,39.5,15.7,39.5,15.7,39.5z M16.2,8.8h18.5v29.7H16.2V8.8z"/>
<path class="st0" d="M35.3,40H15.7c-0.6,0-1-0.4-1-1V8.3c-0.1-0.5,0.3-0.9,0.8-1c0.1,0,0.1,0,0.2,0h19.6c0.5,0,0.9,0.4,1,0.9
	c0,0,0,0.1,0,0.1V39c0.1,0.5-0.3,0.9-0.8,1C35.4,40,35.3,40,35.3,40z M15.7,8.1C15.6,8.1,15.6,8.1,15.7,8.1L15.6,39l0.1,0.1h19.6
	c0.1,0,0.1,0,0.1-0.1V8.3c0-0.1,0-0.1-0.1-0.1L15.7,8.1L15.7,8.1z M35.2,39H15.7V8.3h19.4L35.2,39L35.2,39z M16.6,38.1h17.6V9.2
	H16.6V38.1z"/>
<path class="st0" d="M22.5,5.6h5.4c0.5,0,0.8-0.2,0.8-0.6s-0.3-0.6-0.8-0.6h-5.4c-0.5,0-0.8,0.2-0.8,0.6S22.1,5.6,22.5,5.6z"/>
<path class="st0" d="M27.9,6h-5.4c-0.6,0-1.2-0.4-1.3-1.1c0-0.6,0.6-1.1,1.2-1.1c0,0,0,0,0,0h5.4c0.6-0.1,1.2,0.4,1.3,1
	c0,0,0,0.1,0,0.1C29.1,5.6,28.6,6.1,27.9,6C27.9,6.1,27.9,6.1,27.9,6z M22.5,4.8c-0.2,0-0.4,0.1-0.4,0.1s0.1,0.1,0.4,0.1h5.4
	c0.2,0,0.4-0.1,0.4-0.1s-0.2-0.1-0.4-0.1H22.5z"/>
<path class="st0" d="M25.2,41.7c-1.2,0-2.2,1-2.2,2.2s1,2.2,2.2,2.2s2.2-1,2.2-2.2c0,0,0,0,0,0C27.4,42.6,26.4,41.7,25.2,41.7
	C25.2,41.7,25.2,41.7,25.2,41.7z M25.2,44.8c-0.6,0-1-0.4-1-1s0.4-1,1-1s1,0.4,1,1c0,0.5-0.4,1-0.9,1C25.3,44.8,25.2,44.8,25.2,44.8
	z"/>
<path class="st0" d="M25.2,46.4c-1.4,0.1-2.6-1-2.7-2.4c-0.1-1.4,1-2.6,2.4-2.7c0.1,0,0.2,0,0.3,0c1.4-0.1,2.6,1,2.7,2.4
	c0.1,1.4-1,2.6-2.4,2.7C25.4,46.4,25.3,46.4,25.2,46.4z M25.2,42.2c-0.9-0.1-1.7,0.6-1.8,1.5c-0.1,0.9,0.6,1.7,1.5,1.8
	c0.1,0,0.2,0,0.3,0c0.9,0.1,1.7-0.6,1.8-1.5c0.1-0.9-0.6-1.7-1.5-1.8C25.4,42.2,25.3,42.2,25.2,42.2z M25.2,45.2
	c-0.8,0-1.4-0.6-1.4-1.4c0-0.8,0.6-1.4,1.4-1.4s1.4,0.6,1.4,1.4C26.6,44.5,26,45.2,25.2,45.2C25.2,45.2,25.2,45.2,25.2,45.2z
	 M25.2,43.4c-0.3,0-0.5,0.2-0.5,0.5s0.2,0.5,0.5,0.5l0,0c0.3,0,0.5-0.2,0.5-0.5S25.5,43.4,25.2,43.4z"/>
</svg>
