<svg enable-background="new 0 0 50 50" viewBox="0 0 50 50" xmlns="http://www.w3.org/2000/svg"><g fill="#fff"><path d="m38.5 18.8h-35c-1.3 0-2.4-1-2.4-2.4v-6.3c0-1.3 1.1-2.4 2.4-2.4h35c1.3 0 2.3 1.1 2.4 2.4v6.3c-.1 1.3-1.1 2.4-2.4 2.4zm-35.1-9.4c-.4 0-.8.4-.8.8v6.2c0 .4.4.8.8.8h35c.4 0 .8-.4.8-.8v-6.3c0-.4-.4-.8-.8-.8z"/><path d="m38.5 19.2h-35c-1.5 0-2.7-1.2-2.7-2.7v-6.3c0-1.5 1.2-2.7 2.7-2.7h35c1.5 0 2.7 1.2 2.7 2.7v6.3c0 1.4-1.3 2.6-2.7 2.7zm-35.1-11c-1.1 0-2 .9-2 2v6.2c0 1.1.9 2 2 2h35c1.1 0 2-.9 2-2v-6.3c0-1.1-.9-2-2-2zm35.1 9.4h-35c-.6 0-1.2-.5-1.2-1.1v-6.3c-.1-.7.4-1.2 1.1-1.2h35c.6 0 1.2.5 1.2 1.2v6.3c0 .6-.5 1.1-1.1 1.1zm-35.1-7.8c-.2 0-.4.2-.4.4v6.2c0 .2.2.4.4.4h35c.2 0 .4-.2.4-.4v-6.3c0-.2-.2-.4-.4-.4z"/><path d="m4.9 12.5h1.6v1.6h-1.6z"/><path d="m6.5 14.4h-1.5c-.2 0-.4-.1-.4-.3v-1.6c0-.2.1-.4.3-.4h1.5c.2 0 .4.1.4.3v1.6c.1.3-.1.4-.3.4 0 .1 0 .1 0 0zm-1.2-.7h.8v-.8h-.8z"/><path d="m8.1 12.5h1.6v1.6h-1.6z"/><path d="m9.6 14.4h-1.5c-.2 0-.4-.1-.4-.3v-1.6c0-.2.1-.4.3-.4h1.6c.2 0 .4.1.4.3v1.6c0 .3-.2.4-.4.4 0 .1 0 .1 0 0zm-1.2-.7h.8v-.8h-.8z"/><path d="m11.1 12.5h1.6v1.6h-1.6z"/><path d="m12.8 14.4h-1.6c-.2 0-.4-.1-.4-.3v-1.6c0-.2.1-.4.3-.4h1.6c.2 0 .4.1.4.3v1.6c0 .3-.1.4-.3.4zm-1.3-.7h.9v-.8h-.8z"/><path d="m38.5 31.3h-35c-1.3 0-2.4-1-2.4-2.4v-6.3c0-1.3 1.1-2.4 2.4-2.4h35c1.3 0 2.3 1.1 2.4 2.4v6.3c-.1 1.3-1.1 2.4-2.4 2.4zm-35.1-9.4c-.4 0-.8.4-.8.8v6.3c0 .4.4.8.8.8h35c.4 0 .8-.4.8-.8v-6.3c0-.4-.4-.8-.8-.8z"/><path d="m38.5 31.6h-35c-1.5 0-2.7-1.2-2.7-2.7v-6.3c0-1.5 1.2-2.7 2.7-2.7h35c1.5 0 2.7 1.2 2.7 2.7v6.3c0 1.5-1.3 2.7-2.7 2.7zm-35.1-10.9c-1.1 0-2 .9-2 2v6.3c0 1.1.9 2 2 2h35c1.1 0 2-.9 2-2v-6.3c0-1.1-.9-2-2-2zm35.1 9.4h-35c-.6 0-1.2-.5-1.2-1.1v-6.3c0-.6.5-1.2 1.2-1.2h35c.6 0 1.2.5 1.2 1.2v6.3c-.1.6-.6 1.1-1.2 1.1zm-35.1-7.8c-.2 0-.4.2-.4.4v6.3c0 .2.2.4.4.4h35c.2 0 .4-.2.4-.4v-6.3c0-.2-.2-.4-.4-.4z"/><path d="m4.9 25h1.6v1.5h-1.6z"/><path d="m6.5 27h-1.5c-.2 0-.4-.1-.4-.3v-1.5c0-.2.1-.4.3-.4h1.5c.2 0 .4.1.4.3v1.5c.1.2-.1.4-.3.4zm-1.2-.7h.8v-.8h-.8z"/><path d="m8.1 25h1.6v1.5h-1.6z"/><path d="m9.6 27h-1.5c-.2 0-.4-.1-.4-.3v-1.5c0-.2.1-.4.3-.4h1.6c.2 0 .4.1.4.3v1.5c0 .2-.2.4-.4.4zm-1.2-.7h.8v-.8h-.8z"/><path d="m11.1 25h1.6v1.5h-1.6z"/><path d="m12.8 27h-1.6c-.2 0-.4-.1-.4-.3v-1.5c0-.2.1-.4.3-.4h1.6c.2 0 .4.1.4.3v1.5c0 .2-.1.4-.3.4zm-1.3-.7h.9v-.8h-.8z"/><path d="m38.5 43.7h-35c-1.3 0-2.4-1-2.4-2.4v-6.3c0-1.3 1.1-2.4 2.4-2.4h35c1.3 0 2.3 1.1 2.4 2.4v6.3c-.1 1.4-1.1 2.4-2.4 2.4zm-35.1-9.3c-.4 0-.8.4-.8.8v6.3c0 .4.4.8.8.8h35c.4 0 .8-.4.8-.8v-6.3c0-.4-.4-.8-.8-.8z"/><path d="m38.5 44.1h-35c-1.5 0-2.7-1.2-2.7-2.7v-6.3c0-1.5 1.2-2.7 2.7-2.7h35c1.5 0 2.7 1.2 2.7 2.7v6.3c0 1.5-1.3 2.7-2.7 2.7zm-35.1-10.9c-1.1 0-2 .9-2 2v6.3c0 1.1.9 2 2 2h35c1.1 0 2-.9 2-2v-6.3c0-1.1-.9-2-2-2zm35.1 9.4h-35c-.6 0-1.2-.5-1.2-1.2v-6.3c0-.6.5-1.2 1.2-1.2h35c.6 0 1.2.5 1.2 1.2v6.3c-.1.6-.6 1.2-1.2 1.2zm-35.1-7.9c-.2 0-.4.2-.4.4v6.3c0 .2.2.4.4.4h35c.2 0 .4-.2.4-.4v-6.3c0-.2-.2-.4-.4-.4z"/><path d="m4.9 37.5h1.6v1.5h-1.6z"/><path d="m6.5 39.5h-1.5c-.2 0-.4-.1-.4-.3v-1.5c0-.2.1-.4.3-.4h1.5c.2 0 .4.1.4.3v1.5c.1.2-.1.3-.3.4zm-1.2-.8h.8v-.9h-.8z"/><path d="m8.1 37.5h1.6v1.5h-1.6z"/><path d="m9.6 39.5h-1.5c-.2 0-.4-.1-.4-.3v-1.5c0-.2.1-.4.3-.4h1.6c.2 0 .4.1.4.3v1.5c0 .2-.2.3-.4.4zm-1.2-.8h.8v-.9h-.8z"/><path d="m11.1 37.5h1.6v1.5h-1.6z"/><path d="m12.8 39.5h-1.6c-.2 0-.4-.1-.4-.3v-1.5c0-.2.1-.4.3-.4h1.6c.2 0 .4.1.4.3v1.5c0 .2-.1.3-.3.4zm-1.3-.8h.9v-.9h-.8z"/><path d="m44.7 2.4h1.5v46h-1.5z"/><path d="m46.3 48.8h-1.5c-.2 0-.4-.1-.4-.3v-46c0-.2.1-.4.3-.4h1.5c.2 0 .3.1.4.3v.1 46c0 .1-.1.2-.3.3zm-1.2-.8h.8v-45.2h-.8z"/><path d="m40 12.5h5.5v1.6h-5.5z"/><path d="m45.5 14.4h-5.5c-.2 0-.3-.1-.4-.3 0 0 0 0 0-.1v-1.6c0-.2.1-.4.3-.4h.1 5.5c.2 0 .4.1.4.3v1.6c-.1.4-.2.5-.4.5 0 .1 0 .1 0 0zm-5.1-.7h4.7v-.8h-4.7z"/><path d="m40 25h5.5v1.5h-5.5z"/><path d="m45.5 27h-5.5c-.2 0-.3-.1-.4-.3 0 0 0 0 0-.1v-1.5c0-.2.1-.4.3-.4h.1 5.5c.2 0 .4.1.4.3v.1 1.5c-.1.2-.2.4-.4.4zm-5.1-.7h4.7v-.8h-4.7z"/><path d="m40 37.5h5.5v1.5h-5.5z"/><path d="m45.5 39.5h-5.5c-.2 0-.3-.1-.4-.3 0 0 0 0 0-.1v-1.5c0-.2.1-.4.3-.4h.1 5.5c.2 0 .4.1.4.3v1.5c-.1.3-.2.5-.4.5zm-5.1-.8h4.7v-.9h-4.7z"/><path d="m45.5 15.7c-1.3 0-2.3-1.1-2.4-2.4 0-1.3 1-2.3 2.3-2.4 1.3 0 2.4 1.1 2.4 2.4 0 1.4-1 2.4-2.3 2.4zm0-3.2c-.5 0-.8.4-.8.8s.4.8.8.8c.5 0 .8-.4.8-.8 0-.4-.4-.8-.8-.8z"/><path d="m45.5 16.1c-1.5 0-2.7-1.2-2.7-2.7s1.2-2.7 2.7-2.7 2.7 1.2 2.7 2.7-1.2 2.7-2.7 2.7zm0-4.8c-1.1 0-2 .9-2 2s.9 2 2 2 2-.9 2-2-.9-2-2-2zm0 3.1c-.7 0-1.2-.5-1.2-1.2s.5-1.2 1.2-1.2 1.2.5 1.2 1.2c-.1.7-.6 1.2-1.2 1.2 0 .1 0 .1 0 0zm0-1.5c-.2 0-.4.2-.4.4 0 .2.3.4.5.4s.3-.2.4-.4c-.1-.2-.3-.4-.5-.4z"/><path d="m45.5 28.2c-1.3 0-2.4-1.1-2.3-2.4s1.1-2.4 2.4-2.3c1.3 0 2.3 1.1 2.4 2.4-.2 1.2-1.2 2.3-2.5 2.3zm0-3.2c-.4 0-.8.4-.8.8s.4.8.8.8.8-.4.8-.8-.4-.8-.8-.8z"/><path d="m45.5 28.5c-1.5 0-2.7-1.2-2.7-2.7s1.2-2.7 2.7-2.7 2.7 1.2 2.7 2.7-1.2 2.7-2.7 2.7zm0-4.7c-1.1 0-2 .9-2 2s.9 2 2 2 2-.9 2-2-.9-2-2-2zm0 3.2c-.7 0-1.2-.5-1.2-1.2s.5-1.2 1.2-1.2 1.2.5 1.2 1.2c-.1.7-.6 1.2-1.2 1.2zm0-1.6c-.2 0-.4.2-.4.4 0 .2.1.5.4.5.2 0 .5-.1.5-.4v-.1c-.1-.2-.3-.4-.5-.4z"/><path d="m45.5 40.6c-1.3 0-2.4-1.1-2.3-2.4 0-1.3 1.1-2.4 2.4-2.3 1.3 0 2.3 1.1 2.4 2.4-.2 1.3-1.2 2.3-2.5 2.3zm0-3.1c-.4 0-.8.4-.8.8s.4.8.8.8.8-.4.8-.8c0-.5-.4-.8-.8-.8z"/><path d="m45.5 41c-1.5 0-2.7-1.2-2.7-2.7s1.2-2.7 2.7-2.7 2.7 1.2 2.7 2.7-1.2 2.7-2.7 2.7zm0-4.7c-1.1 0-2 .9-2 2s.9 2 2 2 2-.9 2-2c-.1-1.1-.9-2-2-2zm0 3.1c-.6 0-1.2-.5-1.2-1.1 0-.6.5-1.2 1.2-1.2s1.2.5 1.2 1.2-.6 1.1-1.2 1.1zm0-1.6c-.2 0-.4.2-.4.4 0 .2.1.4.3.4h.1c.3 0 .5-.1.5-.4-.1-.2-.3-.4-.5-.4z"/></g></svg>