<?xml version="1.0" encoding="utf-8"?>
<!-- Generator: Adobe Illustrator 22.0.1, SVG Export Plug-In . SVG Version: 6.00 Build 0)  -->
<svg version="1.1" id="Calque_1" xmlns="http://www.w3.org/2000/svg" xmlns:xlink="http://www.w3.org/1999/xlink" x="0px" y="0px"
	 viewBox="0 0 50 50" style="enable-background:new 0 0 50 50;" xml:space="preserve">
<style type="text/css">
	.st0{fill:#FFFFFF;stroke:#FFFFFF;stroke-width:0.5;stroke-miterlimit:10;}
</style>
<title>icon_theme_tooling</title>
<path class="st0" d="M31.7,15.8c0,0.6,0.2,1.1,0.5,1.6c0.4,0.4,0.9,0.7,1.5,0.7h0.1c1.2,0,2.2-1,2.2-2.2c0-1.2-1-2.2-2.2-2.2
	c-0.5,0-1.1,0.2-1.5,0.5C32,14.6,31.8,15.2,31.7,15.8z M32.8,15.8c0-0.3,0.1-0.5,0.4-0.7c0.2-0.2,0.5-0.3,0.8-0.3c0.6,0,1,0.5,1,1.1
	c0,0.6-0.5,1-1.1,1l0,0c-0.3,0-0.5-0.2-0.7-0.4C32.9,16.4,32.8,16.1,32.8,15.8z"/>
<path class="st0" d="M24.7,47.4c0,0.1,0.1,0.2,0.1,0.2c0.5,0.5,1.1,0.8,1.8,0.8h0.2c0.9-0.1,1.7-0.7,2.1-1.5c0.1-0.1,0.1-0.3,0-0.5
	c0-0.2-5.3-17,4.6-25.9l0.1-0.1h0.2l0.1,0.1c9.9,8.9,4.7,25.7,4.6,25.9c-0.1,0.2,0,0.3,0.1,0.5c0.4,0.8,1.2,1.4,2.1,1.5h0.2
	c0.7,0,1.3-0.3,1.8-0.8c0.1-0.1,0.1-0.1,0.1-0.2c5.4-19.9-3.2-27.2-5.3-28.7l0.1-0.1l0,0C44,9.8,36,1.8,36,1.7
	c-0.1-0.1-0.4-0.2-0.5-0.1C35.2,1.6,35,1.8,35,2l-1.1,5.6l-2.2-5.4c-0.1-0.2-0.2-0.3-0.4-0.3c-0.2,0-0.4,0-0.5,0.1
	c-0.1,0.1-7.2,8.8-0.6,16.5C28.5,19.7,19.1,26.8,24.7,47.4z M31.6,18.5c-0.2-0.2-0.4-0.4-0.5-0.6c-0.5-0.6-0.7-1.4-0.6-2.2
	c0.1-1.8,1.6-3.3,3.5-3.3h0.2c1.9,0.1,3.4,1.8,3.3,3.7s-1.8,3.4-3.7,3.3C32.9,19.3,32.2,19,31.6,18.5z M33.5,9.5l-0.4,1.9
	c-2,0.3-3.5,1.9-3.8,3.9c-1-2.3-1.1-4.9-0.4-7.3c0.5-1.6,1.2-3,2.1-4.4L33.5,9.5z M38.4,14.9c-0.4-1.9-2.1-3.4-4.1-3.6l1.6-8
	C37.4,5.1,40.3,9.6,38.4,14.9L38.4,14.9z M35.2,20.3c0.6-0.2,1.1-0.4,1.5-0.8c1.4,1,10.3,7.9,5,27.5c-0.3,0.3-0.6,0.4-1,0.4
	c-0.5-0.1-0.9-0.4-1.1-0.8C40.3,44.4,44.2,29.2,35.2,20.3L35.2,20.3z M26.2,25.2c1-2.3,2.7-4.3,4.8-5.7c0.4,0.4,0.9,0.6,1.4,0.8
	c-9.1,8.8-5.1,24.1-4.5,26.3c-0.2,0.4-0.6,0.7-1.1,0.8c-0.4,0-0.8-0.1-1.1-0.4C22.8,35.9,24.4,29,26.2,25.2L26.2,25.2z"/>
<path class="st0" d="M7.6,8.7c0,3.4,2.3,6.3,5.5,7.2l-0.5,9.7h-0.4c-0.3,0-0.6,0.3-0.6,0.6v18.6c0.1,1.9,1.7,3.3,3.6,3.2
	c1.7-0.1,3.1-1.5,3.2-3.2V26.2c0-0.3-0.3-0.6-0.6-0.6h-0.4l-0.5-9.7c4-1.1,6.4-5.2,5.3-9.2C21.8,4.7,20.5,3,18.6,2
	c-0.3-0.1-0.6,0-0.8,0.2c0,0.1-0.1,0.2-0.1,0.3v5.6c0,0.8-0.6,1.4-1.4,1.4l0,0h-2.4c-0.8,0-1.4-0.6-1.4-1.4V2.5
	c0-0.3-0.2-0.6-0.6-0.6c-0.1,0-0.2,0-0.3,0.1C9.2,3.3,7.6,5.9,7.6,8.7z M12.8,26.7h4.6v18.1c0.1,1.3-0.9,2.4-2.1,2.4
	c-1.3,0.1-2.4-0.9-2.4-2.1c0-0.1,0-0.2,0-0.3V26.7z M14.2,16.1c0.6,0.1,1.1,0.1,1.7,0l0.5,9.5h-2.8L14.2,16.1z M8.7,8.7
	c0-2,1-4,2.6-5.2v4.6c0,1.4,1.1,2.5,2.5,2.5l0,0h2.4c1.4,0,2.5-1.1,2.5-2.5V3.5c2.8,2.1,3.5,6.1,1.4,8.9s-6.1,3.5-8.9,1.4
	C9.7,12.6,8.7,10.7,8.7,8.7z"/>
</svg>
