<?xml version="1.0" encoding="utf-8"?>
<!-- Generator: Adobe Illustrator 22.1.0, SVG Export Plug-In . SVG Version: 6.00 Build 0)  -->
<svg version="1.1" id="Calque_1" xmlns="http://www.w3.org/2000/svg" xmlns:xlink="http://www.w3.org/1999/xlink" x="0px" y="0px"
	 viewBox="0 0 50 50" style="enable-background:new 0 0 50 50;" xml:space="preserve">
<style type="text/css">
	.st0{fill:none;stroke:url(#SVGID_1_);stroke-miterlimit:10;}
	.st1{fill:none;stroke:url(#SVGID_2_);stroke-width:0.25;stroke-miterlimit:10;}
</style>
<title>Plan de travail 1 copie 4</title>
<linearGradient id="SVGID_1_" gradientUnits="userSpaceOnUse" x1="8.1143" y1="8.1143" x2="41.8857" y2="41.8857" gradientTransform="matrix(1 0 0 -1 0 50)">
	<stop  offset="0" style="stop-color:#CC0625"/>
	<stop  offset="1" style="stop-color:#FAC319"/>
</linearGradient>
<circle class="st0" cx="25" cy="25" r="23.4"/>
<linearGradient id="SVGID_2_" gradientUnits="userSpaceOnUse" x1="11.8163" y1="25" x2="38.184" y2="25">
	<stop  offset="0" style="stop-color:#CC0625"/>
	<stop  offset="1" style="stop-color:#FAC319"/>
</linearGradient>
<path class="st1" d="M38,29.8c-0.2-0.5-0.5-1-0.7-1.5c-1-2-2.4-3.7-4.2-5.1c-0.2-0.1-0.3-0.3-0.5-0.4c1-0.8,1.7-2,2-3.3
	c0.3-1.5-0.1-2.9-0.9-4.1c-1-1.5-2.7-2.4-4.5-2.4c-1.1,0-2.2,0.3-3.2,1c-0.1,0.1-0.1,0.1-0.2,0.2c-1-0.6-2.2-1-3.4-1
	c-1.3,0-2.6,0.4-3.7,1.2c-2.9,2-3.6,6-1.6,8.9c0.3,0.5,0.8,0.9,1.2,1.3c-0.2,0.1-0.4,0.3-0.6,0.4c-2,1.6-3.6,3.6-4.8,5.9
	c-0.3,0.6-0.6,1.1-0.8,1.7L12,32.8l0.2,0.2c2.8,2.6,6.4,4,10.2,4c3.7,0,7.3-1.4,10.1-3.9c2-0.5,3.9-1.5,5.5-3L38,30L38,29.8z
	 M26.7,35.6c-0.2,0.1-0.3,0.1-0.5,0.1c-1.2,0.3-2.5,0.5-3.9,0.5c-3.5,0-6.9-1.3-9.6-3.6c0.2-0.5,0.5-1,0.7-1.5
	c1.1-2.2,2.7-4.2,4.7-5.7c0.3-0.2,0.6-0.4,0.9-0.6l0.4-0.2L19,24.3c-0.6-0.4-1-0.9-1.4-1.4c-1.8-2.6-1.2-6.2,1.4-8
	c1-0.7,2.1-1,3.3-1c0.9,0,2,0.2,3,0.8c0.8,0.5,1.5,1.3,1.7,1.7c0.9,1.3,1.2,2.8,0.9,4.3c-0.1,0.8-0.4,1.5-0.9,2.2
	c-0.4,0.7-1,1.3-1.8,1.8l-0.1,0.1l0.4,0.2c0.3,0.2,0.6,0.4,0.9,0.6c1.9,1.6,3.5,3.5,4.7,5.7c0.2,0.5,0.5,1,0.7,1.4
	C31.3,33.3,28.3,35.1,26.7,35.6z M32.5,32.5c-0.2-0.5-0.5-1.1-0.8-1.6c-1.2-2.3-2.8-4.3-4.8-5.9c-0.2-0.1-0.4-0.3-0.6-0.4
	c1.2-1,2-2.3,2.3-3.8c0.3-1.7-0.1-3.4-1.1-4.8c-0.4-0.5-0.9-1-1.4-1.4c0,0,0,0,0,0c0.8-0.6,1.8-0.9,2.8-0.9c1.6,0,3.2,0.8,4.1,2.1
	c0.8,1.1,1.1,2.4,0.8,3.7c-0.2,1.3-1,2.4-2.1,3.2l-0.4,0.2l0.4,0.2c0.3,0.2,0.5,0.3,0.8,0.5c1.7,1.4,3,3,4,4.9
	c0.2,0.4,0.4,0.8,0.6,1.3C36,31.1,34.3,32,32.5,32.5z"/>
</svg>
