<svg enable-background="new 0 0 50 50" viewBox="0 0 50 50" xmlns="http://www.w3.org/2000/svg"><g fill="#fff"><path d="m14.4 48.9h22.3c1.8 0 3.2-1.4 3.2-3.2v-41.5c0-1.8-1.4-3.2-3.2-3.2h-22.3c-1.8 0-3.2 1.4-3.2 3.2v41.5c-.1 1.8 1.4 3.2 3.2 3.2zm-2-44.7c0-1.1.9-2 2-2h22.3c1.1 0 2 .9 2 2v41.5c0 1.1-.9 2-2 2h-22.3c-1.1 0-2-.9-2-2z"/><path d="m36.6 49.4h-22.2c-2 0-3.6-1.6-3.7-3.6v-41.6c0-2 1.6-3.6 3.7-3.7h22.3c2 0 3.7 1.6 3.7 3.7v41.4c-.1 2.1-1.7 3.8-3.8 3.8zm-22.2-47.9c-1.5 0-2.7 1.2-2.8 2.7v.1 41.5c0 1.5 1.3 2.7 2.8 2.7h22.3c1.6 0 2.8-1.3 2.8-2.8v-41.5c0-1.5-1.2-2.8-2.8-2.8h-22.3zm22.2 46.7h-22.2c-1.3 0-2.4-1.1-2.5-2.4 0 0 0 0 0-.1v-41.5c0-1.3 1.1-2.4 2.4-2.5h.1 22.3c1.4 0 2.5 1.1 2.5 2.4v41.5c-.1 1.5-1.2 2.6-2.6 2.6zm-22.2-45.5c-.9 0-1.6.7-1.6 1.5v41.5c0 .9.7 1.6 1.5 1.6h22.3c.9 0 1.6-.7 1.6-1.6v-41.5c0-.9-.7-1.6-1.6-1.6 0 0 0 0-.1 0h-22.1z"/><path d="m15.7 39.5h19.6c.3 0 .5-.2.5-.5v-30.7c0-.3-.2-.5-.5-.5h-19.6c-.3 0-.5.2-.5.5v30.7c-.1.3.1.5.5.5-.1 0 0 0 0 0zm.5-30.7h18.5v29.7h-18.5z"/><path d="m35.3 40h-19.6c-.6 0-1-.4-1-1v-30.7c-.1-.5.3-.9.8-1h.2 19.6c.5 0 .9.4 1 .9v.1 30.7c.1.5-.3.9-.8 1-.1 0-.2 0-.2 0zm-19.6-31.9c-.1 0-.1 0 0 0l-.1 30.9.1.1h19.6c.1 0 .1 0 .1-.1v-30.7c0-.1 0-.1-.1-.1zm19.5 30.9h-19.5v-30.7h19.4zm-18.6-.9h17.6v-28.9h-17.6z"/><path d="m22.5 5.6h5.4c.5 0 .8-.2.8-.6s-.3-.6-.8-.6h-5.4c-.5 0-.8.2-.8.6s.4.6.8.6z"/><path d="m27.9 6h-5.4c-.6 0-1.2-.4-1.3-1.1 0-.6.6-1.1 1.2-1.1h5.4c.6-.1 1.2.4 1.3 1v.1c0 .7-.5 1.2-1.2 1.1 0 .1 0 .1 0 0zm-5.4-1.2c-.2 0-.4.1-.4.1s.1.1.4.1h5.4c.2 0 .4-.1.4-.1s-.2-.1-.4-.1z"/><path d="m25.2 41.7c-1.2 0-2.2 1-2.2 2.2s1 2.2 2.2 2.2 2.2-1 2.2-2.2c0-1.3-1-2.2-2.2-2.2zm0 3.1c-.6 0-1-.4-1-1s.4-1 1-1 1 .4 1 1c0 .5-.4 1-.9 1z"/><path d="m25.2 46.4c-1.4.1-2.6-1-2.7-2.4s1-2.6 2.4-2.7h.3c1.4-.1 2.6 1 2.7 2.4s-1 2.6-2.4 2.7c-.1 0-.2 0-.3 0zm0-4.2c-.9-.1-1.7.6-1.8 1.5s.6 1.7 1.5 1.8h.3c.9.1 1.7-.6 1.8-1.5s-.6-1.7-1.5-1.8c-.1 0-.2 0-.3 0zm0 3c-.8 0-1.4-.6-1.4-1.4s.6-1.4 1.4-1.4 1.4.6 1.4 1.4c0 .7-.6 1.4-1.4 1.4zm0-1.8c-.3 0-.5.2-.5.5s.2.5.5.5c.3 0 .5-.2.5-.5s-.2-.5-.5-.5z"/></g></svg>