<svg enable-background="new 0 0 50 50" viewBox="0 0 50 50" xmlns="http://www.w3.org/2000/svg"><g fill="#fff"><path d="m49.4 21.4h-18v-14h18zm-16-2h14v-10h-14z"/><path d="m36.7 23.4h7.3v2h-7.3z"/><path d="m39.4 20.4h2v4h-2z"/><path d="m49.4 45.4h-18v-14h18zm-16-2h14v-10h-14z"/><path d="m36.7 47.4h7.3v2h-7.3z"/><path d="m39.4 44.4h2v4h-2z"/><path d="m30 39.4h-3.5v-27h4v2h-2v23h1.5z"/><path d="m21.4 32.4h6v2h-6z"/><path d="m12.4 23.4c-6.1 0-11-4.9-11-11s4.9-11 11-11 11 4.9 11 11c0 6.1-4.9 11-11 11zm0-20c-5 0-9 4-9 9s4 9 9 9 9-4 9-9c0-5-4-9-9-9z"/><path d="m12.4 23.4c-3.2 0-5-5.7-5-11s1.8-11 5-11 5 5.7 5 11-1.8 11-5 11zm0-20c-1.2 0-3 3.5-3 9s1.8 9 3 9 3-3.5 3-9-1.8-9-3-9z"/><path d="m3.7 6.4h17.3v2h-17.3z"/><path d="m3.7 16.4h17.3v2h-17.3z"/><path d="m2.4 11.4h20v2h-20z"/><path d="m28.5 13.4h-2v-1h-2v-2h4z"/><path d="m19.4 39.4h-18v-14h18zm-16-2h14v-10h-14z"/><path d="m6.7 41.4h7.3v2h-7.3z"/><path d="m9.4 38.4h2v4h-2z"/></g></svg>