<svg viewBox="0 0 50 50" xmlns="http://www.w3.org/2000/svg" xmlns:xlink="http://www.w3.org/1999/xlink"><linearGradient id="a" gradientUnits="userSpaceOnUse" x1="7.74" x2="41.51" y1="41.6" y2="7.83"><stop offset="0" stop-color="#cc0625"/><stop offset="1" stop-color="#fac319"/></linearGradient><linearGradient id="b" x1="18.48" x2="30.77" xlink:href="#a" y1="21.12" y2="21.12"/><linearGradient id="c" x1="16.18" x2="33.07" xlink:href="#a" y1="31.81" y2="31.81"/><g fill="none" stroke-miterlimit="10"><circle cx="24.63" cy="24.72" r="23.38" stroke="url(#a)"/><g stroke-width=".5"><path d="m23.73 31.4a5.92 5.92 0 0 0 6.79-5.83v-1.8h-2.95v-1.18h2.95v-1.77h-2.95v-1.18h2.95v-1.77h-2.95v-1.17h2.95a5.9 5.9 0 0 0 -11.79 0h2.88v1.17h-2.88v1.77h2.88v1.18h-2.88v1.77h2.88v1.18h-2.88v1.68a6 6 0 0 0 5 5.95z" stroke="url(#b)"/><path d="m30.58 37.39h-5.58v-4.22a8.21 8.21 0 0 0 7.82-7.82.38.38 0 0 0 -.75 0 7.45 7.45 0 0 1 -14.89 0 .36.36 0 0 0 -.38-.35.38.38 0 0 0 -.37.37 8.21 8.21 0 0 0 7.82 7.82v4.22h-5.58a.63.63 0 0 0 -.47.19.66.66 0 0 0 .47 1.12h11.94a.66.66 0 0 0 .47-1.12 1 1 0 0 0 -.5-.21z" stroke="url(#c)"/></g></g></svg>