<svg viewBox="0 0 50 50" xmlns="http://www.w3.org/2000/svg"><g fill="#ab162d"><path d="m26.15 35.14h.72a10.24 10.24 0 0 0 10.23-10.23v-13.81a10.24 10.24 0 0 0 -10.23-10.23h-.72a10.24 10.24 0 0 0 -10.23 10.23v13.81a10.24 10.24 0 0 0 10.23 10.23zm6-27.45a.9.9 0 1 1 -.89.89.89.89 0 0 1 .9-.89zm0 3.58a.9.9 0 1 1 -.89.9.9.9 0 0 1 .9-.9zm0 3.59a.9.9 0 1 1 -.89.9.9.9 0 0 1 .9-.9zm0 3.59a.9.9 0 1 1 -.89.9.9.9 0 0 1 .9-.9zm-3.76-14.17a.9.9 0 1 1 -.89.89.89.89 0 0 1 .89-.89zm0 3.41a.9.9 0 1 1 -.89.89.89.89 0 0 1 .89-.89zm0 3.58a.9.9 0 1 1 -.89.9.9.9 0 0 1 .89-.9zm0 3.59a.9.9 0 1 1 -.89.9.9.9 0 0 1 .89-.9zm0 3.59a.9.9 0 1 1 -.89.9.9.9 0 0 1 .89-.9zm-3.76-14.17a.9.9 0 1 1 -.9.89.89.89 0 0 1 .9-.89zm0 3.41a.9.9 0 1 1 -.9.89.89.89 0 0 1 .9-.89zm0 3.58a.9.9 0 1 1 -.9.9.9.9 0 0 1 .9-.9zm0 3.59a.9.9 0 1 1 -.9.9.89.89 0 0 1 .9-.9zm0 3.59a.9.9 0 1 1 -.9.9.89.89 0 0 1 .9-.9zm-3.77-10.76a.9.9 0 1 1 -.9.89.9.9 0 0 1 .9-.89zm0 3.58a.9.9 0 1 1 0 1.8.9.9 0 1 1 0-1.8zm0 3.59a.9.9 0 1 1 -.9.9.9.9 0 0 1 .9-.9zm0 3.59a.9.9 0 1 1 -.9.9.9.9 0 0 1 .9-.9z"/><path d="m40 14a1.08 1.08 0 0 0 -1.13 1v9.87a12.36 12.36 0 1 1 -24.72 0v-9.87a1.08 1.08 0 0 0 -2.15 0v9.87a14.54 14.54 0 0 0 13.43 14.53v5.43h-6.72a2.15 2.15 0 1 0 0 4.3h15.61a2.15 2.15 0 0 0 0-4.3h-6.73v-5.43a14.54 14.54 0 0 0 13.41-14.49v-9.91a1.08 1.08 0 0 0 -1-1z"/></g></svg>