<svg id="Capa_1" data-name="Capa 1" xmlns="http://www.w3.org/2000/svg" viewBox="0 0 50 50"><defs><style>.cls-1{fill:#3d405c;}</style></defs><title>Plan de travail 1</title><path class="cls-1" d="M.81,4V17.19a.85.85,0,0,0,.85.85H35.14a.79.79,0,0,0,.4-.1L48.15,11.3a.85.85,0,0,0,0-1.49L36.85,3.25a.82.82,0,0,0-.43-.12H1.66A.85.85,0,0,0,.81,4Z"/><path class="cls-1" d="M48.61,35.72V22.52a.85.85,0,0,0-.85-.85H14.28a.9.9,0,0,0-.4.09L1.26,28.4a.86.86,0,0,0,0,1.49l11.34,6.57a.92.92,0,0,0,.43.11H47.76A.85.85,0,0,0,48.61,35.72Z"/><rect class="cls-1" x="23.53" y="0.65" width="2.35" height="48.71"/></svg>