<svg id="Calque_1" data-name="Calque 1" xmlns="http://www.w3.org/2000/svg" xmlns:xlink="http://www.w3.org/1999/xlink" viewBox="0 0 100 55"><defs><style>.cls-1{fill:#383b3e;}.cls-2{fill:url(#Dégradé_sans_nom_11);}.cls-3{fill:url(#Dégradé_sans_nom_11-2);}</style><linearGradient id="Dégradé_sans_nom_11" x1="49.46" y1="22.59" x2="100.58" y2="21.8" gradientUnits="userSpaceOnUse"><stop offset="0" stop-color="#c64439"/><stop offset="1" stop-color="#f0c051"/></linearGradient><linearGradient id="Dégradé_sans_nom_11-2" x1="49.45" y1="22.26" x2="100.6" y2="21.47" xlink:href="#Dégradé_sans_nom_11"/></defs><title>Plan de travail 1 copie 3</title><path class="cls-1" d="M2.67,43.42a3,3,0,0,0,.49,0c.6,0,1.16-.22,1.16-.88s-.53-.88-1.17-.88H2.67Zm0-2.17H3.2c.62,0,1-.32,1-.76s-.4-.74-1-.74a2.4,2.4,0,0,0-.51,0Zm-.59-1.86a6,6,0,0,1,1.07-.09,1.89,1.89,0,0,1,1.25.33,1,1,0,0,1,.38.8,1.07,1.07,0,0,1-.77,1v0a1.16,1.16,0,0,1,.93,1.13,1.22,1.22,0,0,1-.38.91A2.29,2.29,0,0,1,3,43.9a6.38,6.38,0,0,1-.91,0Z"/><path class="cls-1" d="M6.11,42.24c0,.72.41,1.25,1,1.25s1-.53,1-1.26c0-.55-.28-1.25-1-1.25s-1,.65-1,1.26m2.59,0a1.6,1.6,0,0,1-1.63,1.73,1.55,1.55,0,0,1-1.56-1.68,1.58,1.58,0,0,1,1.61-1.72A1.55,1.55,0,0,1,8.7,42.21"/><path class="cls-1" d="M9.45,41.63c0-.39,0-.72,0-1h.52l0,.64h0a1,1,0,0,1,.9-.71.44.44,0,0,1,.17,0v.55l-.2,0a.84.84,0,0,0-.8.76,2.4,2.4,0,0,0,0,.28v1.73H9.45Z"/><path class="cls-1" d="M13.81,41.94a1,1,0,0,0,0-.25.86.86,0,0,0-.85-.69c-.62,0-1,.54-1,1.26s.32,1.2,1,1.2a.88.88,0,0,0,.87-.71,1,1,0,0,0,0-.25Zm.6-2.85V43c0,.29,0,.62,0,.85H13.9l0-.57h0a1.21,1.21,0,0,1-1.11.64,1.49,1.49,0,0,1-1.4-1.66,1.55,1.55,0,0,1,1.46-1.74,1.1,1.1,0,0,1,1,.49h0V39.09Z"/><path class="cls-1" d="M17.46,41.92a.84.84,0,0,0-.82-1,1,1,0,0,0-.91,1Zm-1.74.42a1,1,0,0,0,1.12,1.13,2.28,2.28,0,0,0,.91-.16l.1.42a2.75,2.75,0,0,1-1.09.2,1.51,1.51,0,0,1-1.6-1.64,1.58,1.58,0,0,1,1.53-1.75A1.38,1.38,0,0,1,18,42.07c0,.12,0,.21,0,.27Z"/><path class="cls-1" d="M20.49,42.2c-.64,0-1.38.11-1.38.74a.52.52,0,0,0,.56.56.83.83,0,0,0,.79-.54.63.63,0,0,0,0-.19Zm.09,1.66,0-.41h0a1.2,1.2,0,0,1-1,.49.93.93,0,0,1-1-.94c0-.78.7-1.21,2-1.21v-.06a.67.67,0,0,0-.74-.76,1.6,1.6,0,0,0-.85.25l-.14-.39a2,2,0,0,1,1.07-.29,1.16,1.16,0,0,1,1.25,1.33v1.22a4.53,4.53,0,0,0,.05.77Z"/><path class="cls-1" d="M24.76,43c0,.33,0,.63,0,.88h-.52l0-.53h0a1.22,1.22,0,0,1-1.08.61c-.51,0-1.12-.28-1.12-1.43v-1.9h.59v1.8c0,.62.19,1,.73,1a.87.87,0,0,0,.78-.54,1,1,0,0,0,.05-.3v-2h.6Z"/><path class="cls-1" d="M26,40.61l.46.7c.13.18.23.35.34.53h0c.1-.19.21-.36.32-.54l.46-.69h.64l-1.11,1.57,1.14,1.68h-.67l-.48-.73c-.13-.19-.24-.37-.35-.56h0c-.11.19-.23.37-.35.56l-.47.73H25.3l1.16-1.66-1.1-1.59Z"/><path class="cls-1" d="M30.9,43.4a3.52,3.52,0,0,0,.6,0,1.74,1.74,0,0,0,1.93-1.92,1.62,1.62,0,0,0-1.84-1.75,3.73,3.73,0,0,0-.69.06Zm-.58-4a9,9,0,0,1,1.25-.09,2.61,2.61,0,0,1,1.84.56,2.11,2.11,0,0,1,.64,1.63,2.36,2.36,0,0,1-.66,1.76,2.76,2.76,0,0,1-2,.65,10.47,10.47,0,0,1-1.06,0Z"/><path class="cls-1" d="M36.89,41.92a.85.85,0,0,0-.82-1,1,1,0,0,0-.92,1Zm-1.74.42a1,1,0,0,0,1.12,1.13,2.23,2.23,0,0,0,.9-.16l.1.42a2.7,2.7,0,0,1-1.08.2,1.51,1.51,0,0,1-1.61-1.64,1.58,1.58,0,0,1,1.53-1.75,1.38,1.38,0,0,1,1.35,1.53,1.65,1.65,0,0,1,0,.27Z"/><path class="cls-1" d="M38.43,40.61l.64,1.83a6.51,6.51,0,0,1,.26.83h0c.08-.27.17-.53.28-.83l.63-1.83h.62L39.6,43.86H39l-1.25-3.25Z"/><path class="cls-1" d="M43.45,41.92a.85.85,0,0,0-.82-1,1,1,0,0,0-.92,1Zm-1.74.42a1,1,0,0,0,1.12,1.13,2.23,2.23,0,0,0,.9-.16l.1.42a2.7,2.7,0,0,1-1.08.2,1.51,1.51,0,0,1-1.61-1.64,1.58,1.58,0,0,1,1.53-1.75A1.38,1.38,0,0,1,44,42.07a1.65,1.65,0,0,1,0,.27Z"/><rect class="cls-1" x="44.76" y="39.09" width="0.59" height="4.77"/><path class="cls-1" d="M46.72,42.24c0,.72.41,1.25,1,1.25s1-.53,1-1.26c0-.55-.28-1.25-1-1.25s-1,.65-1,1.26m2.59,0a1.6,1.6,0,0,1-1.63,1.73,1.55,1.55,0,0,1-1.56-1.68,1.58,1.58,0,0,1,1.61-1.72,1.55,1.55,0,0,1,1.58,1.67"/><path class="cls-1" d="M50.64,42.54a1.57,1.57,0,0,0,0,.24.92.92,0,0,0,.89.69c.63,0,1-.51,1-1.25s-.34-1.21-1-1.21a1,1,0,0,0-.9.73.93.93,0,0,0,0,.24Zm-.58-.87c0-.41,0-.75,0-1.06h.53l0,.56h0a1.29,1.29,0,0,1,1.16-.63,1.47,1.47,0,0,1,1.38,1.65,1.54,1.54,0,0,1-1.48,1.75,1.14,1.14,0,0,1-1-.51h0V45.2h-.58Z"/><path class="cls-1" d="M56,41.92a.84.84,0,0,0-.82-1,1,1,0,0,0-.91,1Zm-1.74.42a1,1,0,0,0,1.12,1.13,2.28,2.28,0,0,0,.91-.16l.1.42a2.75,2.75,0,0,1-1.09.2,1.51,1.51,0,0,1-1.6-1.64,1.58,1.58,0,0,1,1.53-1.75,1.37,1.37,0,0,1,1.34,1.53,1.65,1.65,0,0,1,0,.27Z"/><path class="cls-1" d="M57.34,41.63c0-.39,0-.72,0-1h.52l0,.64h0a1,1,0,0,1,.91-.71.41.41,0,0,1,.16,0v.55l-.2,0a.83.83,0,0,0-.79.76,1.27,1.27,0,0,0,0,.28v1.73h-.59Z"/><path class="cls-1" d="M63.27,41.92a.85.85,0,0,0-.83-1,1,1,0,0,0-.91,1Zm-1.74.42a1,1,0,0,0,1.12,1.13,2.23,2.23,0,0,0,.9-.16l.1.42a2.71,2.71,0,0,1-1.09.2A1.51,1.51,0,0,1,61,42.29a1.58,1.58,0,0,1,1.53-1.75,1.38,1.38,0,0,1,1.35,1.53,1.65,1.65,0,0,1,0,.27Z"/><path class="cls-1" d="M67.09,43.86l-.58-1c-.24-.38-.39-.63-.53-.89h0c-.13.26-.26.5-.5.9l-.54,1h-.68l1.39-2.29-1.33-2.24H65l.6,1.06c.17.3.29.53.42.77h0a7.3,7.3,0,0,1,.41-.77l.62-1.06h.67l-1.38,2.21,1.42,2.32Z"/><path class="cls-1" d="M69,42.54a1.66,1.66,0,0,0,0,.24.92.92,0,0,0,.89.69c.63,0,1-.51,1-1.25S70.58,41,70,41a.94.94,0,0,0-.89.73A.93.93,0,0,0,69,42Zm-.59-.87c0-.41,0-.75,0-1.06h.54l0,.56h0a1.29,1.29,0,0,1,1.17-.63,1.47,1.47,0,0,1,1.38,1.65A1.55,1.55,0,0,1,70,43.94a1.14,1.14,0,0,1-1-.51h0V45.2h-.59Z"/><path class="cls-1" d="M74.34,41.92a.84.84,0,0,0-.82-1,1,1,0,0,0-.91,1Zm-1.74.42a1,1,0,0,0,1.12,1.13,2.23,2.23,0,0,0,.9-.16l.1.42a2.66,2.66,0,0,1-1.08.2A1.51,1.51,0,0,1,72,42.29a1.58,1.58,0,0,1,1.53-1.75,1.38,1.38,0,0,1,1.35,1.53,1.65,1.65,0,0,1,0,.27Z"/><path class="cls-1" d="M75.65,41.63c0-.39,0-.72,0-1h.52l0,.64h0a1,1,0,0,1,.9-.71.44.44,0,0,1,.17,0v.55l-.2,0a.84.84,0,0,0-.8.76,2.46,2.46,0,0,0,0,.28v1.73h-.59Z"/><path class="cls-1" d="M77.88,40.61h.6v3.26h-.6Zm.67-.91a.36.36,0,0,1-.38.36.35.35,0,0,1-.36-.36.36.36,0,0,1,.37-.37.36.36,0,0,1,.37.37"/><path class="cls-1" d="M81.53,41.92a.84.84,0,0,0-.82-1,1,1,0,0,0-.91,1Zm-1.74.42a1,1,0,0,0,1.12,1.13,2.28,2.28,0,0,0,.91-.16l.1.42a2.75,2.75,0,0,1-1.09.2,1.51,1.51,0,0,1-1.6-1.64,1.58,1.58,0,0,1,1.53-1.75,1.38,1.38,0,0,1,1.35,1.53c0,.12,0,.21,0,.27Z"/><path class="cls-1" d="M82.84,41.49c0-.33,0-.61,0-.88h.52l0,.54h0a1.2,1.2,0,0,1,1.08-.61c.45,0,1.15.27,1.15,1.38v1.94H85V42c0-.53-.2-1-.76-1a.86.86,0,0,0-.83.88v2h-.6Z"/><path class="cls-1" d="M88.92,43.74a2.22,2.22,0,0,1-.94.19,1.55,1.55,0,0,1-1.63-1.66,1.66,1.66,0,0,1,1.76-1.73,2,2,0,0,1,.82.17l-.14.46a1.35,1.35,0,0,0-.68-.16A1.13,1.13,0,0,0,87,42.25a1.12,1.12,0,0,0,1.14,1.21,1.7,1.7,0,0,0,.72-.16Z"/><path class="cls-1" d="M91.64,41.92a.84.84,0,0,0-.82-1,1,1,0,0,0-.91,1Zm-1.74.42A1,1,0,0,0,91,43.47a2.19,2.19,0,0,0,.9-.16l.11.42a2.75,2.75,0,0,1-1.09.2,1.51,1.51,0,0,1-1.61-1.64,1.59,1.59,0,0,1,1.54-1.75,1.37,1.37,0,0,1,1.34,1.53,1.65,1.65,0,0,1,0,.27Z"/><path class="cls-1" d="M4.36,29.64a11.84,11.84,0,0,0,1.91.11c2.36,0,4.54-.86,4.54-3.43,0-2.4-2.07-3.39-4.56-3.39H4.36Zm0-8.44H6.43c2.41,0,3.83-1.25,3.83-2.95,0-2.07-1.58-2.88-3.88-2.88a9.65,9.65,0,0,0-2,.16ZM2.08,14a22,22,0,0,1,4.17-.37c2.28,0,3.75.39,4.85,1.28A3.69,3.69,0,0,1,12.57,18a4.19,4.19,0,0,1-3,3.87v.05a4.56,4.56,0,0,1,3.64,4.42,4.74,4.74,0,0,1-1.49,3.53C10.49,31,8.5,31.53,5.62,31.53a27.45,27.45,0,0,1-3.54-.21Z"/><path class="cls-1" d="M18.57,29.56a13.7,13.7,0,0,0,2.31.14c4.87,0,7.52-2.72,7.52-7.48,0-4.16-2.33-6.79-7.16-6.79a13.05,13.05,0,0,0-2.67.23ZM16.29,14a32.6,32.6,0,0,1,4.85-.37c3.27,0,5.61.76,7.16,2.2a8.09,8.09,0,0,1,2.49,6.32A9.31,9.31,0,0,1,28.24,29c-1.65,1.65-4.38,2.54-7.81,2.54a36.92,36.92,0,0,1-4.14-.21Z"/><path class="cls-1" d="M42.71,31.37l-2.25-3.9C39.54,26,39,25,38.41,24h0c-.5,1-1,2-1.91,3.5l-2.13,3.87H31.7l5.4-8.91-5.19-8.71h2.65l2.33,4.13c.66,1.15,1.16,2,1.63,3h.08c.5-1,.94-1.85,1.6-3l2.41-4.13h2.62l-5.37,8.57,5.5,9.05Z"/><path class="cls-2" d="M80.55,14.82q-3.37,0-3.37,3.6v7.35q0,3.63,3.37,3.63t3.38-3.63V18.42Q83.93,14.82,80.55,14.82Z"/><path class="cls-3" d="M92.39,16.56l0,0V10a2.51,2.51,0,0,0-2.51-2.5H55a2.5,2.5,0,0,0-2.5,2.5v6.55l0,0a5.62,5.62,0,0,1-5.61,5.63h0a5.62,5.62,0,0,1,5.61,5.63l0,.06v6A2.51,2.51,0,0,0,55,36.36H89.86a2.52,2.52,0,0,0,2.51-2.51v-6l0,0A5.62,5.62,0,0,1,98,22.2h0A5.63,5.63,0,0,1,92.39,16.56ZM60.91,30.09a.53.53,0,0,1-.23.45,1,1,0,0,1-.55.16.93.93,0,0,1-.56-.16.53.53,0,0,1-.23-.45V13.94c0-.38.27-.57.79-.57s.78.19.78.57ZM73.4,13.42,64.41,31a.57.57,0,0,1-.58.35.66.66,0,0,1-.44-.17.55.55,0,0,1-.19-.42.58.58,0,0,1,.07-.28l9.06-17.71a.46.46,0,0,1,.47-.29.79.79,0,0,1,.47.19.58.58,0,0,1,.22.45A.5.5,0,0,1,73.4,13.42ZM85.5,25.77a5,5,0,0,1-1.34,3.85,5.9,5.9,0,0,1-7.21,0,4.93,4.93,0,0,1-1.34-3.85V18.42A4.9,4.9,0,0,1,77,14.6a5.9,5.9,0,0,1,7.21,0,4.94,4.94,0,0,1,1.34,3.82Z"/></svg>