<svg width="41" height="40" viewBox="0 0 41 40" fill="none" xmlns="http://www.w3.org/2000/svg">
<rect width="40" height="40" rx="4" fill="#7D7DF8" fill-opacity="0.23"/>
<path d="M26.875 9C28.0482 9 29 9.96537 29 11.1562V29.8438C29 31.0342 28.0482 32 26.875 32H22.625V28.4062C22.625 27.2158 21.6732 26.25 20.5 26.25C19.3268 26.25 18.375 27.2158 18.375 28.4062V32H14.125C12.9514 32 12 31.0342 12 29.8438V11.1562C12 9.96537 12.9514 9 14.125 9H26.875ZM14.8333 21.2188C14.8333 21.6141 15.1503 21.9375 15.5417 21.9375H16.9583C17.3479 21.9375 17.6667 21.6141 17.6667 21.2188V19.7812C17.6667 19.3859 17.3479 19.0625 16.9583 19.0625H15.5417C15.1503 19.0625 14.8333 19.3859 14.8333 19.7812V21.2188ZM19.7917 19.0625C19.4021 19.0625 19.0833 19.3859 19.0833 19.7812V21.2188C19.0833 21.6141 19.4021 21.9375 19.7917 21.9375H21.2083C21.5979 21.9375 21.9167 21.6141 21.9167 21.2188V19.7812C21.9167 19.3859 21.5979 19.0625 21.2083 19.0625H19.7917ZM23.3333 21.2188C23.3333 21.6141 23.6521 21.9375 24.0417 21.9375H25.4583C25.8479 21.9375 26.1667 21.6141 26.1667 21.2188V19.7812C26.1667 19.3859 25.8479 19.0625 25.4583 19.0625H24.0417C23.6521 19.0625 23.3333 19.3859 23.3333 19.7812V21.2188ZM15.5417 13.3125C15.1503 13.3125 14.8333 13.6359 14.8333 14.0312V15.4688C14.8333 15.8641 15.1503 16.1875 15.5417 16.1875H16.9583C17.3479 16.1875 17.6667 15.8641 17.6667 15.4688V14.0312C17.6667 13.6359 17.3479 13.3125 16.9583 13.3125H15.5417ZM19.0833 15.4688C19.0833 15.8641 19.4021 16.1875 19.7917 16.1875H21.2083C21.5979 16.1875 21.9167 15.8641 21.9167 15.4688V14.0312C21.9167 13.6359 21.5979 13.3125 21.2083 13.3125H19.7917C19.4021 13.3125 19.0833 13.6359 19.0833 14.0312V15.4688ZM24.0417 13.3125C23.6521 13.3125 23.3333 13.6359 23.3333 14.0312V15.4688C23.3333 15.8641 23.6521 16.1875 24.0417 16.1875H25.4583C25.8479 16.1875 26.1667 15.8641 26.1667 15.4688V14.0312C26.1667 13.6359 25.8479 13.3125 25.4583 13.3125H24.0417Z" fill="#7D7DF8"/>
</svg>
