<?xml version="1.0" standalone="no"?>
<!DOCTYPE svg PUBLIC "-//W3C//DTD SVG 20010904//EN"
 "http://www.w3.org/TR/2001/REC-SVG-20010904/DTD/svg10.dtd">
<svg version="1.0" xmlns="http://www.w3.org/2000/svg"
 width="368.000000pt" height="368.000000pt" viewBox="0 0 368.000000 368.000000"
 preserveAspectRatio="xMidYMid meet">
<metadata>
Created by potrace 1.14, written by Peter Selinger 2001-2017
</metadata>
<g transform="translate(0.000000,368.000000) scale(0.100000,-0.100000)"
fill="#000000" stroke="none">
<path d="M1640 3669 c-450 -51 -878 -273 -1177 -610 -202 -228 -364 -550 -423
-839 -98 -488 -3 -986 267 -1395 284 -430 727 -716 1238 -801 151 -25 438 -25
589 0 785 130 1391 736 1522 1521 27 159 25 457 -4 617 -73 401 -290 786 -593
1055 -172 152 -432 301 -649 372 -236 78 -525 108 -770 80z m363 -828 c7 -7 7
-11 0 -11 -5 0 -10 -17 -10 -38 0 -21 -10 -65 -21 -97 -11 -33 -23 -79 -27
-102 -4 -24 -11 -45 -16 -49 -5 -3 -7 -9 -5 -13 3 -4 1 -23 -4 -42 -8 -32 -49
-193 -54 -214 -7 -27 -18 -72 -51 -210 -56 -236 -144 -576 -182 -704 -13 -46
-37 -133 -53 -195 -51 -203 -59 -225 -83 -231 -31 -8 -281 0 -295 9 -16 9 -15
33 2 87 8 24 24 80 35 124 12 44 26 96 32 115 6 19 12 42 13 50 2 8 6 33 10
55 4 22 12 49 17 60 5 11 13 40 18 65 22 105 45 203 78 330 41 163 93 367 128
510 14 58 30 119 35 135 5 17 23 89 40 160 53 226 41 202 113 212 88 12 266 8
280 -6z m805 -61 c136 -36 261 -151 341 -315 28 -57 51 -118 51 -134 0 -17 4
-31 9 -31 10 0 33 -87 56 -210 16 -84 16 -330 1 -405 -14 -70 -34 -154 -44
-186 -6 -19 -21 -63 -32 -99 -34 -111 -110 -228 -197 -307 -68 -61 -126 -101
-150 -104 -5 -1 -19 -6 -33 -13 -14 -6 -70 -11 -125 -11 -89 0 -108 3 -170 29
-39 17 -91 46 -117 65 -56 41 -148 161 -183 236 -13 29 -29 56 -34 60 -6 3
-11 19 -11 35 0 16 -4 31 -9 34 -5 3 -12 22 -15 41 -4 19 -12 35 -18 35 -6 0
-8 11 -6 24 3 13 -2 68 -10 122 -8 55 -16 142 -18 194 -6 150 9 238 78 470 9
31 36 92 87 198 9 19 24 38 34 43 9 5 17 16 17 23 0 7 11 23 25 36 14 13 25
29 25 36 0 12 68 53 197 119 55 28 71 31 135 29 40 -1 93 -7 116 -14z m-1889
-29 c5 -8 10 -159 10 -335 1 -177 3 -395 6 -486 7 -263 7 -883 0 -902 -4 -10
-17 -18 -28 -17 -12 0 -78 -2 -147 -5 -69 -2 -133 0 -142 5 -16 9 -17 36 -17
327 0 174 -1 322 -2 327 -3 15 -7 187 -8 400 0 105 -1 197 -1 205 -3 456 -2
469 10 450 7 -12 12 -12 21 -3 10 10 7 14 -12 22 -33 12 -11 20 71 23 155 7
231 3 239 -11z"/>
<path d="M1825 2390 c-3 -5 1 -10 10 -10 9 0 13 5 10 10 -3 6 -8 10 -10 10 -2
0 -7 -4 -10 -10z"/>
<path d="M1748 2283 c6 -2 18 -2 25 0 6 3 1 5 -13 5 -14 0 -19 -2 -12 -5z"/>
<path d="M1755 2130 c-3 -5 3 -10 15 -10 12 0 18 5 15 10 -3 6 -10 10 -15 10
-5 0 -12 -4 -15 -10z"/>
<path d="M1578 1423 c7 -3 16 -2 19 1 4 3 -2 6 -13 5 -11 0 -14 -3 -6 -6z"/>
<path d="M1310 1279 c0 -5 5 -7 10 -4 6 3 10 8 10 11 0 2 -4 4 -10 4 -5 0 -10
-5 -10 -11z"/>
<path d="M2675 2750 c-3 -6 1 -7 9 -4 18 7 21 14 7 14 -6 0 -13 -4 -16 -10z"/>
<path d="M2777 2749 c7 -7 15 -10 18 -7 3 3 -2 9 -12 12 -14 6 -15 5 -6 -5z"/>
<path d="M2895 2690 c3 -5 8 -10 11 -10 2 0 4 5 4 10 0 6 -5 10 -11 10 -5 0
-7 -4 -4 -10z"/>
<path d="M2915 2660 c-4 -6 5 -10 20 -10 15 0 24 4 20 10 -3 6 -12 10 -20 10
-8 0 -17 -4 -20 -10z"/>
<path d="M2290 2495 c-8 -9 -8 -15 -2 -15 12 0 26 19 19 26 -2 2 -10 -2 -17
-11z"/>
<path d="M2630 2490 c-8 -5 -11 -12 -7 -16 4 -4 15 0 24 9 18 18 8 23 -17 7z"/>
<path d="M2670 2453 c-33 -13 -91 -66 -112 -104 -12 -21 -25 -39 -29 -39 -7 0
-41 -91 -59 -160 -96 -365 8 -782 194 -782 38 0 53 7 92 38 47 39 104 125 104
158 0 11 6 27 13 35 11 13 33 75 37 103 1 4 6 22 11 40 15 52 21 227 9 303 -5
39 -12 87 -14 107 -10 104 -102 268 -164 294 -36 15 -57 16 -82 7z"/>
<path d="M3097 2441 c3 -12 10 -21 15 -21 13 0 6 32 -9 37 -7 3 -9 -3 -6 -16z"/>
<path d="M3125 2380 c-3 -5 -1 -10 4 -10 6 0 11 5 11 10 0 6 -2 10 -4 10 -3 0
-8 -4 -11 -10z"/>
<path d="M3166 2295 c-3 -9 0 -15 9 -15 9 0 12 6 9 15 -4 8 -7 15 -9 15 -2 0
-5 -7 -9 -15z"/>
<path d="M3095 2270 c-3 -5 -1 -10 4 -10 6 0 11 5 11 10 0 6 -2 10 -4 10 -3 0
-8 -4 -11 -10z"/>
<path d="M3170 2250 c0 -5 5 -10 10 -10 6 0 10 5 10 10 0 6 -4 10 -10 10 -5 0
-10 -4 -10 -10z"/>
<path d="M2320 2085 c-11 -13 -10 -14 4 -9 9 3 16 10 16 15 0 13 -6 11 -20 -6z"/>
<path d="M2316 2014 c-17 -12 -17 -14 -4 -14 9 0 20 5 23 11 11 17 2 18 -19 3z"/>
<path d="M2955 1822 c-2 -3 -2 -8 1 -13 5 -9 34 -1 34 10 0 8 -27 10 -35 3z"/>
<path d="M3180 1745 c-23 -13 -23 -14 -4 -15 11 0 29 7 40 15 26 19 -1 20 -36
0z"/>
<path d="M2132 1730 c0 -14 2 -19 5 -12 2 6 2 18 0 25 -3 6 -5 1 -5 -13z"/>
<path d="M2170 1611 c0 -12 5 -21 10 -21 6 0 10 6 10 14 0 8 -4 18 -10 21 -5
3 -10 -3 -10 -14z"/>
<path d="M2420 1551 c0 -5 5 -13 10 -16 6 -3 10 -2 10 4 0 5 -4 13 -10 16 -5
3 -10 2 -10 -4z"/>
<path d="M2975 1470 c-3 -5 -1 -10 4 -10 6 0 11 5 11 10 0 6 -2 10 -4 10 -3 0
-8 -4 -11 -10z"/>
<path d="M2367 1443 c-4 -3 -7 -11 -7 -17 0 -6 5 -5 12 2 6 6 9 14 7 17 -3 3
-9 2 -12 -2z"/>
<path d="M3075 1299 c-4 -6 -5 -12 -2 -15 2 -3 7 2 10 11 7 17 1 20 -8 4z"/>
<path d="M2585 1290 c-8 -13 5 -13 25 0 13 8 13 10 -2 10 -9 0 -20 -4 -23 -10z"/>
<path d="M2981 1274 c0 -11 3 -14 6 -6 3 7 2 16 -1 19 -3 4 -6 -2 -5 -13z"/>
<path d="M3045 1260 c-3 -5 -2 -10 4 -10 5 0 13 5 16 10 3 6 2 10 -4 10 -5 0
-13 -4 -16 -10z"/>
<path d="M2647 1223 c-3 -5 3 -14 13 -21 14 -9 21 -9 26 0 4 6 3 8 -4 4 -6 -3
-15 1 -20 10 -5 9 -12 12 -15 7z"/>
<path d="M2366 1163 c-6 -14 -5 -15 5 -6 7 7 10 15 7 18 -3 3 -9 -2 -12 -12z"/>
<path d="M826 2741 c-4 -5 -2 -12 3 -15 5 -4 12 -2 15 3 4 5 2 12 -3 15 -5 4
-12 2 -15 -3z"/>
<path d="M728 2533 c6 -2 18 -2 25 0 6 3 1 5 -13 5 -14 0 -19 -2 -12 -5z"/>
<path d="M886 2377 c3 -10 9 -15 12 -12 3 3 0 11 -7 18 -10 9 -11 8 -5 -6z"/>
<path d="M606 2364 c-5 -12 -2 -15 10 -10 8 3 18 6 20 6 2 0 4 5 4 10 0 16
-27 11 -34 -6z"/>
<path d="M870 1880 c0 -5 4 -10 9 -10 6 0 13 5 16 10 3 6 -1 10 -9 10 -9 0
-16 -4 -16 -10z"/>
<path d="M617 1766 c-3 -8 0 -19 7 -25 8 -7 12 -5 13 9 2 24 -13 35 -20 16z"/>
<path d="M798 1753 c7 -3 16 -2 19 1 4 3 -2 6 -13 5 -11 0 -14 -3 -6 -6z"/>
<path d="M620 1578 c0 -16 5 -28 10 -28 13 0 13 20 0 40 -8 12 -10 9 -10 -12z"/>
<path d="M820 1420 c0 -5 5 -10 11 -10 5 0 7 5 4 10 -3 6 -8 10 -11 10 -2 0
-4 -4 -4 -10z"/>
</g>
</svg>
