<svg width="40" height="40" viewBox="0 0 40 40" fill="none" xmlns="http://www.w3.org/2000/svg">
<rect width="40" height="40" rx="4" fill="#7D7DF8" fill-opacity="0.23"/>
<path d="M15.0443 30.2221H10.99V17.1658H15.0443V30.2221ZM13.015 15.3848C11.7185 15.3848 10.667 14.311 10.667 13.0145C10.667 12.3918 10.9144 11.7946 11.3547 11.3542C11.795 10.9139 12.3922 10.6665 13.015 10.6665C13.6377 10.6665 14.2349 10.9139 14.6752 11.3542C15.1156 11.7946 15.3629 12.3918 15.3629 13.0145C15.3629 14.311 14.311 15.3848 13.015 15.3848ZM30.2182 30.2221H26.1726V23.8664C26.1726 22.3516 26.1421 20.4091 24.0647 20.4091C21.9568 20.4091 21.6338 22.0548 21.6338 23.7572V30.2221H17.5839V17.1658H21.4723V18.9468H21.5291C22.0703 17.921 23.3925 16.8384 25.3651 16.8384C29.4683 16.8384 30.2225 19.5405 30.2225 23.0501V30.2221H30.2182Z" fill="#4652F8"/>
</svg>
