<svg width="41" height="40" viewBox="0 0 41 40" fill="none" xmlns="http://www.w3.org/2000/svg">
<rect width="40" height="40" rx="4" fill="#7D7DF8" fill-opacity="0.23"/>
<path d="M30.8468 15.5401C30.8628 15.754 30.8628 15.9679 30.8628 16.1818C30.8628 22.7054 25.6577 30.2221 16.1441 30.2221C13.2132 30.2221 10.4905 29.4123 8.2002 28.0068C8.61663 28.0526 9.01699 28.0679 9.44944 28.0679C11.8678 28.0679 14.0941 27.2888 15.8719 25.9596C13.5976 25.9137 11.6917 24.4929 11.035 22.5373C11.3554 22.5831 11.6756 22.6137 12.012 22.6137C12.4765 22.6137 12.941 22.5526 13.3734 22.4457C11.003 21.9873 9.22518 20.0012 9.22518 17.6026V17.5415C9.91384 17.9082 10.7147 18.1374 11.5635 18.1679C10.1701 17.2817 9.25722 15.7693 9.25722 14.0581C9.25722 13.1415 9.51343 12.3012 9.96191 11.5679C12.5085 14.5623 16.3363 16.5178 20.6286 16.7318C20.5485 16.3651 20.5004 15.9832 20.5004 15.6012C20.5004 12.8818 22.8067 10.6665 25.6736 10.6665C27.1631 10.6665 28.5084 11.2623 29.4534 12.2248C30.6225 12.011 31.7436 11.5984 32.7367 11.0332C32.3522 12.179 31.5354 13.1415 30.4624 13.7526C31.5034 13.6457 32.5125 13.3706 33.4413 12.9887C32.7368 13.9665 31.8558 14.8373 30.8468 15.5401V15.5401Z" fill="#4652F8"/>
</svg>
