<svg width="40" height="40" viewBox="0 0 40 40" fill="none" xmlns="http://www.w3.org/2000/svg">
<rect width="40" height="40" rx="4" fill="#7D7DF8" fill-opacity="0.23"/>
<path d="M30.6465 14.9478C30.391 13.9624 29.638 13.1863 28.6819 12.9229C26.9489 12.4443 19.9998 12.4443 19.9998 12.4443C19.9998 12.4443 13.0507 12.4443 11.3177 12.9229C10.3616 13.1863 9.6086 13.9624 9.35303 14.9478C8.88867 16.7339 8.88867 20.4605 8.88867 20.4605C8.88867 20.4605 8.88867 24.1871 9.35303 25.9732C9.6086 26.9586 10.3616 27.7024 11.3177 27.9658C13.0507 28.4443 19.9998 28.4443 19.9998 28.4443C19.9998 28.4443 26.9488 28.4443 28.6819 27.9658C29.638 27.7024 30.391 26.9586 30.6465 25.9732C31.1109 24.1871 31.1109 20.4605 31.1109 20.4605C31.1109 20.4605 31.1109 16.7339 30.6465 14.9478ZM17.727 23.844V17.077L23.5351 20.4606L17.727 23.844Z" fill="#4652F8"/>
</svg>
