<svg width="444" height="444" viewBox="0 0 444 444" fill="none" xmlns="http://www.w3.org/2000/svg">
<g clip-path="url(#clip0_131_661)">
<path d="M399.6 0H44.4C19.8786 0 0 19.8786 0 44.4V399.6C0 424.121 19.8786 444 44.4 444H399.6C424.121 444 444 424.121 444 399.6V44.4C444 19.8786 424.121 0 399.6 0Z" fill="#7D7DF8" fill-opacity="0.23"/>
<path d="M141.561 113.828C174.121 138.267 209.143 187.818 222.001 214.41C234.86 187.82 269.88 138.266 302.441 113.828C325.934 96.1943 364 82.5502 364 125.966C364 134.637 359.028 198.805 356.111 209.223C345.974 245.441 309.034 254.679 276.175 249.088C333.612 258.861 348.223 291.233 316.668 323.606C256.74 385.088 230.533 308.18 223.815 288.473C222.584 284.861 222.008 283.171 222 284.608C221.991 283.171 221.415 284.861 220.184 288.473C213.469 308.18 187.264 385.09 127.332 323.606C95.7766 291.233 110.387 258.859 167.825 249.088C134.965 254.679 98.0246 245.441 87.8888 209.223C84.9723 198.804 80 134.636 80 125.966C80 82.5502 118.067 96.1943 141.559 113.828H141.561Z" fill="#4652F8"/>
</g>
<defs>
<clipPath id="clip0_131_661">
<rect width="444" height="444" fill="white"/>
</clipPath>
</defs>
</svg>
