<svg width="40" height="40" viewBox="0 0 40 40" fill="none" xmlns="http://www.w3.org/2000/svg">
<rect width="40" height="40" rx="4" fill="#7D7DF8" fill-opacity="0.23"/>
<path d="M23.9726 27.3248C23.9726 27.424 24.0839 27.5034 24.2242 27.5034C24.3839 27.5183 24.4952 27.4389 24.4952 27.3248C24.4952 27.2255 24.3839 27.1461 24.2435 27.1461C24.0984 27.1312 23.9726 27.2106 23.9726 27.3248ZM25.4774 27.1014C25.5113 27.2007 25.4145 27.3148 25.2694 27.3446C25.1435 27.3942 24.9984 27.3446 24.9694 27.2454C24.9403 27.1461 25.0323 27.032 25.1774 26.9873C25.3032 26.9526 25.4435 27.0022 25.4774 27.1014ZM23.3387 27.0171C23.479 27.0518 23.5758 27.1461 23.5613 27.2603C23.5468 27.3595 23.421 27.424 23.2758 27.3893C23.1355 27.3545 23.0387 27.2603 23.0532 27.161C23.0677 27.0667 23.1984 27.0022 23.3387 27.0171ZM20.1548 8C26.8661 8 32 13.2257 32 20.109C32 25.6126 28.6226 30.3222 23.7984 31.9798C23.179 32.0939 22.9613 31.7019 22.9613 31.3793C22.9613 31.0716 22.9758 29.3744 22.9758 28.3322C22.9758 28.3322 26.3629 29.0766 27.0742 26.8533C27.0742 26.8533 27.6258 25.4092 28.4194 25.037C28.4194 25.037 29.5274 24.2578 28.3419 24.2727C28.3419 24.2727 27.1371 24.372 26.4742 25.5531C25.4145 27.4687 23.6387 26.9178 22.9468 26.5903C22.8355 25.7963 22.521 25.2454 22.1726 24.9179C24.8774 24.6102 27.6065 24.2082 27.6065 19.4341C27.6065 18.0693 27.2387 17.3845 26.4645 16.511C26.5903 16.1885 27.0016 14.8585 26.3387 13.1414C25.3274 12.8188 23 14.4813 23 14.4813C22.0323 14.2034 20.9919 14.0595 19.9613 14.0595C18.9306 14.0595 17.8903 14.2034 16.9226 14.4813C16.9226 14.4813 14.5952 12.8138 13.5839 13.1414C12.921 14.8634 13.3323 16.1885 13.4581 16.511C12.6839 17.3894 12.2097 18.0743 12.2097 19.4341C12.2097 24.2231 15.0597 24.6052 17.7645 24.9179C17.3194 25.3099 16.9419 26.0543 16.9419 27.2205C16.9419 28.893 16.9565 30.9624 16.9565 31.3694C16.9565 31.6919 16.7339 32.084 16.1194 31.9699C11.2806 30.3222 8 25.6126 8 20.109C8 13.2257 13.4435 8 20.1548 8ZM27.2968 25.1164C27.3597 25.166 27.3452 25.2801 27.2629 25.3744C27.1855 25.4538 27.0742 25.4886 27.0113 25.424C26.9484 25.3744 26.9629 25.2603 27.0452 25.166C27.1226 25.0866 27.2339 25.0518 27.2968 25.1164ZM27.8194 24.7144C27.8532 24.7789 27.8048 24.8583 27.7081 24.9079C27.6306 24.9576 27.5339 24.9427 27.5 24.8732C27.4661 24.8087 27.5145 24.7293 27.6113 24.6796C27.7081 24.6499 27.7855 24.6648 27.8194 24.7144ZM26.2516 26.4811C26.329 26.5456 26.3 26.6945 26.1887 26.7888C26.0774 26.9029 25.9371 26.9178 25.8742 26.8384C25.8113 26.7739 25.8403 26.625 25.9371 26.5307C26.0435 26.4166 26.1887 26.4017 26.2516 26.4811ZM26.8032 25.7516C26.8806 25.8012 26.8806 25.9302 26.8032 26.0444C26.7258 26.1585 26.5952 26.2082 26.5323 26.1585C26.4548 26.094 26.4548 25.965 26.5323 25.8508C26.6 25.7367 26.7258 25.6871 26.8032 25.7516Z" fill="#4652F8"/>
</svg>
