<svg width="40" height="40" viewBox="0 0 40 40" fill="none" xmlns="http://www.w3.org/2000/svg">
<g clip-path="url(#clip0_1862_310)">
<rect width="40" height="40" rx="4" fill="#7D7DF8" fill-opacity="0.23"/>
<path d="M15.0443 30.2223H10.99V17.1661H15.0443V30.2223ZM13.015 15.3851C11.7185 15.3851 10.667 14.3112 10.667 13.0148C10.667 12.392 10.9144 11.7948 11.3547 11.3545C11.795 10.9141 12.3922 10.6667 13.015 10.6667C13.6377 10.6667 14.2349 10.9141 14.6752 11.3545C15.1156 11.7948 15.3629 12.392 15.3629 13.0148C15.3629 14.3112 14.311 15.3851 13.015 15.3851ZM30.2182 30.2223H26.1726V23.8666C26.1726 22.3519 26.1421 20.4094 24.0647 20.4094C21.9568 20.4094 21.6338 22.0551 21.6338 23.7575V30.2223H17.5839V17.1661H21.4723V18.9471H21.5291C22.0703 17.9212 23.3925 16.8387 25.3651 16.8387C29.4683 16.8387 30.2225 19.5407 30.2225 23.0503V30.2223H30.2182Z" fill="#4652F8"/>
</g>
<defs>
<clipPath id="clip0_1862_310">
<rect width="40" height="40" fill="white"/>
</clipPath>
</defs>
</svg>
