<svg width="40" height="40" viewBox="0 0 40 40" fill="none" xmlns="http://www.w3.org/2000/svg">
<rect width="40" height="40" rx="4" fill="#7D7DF8" fill-opacity="0.23"/>
<path d="M30.0943 15.5403C30.1099 15.7542 30.1099 15.9681 30.1099 16.182C30.1099 22.7056 25.0317 30.2223 15.7502 30.2223C12.8907 30.2223 10.2344 29.4125 8 28.0071C8.40627 28.0529 8.79687 28.0681 9.21878 28.0681C11.5782 28.0681 13.7501 27.289 15.4846 25.9598C13.2657 25.914 11.4063 24.4931 10.7657 22.5376C11.0782 22.5834 11.3907 22.614 11.7189 22.614C12.172 22.614 12.6251 22.5528 13.047 22.4459C10.7345 21.9876 8.99998 20.0015 8.99998 17.6029V17.5418C9.67185 17.9084 10.4532 18.1376 11.2813 18.1681C9.92186 17.282 9.03125 15.7695 9.03125 14.0584C9.03125 13.1417 9.28121 12.3015 9.71874 11.5681C12.2032 14.5626 15.9377 16.5181 20.1252 16.732C20.0471 16.3653 20.0002 15.9834 20.0002 15.6015C20.0002 12.882 22.2503 10.6667 25.0472 10.6667C26.5004 10.6667 27.8129 11.2626 28.7348 12.2251C29.8754 12.0112 30.9692 11.5987 31.938 11.0334C31.563 12.1793 30.7661 13.1418 29.7192 13.7528C30.7349 13.646 31.7193 13.3709 32.6255 12.989C31.9381 13.9667 31.0787 14.8375 30.0943 15.5403V15.5403Z" fill="#4652F8"/>
</svg>
