<svg width="444" height="444" viewBox="0 0 444 444" fill="none" xmlns="http://www.w3.org/2000/svg">
<g clip-path="url(#clip0_131_664)">
<path d="M399.6 0H44.4C19.8786 0 0 19.8786 0 44.4V399.6C0 424.121 19.8786 444 44.4 444H399.6C424.121 444 444 424.121 444 399.6V44.4C444 19.8786 424.121 0 399.6 0Z" fill="#7D7DF8" fill-opacity="0.23"/>
<path d="M299.181 100H340.337L250.422 203.356L356.2 344H273.377L208.507 258.7L134.281 344H93.0999L189.272 233.449L87.7998 100H172.725L231.362 177.967L299.181 100ZM284.736 319.225H307.541L160.334 123.474H135.861L284.736 319.225Z" fill="#4652F8"/>
</g>
<defs>
<clipPath id="clip0_131_664">
<rect width="444" height="444" fill="white"/>
</clipPath>
</defs>
</svg>
