<svg width="40" height="40" viewBox="0 0 40 40" fill="none" xmlns="http://www.w3.org/2000/svg">
<rect width="40" height="40" rx="4" fill="#7D7DF8" fill-opacity="0.23"/>
<path d="M30.6465 14.9479C30.391 13.9625 29.638 13.1864 28.6819 12.923C26.9489 12.4445 19.9998 12.4445 19.9998 12.4445C19.9998 12.4445 13.0507 12.4445 11.3177 12.923C10.3616 13.1865 9.6086 13.9625 9.35303 14.9479C8.88867 16.734 8.88867 20.4606 8.88867 20.4606C8.88867 20.4606 8.88867 24.1872 9.35303 25.9733C9.6086 26.9587 10.3616 27.7025 11.3177 27.9659C13.0507 28.4445 19.9998 28.4445 19.9998 28.4445C19.9998 28.4445 26.9488 28.4445 28.6819 27.9659C29.638 27.7025 30.391 26.9587 30.6465 25.9733C31.1109 24.1872 31.1109 20.4606 31.1109 20.4606C31.1109 20.4606 31.1109 16.734 30.6465 14.9479ZM17.727 23.8441V17.0772L23.5351 20.4607L17.727 23.8441Z" fill="#4652F8"/>
</svg>
