<?xml version="1.0" encoding="utf-8"?>
<!-- Generator: Adobe Illustrator 24.1.0, SVG Export Plug-In . SVG Version: 6.00 Build 0)  -->
<svg version="1.1" id="Calque_1" xmlns="http://www.w3.org/2000/svg" xmlns:xlink="http://www.w3.org/1999/xlink" x="0px" y="0px"
	 viewBox="0 0 264 280" style="enable-background:new 0 0 264 280;" xml:space="preserve">
<style type="text/css">
	.st0{fill-rule:evenodd;clip-rule:evenodd;fill:#D0C6AC;}
	.st1{filter:url(#Adobe_OpacityMaskFilter);}
	.st2{fill-rule:evenodd;clip-rule:evenodd;fill:#FFFFFF;}
	.st3{mask:url(#mask-6_1_);}
	.st4{fill-rule:evenodd;clip-rule:evenodd;fill:#FFDBB4;}
	.st5{filter:url(#Adobe_OpacityMaskFilter_1_);}
	.st6{mask:url(#mask-6_2_);fill-rule:evenodd;clip-rule:evenodd;fill-opacity:0.1;}
	.st7{fill-rule:evenodd;clip-rule:evenodd;fill:#E6E6E6;}
	.st8{filter:url(#Adobe_OpacityMaskFilter_2_);}
	.st9{mask:url(#react-mask-2_1_);}
	.st10{fill-rule:evenodd;clip-rule:evenodd;fill:#262E33;}
	.st11{filter:url(#Adobe_OpacityMaskFilter_3_);}
	.st12{opacity:0.6;mask:url(#react-mask-2_2_);}
	.st13{fill-rule:evenodd;clip-rule:evenodd;fill-opacity:0.16;}
	.st14{fill-rule:evenodd;clip-rule:evenodd;fill:#3A4C5A;}
	.st15{fill-rule:evenodd;clip-rule:evenodd;fill:#2F4351;}
	.st16{fill-rule:evenodd;clip-rule:evenodd;fill-opacity:0.7;}
	.st17{filter:url(#Adobe_OpacityMaskFilter_4_);}
	.st18{mask:url(#react-mask-19_1_);fill-rule:evenodd;clip-rule:evenodd;fill:#FFFFFF;}
	.st19{filter:url(#Adobe_OpacityMaskFilter_5_);}
	.st20{mask:url(#react-mask-19_2_);}
	.st21{fill-rule:evenodd;clip-rule:evenodd;fill:#FF4F6D;}
	.st22{fill-rule:evenodd;clip-rule:evenodd;fill-opacity:0.6;}
	.st23{filter:url(#Adobe_OpacityMaskFilter_6_);}
	.st24{mask:url(#react-mask-5_1_);}
	.st25{fill-rule:evenodd;clip-rule:evenodd;fill:#28354B;}
	.st26{filter:url(#Adobe_OpacityMaskFilter_7_);}
	.st27{mask:url(#react-mask-4_1_);}
	.st28{fill-rule:evenodd;clip-rule:evenodd;fill:#4A312C;}
</style>
<g id="Avataaar">
	<g id="Body" transform="translate(32.000000, 36.000000)">
		<g>
			<path id="path-5_1_" class="st0" d="M124,144.6V163h4l0,0c39.8,0,72,32.2,72,72v9H0v-9c0-39.8,32.2-72,72-72l0,0h4v-18.4
				c-17.2-8.2-29.6-24.9-31.7-44.7C38.5,99.1,34,94.1,34,88V74c0-5.9,4.3-10.9,10-11.8V56l0,0c0-30.9,25.1-56,56-56l0,0l0,0
				c30.9,0,56,25.1,56,56v6.2c5.7,1,10,5.9,10,11.8v14c0,6.1-4.5,11.1-10.3,11.9C153.6,119.7,141.2,136.4,124,144.6z"/>
		</g>
		<defs>
			<filter id="Adobe_OpacityMaskFilter" filterUnits="userSpaceOnUse" x="-32" y="0" width="264" height="244">
				<feColorMatrix  type="matrix" values="1 0 0 0 0  0 1 0 0 0  0 0 1 0 0  0 0 0 1 0"/>
			</filter>
		</defs>
		<mask maskUnits="userSpaceOnUse" x="-32" y="0" width="264" height="244" id="mask-6_1_">
			<g class="st1">
				<path id="path-5_2_" class="st2" d="M124,144.6V163h4l0,0c39.8,0,72,32.2,72,72v9H0v-9c0-39.8,32.2-72,72-72l0,0h4v-18.4
					c-17.2-8.2-29.6-24.9-31.7-44.7C38.5,99.1,34,94.1,34,88V74c0-5.9,4.3-10.9,10-11.8V56l0,0c0-30.9,25.1-56,56-56l0,0l0,0
					c30.9,0,56,25.1,56,56v6.2c5.7,1,10,5.9,10,11.8v14c0,6.1-4.5,11.1-10.3,11.9C153.6,119.7,141.2,136.4,124,144.6z"/>
			</g>
		</mask>
		<g id="Skin_x2F__xD83D__xDC76__xD83C__xDFFD_-03-Brown" class="st3">
			<g id="Color" transform="translate(-32.000000, 0.000000)">
				<rect class="st4" width="264" height="244"/>
			</g>
		</g>
		<defs>
			<filter id="Adobe_OpacityMaskFilter_1_" filterUnits="userSpaceOnUse" x="44" y="79" width="112" height="79">
				<feColorMatrix  type="matrix" values="1 0 0 0 0  0 1 0 0 0  0 0 1 0 0  0 0 0 1 0"/>
			</filter>
		</defs>
		<mask maskUnits="userSpaceOnUse" x="44" y="79" width="112" height="79" id="mask-6_2_">
			<g class="st5">
				<path id="path-5_3_" class="st2" d="M124,144.6V163h4l0,0c39.8,0,72,32.2,72,72v9H0v-9c0-39.8,32.2-72,72-72l0,0h4v-18.4
					c-17.2-8.2-29.6-24.9-31.7-44.7C38.5,99.1,34,94.1,34,88V74c0-5.9,4.3-10.9,10-11.8V56l0,0c0-30.9,25.1-56,56-56l0,0l0,0
					c30.9,0,56,25.1,56,56v6.2c5.7,1,10,5.9,10,11.8v14c0,6.1-4.5,11.1-10.3,11.9C153.6,119.7,141.2,136.4,124,144.6z"/>
			</g>
		</mask>
		<path id="Neck-Shadow" class="st6" d="M156,79v23c0,30.9-25.1,56-56,56s-56-25.1-56-56V79v15c0,30.9,25.1,56,56,56s56-25.1,56-56
			V79z"/>
	</g>
	<g id="Clothing_x2F_Blazer-_x2B_-Shirt" transform="translate(0.000000, 170.000000)">
		<g id="Shirt" transform="translate(32.000000, 29.000000)">
			<g id="Clothes">
				<path id="react-path-1_1_" class="st7" d="M134,0.3c37,3,66,34,66,71.8V81H0v-8.9C0,34,29.6,2.8,67,0.2c0,0.4,0,0.7,0,1.1
					c0,11.9,15,21.5,33.5,21.5S134,13.2,134,1.3C134,1,134,0.6,134,0.3z"/>
			</g>
			<defs>
				<filter id="Adobe_OpacityMaskFilter_2_" filterUnits="userSpaceOnUse" x="-32" y="-29" width="264" height="110">
					<feColorMatrix  type="matrix" values="1 0 0 0 0  0 1 0 0 0  0 0 1 0 0  0 0 0 1 0"/>
				</filter>
			</defs>
			<mask maskUnits="userSpaceOnUse" x="-32" y="-29" width="264" height="110" id="react-mask-2_1_">
				<g class="st8">
					<path id="react-path-1_2_" class="st2" d="M134,0.3c37,3,66,34,66,71.8V81H0v-8.9C0,34,29.6,2.8,67,0.2c0,0.4,0,0.7,0,1.1
						c0,11.9,15,21.5,33.5,21.5S134,13.2,134,1.3C134,1,134,0.6,134,0.3z"/>
				</g>
			</mask>
			<g id="Color_x2F_Palette_x2F_Black" class="st9">
				<g id="_xD83D__xDD8D_Color" transform="translate(-32.000000, -29.000000)">
					<rect class="st10" width="264" height="110"/>
				</g>
			</g>
			<defs>
				<filter id="Adobe_OpacityMaskFilter_3_" filterUnits="userSpaceOnUse" x="60.9" y="-24.1" width="79.3" height="53.8">
					<feColorMatrix  type="matrix" values="1 0 0 0 0  0 1 0 0 0  0 0 1 0 0  0 0 0 1 0"/>
				</filter>
			</defs>
			<mask maskUnits="userSpaceOnUse" x="60.9" y="-24.1" width="79.3" height="53.8" id="react-mask-2_2_">
				<g class="st11">
					<path id="react-path-1_3_" class="st2" d="M134,0.3c37,3,66,34,66,71.8V81H0v-8.9C0,34,29.6,2.8,67,0.2c0,0.4,0,0.7,0,1.1
						c0,11.9,15,21.5,33.5,21.5S134,13.2,134,1.3C134,1,134,0.6,134,0.3z"/>
				</g>
			</mask>
			<g id="Shadowy" class="st12">
				<g id="Hola-_xD83D__xDC4B__xD83C__xDFFC_" transform="translate(60.000000, -25.000000)">
					<ellipse class="st13" cx="40.5" cy="27.8" rx="39.6" ry="26.9"/>
				</g>
			</g>
		</g>
		<g id="Blazer" transform="translate(32.000000, 28.000000)">
			<path id="Saco" class="st14" d="M68.8,1.1C30.5,2.8,0,34.4,0,73.1l0,0V82h69.4C66,69.9,64,55.7,64,40.5
				C64,26.2,65.7,12.7,68.8,1.1z M131.6,82H200v-8.9c0-38.3-30-69.7-67.8-71.9c3,11.6,4.8,25,4.8,39.3C137,55.7,135,69.9,131.6,82z"
				/>
			<path id="Pocket-hanky" class="st7" d="M149,58l9.6-7.2l0,0c1.4-1.1,3.4-1.1,4.9,0L170,56L149,58z"/>
			<path id="Wing" class="st15" d="M69,0c-4,19.3-2.3,46.7,5,82H58L44,46l6-9l-6-6L63,1C65,0.4,67,0,69,0z"/>
			<path id="Wing_1_" class="st15" d="M131,0c4,19.3,2.3,46.7-5,82h16l14-36l-6-9l6-6L137,1C135,0.4,133,0,131,0z"/>
		</g>
	</g>
	<g id="Face" transform="translate(76.000000, 82.000000)">
		<g id="Mouth_x2F_Smile" transform="translate(2.000000, 52.000000)">
			<g id="Mouth">
				<path id="react-path-18_1_" class="st16" d="M35.1,15.1C36.2,24.6,44.2,32,54,32c9.8,0,17.9-7.4,18.9-17c0.1-0.8-0.8-2-1.8-2
					c-14.9,0-26.3,0-34,0C36,13,35,14.2,35.1,15.1z"/>
			</g>
			<defs>
				<filter id="Adobe_OpacityMaskFilter_4_" filterUnits="userSpaceOnUse" x="39" y="2" width="31" height="16">
					<feColorMatrix  type="matrix" values="1 0 0 0 0  0 1 0 0 0  0 0 1 0 0  0 0 0 1 0"/>
				</filter>
			</defs>
			<mask maskUnits="userSpaceOnUse" x="39" y="2" width="31" height="16" id="react-mask-19_1_">
				<g class="st17">
					<path id="react-path-18_2_" class="st2" d="M35.1,15.1C36.2,24.6,44.2,32,54,32c9.8,0,17.9-7.4,18.9-17c0.1-0.8-0.8-2-1.8-2
						c-14.9,0-26.3,0-34,0C36,13,35,14.2,35.1,15.1z"/>
				</g>
			</mask>
			<path id="Teeth" class="st18" d="M44,2h21c2.8,0,5,2.2,5,5v6c0,2.8-2.2,5-5,5H44c-2.8,0-5-2.2-5-5V7C39,4.2,41.2,2,44,2z"/>
			<defs>
				<filter id="Adobe_OpacityMaskFilter_5_" filterUnits="userSpaceOnUse" x="38" y="24" width="32" height="22">
					<feColorMatrix  type="matrix" values="1 0 0 0 0  0 1 0 0 0  0 0 1 0 0  0 0 0 1 0"/>
				</filter>
			</defs>
			<mask maskUnits="userSpaceOnUse" x="38" y="24" width="32" height="22" id="react-mask-19_2_">
				<g class="st19">
					<path id="react-path-18_3_" class="st2" d="M35.1,15.1C36.2,24.6,44.2,32,54,32c9.8,0,17.9-7.4,18.9-17c0.1-0.8-0.8-2-1.8-2
						c-14.9,0-26.3,0-34,0C36,13,35,14.2,35.1,15.1z"/>
				</g>
			</mask>
			<g id="Tongue" class="st20">
				<g transform="translate(38.000000, 24.000000)">
					<circle class="st21" cx="11" cy="11" r="11"/>
					<circle class="st21" cx="21" cy="11" r="11"/>
				</g>
			</g>
		</g>
		<g id="Nose_x2F_Default" transform="translate(28.000000, 40.000000)">
			<path id="Nose" class="st13" d="M16,8c0,4.4,5.4,8,12,8l0,0c6.6,0,12-3.6,12-8"/>
		</g>
		<g id="Eyes_x2F_Wink-_xD83D__xDE09_" transform="translate(0.000000, 8.000000)">
			<circle id="Eye" class="st22" cx="30" cy="22" r="6"/>
			<path id="Winky-Wink" class="st22" d="M70.6,25c1.6-3.9,5.5-6.9,10.4-7.2c4.8-0.3,9.1,2,11.2,5.6c0.6,1.1-0.1,2.1-0.9,1.4
				c-2.6-1.9-6.2-3-10-2.7c-3.7,0.3-7,1.7-9.3,3.9C71.1,26.8,70.1,26.1,70.6,25z"/>
		</g>
		<g id="Eyebrow_x2F_Natural_x2F_Raised-Excited-Natural">
			<path id="Eye-Browse-Reddit" class="st22" d="M22.8,1.6l0.9-0.4c5.2-2.1,13.2-1.2,18,1.1c0.6,0.3,0.2,1.2-0.4,1.1
				c-14.9-1.2-25,8.1-28.4,14.4c-0.1,0.2-0.4,0.2-0.5,0C10.2,12.6,16.9,3.9,22.8,1.6z"/>
			<path id="Eye-Browse-Reddit_1_" class="st22" d="M89.2,1.6l-0.9-0.4c-5.2-2.1-13.2-1.2-18,1.1c-0.6,0.3-0.2,1.2,0.4,1.1
				c14.9-1.2,25,8.1,28.4,14.4c0.1,0.2,0.4,0.2,0.5,0C101.8,12.6,95.1,3.9,89.2,1.6z"/>
		</g>
	</g>
	<g id="Top">
		<g id="Mask_1_">
		</g>
		<defs>
			<filter id="Adobe_OpacityMaskFilter_6_" filterUnits="userSpaceOnUse" x="-1" y="0" width="264" height="280">
				<feColorMatrix  type="matrix" values="1 0 0 0 0  0 1 0 0 0  0 0 1 0 0  0 0 0 1 0"/>
			</filter>
		</defs>
		<mask maskUnits="userSpaceOnUse" x="-1" y="0" width="264" height="280" id="react-mask-5_1_">
			<g class="st23">
				<rect id="react-path-7_1_" class="st2" width="264" height="280"/>
			</g>
		</mask>
		<g id="Top_x2F_Short-Hair_x2F_Short-Curly" class="st24">
			<g transform="translate(-1.000000, 0.000000)">
				<g id="Short-Hair">
					<path id="react-path-6_1_" class="st25" d="M94.3,52c0.1-0.1-0.2-0.1-0.9-0.1C94.2,52,94.5,52,94.3,52 M86.1,36.3
						C86.1,36.3,86.1,36.5,86.1,36.3 M193.8,70.8c-0.3-3.3-0.7-6.6-1.5-9.9c-0.6-2.6-1.5-5-2.5-7.5c-0.6-1.5-2-3.5-2.2-5.1
						c-0.2-1.6,1.1-3.3,1.3-5.2c0.3-1.8,0.2-3.7-0.2-5.4c-0.8-4-3.6-7.8-7.9-8.8c-1-0.2-3,0.1-3.6-0.5c-0.8-0.6-1.3-2.8-2-3.7
						c-2-2.5-5.1-4.1-8.4-3.5c-2.4,0.4-1,0.9-2.8-0.5c-1-0.8-1.8-2-2.7-2.8c-1.5-1.3-3.2-2.4-4.9-3.3c-4.6-2.4-9.8-4.1-14.8-4.9
						c-9.3-1.5-19.2-0.2-28.2,2.2c-4.5,1.2-9,2.7-13.1,4.7c-1.8,0.9-2.8,1.6-4.7,1.8c-2.9,0.4-5.4,0.3-8.2,1.6
						c-8.5,3.8-12.4,12.7-9.1,21.2c0.7,1.7,1.6,3.2,2.8,4.6c1.5,1.7,2.1,1.3,0.8,3.3c-2,2.9-3.6,6-5,9.2C73.4,66.6,72.8,76.1,73,85
						c0.1,3.1,0.2,6.3,0.7,9.4c0.2,1.3,0.3,3.9,1.3,4.9c0.5,0.5,1.2,0.8,2,0.6c1.7-0.5,1.1-1.7,1.2-2.9c0.2-5.9-0.1-11.1,1.3-16.9
						c1-4.3,2.8-8.2,5-12c2.8-4.9,5.9-9.2,9.8-13.4c0.9-1,1.1-1.4,2.3-1.5c0.9-0.1,2.3,0.6,3.2,0.8c2,0.5,4,1,6,1.3
						c3.7,0.6,7.4,0.6,11.2,0.5c7.4-0.2,14.9-0.8,22.1-2.6c4.8-1.2,9-3.5,13.6-5.1c0.1,0,1.2-0.8,1.4-0.8c0.3,0,2,1.8,2.3,2
						c2.2,1.7,4.7,2.5,7.1,3.8c3,1.7,0.1-0.7,1.7,1.4c0.5,0.6,0.7,1.7,1.1,2.4c1.2,2.2,2.9,4.1,4.9,5.6c2,1.5,4.9,2.2,5.9,4.1
						c0.8,1.5,1,3.5,1.6,5.1c1.6,4.1,3.8,8,5.9,11.9c1.7,3.1,3.6,5.9,3.8,9.5c0.1,1.2-1.1,8.7,1.8,6.5c0.4-0.3,1.4-4.2,1.5-4.8
						c0.8-2.6,1-5.4,1.4-8.1C194,81.3,194.2,76.2,193.8,70.8"/>
				</g>
				<defs>
					<filter id="Adobe_OpacityMaskFilter_7_" filterUnits="userSpaceOnUse" x="0" y="0" width="264" height="280">
						<feColorMatrix  type="matrix" values="1 0 0 0 0  0 1 0 0 0  0 0 1 0 0  0 0 0 1 0"/>
					</filter>
				</defs>
				<mask maskUnits="userSpaceOnUse" x="0" y="0" width="264" height="280" id="react-mask-4_1_">
					<g class="st26">
						<path id="react-path-6_2_" class="st2" d="M94.3,52c0.1-0.1-0.2-0.1-0.9-0.1C94.2,52,94.5,52,94.3,52 M86.1,36.3
							C86.1,36.3,86.1,36.5,86.1,36.3 M193.8,70.8c-0.3-3.3-0.7-6.6-1.5-9.9c-0.6-2.6-1.5-5-2.5-7.5c-0.6-1.5-2-3.5-2.2-5.1
							c-0.2-1.6,1.1-3.3,1.3-5.2c0.3-1.8,0.2-3.7-0.2-5.4c-0.8-4-3.6-7.8-7.9-8.8c-1-0.2-3,0.1-3.6-0.5c-0.8-0.6-1.3-2.8-2-3.7
							c-2-2.5-5.1-4.1-8.4-3.5c-2.4,0.4-1,0.9-2.8-0.5c-1-0.8-1.8-2-2.7-2.8c-1.5-1.3-3.2-2.4-4.9-3.3c-4.6-2.4-9.8-4.1-14.8-4.9
							c-9.3-1.5-19.2-0.2-28.2,2.2c-4.5,1.2-9,2.7-13.1,4.7c-1.8,0.9-2.8,1.6-4.7,1.8c-2.9,0.4-5.4,0.3-8.2,1.6
							c-8.5,3.8-12.4,12.7-9.1,21.2c0.7,1.7,1.6,3.2,2.8,4.6c1.5,1.7,2.1,1.3,0.8,3.3c-2,2.9-3.6,6-5,9.2C73.4,66.6,72.8,76.1,73,85
							c0.1,3.1,0.2,6.3,0.7,9.4c0.2,1.3,0.3,3.9,1.3,4.9c0.5,0.5,1.2,0.8,2,0.6c1.7-0.5,1.1-1.7,1.2-2.9c0.2-5.9-0.1-11.1,1.3-16.9
							c1-4.3,2.8-8.2,5-12c2.8-4.9,5.9-9.2,9.8-13.4c0.9-1,1.1-1.4,2.3-1.5c0.9-0.1,2.3,0.6,3.2,0.8c2,0.5,4,1,6,1.3
							c3.7,0.6,7.4,0.6,11.2,0.5c7.4-0.2,14.9-0.8,22.1-2.6c4.8-1.2,9-3.5,13.6-5.1c0.1,0,1.2-0.8,1.4-0.8c0.3,0,2,1.8,2.3,2
							c2.2,1.7,4.7,2.5,7.1,3.8c3,1.7,0.1-0.7,1.7,1.4c0.5,0.6,0.7,1.7,1.1,2.4c1.2,2.2,2.9,4.1,4.9,5.6c2,1.5,4.9,2.2,5.9,4.1
							c0.8,1.5,1,3.5,1.6,5.1c1.6,4.1,3.8,8,5.9,11.9c1.7,3.1,3.6,5.9,3.8,9.5c0.1,1.2-1.1,8.7,1.8,6.5c0.4-0.3,1.4-4.2,1.5-4.8
							c0.8-2.6,1-5.4,1.4-8.1C194,81.3,194.2,76.2,193.8,70.8"/>
					</g>
				</mask>
				<g id="Skin_x2F__xD83D__xDC76__xD83C__xDFFD_-03-Brown_1_" class="st27">
					<g id="Color_1_" transform="translate(0.000000, 0.000000) ">
						<rect class="st28" width="264" height="280"/>
					</g>
				</g>
			</g>
		</g>
	</g>
</g>
</svg>
