<?xml version="1.0" encoding="utf-8"?>
<!-- Generator: Adobe Illustrator 24.1.0, SVG Export Plug-In . SVG Version: 6.00 Build 0)  -->
<svg version="1.1" id="Calque_1" xmlns="http://www.w3.org/2000/svg" xmlns:xlink="http://www.w3.org/1999/xlink" x="0px" y="0px"
	 viewBox="0 0 264 280" style="enable-background:new 0 0 264 280;" xml:space="preserve">
<style type="text/css">
	.st0{fill-rule:evenodd;clip-rule:evenodd;fill:#D0C6AC;}
	.st1{filter:url(#Adobe_OpacityMaskFilter);}
	.st2{fill-rule:evenodd;clip-rule:evenodd;fill:#FFFFFF;}
	.st3{mask:url(#mask-6_1_);}
	.st4{fill-rule:evenodd;clip-rule:evenodd;fill:#FFDBB4;}
	.st5{filter:url(#Adobe_OpacityMaskFilter_1_);}
	.st6{mask:url(#mask-6_2_);fill-rule:evenodd;clip-rule:evenodd;fill-opacity:0.1;}
	.st7{fill-rule:evenodd;clip-rule:evenodd;fill:#E6E6E6;}
	.st8{filter:url(#Adobe_OpacityMaskFilter_2_);}
	.st9{mask:url(#react-mask-795_1_);}
	.st10{fill-rule:evenodd;clip-rule:evenodd;fill:#929598;}
	.st11{filter:url(#Adobe_OpacityMaskFilter_3_);}
	.st12{mask:url(#react-mask-795_2_);}
	.st13{filter:url(#Adobe_OpacityMaskFilter_4_);}
	.st14{mask:url(#react-mask-800_1_);fill-rule:evenodd;clip-rule:evenodd;fill:#FFFFFF;}
	.st15{fill-opacity:0.6;}
	.st16{fill-rule:evenodd;clip-rule:evenodd;fill-opacity:0.16;}
	.st17{filter:url(#Adobe_OpacityMaskFilter_5_);}
	.st18{mask:url(#react-mask-766_1_);fill-rule:evenodd;clip-rule:evenodd;fill-opacity:0.7;}
	.st19{filter:url(#Adobe_OpacityMaskFilter_6_);}
	.st20{mask:url(#react-mask-767_1_);fill-rule:evenodd;clip-rule:evenodd;fill-opacity:0.7;}
	.st21{filter:url(#Adobe_OpacityMaskFilter_7_);}
	.st22{mask:url(#react-mask-600_1_);}
	.st23{fill-rule:evenodd;clip-rule:evenodd;fill:#331B0C;}
	.st24{filter:url(#Adobe_OpacityMaskFilter_8_);}
	.st25{mask:url(#react-mask-622_1_);}
	.st26{fill-rule:evenodd;clip-rule:evenodd;fill:#2C1B18;}
	.st27{fill-rule:evenodd;clip-rule:evenodd;fill:#28354B;}
	.st28{filter:url(#Adobe_OpacityMaskFilter_9_);}
	.st29{mask:url(#react-mask-601_1_);}
	.st30{fill-rule:evenodd;clip-rule:evenodd;fill:#4A312C;}
</style>
<g id="Avataaar">
	<g id="Body" transform="translate(32.000000, 36.000000)">
		<g>
			<path id="path-5_1_" class="st0" d="M124,144.6V163h4l0,0c39.8,0,72,32.2,72,72v9H0v-9c0-39.8,32.2-72,72-72l0,0h4v-18.4
				c-17.2-8.2-29.6-24.9-31.7-44.7C38.5,99.1,34,94.1,34,88V74c0-5.9,4.3-10.9,10-11.8V56l0,0c0-30.9,25.1-56,56-56l0,0l0,0
				c30.9,0,56,25.1,56,56v6.2c5.7,1,10,5.9,10,11.8v14c0,6.1-4.5,11.1-10.3,11.9C153.6,119.7,141.2,136.4,124,144.6z"/>
		</g>
		<defs>
			<filter id="Adobe_OpacityMaskFilter" filterUnits="userSpaceOnUse" x="-32" y="0" width="264" height="244">
				<feColorMatrix  type="matrix" values="1 0 0 0 0  0 1 0 0 0  0 0 1 0 0  0 0 0 1 0"/>
			</filter>
		</defs>
		<mask maskUnits="userSpaceOnUse" x="-32" y="0" width="264" height="244" id="mask-6_1_">
			<g class="st1">
				<path id="path-5_2_" class="st2" d="M124,144.6V163h4l0,0c39.8,0,72,32.2,72,72v9H0v-9c0-39.8,32.2-72,72-72l0,0h4v-18.4
					c-17.2-8.2-29.6-24.9-31.7-44.7C38.5,99.1,34,94.1,34,88V74c0-5.9,4.3-10.9,10-11.8V56l0,0c0-30.9,25.1-56,56-56l0,0l0,0
					c30.9,0,56,25.1,56,56v6.2c5.7,1,10,5.9,10,11.8v14c0,6.1-4.5,11.1-10.3,11.9C153.6,119.7,141.2,136.4,124,144.6z"/>
			</g>
		</mask>
		<g id="Skin_x2F__xD83D__xDC76__xD83C__xDFFD_-03-Brown" class="st3">
			<g id="Color" transform="translate(-32.000000, 0.000000)">
				<rect y="0" class="st4" width="264" height="244"/>
			</g>
		</g>
		<defs>
			<filter id="Adobe_OpacityMaskFilter_1_" filterUnits="userSpaceOnUse" x="44" y="79" width="112" height="79">
				<feColorMatrix  type="matrix" values="1 0 0 0 0  0 1 0 0 0  0 0 1 0 0  0 0 0 1 0"/>
			</filter>
		</defs>
		<mask maskUnits="userSpaceOnUse" x="44" y="79" width="112" height="79" id="mask-6_2_">
			<g class="st5">
				<path id="path-5_3_" class="st2" d="M124,144.6V163h4l0,0c39.8,0,72,32.2,72,72v9H0v-9c0-39.8,32.2-72,72-72l0,0h4v-18.4
					c-17.2-8.2-29.6-24.9-31.7-44.7C38.5,99.1,34,94.1,34,88V74c0-5.9,4.3-10.9,10-11.8V56l0,0c0-30.9,25.1-56,56-56l0,0l0,0
					c30.9,0,56,25.1,56,56v6.2c5.7,1,10,5.9,10,11.8v14c0,6.1-4.5,11.1-10.3,11.9C153.6,119.7,141.2,136.4,124,144.6z"/>
			</g>
		</mask>
		<path id="Neck-Shadow" class="st6" d="M156,79v23c0,30.9-25.1,56-56,56s-56-25.1-56-56V79v15c0,30.9,25.1,56,56,56s56-25.1,56-56
			V79z"/>
	</g>
	<g id="Clothing_x2F_Graphic-Shirt" transform="translate(0.000000, 170.000000)">
		<g id="Clothes">
			<path id="react-path-794_1_" class="st7" d="M165.6,29.3c37.1,2.9,66.4,33.9,66.4,71.8v8.9H32v-8.9c0-38.2,29.8-69.5,67.4-71.9
				c-0.3,1.1-0.4,2.2-0.4,3.3C99,44.4,114,54,132.5,54S166,44.4,166,32.5C166,31.4,165.9,30.3,165.6,29.3L165.6,29.3z"/>
		</g>
		<defs>
			<filter id="Adobe_OpacityMaskFilter_2_" filterUnits="userSpaceOnUse" x="0" y="0" width="264" height="110">
				<feColorMatrix  type="matrix" values="1 0 0 0 0  0 1 0 0 0  0 0 1 0 0  0 0 0 1 0"/>
			</filter>
		</defs>
		<mask maskUnits="userSpaceOnUse" x="0" y="0" width="264" height="110" id="react-mask-795_1_">
			<g class="st8">
				<path id="react-path-794_2_" class="st2" d="M165.6,29.3c37.1,2.9,66.4,33.9,66.4,71.8v8.9H32v-8.9c0-38.2,29.8-69.5,67.4-71.9
					c-0.3,1.1-0.4,2.2-0.4,3.3C99,44.4,114,54,132.5,54S166,44.4,166,32.5C166,31.4,165.9,30.3,165.6,29.3L165.6,29.3z"/>
			</g>
		</mask>
		<g id="Color_x2F_Palette_x2F_Gray-01" class="st9">
			<rect id="_xD83D__xDD8D_Color" y="0" class="st10" width="264" height="110"/>
		</g>
		<defs>
			<filter id="Adobe_OpacityMaskFilter_3_" filterUnits="userSpaceOnUse" x="108.5" y="59.4" width="47.4" height="41.5">
				<feColorMatrix  type="matrix" values="1 0 0 0 0  0 1 0 0 0  0 0 1 0 0  0 0 0 1 0"/>
			</filter>
		</defs>
		<mask maskUnits="userSpaceOnUse" x="108.5" y="59.4" width="47.4" height="41.5" id="react-mask-795_2_">
			<g class="st11">
				<path id="react-path-794_3_" class="st2" d="M165.6,29.3c37.1,2.9,66.4,33.9,66.4,71.8v8.9H32v-8.9c0-38.2,29.8-69.5,67.4-71.9
					c-0.3,1.1-0.4,2.2-0.4,3.3C99,44.4,114,54,132.5,54S166,44.4,166,32.5C166,31.4,165.9,30.3,165.6,29.3L165.6,29.3z"/>
			</g>
		</mask>
		<g id="Clothing_x2F_Graphic_x2F_Bear" class="st12">
			<g id="Group-76" transform="translate(77.000000, 58.000000)">
				<g transform="translate(31.000000, 1.000000)">
					<defs>
						<filter id="Adobe_OpacityMaskFilter_4_" filterUnits="userSpaceOnUse" x="0.5" y="0.4" width="47.4" height="41.5">
							<feColorMatrix  type="matrix" values="1 0 0 0 0  0 1 0 0 0  0 0 1 0 0  0 0 0 1 0"/>
						</filter>
					</defs>
					<mask maskUnits="userSpaceOnUse" x="0.5" y="0.4" width="47.4" height="41.5" id="react-mask-800_1_">
						<g class="st13">
							<polygon id="react-path-801_1_" class="st2" points="47.9,0.4 47.9,41.9 0.5,41.9 0.5,0.4 							"/>
						</g>
					</mask>
					<path id="Fill-74" class="st14" d="M34.4,31.6c-0.5,2.8-4.1,7.3-7.1,4.4c-3.5-3.3,4.2-4.8,1.5-7.6c-1.2-1.2-4.4-0.5-6-0.4
						c-1.5,0.1-3.9,0.5-3.3,2.6c0.4,1.6,1.7,0.9,2.4,1.9c0.5,0.7,0.3,3.5-0.5,4.3c-1,1-2.2,0.7-3.6,0.1c-3.2-1.4-4.7-5.3-2.6-8.2
						C19.4,22.8,35.3,21.5,34.4,31.6 M15,14.7c1-0.4,2.1-0.2,2.7,0.8c0.8,1.4-0.4,3.2-2,3C14,18.2,13.2,15.5,15,14.7 M32.9,16.4
						c-0.9,3-5.6-0.4-2.9-2.3C31.6,13,33.5,14.6,32.9,16.4 M47.8,23.2c-0.2-2.4-0.9-4.6-2.1-6.7c-0.6-1.1-1.4-2.1-2.2-3.1
						c-0.3-0.4-0.9-1-1-1.2c-0.7-1.2-0.6-0.4-0.2-1.8c0.6-2.2,1.9-4.1,0.9-6.5c-1-2.2-3.7-3.3-6-3.4C36.1,0.4,35,0.5,34,0.9
						c-1,0.4-2,1.6-2.9,1.9c-0.7,0.2-2.7-0.5-3.4-0.5c-1.4-0.1-2.8,0-4.2,0c-1.6,0.1-5.4,1.3-6.9,0.9c-1-0.3-2.2-1.8-3.4-2.2
						c-1.3-0.4-2.7-0.6-4-0.1c-2.3,0.9-4,3.6-4.1,5.9c0,1.3,0.7,2.1,0.8,3.3c0.2,1.7,0.4,0.4-0.5,1.7c-0.5,0.7-1.3,1.3-1.8,2
						C0.8,17.4-0.3,22.7,1,27.1C4.1,38,14.6,42.5,25.4,41.9C34.7,41.4,49,34.1,47.8,23.2"/>
				</g>
			</g>
		</g>
	</g>
	<g id="Face" transform="translate(76.000000, 82.000000)">
		<g id="Mouth_x2F_Twinkle" transform="translate(2.000000, 52.000000)">
			<path id="Mouth" class="st15" d="M40,16c0,5.4,6.2,9,14,9s14-3.6,14-9c0-1.1-0.9-2-2-2c-1.3,0-1.9,0.9-2,2c-1.2,2.9-4.3,4.7-10,5
				c-5.7-0.3-8.8-2.1-10-5c-0.1-1.1-0.7-2-2-2C40.9,14,40,14.9,40,16z"/>
		</g>
		<g id="Nose_x2F_Default" transform="translate(28.000000, 40.000000)">
			<path id="Nose" class="st16" d="M16,8c0,4.4,5.4,8,12,8l0,0c6.6,0,12-3.6,12-8"/>
		</g>
		<g id="Eyes_x2F_Squint-_xD83D__xDE0A_" transform="translate(0.000000, 8.000000)">
			<g id="Eye" transform="translate(16.000000, 13.000000)">
				<g id="The-white-stuff">
					<path id="react-path-764_1_" class="st2" d="M14,14c9.6,0,14,4.5,14-2.5S21.7,0,14,0S0,4.6,0,11.6S4.4,14,14,14z"/>
				</g>
				<defs>
					<filter id="Adobe_OpacityMaskFilter_5_" filterUnits="userSpaceOnUse" x="8" y="4" width="12" height="12">
						<feColorMatrix  type="matrix" values="1 0 0 0 0  0 1 0 0 0  0 0 1 0 0  0 0 0 1 0"/>
					</filter>
				</defs>
				<mask maskUnits="userSpaceOnUse" x="8" y="4" width="12" height="12" id="react-mask-766_1_">
					<g class="st17">
						<path id="react-path-764_2_" class="st2" d="M14,14c9.6,0,14,4.5,14-2.5S21.7,0,14,0S0,4.6,0,11.6S4.4,14,14,14z"/>
					</g>
				</mask>
				<circle class="st18" cx="14" cy="10" r="6"/>
			</g>
			<g id="Eye_1_" transform="translate(68.000000, 13.000000)">
				<g id="Eyeball-Mask">
					<path id="react-path-765_1_" class="st2" d="M14,14c9.6,0,14,4.5,14-2.5S21.7,0,14,0S0,4.6,0,11.6S4.4,14,14,14z"/>
				</g>
				<defs>
					<filter id="Adobe_OpacityMaskFilter_6_" filterUnits="userSpaceOnUse" x="8" y="4" width="12" height="12">
						<feColorMatrix  type="matrix" values="1 0 0 0 0  0 1 0 0 0  0 0 1 0 0  0 0 0 1 0"/>
					</filter>
				</defs>
				<mask maskUnits="userSpaceOnUse" x="8" y="4" width="12" height="12" id="react-mask-767_1_">
					<g class="st19">
						<path id="react-path-765_2_" class="st2" d="M14,14c9.6,0,14,4.5,14-2.5S21.7,0,14,0S0,4.6,0,11.6S4.4,14,14,14z"/>
					</g>
				</mask>
				<circle class="st20" cx="14" cy="10" r="6"/>
			</g>
		</g>
		<g id="Eyebrow_x2F_Outline_x2F_Up-Down">
			<path id="Eyebrow" class="st15" d="M15.6,14.2c4.5-6.3,14-9.5,23.8-6.4c1.1,0.3,2.2-0.2,2.5-1.3S41.6,4.3,40.6,4
				c-11.4-3.7-22.7,0.1-28.2,7.9c-0.6,0.9-0.4,2.1,0.5,2.8C13.7,15.3,15,15.1,15.6,14.2z"/>
			<path id="Eyebrow_1_" class="st15" d="M96.4,21.2c-3.9-5.5-14.6-8.6-23.9-6.3c-1.1,0.3-2.2-0.4-2.4-1.5c-0.3-1.1,0.4-2.2,1.5-2.4
				c10.7-2.6,23.2,0.9,28.1,7.9c0.6,0.9,0.4,2.1-0.5,2.8C98.3,22.3,97,22.1,96.4,21.2z"/>
		</g>
	</g>
	<g id="Top">
		<g id="Mask_1_">
		</g>
		<defs>
			<filter id="Adobe_OpacityMaskFilter_7_" filterUnits="userSpaceOnUse" x="16" y="34" width="322" height="282">
				<feColorMatrix  type="matrix" values="1 0 0 0 0  0 1 0 0 0  0 0 1 0 0  0 0 0 1 0"/>
			</filter>
		</defs>
		<mask maskUnits="userSpaceOnUse" x="16" y="34" width="322" height="282" id="react-mask-600_1_">
			<g class="st21">
				<rect id="react-path-602_1_" y="0" class="st2" width="264" height="280"/>
			</g>
		</mask>
		<g id="Top_x2F_Short-Hair_x2F_The-Caesar" class="st22">
			<g transform="translate(-1.000000, 0.000000)">
				<g id="Facial-Hair_x2F_Beard-Light" transform="translate(49.000000, 72.000000)">
					<g id="Lite-Beard">
						<path id="react-path-623_1_" class="st23" d="M101.4,98.2c-2.5,2.3-5.2,3.3-8.6,2.6c-0.6-0.1-3-4.5-8.9-4.5
							c-5.9,0-8.3,4.4-8.9,4.5c-3.4,0.7-6.1-0.3-8.6-2.6c-4.7-4.3-8.7-10.3-6.3-16.7c1.2-3.4,3.2-7.1,6.9-8.2
							c3.9-1.2,9.3,0,13.3-0.8c1.3-0.3,2.7-0.7,3.6-1.5c0.9,0.8,2.3,1.2,3.6,1.5c3.9,0.8,9.4-0.4,13.3,0.8c3.6,1.1,5.6,4.8,6.9,8.2
							C110.1,87.9,106.2,93.9,101.4,98.2 M140.1,26c-3.4,8.4-2.1,18.9-2.7,27.7c-0.5,7.2-2,17.9-8.4,22.5c-3.3,2.4-9.2,6.3-13.4,5.2
							c-2.9-0.8-3.2-9.2-7.1-12.3c-4.4-3.6-9.8-5.1-15.3-4.9c-2.4,0.1-7.2,0.1-9.1,1.9c-2-1.8-6.8-1.8-9.1-1.9
							c-5.5-0.2-10.9,1.3-15.3,4.9c-3.8,3.1-4.2,11.5-7.1,12.3c-4.3,1.1-10.2-2.9-13.4-5.2c-6.4-4.6-7.9-15.4-8.4-22.5
							C30,44.9,31.3,34.4,27.9,26c-1.7,0-0.6,16.1-0.6,16.1v20.4c0,15.3,9.6,38.2,30.8,46.9C63.3,111.5,75,115,84,115
							s20.7-3.1,25.9-5.3c21.2-8.7,30.7-32,30.8-47.2V42.1C140.6,42.1,141.7,26,140.1,26"/>
					</g>
					<defs>
						<filter id="Adobe_OpacityMaskFilter_8_" filterUnits="userSpaceOnUse" x="-32" y="0" width="264" height="244">
							<feColorMatrix  type="matrix" values="1 0 0 0 0  0 1 0 0 0  0 0 1 0 0  0 0 0 1 0"/>
						</filter>
					</defs>
					<mask maskUnits="userSpaceOnUse" x="-32" y="0" width="264" height="244" id="react-mask-622_1_">
						<g class="st24">
							<path id="react-path-623_2_" class="st2" d="M101.4,98.2c-2.5,2.3-5.2,3.3-8.6,2.6c-0.6-0.1-3-4.5-8.9-4.5
								c-5.9,0-8.3,4.4-8.9,4.5c-3.4,0.7-6.1-0.3-8.6-2.6c-4.7-4.3-8.7-10.3-6.3-16.7c1.2-3.4,3.2-7.1,6.9-8.2
								c3.9-1.2,9.3,0,13.3-0.8c1.3-0.3,2.7-0.7,3.6-1.5c0.9,0.8,2.3,1.2,3.6,1.5c3.9,0.8,9.4-0.4,13.3,0.8c3.6,1.1,5.6,4.8,6.9,8.2
								C110.1,87.9,106.2,93.9,101.4,98.2 M140.1,26c-3.4,8.4-2.1,18.9-2.7,27.7c-0.5,7.2-2,17.9-8.4,22.5
								c-3.3,2.4-9.2,6.3-13.4,5.2c-2.9-0.8-3.2-9.2-7.1-12.3c-4.4-3.6-9.8-5.1-15.3-4.9c-2.4,0.1-7.2,0.1-9.1,1.9
								c-2-1.8-6.8-1.8-9.1-1.9c-5.5-0.2-10.9,1.3-15.3,4.9c-3.8,3.1-4.2,11.5-7.1,12.3c-4.3,1.1-10.2-2.9-13.4-5.2
								c-6.4-4.6-7.9-15.4-8.4-22.5C30,44.9,31.3,34.4,27.9,26c-1.7,0-0.6,16.1-0.6,16.1v20.4c0,15.3,9.6,38.2,30.8,46.9
								C63.3,111.5,75,115,84,115s20.7-3.1,25.9-5.3c21.2-8.7,30.7-32,30.8-47.2V42.1C140.6,42.1,141.7,26,140.1,26"/>
						</g>
					</mask>
					<g id="Color_x2F_Hair_x2F_Brown" class="st25">
						<g id="Color_1_" transform="translate(-32.000000, 0.000000)">
							<rect y="0" class="st26" width="264" height="244"/>
						</g>
					</g>
				</g>
				<g id="Hair" transform="translate(75.000000, 34.000000)">
					<g id="Caesar">
						<path id="react-path-603_1_" class="st27" d="M1,64c0.3,1.5,1.7,1.2,2,0c-0.5-1.6,3.3-28.8,13-36c3.6-2.5,23-4.8,42.3-4.8
							c19.1,0,38.1,2.3,41.7,4.8c9.7,7.2,13.5,34.4,13,36c0.3,1.2,1.7,1.5,2,0c0.7-10.3,0-63.7-57-63S0.3,53.7,1,64z"/>
					</g>
					<defs>
						<filter id="Adobe_OpacityMaskFilter_9_" filterUnits="userSpaceOnUse" x="0" y="0" width="264" height="280">
							<feColorMatrix  type="matrix" values="1 0 0 0 0  0 1 0 0 0  0 0 1 0 0  0 0 0 1 0"/>
						</filter>
					</defs>
					<mask maskUnits="userSpaceOnUse" x="0" y="0" width="264" height="280" id="react-mask-601_1_">
						<g class="st28">
							<path id="react-path-603_2_" class="st2" d="M1,64c0.3,1.5,1.7,1.2,2,0c-0.5-1.6,3.3-28.8,13-36c3.6-2.5,23-4.8,42.3-4.8
								c19.1,0,38.1,2.3,41.7,4.8c9.7,7.2,13.5,34.4,13,36c0.3,1.2,1.7,1.5,2,0c0.7-10.3,0-63.7-57-63S0.3,53.7,1,64z"/>
						</g>
					</mask>
					<g id="Skin_x2F__xD83D__xDC76__xD83C__xDFFD_-03-Brown_1_" class="st29">
						<g id="Color_2_" transform="translate(0.000000, 0.000000) ">
							<rect y="0" class="st30" width="264" height="280"/>
						</g>
					</g>
				</g>
			</g>
		</g>
	</g>
</g>
</svg>
