<?xml version="1.0" encoding="utf-8"?>
<!-- Generator: Adobe Illustrator 24.1.0, SVG Export Plug-In . SVG Version: 6.00 Build 0)  -->
<svg version="1.1" id="Calque_1" xmlns="http://www.w3.org/2000/svg" xmlns:xlink="http://www.w3.org/1999/xlink" x="0px" y="0px"
	 viewBox="0 0 264 280" style="enable-background:new 0 0 264 280;" xml:space="preserve">
<style type="text/css">
	.st0{fill-rule:evenodd;clip-rule:evenodd;fill:#D0C6AC;}
	.st1{filter:url(#Adobe_OpacityMaskFilter);}
	.st2{fill-rule:evenodd;clip-rule:evenodd;fill:#FFFFFF;}
	.st3{mask:url(#mask-6_1_);}
	.st4{fill-rule:evenodd;clip-rule:evenodd;fill:#EDB98A;}
	.st5{filter:url(#Adobe_OpacityMaskFilter_1_);}
	.st6{mask:url(#mask-6_2_);fill-rule:evenodd;clip-rule:evenodd;fill-opacity:0.1;}
	.st7{fill-rule:evenodd;clip-rule:evenodd;fill:#B7C1DB;}
	.st8{filter:url(#Adobe_OpacityMaskFilter_2_);}
	.st9{mask:url(#react-mask-90_1_);}
	.st10{fill-rule:evenodd;clip-rule:evenodd;fill:#25557C;}
	.st11{filter:url(#Adobe_OpacityMaskFilter_3_);}
	.st12{mask:url(#react-mask-90_2_);fill-rule:evenodd;clip-rule:evenodd;fill:#F4F4F4;}
	.st13{filter:url(#Adobe_OpacityMaskFilter_4_);}
	.st14{mask:url(#react-mask-90_3_);fill-rule:evenodd;clip-rule:evenodd;fill-opacity:0.16;}
	.st15{fill-rule:evenodd;clip-rule:evenodd;fill-opacity:0.7;}
	.st16{fill-rule:evenodd;clip-rule:evenodd;fill-opacity:0.16;}
	.st17{fill-rule:evenodd;clip-rule:evenodd;fill-opacity:0.6;}
	.st18{fill-opacity:0.6;}
	.st19{filter:url(#Adobe_OpacityMaskFilter_5_);}
	.st20{mask:url(#react-mask-126_1_);}
	.st21{fill-rule:evenodd;clip-rule:evenodd;fill:#944F23;}
	.st22{filter:url(#Adobe_OpacityMaskFilter_6_);}
	.st23{mask:url(#react-mask-127_1_);}
	.st24{fill-rule:evenodd;clip-rule:evenodd;fill:#724133;}
	.st25{opacity:0.44;}
	.st26{fill-rule:evenodd;clip-rule:evenodd;fill:#FFFFFF;fill-opacity:0.16;}
</style>
<g id="Avataaar">
	<g id="Body" transform="translate(32.000000, 36.000000)">
		<g>
			<path id="path-5_1_" class="st0" d="M124,144.6V163h4l0,0c39.8,0,72,32.2,72,72v9H0v-9c0-39.8,32.2-72,72-72l0,0h4v-18.4
				c-17.2-8.2-29.6-24.9-31.7-44.7C38.5,99.1,34,94.1,34,88V74c0-5.9,4.3-10.9,10-11.8V56l0,0c0-30.9,25.1-56,56-56l0,0l0,0
				c30.9,0,56,25.1,56,56v6.2c5.7,1,10,5.9,10,11.8v14c0,6.1-4.5,11.1-10.3,11.9C153.6,119.7,141.2,136.4,124,144.6z"/>
		</g>
		<defs>
			<filter id="Adobe_OpacityMaskFilter" filterUnits="userSpaceOnUse" x="-32" y="0" width="264" height="244">
				<feColorMatrix  type="matrix" values="1 0 0 0 0  0 1 0 0 0  0 0 1 0 0  0 0 0 1 0"/>
			</filter>
		</defs>
		<mask maskUnits="userSpaceOnUse" x="-32" y="0" width="264" height="244" id="mask-6_1_">
			<g class="st1">
				<path id="path-5_2_" class="st2" d="M124,144.6V163h4l0,0c39.8,0,72,32.2,72,72v9H0v-9c0-39.8,32.2-72,72-72l0,0h4v-18.4
					c-17.2-8.2-29.6-24.9-31.7-44.7C38.5,99.1,34,94.1,34,88V74c0-5.9,4.3-10.9,10-11.8V56l0,0c0-30.9,25.1-56,56-56l0,0l0,0
					c30.9,0,56,25.1,56,56v6.2c5.7,1,10,5.9,10,11.8v14c0,6.1-4.5,11.1-10.3,11.9C153.6,119.7,141.2,136.4,124,144.6z"/>
			</g>
		</mask>
		<g id="Skin_x2F__xD83D__xDC76__xD83C__xDFFD_-03-Brown" class="st3">
			<g id="Color" transform="translate(-32.000000, 0.000000)">
				<rect y="0" class="st4" width="264" height="244"/>
			</g>
		</g>
		<defs>
			<filter id="Adobe_OpacityMaskFilter_1_" filterUnits="userSpaceOnUse" x="44" y="79" width="112" height="79">
				<feColorMatrix  type="matrix" values="1 0 0 0 0  0 1 0 0 0  0 0 1 0 0  0 0 0 1 0"/>
			</filter>
		</defs>
		<mask maskUnits="userSpaceOnUse" x="44" y="79" width="112" height="79" id="mask-6_2_">
			<g class="st5">
				<path id="path-5_3_" class="st2" d="M124,144.6V163h4l0,0c39.8,0,72,32.2,72,72v9H0v-9c0-39.8,32.2-72,72-72l0,0h4v-18.4
					c-17.2-8.2-29.6-24.9-31.7-44.7C38.5,99.1,34,94.1,34,88V74c0-5.9,4.3-10.9,10-11.8V56l0,0c0-30.9,25.1-56,56-56l0,0l0,0
					c30.9,0,56,25.1,56,56v6.2c5.7,1,10,5.9,10,11.8v14c0,6.1-4.5,11.1-10.3,11.9C153.6,119.7,141.2,136.4,124,144.6z"/>
			</g>
		</mask>
		<path id="Neck-Shadow" class="st6" d="M156,79v23c0,30.9-25.1,56-56,56s-56-25.1-56-56V79v15c0,30.9,25.1,56,56,56s56-25.1,56-56
			V79z"/>
	</g>
	<g id="Clothing_x2F_Hoodie" transform="translate(0.000000, 170.000000)">
		<g id="Hoodie">
			<path id="react-path-89_1_" class="st7" d="M108,13.1c-17.9,2-31.7,7.5-32,21.6C50.1,45.6,32,71.2,32,101l0,0v9h200v-9
				c0-29.8-18.1-55.4-44-66.4c-0.3-14.1-14.1-19.6-32-21.6V32l0,0c0,13.3-10.7,24-24,24l0,0c-13.3,0-24-10.7-24-24V13.1z"/>
		</g>
		<defs>
			<filter id="Adobe_OpacityMaskFilter_2_" filterUnits="userSpaceOnUse" x="0" y="0" width="264" height="110">
				<feColorMatrix  type="matrix" values="1 0 0 0 0  0 1 0 0 0  0 0 1 0 0  0 0 0 1 0"/>
			</filter>
		</defs>
		<mask maskUnits="userSpaceOnUse" x="0" y="0" width="264" height="110" id="react-mask-90_1_">
			<g class="st8">
				<path id="react-path-89_2_" class="st2" d="M108,13.1c-17.9,2-31.7,7.5-32,21.6C50.1,45.6,32,71.2,32,101l0,0v9h200v-9
					c0-29.8-18.1-55.4-44-66.4c-0.3-14.1-14.1-19.6-32-21.6V32l0,0c0,13.3-10.7,24-24,24l0,0c-13.3,0-24-10.7-24-24V13.1z"/>
			</g>
		</mask>
		<g id="Color_x2F_Palette_x2F_Gray-01" class="st9">
			<rect id="_xD83D__xDD8D_Color" y="0" class="st10" width="264" height="110"/>
		</g>
		<defs>
			<filter id="Adobe_OpacityMaskFilter_3_" filterUnits="userSpaceOnUse" x="95" y="58.2" width="74" height="51.8">
				<feColorMatrix  type="matrix" values="1 0 0 0 0  0 1 0 0 0  0 0 1 0 0  0 0 0 1 0"/>
			</filter>
		</defs>
		<mask maskUnits="userSpaceOnUse" x="95" y="58.2" width="74" height="51.8" id="react-mask-90_2_">
			<g class="st11">
				<path id="react-path-89_3_" class="st2" d="M108,13.1c-17.9,2-31.7,7.5-32,21.6C50.1,45.6,32,71.2,32,101l0,0v9h200v-9
					c0-29.8-18.1-55.4-44-66.4c-0.3-14.1-14.1-19.6-32-21.6V32l0,0c0,13.3-10.7,24-24,24l0,0c-13.3,0-24-10.7-24-24V13.1z"/>
			</g>
		</mask>
		<path id="Straps" class="st12" d="M102,61.7V110h-7V58.2C97.2,59.5,99.5,60.7,102,61.7z M169,58.2v40.3c0,1.9-1.6,3.5-3.5,3.5
			s-3.5-1.6-3.5-3.5V61.7C164.5,60.7,166.8,59.5,169,58.2z"/>
		<defs>
			<filter id="Adobe_OpacityMaskFilter_4_" filterUnits="userSpaceOnUse" x="65.5" y="12.7" width="133" height="55.3">
				<feColorMatrix  type="matrix" values="1 0 0 0 0  0 1 0 0 0  0 0 1 0 0  0 0 0 1 0"/>
			</filter>
		</defs>
		<mask maskUnits="userSpaceOnUse" x="65.5" y="12.7" width="133" height="55.3" id="react-mask-90_3_">
			<g class="st13">
				<path id="react-path-89_4_" class="st2" d="M108,13.1c-17.9,2-31.7,7.5-32,21.6C50.1,45.6,32,71.2,32,101l0,0v9h200v-9
					c0-29.8-18.1-55.4-44-66.4c-0.3-14.1-14.1-19.6-32-21.6V32l0,0c0,13.3-10.7,24-24,24l0,0c-13.3,0-24-10.7-24-24V13.1z"/>
			</g>
		</mask>
		<path id="Shadow" class="st14" d="M91,12.7c-15.1,2.8-25.5,8.5-25.5,19.6C65.5,52,98.5,68,132,68s66.5-16,66.5-35.7
			c0-11.1-10.4-16.7-25.5-19.6c9.1,3.4,15,9,15,18.4c0,20.4-27.8,36.9-56,36.9S76,51.5,76,31.1C76,21.7,81.9,16.1,91,12.7z"/>
	</g>
	<g id="Face" transform="translate(76.000000, 82.000000)">
		<g id="Mouth_x2F_Default" transform="translate(2.000000, 52.000000)">
			<path id="Mouth" class="st15" d="M40,15c0,7.7,6.3,14,14,14l0,0c7.7,0,14-6.3,14-14"/>
		</g>
		<g id="Nose_x2F_Default" transform="translate(28.000000, 40.000000)">
			<path id="Nose" class="st16" d="M16,8c0,4.4,5.4,8,12,8l0,0c6.6,0,12-3.6,12-8"/>
		</g>
		<g id="Eyes_x2F_Default-_xD83D__xDE00_" transform="translate(0.000000, 8.000000)">
			<circle id="Eye" class="st17" cx="30" cy="22" r="6"/>
			<circle id="Eye_1_" class="st17" cx="82" cy="22" r="6"/>
		</g>
		<g id="Eyebrow_x2F_Outline_x2F_Default">
			<g id="I-Browse" transform="translate(12.000000, 6.000000)">
				<path id="Eyebrow" class="st18" d="M3.6,11.2c3.9-5.5,14.6-8.6,23.9-6.3c1.1,0.3,2.2-0.4,2.4-1.5c0.3-1.1-0.4-2.2-1.5-2.4
					C17.7-1.7,5.3,1.9,0.4,8.8c-0.6,0.9-0.4,2.1,0.5,2.8S3,12.1,3.6,11.2z"/>
				<path id="Eyebrow_1_" class="st18" d="M84.4,11.2c-3.9-5.5-14.6-8.6-23.9-6.3c-1.1,0.3-2.2-0.4-2.4-1.5s0.4-2.2,1.5-2.4
					c10.7-2.6,23.2,0.9,28.1,7.9c0.6,0.9,0.4,2.1-0.5,2.8S85,12.1,84.4,11.2z"/>
			</g>
		</g>
	</g>
	<g id="Top_1_">
		<g id="Mask_1_">
		</g>
		<defs>
			<filter id="Adobe_OpacityMaskFilter_5_" filterUnits="userSpaceOnUse" x="-1" y="0" width="264" height="280">
				<feColorMatrix  type="matrix" values="1 0 0 0 0  0 1 0 0 0  0 0 1 0 0  0 0 0 1 0"/>
			</filter>
		</defs>
		<mask maskUnits="userSpaceOnUse" x="-1" y="0" width="264" height="280" id="react-mask-126_1_">
			<g class="st19">
				<rect id="react-path-128_1_" y="0" class="st2" width="264" height="280"/>
			</g>
		</mask>
		<g id="Top_x2F_Long-Hair_x2F_Long-but-not-too-long" class="st20">
			<g transform="translate(-1.000000, 0.000000)">
				<g id="Behind">
					<g id="Combined-Shape">
						<path id="react-path-129_1_" class="st21" d="M59,102.3c0,16.6,0,43.1,0,79.7c0,4.4,3.6,8,8,8h42v-9.4
							c-17.5-8.3-30-25.5-31.8-45.7C71.4,134,67,129,67,123v-13c0-3.5,1.5-6.6,3.9-8.8c11.5-2.6,24.1-7.5,36.5-14.7
							c12.1-7,22.5-15.2,30.5-23.7c-3.4,7.9-7.6,14.8-12.4,20.8c12.7-5.5,21.3-14.4,25.9-26.6c0.4,0.9,0.8,1.8,1.2,2.8
							c10.3,23,27.9,39.4,45.8,44.7c0.5,2.1,0.8,4.1,0.8,5.6v13c0,6-4.4,11-10.2,11.9c-1.7,20.2-14.3,37.4-31.8,45.7v9.4h18
							c17.7,0,32-14.3,32-32c0-24.1,0-42.1,0-54.1c0-0.1,0-0.2,0-0.3c-0.1-12.3-0.3-19.4-0.6-21.4C201.6,46,170.6,18,133,18
							c-36.1,0-66.1,25.8-73,60c-5.5,0-10,5.6-10,12.5c0,4.6,1.7,8.6,4.9,10.8C55.8,101.9,57.3,102.2,59,102.3z"/>
					</g>
					<defs>
						<filter id="Adobe_OpacityMaskFilter_6_" filterUnits="userSpaceOnUse" x="0" y="0" width="264" height="280">
							<feColorMatrix  type="matrix" values="1 0 0 0 0  0 1 0 0 0  0 0 1 0 0  0 0 0 1 0"/>
						</filter>
					</defs>
					<mask maskUnits="userSpaceOnUse" x="0" y="0" width="264" height="280" id="react-mask-127_1_">
						<g class="st22">
							<path id="react-path-129_2_" class="st2" d="M59,102.3c0,16.6,0,43.1,0,79.7c0,4.4,3.6,8,8,8h42v-9.4
								c-17.5-8.3-30-25.5-31.8-45.7C71.4,134,67,129,67,123v-13c0-3.5,1.5-6.6,3.9-8.8c11.5-2.6,24.1-7.5,36.5-14.7
								c12.1-7,22.5-15.2,30.5-23.7c-3.4,7.9-7.6,14.8-12.4,20.8c12.7-5.5,21.3-14.4,25.9-26.6c0.4,0.9,0.8,1.8,1.2,2.8
								c10.3,23,27.9,39.4,45.8,44.7c0.5,2.1,0.8,4.1,0.8,5.6v13c0,6-4.4,11-10.2,11.9c-1.7,20.2-14.3,37.4-31.8,45.7v9.4h18
								c17.7,0,32-14.3,32-32c0-24.1,0-42.1,0-54.1c0-0.1,0-0.2,0-0.3c-0.1-12.3-0.3-19.4-0.6-21.4C201.6,46,170.6,18,133,18
								c-36.1,0-66.1,25.8-73,60c-5.5,0-10,5.6-10,12.5c0,4.6,1.7,8.6,4.9,10.8C55.8,101.9,57.3,102.2,59,102.3z"/>
						</g>
					</mask>
					<g id="Skin_x2F__xD83D__xDC76__xD83C__xDFFD_-03-Brown_1_" class="st23">
						<g id="Color_1_" transform="translate(0.000000, 0.000000) ">
							<rect y="0" class="st24" width="264" height="280"/>
						</g>
					</g>
				</g>
				<g id="Top" transform="translate(50.000000, 18.000000)" class="st25">
					<path id="Combined-Shape_1_" class="st26" d="M11.9,84.8c13.8-1.8,29.8-7.2,45.4-16.3c12.1-7,22.5-15.2,30.5-23.7
						c-3.4,7.9-7.6,14.8-12.4,20.8C88,60,96.7,51.1,101.3,38.9c0.4,0.9,0.8,1.8,1.2,2.8c11.9,26.8,33.9,44.5,54.6,46.5l0,0V74
						c0-40.9-33.1-74-74-74C46.9,0,16.9,25.8,10.3,60c-0.1,0-0.2,0-0.3,0C4.5,60,0,65.6,0,72.5C0,79,3.9,84.3,9,84.9v0.2
						c0.3,0,0.6-0.1,1-0.1c0,0,0,0,0,0C10.6,85,11.3,84.9,11.9,84.8z"/>
				</g>
			</g>
		</g>
	</g>
</g>
</svg>
