<?xml version="1.0" encoding="utf-8"?>
<!-- Generator: Adobe Illustrator 24.1.0, SVG Export Plug-In . SVG Version: 6.00 Build 0)  -->
<svg version="1.1" id="Calque_1" xmlns="http://www.w3.org/2000/svg" xmlns:xlink="http://www.w3.org/1999/xlink" x="0px" y="0px"
	 viewBox="0 0 264 280" style="enable-background:new 0 0 264 280;" xml:space="preserve">
<style type="text/css">
	.st0{fill-rule:evenodd;clip-rule:evenodd;fill:#D0C6AC;}
	.st1{filter:url(#Adobe_OpacityMaskFilter);}
	.st2{fill-rule:evenodd;clip-rule:evenodd;fill:#FFFFFF;}
	.st3{mask:url(#mask-6_1_);}
	.st4{fill-rule:evenodd;clip-rule:evenodd;fill:#EDB98A;}
	.st5{filter:url(#Adobe_OpacityMaskFilter_1_);}
	.st6{mask:url(#mask-6_2_);fill-rule:evenodd;clip-rule:evenodd;fill-opacity:0.1;}
	.st7{fill-rule:evenodd;clip-rule:evenodd;fill:#E6E6E6;}
	.st8{filter:url(#Adobe_OpacityMaskFilter_2_);}
	.st9{mask:url(#react-mask-66_1_);}
	.st10{fill-rule:evenodd;clip-rule:evenodd;fill:#F2F2F2;}
	.st11{fill-rule:evenodd;clip-rule:evenodd;fill-opacity:0.7;}
	.st12{fill-rule:evenodd;clip-rule:evenodd;fill-opacity:0.16;}
	.st13{fill-rule:evenodd;clip-rule:evenodd;fill-opacity:0.6;}
	.st14{filter:url(#Adobe_OpacityMaskFilter_3_);}
	.st15{mask:url(#react-mask-43_1_);}
	.st16{fill-rule:evenodd;clip-rule:evenodd;fill:#944F23;}
	.st17{filter:url(#Adobe_OpacityMaskFilter_4_);}
	.st18{mask:url(#react-mask-44_1_);}
	.st19{fill-rule:evenodd;clip-rule:evenodd;fill:#D6B370;}
	.st20{fill-rule:evenodd;clip-rule:evenodd;fill-opacity:0.24;}
	.st21{filter:url(#react-filter-48);}
	.st22{fill-rule:evenodd;clip-rule:evenodd;}
	.st23{fill-rule:evenodd;clip-rule:evenodd;fill:#252C2F;}
</style>
<filter  filterUnits="objectBoundingBox" height="108.3%" id="react-filter-48" width="101.6%" x="-0.8%" y="-2.1%">
	<feOffset  dx="0" dy="2" in="SourceAlpha" result="shadowOffsetOuter1"></feOffset>
	<feColorMatrix  in="shadowOffsetOuter1" type="matrix" values="0 0 0 0 0   0 0 0 0 0   0 0 0 0 0  0 0 0 0.1 0"></feColorMatrix>
</filter>
<g id="Avataaar">
	<g id="Body" transform="translate(32.000000, 36.000000)">
		<g>
			<path id="path-5_1_" class="st0" d="M124,144.6V163h4l0,0c39.8,0,72,32.2,72,72v9H0v-9c0-39.8,32.2-72,72-72l0,0h4v-18.4
				c-17.2-8.2-29.6-24.9-31.7-44.7C38.5,99.1,34,94.1,34,88V74c0-5.9,4.3-10.9,10-11.8V56l0,0c0-30.9,25.1-56,56-56l0,0l0,0
				c30.9,0,56,25.1,56,56v6.2c5.7,1,10,5.9,10,11.8v14c0,6.1-4.5,11.1-10.3,11.9C153.6,119.7,141.2,136.4,124,144.6z"/>
		</g>
		<defs>
			<filter id="Adobe_OpacityMaskFilter" filterUnits="userSpaceOnUse" x="-32" y="0" width="264" height="244">
				<feColorMatrix  type="matrix" values="1 0 0 0 0  0 1 0 0 0  0 0 1 0 0  0 0 0 1 0"/>
			</filter>
		</defs>
		<mask maskUnits="userSpaceOnUse" x="-32" y="0" width="264" height="244" id="mask-6_1_">
			<g class="st1">
				<path id="path-5_2_" class="st2" d="M124,144.6V163h4l0,0c39.8,0,72,32.2,72,72v9H0v-9c0-39.8,32.2-72,72-72l0,0h4v-18.4
					c-17.2-8.2-29.6-24.9-31.7-44.7C38.5,99.1,34,94.1,34,88V74c0-5.9,4.3-10.9,10-11.8V56l0,0c0-30.9,25.1-56,56-56l0,0l0,0
					c30.9,0,56,25.1,56,56v6.2c5.7,1,10,5.9,10,11.8v14c0,6.1-4.5,11.1-10.3,11.9C153.6,119.7,141.2,136.4,124,144.6z"/>
			</g>
		</mask>
		<g id="Skin_x2F__xD83D__xDC76__xD83C__xDFFD_-03-Brown" class="st3">
			<g id="Color" transform="translate(-32.000000, 0.000000)">
				<rect class="st4" width="264" height="244"/>
			</g>
		</g>
		<defs>
			<filter id="Adobe_OpacityMaskFilter_1_" filterUnits="userSpaceOnUse" x="44" y="79" width="112" height="79">
				<feColorMatrix  type="matrix" values="1 0 0 0 0  0 1 0 0 0  0 0 1 0 0  0 0 0 1 0"/>
			</filter>
		</defs>
		<mask maskUnits="userSpaceOnUse" x="44" y="79" width="112" height="79" id="mask-6_2_">
			<g class="st5">
				<path id="path-5_3_" class="st2" d="M124,144.6V163h4l0,0c39.8,0,72,32.2,72,72v9H0v-9c0-39.8,32.2-72,72-72l0,0h4v-18.4
					c-17.2-8.2-29.6-24.9-31.7-44.7C38.5,99.1,34,94.1,34,88V74c0-5.9,4.3-10.9,10-11.8V56l0,0c0-30.9,25.1-56,56-56l0,0l0,0
					c30.9,0,56,25.1,56,56v6.2c5.7,1,10,5.9,10,11.8v14c0,6.1-4.5,11.1-10.3,11.9C153.6,119.7,141.2,136.4,124,144.6z"/>
			</g>
		</mask>
		<path id="Neck-Shadow" class="st6" d="M156,79v23c0,30.9-25.1,56-56,56s-56-25.1-56-56V79v15c0,30.9,25.1,56,56,56s56-25.1,56-56
			V79z"/>
	</g>
	<g id="Clothing_x2F_Collar-_x2B_-Sweater" transform="translate(0.000000, 170.000000)">
		<g id="Clothes">
			<path id="react-path-65_1_" class="st7" d="M105.2,29.1H104l0,0c-39.8,0-72,32.2-72,72v8.9h200v-8.9c0-39.8-32.2-72-72-72l0,0
				h-1.2c0.1,1,0.2,2,0.2,3c0,13.8-12.1,25-27,25s-27-11.2-27-25C105,31,105.1,30,105.2,29.1z"/>
		</g>
		<defs>
			<filter id="Adobe_OpacityMaskFilter_2_" filterUnits="userSpaceOnUse" x="0" y="0" width="264" height="110">
				<feColorMatrix  type="matrix" values="1 0 0 0 0  0 1 0 0 0  0 0 1 0 0  0 0 0 1 0"/>
			</filter>
		</defs>
		<mask maskUnits="userSpaceOnUse" x="0" y="0" width="264" height="110" id="react-mask-66_1_">
			<g class="st8">
				<path id="react-path-65_2_" class="st2" d="M105.2,29.1H104l0,0c-39.8,0-72,32.2-72,72v8.9h200v-8.9c0-39.8-32.2-72-72-72l0,0
					h-1.2c0.1,1,0.2,2,0.2,3c0,13.8-12.1,25-27,25s-27-11.2-27-25C105,31,105.1,30,105.2,29.1z"/>
			</g>
		</mask>
		<g id="Color_x2F_Palette_x2F_Gray-01" class="st9">
			<rect id="_xD83D__xDD8D_Color" class="st2" width="264" height="110"/>
		</g>
		<path id="Collar" class="st10" d="M156,22.3c6.2,4.6,10,10.8,10,17.7c0,7.2-4.1,13.7-10.8,18.3l-5.6-4.5l-4.6,0.3l1-3.2l-0.1-0.1
			c6.1-3.1,10.1-8.3,10.1-14.1V22.3z M108,21.6c-6.8,4.6-11,11.2-11,18.5c0,7.4,4.4,14.1,11.3,18.7l6.1-4.8l4.6,0.3l-1-3.2l0.1-0.1
			C112,47.9,108,42.7,108,36.9V21.6z"/>
	</g>
	<g id="Face" transform="translate(76.000000, 82.000000)">
		<g id="Mouth_x2F_Default" transform="translate(2.000000, 52.000000)">
			<path id="Mouth" class="st11" d="M40,15c0,7.7,6.3,14,14,14l0,0c7.7,0,14-6.3,14-14"/>
		</g>
		<g id="Nose_x2F_Default" transform="translate(28.000000, 40.000000)">
			<path id="Nose" class="st12" d="M16,8c0,4.4,5.4,8,12,8l0,0c6.6,0,12-3.6,12-8"/>
		</g>
		<g id="Eyes_x2F_Happy-_xD83D__xDE01_" transform="translate(0.000000, 8.000000)">
			<path id="Squint" class="st13" d="M16.2,22.4C18,18.6,22.2,16,27,16c4.8,0,9,2.6,10.8,6.4c0.6,1.1-0.2,2-1,1.4
				c-2.5-2.1-5.9-3.4-9.8-3.4c-3.7,0-7.1,1.2-9.6,3.2C16.5,24.3,15.6,23.6,16.2,22.4z"/>
			<path id="Squint_1_" class="st13" d="M74.2,22.4C76,18.6,80.2,16,85,16c4.8,0,9,2.6,10.8,6.4c0.6,1.1-0.2,2-1,1.4
				c-2.5-2.1-5.9-3.4-9.8-3.4c-3.7,0-7.1,1.2-9.6,3.2C74.5,24.3,73.6,23.6,74.2,22.4z"/>
		</g>
		<g id="Eyebrow_x2F_Natural_x2F_Raised-Excited-Natural">
			<path id="Eye-Browse-Reddit" class="st13" d="M22.8,1.6l0.9-0.4c5.2-2.1,13.2-1.2,18,1.1c0.6,0.3,0.2,1.2-0.4,1.1
				c-14.9-1.2-25,8.1-28.4,14.4c-0.1,0.2-0.4,0.2-0.5,0C10.2,12.6,16.9,3.9,22.8,1.6z"/>
			<path id="Eye-Browse-Reddit_1_" class="st13" d="M89.2,1.6l-0.9-0.4c-5.2-2.1-13.2-1.2-18,1.1c-0.6,0.3-0.2,1.2,0.4,1.1
				c14.9-1.2,25,8.1,28.4,14.4c0.1,0.2,0.4,0.2,0.5,0C101.8,12.6,95.1,3.9,89.2,1.6z"/>
		</g>
	</g>
	<g id="Top">
		<g id="Mask_1_">
		</g>
		<defs>
			<filter id="Adobe_OpacityMaskFilter_3_" filterUnits="userSpaceOnUse" x="58" y="18" width="264" height="280">
				<feColorMatrix  type="matrix" values="1 0 0 0 0  0 1 0 0 0  0 0 1 0 0  0 0 0 1 0"/>
			</filter>
		</defs>
		<mask maskUnits="userSpaceOnUse" x="58" y="18" width="264" height="280" id="react-mask-43_1_">
			<g class="st14">
				<rect id="react-path-45_1_" class="st2" width="264" height="280"/>
			</g>
		</mask>
		<g id="Top_x2F_Long-Hair_x2F_Straight" class="st15">
			<g transform="translate(-1.000000, 0.000000)">
				<g id="Hair" transform="translate(59.000000, 18.000000)">
					<g id="Mask-Hair">
						<path id="react-path-46_1_" class="st16" d="M133.5,81.3c3.9,2,6.5,6,6.5,10.7v13c0,6-4.4,11-10.2,11.9
							c-1.7,20.2-14.3,37.4-31.8,45.7l0,0V181h4c17.5,0,33.5,6.2,46,16.6V74c0-20.4-8.3-38.9-21.7-52.3S94.4,0,74,0
							C33.1,0,0,33.1,0,74v183.7c13.6-1.9,24-13.6,24-27.7v-45.6c6.9-2.2,14.3-3.4,22-3.4h4v-18.4c-11.2-5.3-20.4-14.3-26-25.4v-62
							c9.1-3,18.8-7.2,28.3-12.8c15.4-8.9,28.1-19.6,36.7-30.1c1.8,5.2,4.1,10.4,7,15.5c8.8,15.2,21.1,26.3,33.9,32v0.2
							c0.4,0.1,0.8,0.2,1.2,0.3C132,80.7,132.7,81.1,133.5,81.3z"/>
					</g>
					<defs>
						<filter id="Adobe_OpacityMaskFilter_4_" filterUnits="userSpaceOnUse" x="0" y="0" width="264" height="280">
							<feColorMatrix  type="matrix" values="1 0 0 0 0  0 1 0 0 0  0 0 1 0 0  0 0 0 1 0"/>
						</filter>
					</defs>
					<mask maskUnits="userSpaceOnUse" x="0" y="0" width="264" height="280" id="react-mask-44_1_">
						<g class="st17">
							<path id="react-path-46_2_" class="st2" d="M133.5,81.3c3.9,2,6.5,6,6.5,10.7v13c0,6-4.4,11-10.2,11.9
								c-1.7,20.2-14.3,37.4-31.8,45.7l0,0V181h4c17.5,0,33.5,6.2,46,16.6V74c0-20.4-8.3-38.9-21.7-52.3S94.4,0,74,0
								C33.1,0,0,33.1,0,74v183.7c13.6-1.9,24-13.6,24-27.7v-45.6c6.9-2.2,14.3-3.4,22-3.4h4v-18.4c-11.2-5.3-20.4-14.3-26-25.4v-62
								c9.1-3,18.8-7.2,28.3-12.8c15.4-8.9,28.1-19.6,36.7-30.1c1.8,5.2,4.1,10.4,7,15.5c8.8,15.2,21.1,26.3,33.9,32v0.2
								c0.4,0.1,0.8,0.2,1.2,0.3C132,80.7,132.7,81.1,133.5,81.3z"/>
						</g>
					</mask>
					<g id="Skin_x2F__xD83D__xDC76__xD83C__xDFFD_-03-Brown_1_" class="st18">
						<g id="Color_1_" transform="translate(0.000000, 0.000000) ">
							<rect class="st19" width="264" height="280"/>
						</g>
					</g>
				</g>
				<path id="Shadow" class="st20" d="M192.5,99.3c4.9,1.8,9.8,2.7,14.5,2.8l0,0V92c0-20.4-8.3-38.9-21.7-52.3
					C198.7,53.1,207,71.6,207,92v123.6c-12.5-10.4-28.5-16.6-46-16.6h-4v-18.4l0,0c17.5-8.3,30-25.5,31.8-45.7
					C194.6,134,199,129,199,123v-13C199,105.4,196.4,101.3,192.5,99.3z M190.2,98.4c-0.4-0.1-0.8-0.2-1.2-0.3v-0.2
					C189.4,98.1,189.8,98.3,190.2,98.4z M83,155.2c5.6,11.1,14.8,20,26,25.4V199h-4c-7.7,0-15.1,1.2-22,3.4V155.2z"/>
				<g id="Top_x2F__x5F_Resources_x2F_Round" transform="translate(62.000000, 85.000000)">
					<g id="Lennon-Glasses">
						<g class="st21">
							<path id="react-path-47_2_" class="st22" d="M80.5,16.4C84.4,8.5,92.6,3,102,3c8.9,0,16.7,4.9,20.8,12.1
								c0.2-0.1,0.4-0.1,0.7-0.1h8c1.4,0,2.5,1.1,2.5,2.5s-1.1,2.5-2.5,2.5H125c0.7,2.2,1,4.6,1,7c0,13.3-10.7,24-24,24
								S78,40.3,78,27c0-1.4,0.1-2.8,0.4-4.2c-0.1-4.4-3.4-7.8-7.5-7.8c-3.7,0-6.9,2.9-7.4,6.8c0.4,1.7,0.6,3.4,0.6,5.2
								c0,13.3-10.7,24-24,24S16,40.3,16,27c0-2.4,0.4-4.8,1-7h-6.5C9.1,20,8,18.9,8,17.5S9.1,15,10.5,15l0,0h8c0.2,0,0.4,0,0.7,0.1
								C23.3,7.9,31.1,3,40,3c9.4,0,17.5,5.3,21.4,13.2c2.1-3.1,5.5-5.2,9.4-5.2C74.9,11,78.4,13.1,80.5,16.4z M40,47
								c11,0,20-9,20-20S51,7,40,7s-20,9-20,20S29,47,40,47z M102,47c11,0,20-9,20-20s-9-20-20-20s-20,9-20,20S91,47,102,47z"/>
						</g>
						<g>
							<path id="react-path-47_1_" class="st23" d="M80.5,16.4C84.4,8.5,92.6,3,102,3c8.9,0,16.7,4.9,20.8,12.1
								c0.2-0.1,0.4-0.1,0.7-0.1h8c1.4,0,2.5,1.1,2.5,2.5s-1.1,2.5-2.5,2.5H125c0.7,2.2,1,4.6,1,7c0,13.3-10.7,24-24,24
								S78,40.3,78,27c0-1.4,0.1-2.8,0.4-4.2c-0.1-4.4-3.4-7.8-7.5-7.8c-3.7,0-6.9,2.9-7.4,6.8c0.4,1.7,0.6,3.4,0.6,5.2
								c0,13.3-10.7,24-24,24S16,40.3,16,27c0-2.4,0.4-4.8,1-7h-6.5C9.1,20,8,18.9,8,17.5S9.1,15,10.5,15l0,0h8c0.2,0,0.4,0,0.7,0.1
								C23.3,7.9,31.1,3,40,3c9.4,0,17.5,5.3,21.4,13.2c2.1-3.1,5.5-5.2,9.4-5.2C74.9,11,78.4,13.1,80.5,16.4z M40,47
								c11,0,20-9,20-20S51,7,40,7s-20,9-20,20S29,47,40,47z M102,47c11,0,20-9,20-20s-9-20-20-20s-20,9-20,20S91,47,102,47z"/>
						</g>
					</g>
				</g>
			</g>
		</g>
	</g>
</g>
</svg>
