<?xml version="1.0" encoding="utf-8"?>
<!-- Generator: Adobe Illustrator 24.1.0, SVG Export Plug-In . SVG Version: 6.00 Build 0)  -->
<svg version="1.1" id="Calque_1" xmlns="http://www.w3.org/2000/svg" xmlns:xlink="http://www.w3.org/1999/xlink" x="0px" y="0px"
	 viewBox="0 0 264 280" style="enable-background:new 0 0 264 280;" xml:space="preserve">
<style type="text/css">
	.st0{fill-rule:evenodd;clip-rule:evenodd;fill:#D0C6AC;}
	.st1{filter:url(#Adobe_OpacityMaskFilter);}
	.st2{fill-rule:evenodd;clip-rule:evenodd;fill:#FFFFFF;}
	.st3{mask:url(#mask-6_1_);}
	.st4{fill-rule:evenodd;clip-rule:evenodd;fill:#EDB98A;}
	.st5{filter:url(#Adobe_OpacityMaskFilter_1_);}
	.st6{mask:url(#mask-6_2_);fill-rule:evenodd;clip-rule:evenodd;fill-opacity:0.1;}
	.st7{fill-rule:evenodd;clip-rule:evenodd;fill:#E6E6E6;}
	.st8{filter:url(#Adobe_OpacityMaskFilter_2_);}
	.st9{mask:url(#react-mask-112_1_);}
	.st10{fill-rule:evenodd;clip-rule:evenodd;fill:#262E33;}
	.st11{fill-rule:evenodd;clip-rule:evenodd;fill-opacity:0.7;}
	.st12{fill-rule:evenodd;clip-rule:evenodd;fill-opacity:0.16;}
	.st13{fill-rule:evenodd;clip-rule:evenodd;fill-opacity:0.6;}
	.st14{filter:url(#Adobe_OpacityMaskFilter_3_);}
	.st15{mask:url(#react-mask-264_1_);}
	.st16{fill-rule:evenodd;clip-rule:evenodd;fill:#ECC797;}
	.st17{filter:url(#Adobe_OpacityMaskFilter_4_);}
	.st18{mask:url(#react-mask-265_1_);}
	.st19{fill-rule:evenodd;clip-rule:evenodd;fill:#A55728;}
</style>
<g id="Avataaar">
	<g id="Body" transform="translate(32.000000, 36.000000)">
		<g>
			<path id="path-5_1_" class="st0" d="M124,144.6V163h4l0,0c39.8,0,72,32.2,72,72v9H0v-9c0-39.8,32.2-72,72-72l0,0h4v-18.4
				c-17.2-8.2-29.6-24.9-31.7-44.7C38.5,99.1,34,94.1,34,88V74c0-5.9,4.3-10.9,10-11.8V56l0,0c0-30.9,25.1-56,56-56l0,0l0,0
				c30.9,0,56,25.1,56,56v6.2c5.7,1,10,5.9,10,11.8v14c0,6.1-4.5,11.1-10.3,11.9C153.6,119.7,141.2,136.4,124,144.6z"/>
		</g>
		<defs>
			<filter id="Adobe_OpacityMaskFilter" filterUnits="userSpaceOnUse" x="-32" y="0" width="264" height="244">
				<feColorMatrix  type="matrix" values="1 0 0 0 0  0 1 0 0 0  0 0 1 0 0  0 0 0 1 0"/>
			</filter>
		</defs>
		<mask maskUnits="userSpaceOnUse" x="-32" y="0" width="264" height="244" id="mask-6_1_">
			<g class="st1">
				<path id="path-5_2_" class="st2" d="M124,144.6V163h4l0,0c39.8,0,72,32.2,72,72v9H0v-9c0-39.8,32.2-72,72-72l0,0h4v-18.4
					c-17.2-8.2-29.6-24.9-31.7-44.7C38.5,99.1,34,94.1,34,88V74c0-5.9,4.3-10.9,10-11.8V56l0,0c0-30.9,25.1-56,56-56l0,0l0,0
					c30.9,0,56,25.1,56,56v6.2c5.7,1,10,5.9,10,11.8v14c0,6.1-4.5,11.1-10.3,11.9C153.6,119.7,141.2,136.4,124,144.6z"/>
			</g>
		</mask>
		<g id="Skin_x2F__xD83D__xDC76__xD83C__xDFFD_-03-Brown" class="st3">
			<g id="Color" transform="translate(-32.000000, 0.000000)">
				<rect y="0" class="st4" width="264" height="244"/>
			</g>
		</g>
		<defs>
			<filter id="Adobe_OpacityMaskFilter_1_" filterUnits="userSpaceOnUse" x="44" y="79" width="112" height="79">
				<feColorMatrix  type="matrix" values="1 0 0 0 0  0 1 0 0 0  0 0 1 0 0  0 0 0 1 0"/>
			</filter>
		</defs>
		<mask maskUnits="userSpaceOnUse" x="44" y="79" width="112" height="79" id="mask-6_2_">
			<g class="st5">
				<path id="path-5_3_" class="st2" d="M124,144.6V163h4l0,0c39.8,0,72,32.2,72,72v9H0v-9c0-39.8,32.2-72,72-72l0,0h4v-18.4
					c-17.2-8.2-29.6-24.9-31.7-44.7C38.5,99.1,34,94.1,34,88V74c0-5.9,4.3-10.9,10-11.8V56l0,0c0-30.9,25.1-56,56-56l0,0l0,0
					c30.9,0,56,25.1,56,56v6.2c5.7,1,10,5.9,10,11.8v14c0,6.1-4.5,11.1-10.3,11.9C153.6,119.7,141.2,136.4,124,144.6z"/>
			</g>
		</mask>
		<path id="Neck-Shadow" class="st6" d="M156,79v23c0,30.9-25.1,56-56,56s-56-25.1-56-56V79v15c0,30.9,25.1,56,56,56s56-25.1,56-56
			V79z"/>
	</g>
	<g id="Clothing_x2F_Shirt-V-Neck" transform="translate(0.000000, 170.000000)">
		<g id="Clothes">
			<path id="react-path-111_1_" class="st7" d="M171.3,29.9c34.4,5.4,60.7,35.2,60.7,71.1v8.9H32v-8.9c0-35.9,26.3-65.7,60.7-71.1
				c0.9,5.1,3.4,9.9,7.6,13.6l0,0l29.1,26.2c1.5,1.4,3.8,1.4,5.4,0l0,0l29.1-26.2c0.4-0.4,0.8-0.8,1.2-1.2
				C168.4,38.8,170.5,34.5,171.3,29.9z"/>
		</g>
		<defs>
			<filter id="Adobe_OpacityMaskFilter_2_" filterUnits="userSpaceOnUse" x="0" y="0" width="264" height="110">
				<feColorMatrix  type="matrix" values="1 0 0 0 0  0 1 0 0 0  0 0 1 0 0  0 0 0 1 0"/>
			</filter>
		</defs>
		<mask maskUnits="userSpaceOnUse" x="0" y="0" width="264" height="110" id="react-mask-112_1_">
			<g class="st8">
				<path id="react-path-111_2_" class="st2" d="M171.3,29.9c34.4,5.4,60.7,35.2,60.7,71.1v8.9H32v-8.9c0-35.9,26.3-65.7,60.7-71.1
					c0.9,5.1,3.4,9.9,7.6,13.6l0,0l29.1,26.2c1.5,1.4,3.8,1.4,5.4,0l0,0l29.1-26.2c0.4-0.4,0.8-0.8,1.2-1.2
					C168.4,38.8,170.5,34.5,171.3,29.9z"/>
			</g>
		</mask>
		<g id="Color_x2F_Palette_x2F_Gray-01" class="st9">
			<rect id="_xD83D__xDD8D_Color" y="0" class="st10" width="264" height="110"/>
		</g>
	</g>
	<g id="Face" transform="translate(76.000000, 82.000000)">
		<g id="Mouth_x2F_Default" transform="translate(2.000000, 52.000000)">
			<path id="Mouth" class="st11" d="M40,15c0,7.7,6.3,14,14,14l0,0c7.7,0,14-6.3,14-14"/>
		</g>
		<g id="Nose_x2F_Default" transform="translate(28.000000, 40.000000)">
			<path id="Nose" class="st12" d="M16,8c0,4.4,5.4,8,12,8l0,0c6.6,0,12-3.6,12-8"/>
		</g>
		<g id="Eyes_x2F_Happy-_xD83D__xDE01_" transform="translate(0.000000, 8.000000)">
			<path id="Squint" class="st13" d="M16.2,22.4C18,18.6,22.2,16,27,16c4.8,0,9,2.6,10.8,6.4c0.6,1.1-0.2,2-1,1.4
				c-2.5-2.1-5.9-3.4-9.8-3.4c-3.7,0-7.1,1.2-9.6,3.2C16.5,24.3,15.6,23.6,16.2,22.4z"/>
			<path id="Squint_1_" class="st13" d="M74.2,22.4C76,18.6,80.2,16,85,16c4.8,0,9,2.6,10.8,6.4c0.6,1.1-0.2,2-1,1.4
				c-2.5-2.1-5.9-3.4-9.8-3.4c-3.7,0-7.1,1.2-9.6,3.2C74.5,24.3,73.6,23.6,74.2,22.4z"/>
		</g>
		<g id="Eyebrow_x2F_Natural_x2F_Default-Natural">
			<path id="Eyebrow" class="st13" d="M26.5,6.1c-5.8,0.3-15.2,4.5-15,10.3c0,0.2,0.3,0.3,0.4,0.1c2.8-3,22.3-5.9,29.2-4.4
				c0.6,0.1,1.1-0.5,0.7-0.9C38.5,7.5,31.7,5.9,26.5,6.1"/>
			<path id="Eyebrow_1_" class="st13" d="M86.5,6.1c5.8,0.3,15.2,4.5,15,10.3c0,0.2-0.3,0.3-0.4,0.1c-2.8-3-22.3-5.9-29.2-4.4
				c-0.6,0.1-1.1-0.5-0.7-0.9C74.5,7.5,81.3,5.9,86.5,6.1"/>
		</g>
	</g>
	<g id="Top">
		<g id="Mask_1_">
		</g>
		<defs>
			<filter id="Adobe_OpacityMaskFilter_3_" filterUnits="userSpaceOnUse" x="58" y="18" width="264" height="280">
				<feColorMatrix  type="matrix" values="1 0 0 0 0  0 1 0 0 0  0 0 1 0 0  0 0 0 1 0"/>
			</filter>
		</defs>
		<mask maskUnits="userSpaceOnUse" x="58" y="18" width="264" height="280" id="react-mask-264_1_">
			<g class="st14">
				<rect id="react-path-266_1_" y="0" class="st2" width="264" height="280"/>
			</g>
		</mask>
		<g id="Top_x2F_Long-Hair_x2F_Straight-_x2B_-Strand" class="st15">
			<g transform="translate(-1.000000, 0.000000)">
				<g id="Hair" transform="translate(59.000000, 18.000000)">
					<g>
						<path id="react-path-267_1_" class="st16" d="M8.5,88.7C8.2,89.7,8,90.9,8,92v13c0,6,4.4,11,10.2,11.9
							c1.7,20.2,14.3,37.4,31.8,45.7V181h-4l0,0c-15.6,0-30.1,5-41.9,13.4C1.5,186.8,0,178.6,0,170V74l0,0C0,33.1,33.1,0,74,0l0,0
							l0,0c40.9,0,74,33.1,74,74v96c0,8.6-1.5,16.8-4.1,24.4C132.1,186,117.6,181,102,181l0,0h-4v-18.4c17.5-8.3,30-25.5,31.8-45.7
							C135.6,116,140,111,140,105V92c0-1.7-0.3-3.3-1-4.8c-13-2.2-27.5-7.5-41.9-15.7c-12.1-7-22.5-15.2-30.5-23.7
							c3.4,7.9,7.6,14.8,12.4,20.8C66.4,63,57.8,54.1,53.2,41.9c-0.4,0.9-0.8,1.8-1.2,2.8C42.2,66.8,25.6,82.7,8.5,88.7z"/>
					</g>
					<defs>
						<filter id="Adobe_OpacityMaskFilter_4_" filterUnits="userSpaceOnUse" x="0" y="0" width="264" height="280">
							<feColorMatrix  type="matrix" values="1 0 0 0 0  0 1 0 0 0  0 0 1 0 0  0 0 0 1 0"/>
						</filter>
					</defs>
					<mask maskUnits="userSpaceOnUse" x="0" y="0" width="264" height="280" id="react-mask-265_1_">
						<g class="st17">
							<path id="react-path-267_2_" class="st2" d="M8.5,88.7C8.2,89.7,8,90.9,8,92v13c0,6,4.4,11,10.2,11.9
								c1.7,20.2,14.3,37.4,31.8,45.7V181h-4l0,0c-15.6,0-30.1,5-41.9,13.4C1.5,186.8,0,178.6,0,170V74l0,0C0,33.1,33.1,0,74,0l0,0
								l0,0c40.9,0,74,33.1,74,74v96c0,8.6-1.5,16.8-4.1,24.4C132.1,186,117.6,181,102,181l0,0h-4v-18.4c17.5-8.3,30-25.5,31.8-45.7
								C135.6,116,140,111,140,105V92c0-1.7-0.3-3.3-1-4.8c-13-2.2-27.5-7.5-41.9-15.7c-12.1-7-22.5-15.2-30.5-23.7
								c3.4,7.9,7.6,14.8,12.4,20.8C66.4,63,57.8,54.1,53.2,41.9c-0.4,0.9-0.8,1.8-1.2,2.8C42.2,66.8,25.6,82.7,8.5,88.7z"/>
						</g>
					</mask>
					<g id="Skin_x2F__xD83D__xDC76__xD83C__xDFFD_-03-Brown_1_" class="st18">
						<g id="Color_1_" transform="translate(0.000000, 0.000000) ">
							<rect y="0" class="st19" width="264" height="280"/>
						</g>
					</g>
				</g>
				<path id="Shadow" class="st12" d="M59,102.4v6.4c19.9-3.1,40.6-20.4,52-46.2c0.4-0.9,0.8-1.8,1.2-2.8
					c4,10.7,11.1,18.8,21.3,24.4c1.5,2.2,3,4.3,4.6,6.3c-12.7-5.5-21.3-14.4-25.9-26.6c-0.4,0.9-0.8,1.8-1.2,2.8
					c-11.5,25.7-32.1,43.1-52,46.2V102.4z M207,101.1v9.1c-15-0.9-33.1-6.5-50.9-16.8c-10.3-5.9-19.3-12.7-26.6-19.9
					c-1.4-2.5-2.6-5.1-3.8-7.9c8,8.5,18.3,16.7,30.5,23.7c17.8,10.2,35.9,15.9,50.9,16.8V101.1z"/>
			</g>
		</g>
	</g>
</g>
</svg>
