<?xml version="1.0" encoding="utf-8"?>
<!-- Generator: Adobe Illustrator 24.1.0, SVG Export Plug-In . SVG Version: 6.00 Build 0)  -->
<svg version="1.1" id="Calque_1" xmlns="http://www.w3.org/2000/svg" xmlns:xlink="http://www.w3.org/1999/xlink" x="0px" y="0px"
	 viewBox="0 0 264 280" style="enable-background:new 0 0 264 280;" xml:space="preserve">
<style type="text/css">
	.st0{fill-rule:evenodd;clip-rule:evenodd;fill:#D0C6AC;}
	.st1{filter:url(#Adobe_OpacityMaskFilter);}
	.st2{fill-rule:evenodd;clip-rule:evenodd;fill:#FFFFFF;}
	.st3{mask:url(#mask-6_1_);}
	.st4{fill-rule:evenodd;clip-rule:evenodd;fill:#EDB98A;}
	.st5{filter:url(#Adobe_OpacityMaskFilter_1_);}
	.st6{mask:url(#mask-6_2_);fill-rule:evenodd;clip-rule:evenodd;fill-opacity:0.1;}
	.st7{fill-rule:evenodd;clip-rule:evenodd;fill:#B7C1DB;}
	.st8{filter:url(#Adobe_OpacityMaskFilter_2_);}
	.st9{mask:url(#react-mask-55_1_);}
	.st10{fill-rule:evenodd;clip-rule:evenodd;fill:#FF5C5C;}
	.st11{filter:url(#Adobe_OpacityMaskFilter_3_);}
	.st12{mask:url(#react-mask-55_2_);fill-rule:evenodd;clip-rule:evenodd;fill:#F4F4F4;}
	.st13{filter:url(#Adobe_OpacityMaskFilter_4_);}
	.st14{mask:url(#react-mask-55_3_);fill-rule:evenodd;clip-rule:evenodd;fill-opacity:0.16;}
	.st15{fill-opacity:0.6;}
	.st16{fill-rule:evenodd;clip-rule:evenodd;fill-opacity:0.16;}
	.st17{fill-rule:evenodd;clip-rule:evenodd;fill-opacity:0.6;}
	.st18{filter:url(#Adobe_OpacityMaskFilter_5_);}
	.st19{mask:url(#react-mask-19_1_);}
	.st20{fill-rule:evenodd;clip-rule:evenodd;fill:#331B0C;}
	.st21{filter:url(#Adobe_OpacityMaskFilter_6_);}
	.st22{mask:url(#react-mask-46_1_);}
	.st23{fill-rule:evenodd;clip-rule:evenodd;fill:#2C1B18;}
	.st24{fill-rule:evenodd;clip-rule:evenodd;fill:#1F3140;}
	.st25{filter:url(#Adobe_OpacityMaskFilter_7_);}
	.st26{mask:url(#react-mask-18_1_);}
</style>
<g id="Avataaar">
	<g id="Body" transform="translate(32.000000, 36.000000)">
		<g>
			<path id="path-5_1_" class="st0" d="M124,144.6V163h4l0,0c39.8,0,72,32.2,72,72v9H0v-9c0-39.8,32.2-72,72-72l0,0h4v-18.4
				c-17.2-8.2-29.6-24.9-31.7-44.7C38.5,99.1,34,94.1,34,88V74c0-5.9,4.3-10.9,10-11.8V56l0,0c0-30.9,25.1-56,56-56l0,0l0,0
				c30.9,0,56,25.1,56,56v6.2c5.7,1,10,5.9,10,11.8v14c0,6.1-4.5,11.1-10.3,11.9C153.6,119.7,141.2,136.4,124,144.6z"/>
		</g>
		<defs>
			<filter id="Adobe_OpacityMaskFilter" filterUnits="userSpaceOnUse" x="-32" y="0" width="264" height="244">
				<feColorMatrix  type="matrix" values="1 0 0 0 0  0 1 0 0 0  0 0 1 0 0  0 0 0 1 0"/>
			</filter>
		</defs>
		<mask maskUnits="userSpaceOnUse" x="-32" y="0" width="264" height="244" id="mask-6_1_">
			<g class="st1">
				<path id="path-5_2_" class="st2" d="M124,144.6V163h4l0,0c39.8,0,72,32.2,72,72v9H0v-9c0-39.8,32.2-72,72-72l0,0h4v-18.4
					c-17.2-8.2-29.6-24.9-31.7-44.7C38.5,99.1,34,94.1,34,88V74c0-5.9,4.3-10.9,10-11.8V56l0,0c0-30.9,25.1-56,56-56l0,0l0,0
					c30.9,0,56,25.1,56,56v6.2c5.7,1,10,5.9,10,11.8v14c0,6.1-4.5,11.1-10.3,11.9C153.6,119.7,141.2,136.4,124,144.6z"/>
			</g>
		</mask>
		<g id="Skin_x2F__xD83D__xDC76__xD83C__xDFFD_-03-Brown" class="st3">
			<g id="Color" transform="translate(-32.000000, 0.000000)">
				<rect class="st4" width="264" height="244"/>
			</g>
		</g>
		<defs>
			<filter id="Adobe_OpacityMaskFilter_1_" filterUnits="userSpaceOnUse" x="44" y="79" width="112" height="79">
				<feColorMatrix  type="matrix" values="1 0 0 0 0  0 1 0 0 0  0 0 1 0 0  0 0 0 1 0"/>
			</filter>
		</defs>
		<mask maskUnits="userSpaceOnUse" x="44" y="79" width="112" height="79" id="mask-6_2_">
			<g class="st5">
				<path id="path-5_3_" class="st2" d="M124,144.6V163h4l0,0c39.8,0,72,32.2,72,72v9H0v-9c0-39.8,32.2-72,72-72l0,0h4v-18.4
					c-17.2-8.2-29.6-24.9-31.7-44.7C38.5,99.1,34,94.1,34,88V74c0-5.9,4.3-10.9,10-11.8V56l0,0c0-30.9,25.1-56,56-56l0,0l0,0
					c30.9,0,56,25.1,56,56v6.2c5.7,1,10,5.9,10,11.8v14c0,6.1-4.5,11.1-10.3,11.9C153.6,119.7,141.2,136.4,124,144.6z"/>
			</g>
		</mask>
		<path id="Neck-Shadow" class="st6" d="M156,79v23c0,30.9-25.1,56-56,56s-56-25.1-56-56V79v15c0,30.9,25.1,56,56,56s56-25.1,56-56
			V79z"/>
	</g>
	<g id="Clothing_x2F_Hoodie" transform="translate(0.000000, 170.000000)">
		<g id="Hoodie">
			<path id="react-path-54_1_" class="st7" d="M108,13.1c-17.9,2-31.7,7.5-32,21.6C50.1,45.6,32,71.2,32,101l0,0v9h200v-9
				c0-29.8-18.1-55.4-44-66.4c-0.3-14.1-14.1-19.6-32-21.6V32l0,0c0,13.3-10.7,24-24,24l0,0c-13.3,0-24-10.7-24-24V13.1z"/>
		</g>
		<defs>
			<filter id="Adobe_OpacityMaskFilter_2_" filterUnits="userSpaceOnUse" x="0" y="0" width="264" height="110">
				<feColorMatrix  type="matrix" values="1 0 0 0 0  0 1 0 0 0  0 0 1 0 0  0 0 0 1 0"/>
			</filter>
		</defs>
		<mask maskUnits="userSpaceOnUse" x="0" y="0" width="264" height="110" id="react-mask-55_1_">
			<g class="st8">
				<path id="react-path-54_2_" class="st2" d="M108,13.1c-17.9,2-31.7,7.5-32,21.6C50.1,45.6,32,71.2,32,101l0,0v9h200v-9
					c0-29.8-18.1-55.4-44-66.4c-0.3-14.1-14.1-19.6-32-21.6V32l0,0c0,13.3-10.7,24-24,24l0,0c-13.3,0-24-10.7-24-24V13.1z"/>
			</g>
		</mask>
		<g id="Color_x2F_Palette_x2F_Gray-01" class="st9">
			<rect id="_xD83D__xDD8D_Color" class="st10" width="264" height="110"/>
		</g>
		<defs>
			<filter id="Adobe_OpacityMaskFilter_3_" filterUnits="userSpaceOnUse" x="95" y="58.2" width="74" height="51.8">
				<feColorMatrix  type="matrix" values="1 0 0 0 0  0 1 0 0 0  0 0 1 0 0  0 0 0 1 0"/>
			</filter>
		</defs>
		<mask maskUnits="userSpaceOnUse" x="95" y="58.2" width="74" height="51.8" id="react-mask-55_2_">
			<g class="st11">
				<path id="react-path-54_3_" class="st2" d="M108,13.1c-17.9,2-31.7,7.5-32,21.6C50.1,45.6,32,71.2,32,101l0,0v9h200v-9
					c0-29.8-18.1-55.4-44-66.4c-0.3-14.1-14.1-19.6-32-21.6V32l0,0c0,13.3-10.7,24-24,24l0,0c-13.3,0-24-10.7-24-24V13.1z"/>
			</g>
		</mask>
		<path id="Straps" class="st12" d="M102,61.7V110h-7V58.2C97.2,59.5,99.5,60.7,102,61.7z M169,58.2v40.3c0,1.9-1.6,3.5-3.5,3.5
			s-3.5-1.6-3.5-3.5V61.7C164.5,60.7,166.8,59.5,169,58.2z"/>
		<defs>
			<filter id="Adobe_OpacityMaskFilter_4_" filterUnits="userSpaceOnUse" x="65.5" y="12.7" width="133" height="55.3">
				<feColorMatrix  type="matrix" values="1 0 0 0 0  0 1 0 0 0  0 0 1 0 0  0 0 0 1 0"/>
			</filter>
		</defs>
		<mask maskUnits="userSpaceOnUse" x="65.5" y="12.7" width="133" height="55.3" id="react-mask-55_3_">
			<g class="st13">
				<path id="react-path-54_4_" class="st2" d="M108,13.1c-17.9,2-31.7,7.5-32,21.6C50.1,45.6,32,71.2,32,101l0,0v9h200v-9
					c0-29.8-18.1-55.4-44-66.4c-0.3-14.1-14.1-19.6-32-21.6V32l0,0c0,13.3-10.7,24-24,24l0,0c-13.3,0-24-10.7-24-24V13.1z"/>
			</g>
		</mask>
		<path id="Shadow" class="st14" d="M91,12.7c-15.1,2.8-25.5,8.5-25.5,19.6C65.5,52,98.5,68,132,68s66.5-16,66.5-35.7
			c0-11.1-10.4-16.7-25.5-19.6c9.1,3.4,15,9,15,18.4c0,20.4-27.8,36.9-56,36.9S76,51.5,76,31.1C76,21.7,81.9,16.1,91,12.7z"/>
	</g>
	<g id="Face" transform="translate(76.000000, 82.000000)">
		<g id="Mouth_x2F_Twinkle" transform="translate(2.000000, 52.000000)">
			<path id="Mouth" class="st15" d="M40,16c0,5.4,6.2,9,14,9s14-3.6,14-9c0-1.1-0.9-2-2-2c-1.3,0-1.9,0.9-2,2c-1.2,2.9-4.3,4.7-10,5
				c-5.7-0.3-8.8-2.1-10-5c-0.1-1.1-0.7-2-2-2C40.9,14,40,14.9,40,16z"/>
		</g>
		<g id="Nose_x2F_Default" transform="translate(28.000000, 40.000000)">
			<path id="Nose" class="st16" d="M16,8c0,4.4,5.4,8,12,8l0,0c6.6,0,12-3.6,12-8"/>
		</g>
		<g id="Eyes_x2F_Side-_xD83D__xDE12_" transform="translate(0.000000, 8.000000)">
			<path id="Eye" class="st17" d="M27.2,20.3c-0.8,1-1.2,2.3-1.2,3.7c0,3.3,2.7,6,6,6s6-2.7,6-6c0-0.3,0-0.6-0.1-0.9
				c0-0.2,0-0.5-0.1-0.7c0-0.1-0.1-0.2-0.1-0.4c-0.3-1-0.9-1.8-1.6-2.5c-2.1-2.2-5.5-3.6-9-3.6c-4.8,0-9,2.6-10.8,6.4
				c-0.5,1.1,0.4,1.9,1.3,1.1c2.4-2,5.8-3.2,9.6-3.2C27.1,20.3,27.2,20.3,27.2,20.3z"/>
			<path id="Eye_1_" class="st17" d="M85.2,20.3c-0.8,1-1.2,2.3-1.2,3.7c0,3.3,2.7,6,6,6s6-2.7,6-6c0-0.3,0-0.6-0.1-0.9
				c0-0.2,0-0.5-0.1-0.7c0-0.1-0.1-0.2-0.1-0.4c-0.3-1-0.9-1.8-1.6-2.5c-2.1-2.2-5.5-3.6-9-3.6c-4.8,0-9,2.6-10.8,6.4
				c-0.5,1.1,0.4,1.9,1.3,1.1c2.4-2,5.8-3.2,9.6-3.2C85.1,20.3,85.2,20.3,85.2,20.3z"/>
		</g>
		<g id="Eyebrow_x2F_Outline_x2F_Up-Down">
			<path id="Eyebrow" class="st15" d="M15.6,14.2c4.5-6.3,14-9.5,23.8-6.4c1.1,0.3,2.2-0.2,2.5-1.3S41.6,4.3,40.6,4
				c-11.4-3.7-22.7,0.1-28.2,7.9c-0.6,0.9-0.4,2.1,0.5,2.8C13.7,15.3,15,15.1,15.6,14.2z"/>
			<path id="Eyebrow_1_" class="st15" d="M96.4,21.2c-3.9-5.5-14.6-8.6-23.9-6.3c-1.1,0.3-2.2-0.4-2.4-1.5c-0.3-1.1,0.4-2.2,1.5-2.4
				c10.7-2.6,23.2,0.9,28.1,7.9c0.6,0.9,0.4,2.1-0.5,2.8C98.3,22.3,97,22.1,96.4,21.2z"/>
		</g>
	</g>
	<g id="Top">
		<g id="Mask_1_">
		</g>
		<defs>
			<filter id="Adobe_OpacityMaskFilter_5_" filterUnits="userSpaceOnUse" x="-1" y="0" width="281" height="316">
				<feColorMatrix  type="matrix" values="1 0 0 0 0  0 1 0 0 0  0 0 1 0 0  0 0 0 1 0"/>
			</filter>
		</defs>
		<mask maskUnits="userSpaceOnUse" x="-1" y="0" width="281" height="316" id="react-mask-19_1_">
			<g class="st18">
				<rect id="react-path-21_1_" class="st2" width="264" height="280"/>
			</g>
		</mask>
		<g id="Top_x2F_Short-Hair_x2F_Short-Flat" class="st19">
			<g transform="translate(-1.000000, 0.000000)">
				<g id="Facial-Hair_x2F_Beard-Light" transform="translate(49.000000, 72.000000)">
					<g id="Lite-Beard">
						<path id="react-path-47_1_" class="st20" d="M101.4,98.2c-2.5,2.3-5.2,3.3-8.6,2.6c-0.6-0.1-3-4.5-8.9-4.5
							c-5.9,0-8.3,4.4-8.9,4.5c-3.4,0.7-6.1-0.3-8.6-2.6c-4.7-4.3-8.7-10.3-6.3-16.7c1.2-3.4,3.2-7.1,6.9-8.2
							c3.9-1.2,9.3,0,13.3-0.8c1.3-0.3,2.7-0.7,3.6-1.5c0.9,0.8,2.3,1.2,3.6,1.5c3.9,0.8,9.4-0.4,13.3,0.8c3.6,1.1,5.6,4.8,6.9,8.2
							C110.1,87.9,106.2,93.9,101.4,98.2 M140.1,26c-3.4,8.4-2.1,18.9-2.7,27.7c-0.5,7.2-2,17.9-8.4,22.5c-3.3,2.4-9.2,6.3-13.4,5.2
							c-2.9-0.8-3.2-9.2-7.1-12.3c-4.4-3.6-9.8-5.1-15.3-4.9c-2.4,0.1-7.2,0.1-9.1,1.9c-2-1.8-6.8-1.8-9.1-1.9
							c-5.5-0.2-10.9,1.3-15.3,4.9c-3.8,3.1-4.2,11.5-7.1,12.3c-4.3,1.1-10.2-2.9-13.4-5.2c-6.4-4.6-7.9-15.4-8.4-22.5
							C30,44.9,31.3,34.4,27.9,26c-1.7,0-0.6,16.1-0.6,16.1v20.4c0,15.3,9.6,38.2,30.8,46.9C63.3,111.5,75,115,84,115
							s20.7-3.1,25.9-5.3c21.2-8.7,30.7-32,30.8-47.2V42.1C140.6,42.1,141.7,26,140.1,26"/>
					</g>
					<defs>
						<filter id="Adobe_OpacityMaskFilter_6_" filterUnits="userSpaceOnUse" x="-32" y="0" width="264" height="244">
							<feColorMatrix  type="matrix" values="1 0 0 0 0  0 1 0 0 0  0 0 1 0 0  0 0 0 1 0"/>
						</filter>
					</defs>
					<mask maskUnits="userSpaceOnUse" x="-32" y="0" width="264" height="244" id="react-mask-46_1_">
						<g class="st21">
							<path id="react-path-47_2_" class="st2" d="M101.4,98.2c-2.5,2.3-5.2,3.3-8.6,2.6c-0.6-0.1-3-4.5-8.9-4.5
								c-5.9,0-8.3,4.4-8.9,4.5c-3.4,0.7-6.1-0.3-8.6-2.6c-4.7-4.3-8.7-10.3-6.3-16.7c1.2-3.4,3.2-7.1,6.9-8.2
								c3.9-1.2,9.3,0,13.3-0.8c1.3-0.3,2.7-0.7,3.6-1.5c0.9,0.8,2.3,1.2,3.6,1.5c3.9,0.8,9.4-0.4,13.3,0.8c3.6,1.1,5.6,4.8,6.9,8.2
								C110.1,87.9,106.2,93.9,101.4,98.2 M140.1,26c-3.4,8.4-2.1,18.9-2.7,27.7c-0.5,7.2-2,17.9-8.4,22.5
								c-3.3,2.4-9.2,6.3-13.4,5.2c-2.9-0.8-3.2-9.2-7.1-12.3c-4.4-3.6-9.8-5.1-15.3-4.9c-2.4,0.1-7.2,0.1-9.1,1.9
								c-2-1.8-6.8-1.8-9.1-1.9c-5.5-0.2-10.9,1.3-15.3,4.9c-3.8,3.1-4.2,11.5-7.1,12.3c-4.3,1.1-10.2-2.9-13.4-5.2
								c-6.4-4.6-7.9-15.4-8.4-22.5C30,44.9,31.3,34.4,27.9,26c-1.7,0-0.6,16.1-0.6,16.1v20.4c0,15.3,9.6,38.2,30.8,46.9
								C63.3,111.5,75,115,84,115s20.7-3.1,25.9-5.3c21.2-8.7,30.7-32,30.8-47.2V42.1C140.6,42.1,141.7,26,140.1,26"/>
						</g>
					</mask>
					<g id="Color_x2F_Hair_x2F_Brown" class="st22">
						<g id="Color_1_" transform="translate(-32.000000, 0.000000)">
							<rect class="st23" width="264" height="244"/>
						</g>
					</g>
				</g>
				<g id="Short-Hair">
					<path id="react-path-20_1_" class="st24" d="M180.1,39.9c-2.8-2.8-6-5.2-9.1-7.6c-0.7-0.5-1.4-1-2.1-1.6
						c-0.2-0.1-1.7-1.2-1.9-1.7c-0.5-1-0.2-0.2-0.1-1.4c0.1-1.5,3.1-5.7,0.9-6.7c-1-0.4-2.8,0.7-3.8,1.1c-1.9,0.7-3.8,1.4-5.7,1.9
						c0.9-1.9,2.7-5.6-0.6-4.6c-2.6,0.8-5,2.8-7.6,3.7c0.9-1.4,4.3-5.8,1.2-6.1c-1-0.1-3.8,1.7-4.9,2.1c-3.1,1.2-6.3,1.9-9.6,2.5
						c-11.2,2-24.3,1.4-34.7,6.5c-8,3.9-15.9,10-20.5,17.8c-4.4,7.5-6.1,15.7-7,24.3c-0.7,6.3-0.7,12.8-0.4,19.1
						c0.1,2.1,0.3,11.6,3.3,8.7c1.5-1.4,1.5-7.3,1.9-9.2c0.8-3.9,1.5-7.8,2.7-11.6c2.2-6.7,4.8-13.8,10.3-18.4c3.5-3,6-6.9,9.4-9.9
						c1.5-1.3,0.4-1.2,2.8-1c1.6,0.1,3.3,0.2,4.9,0.2c3.8,0.1,7.6,0.1,11.4,0.1c7.6,0,15.3,0.1,22.9-0.3c3.4-0.2,6.8-0.3,10.2-0.6
						c1.9-0.2,5.2-1.4,6.8-0.5c1.4,0.8,2.9,3.6,3.9,4.7c2.4,2.7,5.3,4.7,8.1,6.9c5.9,4.6,8.9,10.3,10.7,17.5
						c1.8,7.1,1.3,13.7,3.5,20.8c0.4,1.2,1.4,3.4,2.7,1.5c0.2-0.4,0.2-2.3,0.2-3.4c0-4.5,1.1-7.9,1.1-12.5
						C190.9,68.5,190.5,50.5,180.1,39.9z"/>
				</g>
				<defs>
					<filter id="Adobe_OpacityMaskFilter_7_" filterUnits="userSpaceOnUse" x="0" y="0" width="264" height="280">
						<feColorMatrix  type="matrix" values="1 0 0 0 0  0 1 0 0 0  0 0 1 0 0  0 0 0 1 0"/>
					</filter>
				</defs>
				<mask maskUnits="userSpaceOnUse" x="0" y="0" width="264" height="280" id="react-mask-18_1_">
					<g class="st25">
						<path id="react-path-20_2_" class="st2" d="M180.1,39.9c-2.8-2.8-6-5.2-9.1-7.6c-0.7-0.5-1.4-1-2.1-1.6
							c-0.2-0.1-1.7-1.2-1.9-1.7c-0.5-1-0.2-0.2-0.1-1.4c0.1-1.5,3.1-5.7,0.9-6.7c-1-0.4-2.8,0.7-3.8,1.1c-1.9,0.7-3.8,1.4-5.7,1.9
							c0.9-1.9,2.7-5.6-0.6-4.6c-2.6,0.8-5,2.8-7.6,3.7c0.9-1.4,4.3-5.8,1.2-6.1c-1-0.1-3.8,1.7-4.9,2.1c-3.1,1.2-6.3,1.9-9.6,2.5
							c-11.2,2-24.3,1.4-34.7,6.5c-8,3.9-15.9,10-20.5,17.8c-4.4,7.5-6.1,15.7-7,24.3c-0.7,6.3-0.7,12.8-0.4,19.1
							c0.1,2.1,0.3,11.6,3.3,8.7c1.5-1.4,1.5-7.3,1.9-9.2c0.8-3.9,1.5-7.8,2.7-11.6c2.2-6.7,4.8-13.8,10.3-18.4c3.5-3,6-6.9,9.4-9.9
							c1.5-1.3,0.4-1.2,2.8-1c1.6,0.1,3.3,0.2,4.9,0.2c3.8,0.1,7.6,0.1,11.4,0.1c7.6,0,15.3,0.1,22.9-0.3c3.4-0.2,6.8-0.3,10.2-0.6
							c1.9-0.2,5.2-1.4,6.8-0.5c1.4,0.8,2.9,3.6,3.9,4.7c2.4,2.7,5.3,4.7,8.1,6.9c5.9,4.6,8.9,10.3,10.7,17.5
							c1.8,7.1,1.3,13.7,3.5,20.8c0.4,1.2,1.4,3.4,2.7,1.5c0.2-0.4,0.2-2.3,0.2-3.4c0-4.5,1.1-7.9,1.1-12.5
							C190.9,68.5,190.5,50.5,180.1,39.9z"/>
					</g>
				</mask>
				<g id="Skin_x2F__xD83D__xDC76__xD83C__xDFFD_-03-Brown_1_" class="st26">
					<g id="Color_2_" transform="translate(0.000000, 0.000000) ">
						<rect class="st23" width="264" height="280"/>
					</g>
				</g>
			</g>
		</g>
	</g>
</g>
</svg>
