<?xml version="1.0" encoding="utf-8"?>
<!-- Generator: Adobe Illustrator 24.1.0, SVG Export Plug-In . SVG Version: 6.00 Build 0)  -->
<svg version="1.1" id="Calque_1" xmlns="http://www.w3.org/2000/svg" xmlns:xlink="http://www.w3.org/1999/xlink" x="0px" y="0px"
	 viewBox="0 0 264 280" style="enable-background:new 0 0 264 280;" xml:space="preserve">
<style type="text/css">
	.st0{fill-rule:evenodd;clip-rule:evenodd;fill:#D0C6AC;}
	.st1{filter:url(#Adobe_OpacityMaskFilter);}
	.st2{fill-rule:evenodd;clip-rule:evenodd;fill:#FFFFFF;}
	.st3{mask:url(#mask-6_1_);}
	.st4{fill-rule:evenodd;clip-rule:evenodd;fill:#EDB98A;}
	.st5{filter:url(#Adobe_OpacityMaskFilter_1_);}
	.st6{mask:url(#mask-6_2_);fill-rule:evenodd;clip-rule:evenodd;fill-opacity:0.1;}
	.st7{fill-rule:evenodd;clip-rule:evenodd;fill:#E6E6E6;}
	.st8{filter:url(#Adobe_OpacityMaskFilter_2_);}
	.st9{mask:url(#react-mask-234_1_);}
	.st10{fill-rule:evenodd;clip-rule:evenodd;fill:#25557C;}
	.st11{fill-rule:evenodd;clip-rule:evenodd;fill:#F2F2F2;}
	.st12{fill-opacity:0.6;}
	.st13{fill-rule:evenodd;clip-rule:evenodd;fill-opacity:0.16;}
	.st14{fill-rule:evenodd;clip-rule:evenodd;fill-opacity:0.6;}
	.st15{filter:url(#Adobe_OpacityMaskFilter_3_);}
	.st16{mask:url(#react-mask-184_1_);}
	.st17{fill-rule:evenodd;clip-rule:evenodd;fill:#1F3140;}
	.st18{filter:url(#Adobe_OpacityMaskFilter_4_);}
	.st19{mask:url(#react-mask-183_1_);}
	.st20{fill-rule:evenodd;clip-rule:evenodd;fill:#4A312C;}
</style>
<g id="Avataaar">
	<g id="Body" transform="translate(32.000000, 36.000000)">
		<g>
			<path id="path-5_1_" class="st0" d="M124,144.6V163h4l0,0c39.8,0,72,32.2,72,72v9H0v-9c0-39.8,32.2-72,72-72l0,0h4v-18.4
				c-17.2-8.2-29.6-24.9-31.7-44.7C38.5,99.1,34,94.1,34,88V74c0-5.9,4.3-10.9,10-11.8V56l0,0c0-30.9,25.1-56,56-56l0,0l0,0
				c30.9,0,56,25.1,56,56v6.2c5.7,1,10,5.9,10,11.8v14c0,6.1-4.5,11.1-10.3,11.9C153.6,119.7,141.2,136.4,124,144.6z"/>
		</g>
		<defs>
			<filter id="Adobe_OpacityMaskFilter" filterUnits="userSpaceOnUse" x="-32" y="0" width="264" height="244">
				<feColorMatrix  type="matrix" values="1 0 0 0 0  0 1 0 0 0  0 0 1 0 0  0 0 0 1 0"/>
			</filter>
		</defs>
		<mask maskUnits="userSpaceOnUse" x="-32" y="0" width="264" height="244" id="mask-6_1_">
			<g class="st1">
				<path id="path-5_2_" class="st2" d="M124,144.6V163h4l0,0c39.8,0,72,32.2,72,72v9H0v-9c0-39.8,32.2-72,72-72l0,0h4v-18.4
					c-17.2-8.2-29.6-24.9-31.7-44.7C38.5,99.1,34,94.1,34,88V74c0-5.9,4.3-10.9,10-11.8V56l0,0c0-30.9,25.1-56,56-56l0,0l0,0
					c30.9,0,56,25.1,56,56v6.2c5.7,1,10,5.9,10,11.8v14c0,6.1-4.5,11.1-10.3,11.9C153.6,119.7,141.2,136.4,124,144.6z"/>
			</g>
		</mask>
		<g id="Skin_x2F__xD83D__xDC76__xD83C__xDFFD_-03-Brown" class="st3">
			<g id="Color" transform="translate(-32.000000, 0.000000)">
				<rect y="0" class="st4" width="264" height="244"/>
			</g>
		</g>
		<defs>
			<filter id="Adobe_OpacityMaskFilter_1_" filterUnits="userSpaceOnUse" x="44" y="79" width="112" height="79">
				<feColorMatrix  type="matrix" values="1 0 0 0 0  0 1 0 0 0  0 0 1 0 0  0 0 0 1 0"/>
			</filter>
		</defs>
		<mask maskUnits="userSpaceOnUse" x="44" y="79" width="112" height="79" id="mask-6_2_">
			<g class="st5">
				<path id="path-5_3_" class="st2" d="M124,144.6V163h4l0,0c39.8,0,72,32.2,72,72v9H0v-9c0-39.8,32.2-72,72-72l0,0h4v-18.4
					c-17.2-8.2-29.6-24.9-31.7-44.7C38.5,99.1,34,94.1,34,88V74c0-5.9,4.3-10.9,10-11.8V56l0,0c0-30.9,25.1-56,56-56l0,0l0,0
					c30.9,0,56,25.1,56,56v6.2c5.7,1,10,5.9,10,11.8v14c0,6.1-4.5,11.1-10.3,11.9C153.6,119.7,141.2,136.4,124,144.6z"/>
			</g>
		</mask>
		<path id="Neck-Shadow" class="st6" d="M156,79v23c0,30.9-25.1,56-56,56s-56-25.1-56-56V79v15c0,30.9,25.1,56,56,56s56-25.1,56-56
			V79z"/>
	</g>
	<g id="Clothing_x2F_Collar-_x2B_-Sweater" transform="translate(0.000000, 170.000000)">
		<g id="Clothes">
			<path id="react-path-233_1_" class="st7" d="M105.2,29.1H104l0,0c-39.8,0-72,32.2-72,72v8.9h200v-8.9c0-39.8-32.2-72-72-72l0,0
				h-1.2c0.1,1,0.2,2,0.2,3c0,13.8-12.1,25-27,25s-27-11.2-27-25C105,31,105.1,30,105.2,29.1z"/>
		</g>
		<defs>
			<filter id="Adobe_OpacityMaskFilter_2_" filterUnits="userSpaceOnUse" x="0" y="0" width="264" height="110">
				<feColorMatrix  type="matrix" values="1 0 0 0 0  0 1 0 0 0  0 0 1 0 0  0 0 0 1 0"/>
			</filter>
		</defs>
		<mask maskUnits="userSpaceOnUse" x="0" y="0" width="264" height="110" id="react-mask-234_1_">
			<g class="st8">
				<path id="react-path-233_2_" class="st2" d="M105.2,29.1H104l0,0c-39.8,0-72,32.2-72,72v8.9h200v-8.9c0-39.8-32.2-72-72-72l0,0
					h-1.2c0.1,1,0.2,2,0.2,3c0,13.8-12.1,25-27,25s-27-11.2-27-25C105,31,105.1,30,105.2,29.1z"/>
			</g>
		</mask>
		<g id="Color_x2F_Palette_x2F_Gray-01" class="st9">
			<rect id="_xD83D__xDD8D_Color" y="0" class="st10" width="264" height="110"/>
		</g>
		<path id="Collar" class="st11" d="M156,22.3c6.2,4.6,10,10.8,10,17.7c0,7.2-4.1,13.7-10.8,18.3l-5.6-4.5l-4.6,0.3l1-3.2l-0.1-0.1
			c6.1-3.1,10.1-8.3,10.1-14.1V22.3z M108,21.6c-6.8,4.6-11,11.2-11,18.5c0,7.4,4.4,14.1,11.3,18.7l6.1-4.8l4.6,0.3l-1-3.2l0.1-0.1
			C112,47.9,108,42.7,108,36.9V21.6z"/>
	</g>
	<g id="Face" transform="translate(76.000000, 82.000000)">
		<g id="Mouth_x2F_Twinkle" transform="translate(2.000000, 52.000000)">
			<path id="Mouth" class="st12" d="M40,16c0,5.4,6.2,9,14,9s14-3.6,14-9c0-1.1-0.9-2-2-2c-1.3,0-1.9,0.9-2,2c-1.2,2.9-4.3,4.7-10,5
				c-5.7-0.3-8.8-2.1-10-5c-0.1-1.1-0.7-2-2-2C40.9,14,40,14.9,40,16z"/>
		</g>
		<g id="Nose_x2F_Default" transform="translate(28.000000, 40.000000)">
			<path id="Nose" class="st13" d="M16,8c0,4.4,5.4,8,12,8l0,0c6.6,0,12-3.6,12-8"/>
		</g>
		<g id="Eyes_x2F_Happy-_xD83D__xDE01_" transform="translate(0.000000, 8.000000)">
			<path id="Squint" class="st14" d="M16.2,22.4C18,18.6,22.2,16,27,16c4.8,0,9,2.6,10.8,6.4c0.6,1.1-0.2,2-1,1.4
				c-2.5-2.1-5.9-3.4-9.8-3.4c-3.7,0-7.1,1.2-9.6,3.2C16.5,24.3,15.6,23.6,16.2,22.4z"/>
			<path id="Squint_1_" class="st14" d="M74.2,22.4C76,18.6,80.2,16,85,16c4.8,0,9,2.6,10.8,6.4c0.6,1.1-0.2,2-1,1.4
				c-2.5-2.1-5.9-3.4-9.8-3.4c-3.7,0-7.1,1.2-9.6,3.2C74.5,24.3,73.6,23.6,74.2,22.4z"/>
		</g>
		<g id="Eyebrow_x2F_Natural_x2F_Default-Natural">
			<path id="Eyebrow" class="st14" d="M26.5,6.1c-5.8,0.3-15.2,4.5-15,10.3c0,0.2,0.3,0.3,0.4,0.1c2.8-3,22.3-5.9,29.2-4.4
				c0.6,0.1,1.1-0.5,0.7-0.9C38.5,7.5,31.7,5.9,26.5,6.1"/>
			<path id="Eyebrow_1_" class="st14" d="M86.5,6.1c5.8,0.3,15.2,4.5,15,10.3c0,0.2-0.3,0.3-0.4,0.1c-2.8-3-22.3-5.9-29.2-4.4
				c-0.6,0.1-1.1-0.5-0.7-0.9C74.5,7.5,81.3,5.9,86.5,6.1"/>
		</g>
	</g>
	<g id="Top">
		<g id="Mask_1_">
		</g>
		<defs>
			<filter id="Adobe_OpacityMaskFilter_3_" filterUnits="userSpaceOnUse" x="-1" y="0" width="264" height="280">
				<feColorMatrix  type="matrix" values="1 0 0 0 0  0 1 0 0 0  0 0 1 0 0  0 0 0 1 0"/>
			</filter>
		</defs>
		<mask maskUnits="userSpaceOnUse" x="-1" y="0" width="264" height="280" id="react-mask-184_1_">
			<g class="st15">
				<rect id="react-path-186_1_" y="0" class="st2" width="264" height="280"/>
			</g>
		</mask>
		<g id="Top_x2F_Short-Hair_x2F_Short-Flat" class="st16">
			<g transform="translate(-1.000000, 0.000000)">
				<g id="Short-Hair">
					<path id="react-path-185_1_" class="st17" d="M180.1,39.9c-2.8-2.8-6-5.2-9.1-7.6c-0.7-0.5-1.4-1-2.1-1.6
						c-0.2-0.1-1.7-1.2-1.9-1.7c-0.5-1-0.2-0.2-0.1-1.4c0.1-1.5,3.1-5.7,0.9-6.7c-1-0.4-2.8,0.7-3.8,1.1c-1.9,0.7-3.8,1.4-5.7,1.9
						c0.9-1.9,2.7-5.6-0.6-4.6c-2.6,0.8-5,2.8-7.6,3.7c0.9-1.4,4.3-5.8,1.2-6.1c-1-0.1-3.8,1.7-4.9,2.1c-3.1,1.2-6.3,1.9-9.6,2.5
						c-11.2,2-24.3,1.4-34.7,6.5c-8,3.9-15.9,10-20.5,17.8c-4.4,7.5-6.1,15.7-7,24.3c-0.7,6.3-0.7,12.8-0.4,19.1
						c0.1,2.1,0.3,11.6,3.3,8.7c1.5-1.4,1.5-7.3,1.9-9.2c0.8-3.9,1.5-7.8,2.7-11.6c2.2-6.7,4.8-13.8,10.3-18.4c3.5-3,6-6.9,9.4-9.9
						c1.5-1.3,0.4-1.2,2.8-1c1.6,0.1,3.3,0.2,4.9,0.2c3.8,0.1,7.6,0.1,11.4,0.1c7.6,0,15.3,0.1,22.9-0.3c3.4-0.2,6.8-0.3,10.2-0.6
						c1.9-0.2,5.2-1.4,6.8-0.5c1.4,0.8,2.9,3.6,3.9,4.7c2.4,2.7,5.3,4.7,8.1,6.9c5.9,4.6,8.9,10.3,10.7,17.5
						c1.8,7.1,1.3,13.7,3.5,20.8c0.4,1.2,1.4,3.4,2.7,1.5c0.2-0.4,0.2-2.3,0.2-3.4c0-4.5,1.1-7.9,1.1-12.5
						C190.9,68.5,190.5,50.5,180.1,39.9z"/>
				</g>
				<defs>
					<filter id="Adobe_OpacityMaskFilter_4_" filterUnits="userSpaceOnUse" x="0" y="0" width="264" height="280">
						<feColorMatrix  type="matrix" values="1 0 0 0 0  0 1 0 0 0  0 0 1 0 0  0 0 0 1 0"/>
					</filter>
				</defs>
				<mask maskUnits="userSpaceOnUse" x="0" y="0" width="264" height="280" id="react-mask-183_1_">
					<g class="st18">
						<path id="react-path-185_2_" class="st2" d="M180.1,39.9c-2.8-2.8-6-5.2-9.1-7.6c-0.7-0.5-1.4-1-2.1-1.6
							c-0.2-0.1-1.7-1.2-1.9-1.7c-0.5-1-0.2-0.2-0.1-1.4c0.1-1.5,3.1-5.7,0.9-6.7c-1-0.4-2.8,0.7-3.8,1.1c-1.9,0.7-3.8,1.4-5.7,1.9
							c0.9-1.9,2.7-5.6-0.6-4.6c-2.6,0.8-5,2.8-7.6,3.7c0.9-1.4,4.3-5.8,1.2-6.1c-1-0.1-3.8,1.7-4.9,2.1c-3.1,1.2-6.3,1.9-9.6,2.5
							c-11.2,2-24.3,1.4-34.7,6.5c-8,3.9-15.9,10-20.5,17.8c-4.4,7.5-6.1,15.7-7,24.3c-0.7,6.3-0.7,12.8-0.4,19.1
							c0.1,2.1,0.3,11.6,3.3,8.7c1.5-1.4,1.5-7.3,1.9-9.2c0.8-3.9,1.5-7.8,2.7-11.6c2.2-6.7,4.8-13.8,10.3-18.4c3.5-3,6-6.9,9.4-9.9
							c1.5-1.3,0.4-1.2,2.8-1c1.6,0.1,3.3,0.2,4.9,0.2c3.8,0.1,7.6,0.1,11.4,0.1c7.6,0,15.3,0.1,22.9-0.3c3.4-0.2,6.8-0.3,10.2-0.6
							c1.9-0.2,5.2-1.4,6.8-0.5c1.4,0.8,2.9,3.6,3.9,4.7c2.4,2.7,5.3,4.7,8.1,6.9c5.9,4.6,8.9,10.3,10.7,17.5
							c1.8,7.1,1.3,13.7,3.5,20.8c0.4,1.2,1.4,3.4,2.7,1.5c0.2-0.4,0.2-2.3,0.2-3.4c0-4.5,1.1-7.9,1.1-12.5
							C190.9,68.5,190.5,50.5,180.1,39.9z"/>
					</g>
				</mask>
				<g id="Skin_x2F__xD83D__xDC76__xD83C__xDFFD_-03-Brown_1_" class="st19">
					<g id="Color_1_" transform="translate(0.000000, 0.000000) ">
						<rect y="0" class="st20" width="264" height="280"/>
					</g>
				</g>
			</g>
		</g>
	</g>
</g>
</svg>
