<svg width="40" height="40" viewBox="0 0 40 40" fill="none" xmlns="http://www.w3.org/2000/svg">
<rect width="40" height="40" rx="4" fill="#7D7DF8" fill-opacity="0.23"/>
<path fill-rule="evenodd" clip-rule="evenodd" d="M9 14C9 11.2386 11.2386 9 14 9H26C28.7614 9 31 11.2386 31 14V26C31 28.7614 28.7614 31 26 31H14C11.2386 31 9 28.7614 9 26V14ZM25.9064 12.6763C25.5304 12.6763 25.1609 12.8286 24.8953 13.0953C24.6284 13.3608 24.475 13.7304 24.475 14.1077C24.475 14.4839 24.6286 14.8534 24.8953 15.1201C25.1608 15.3856 25.5304 15.5392 25.9064 15.5392C26.2838 15.5392 26.6521 15.3856 26.9188 15.1201C27.1856 14.8534 27.3379 14.4838 27.3379 14.1077C27.3379 13.7304 27.1856 13.3608 26.9188 13.0953C26.6534 12.8286 26.2838 12.6763 25.9064 12.6763ZM14.0888 19.5002C14.0888 16.5164 16.5162 14.089 19.5 14.089C22.4837 14.089 24.9111 16.5164 24.9111 19.5002C24.9111 22.4838 22.4837 24.9111 19.5 24.9111C16.5162 24.9111 14.0888 22.4838 14.0888 19.5002ZM15.952 19.5001C15.952 21.4563 17.5437 23.0477 19.5 23.0477C21.4562 23.0477 23.0479 21.4563 23.0479 19.5001C23.0479 17.5437 21.4563 15.9521 19.5 15.9521C17.5436 15.9521 15.952 17.5437 15.952 19.5001Z" fill="#4652F8"/>
</svg>
