<svg width="40" height="40" viewBox="0 0 40 40" fill="none" xmlns="http://www.w3.org/2000/svg">
<rect width="40" height="40" rx="4" fill="#7D7DF8" fill-opacity="0.23"/>
<path d="M14.1415 14.4534C16.3496 12.2073 20.0192 12.2073 22.2273 14.4534C24.213 16.4736 24.5069 19.6939 22.8747 22.0171L22.831 22.0818C22.4219 22.6596 21.6276 22.797 21.0597 22.3808C20.4878 21.9646 20.3528 21.1565 20.7619 20.5787L20.8055 20.5141C21.715 19.2171 21.572 17.4433 20.464 16.316C19.217 15.0473 17.1876 15.0473 15.9366 16.316L11.4806 20.8535C10.2292 22.0899 10.2292 24.1869 11.4806 25.4596C12.5847 26.5869 14.3321 26.7324 15.603 25.8071L15.6665 25.7263C16.2384 25.3465 17.0327 25.4798 17.4378 26.0617C17.8468 26.6435 17.7158 27.4516 17.1439 27.8678L17.0803 27.9122C14.761 29.5728 11.6673 29.3062 9.68197 27.29C7.43934 25.0071 7.43934 21.306 9.68197 19.0272L14.1415 14.4534ZM25.8572 24.5101C23.6133 26.793 19.9795 26.793 17.7356 24.5101C15.7499 22.4899 15.4918 19.306 17.124 16.9827L17.1677 16.9181C17.541 16.3403 18.3353 16.2029 18.939 16.6191C19.5109 16.9989 19.6459 17.807 19.2368 18.4211L19.1931 18.4858C18.2837 19.7464 18.4267 21.5565 19.5347 22.6838C20.7817 23.9525 22.8111 23.9525 24.0621 22.6838L28.5181 18.1464C29.7691 16.8736 29.7691 14.7766 28.5181 13.5402C27.414 12.4141 25.6666 12.2671 24.3957 13.1927L24.3322 13.2372C23.7603 13.6534 22.966 13.4837 22.5609 12.9374C22.1519 12.3564 22.2829 11.5487 22.8548 11.1337L22.9183 11.0885C25.2019 9.42828 28.3314 9.69168 30.3171 11.7115C32.561 13.9928 32.561 17.6938 30.3171 19.9727L25.8572 24.5101Z" fill="#4652F8"/>
</svg>
